<?xml version="1.0" encoding="utf-8"?>
<!-- Generator: Adobe Illustrator 25.4.1, SVG Export Plug-In . SVG Version: 6.00 Build 0)  -->
<svg version="1.1" id="Layer_1" xmlns="http://www.w3.org/2000/svg" xmlns:xlink="http://www.w3.org/1999/xlink" x="0px" y="0px"
	 viewBox="0 0 227 68" style="enable-background:new 0 0 227 68;" xml:space="preserve">
<style type="text/css">
	.st0{fill:#FFFFFF;}
	.st1{fill:#091B33;}
	.st2{fill:#46AE74;}
</style>
<g>
	<path class="st0" d="M193.6,46.2c0.1-0.2,0.2-0.4,0.2-0.6c0-0.1,0-0.2,0.1-0.2l0,0c0-0.1,0.1-0.4,0.1-0.7c0-0.6-0.1-1.1-0.4-1.7
		c0,0,0,0,0,0c-0.2-0.5-0.6-0.9-1-1.3c-0.4-0.3-0.9-0.6-1.4-0.8c-0.4-0.2-0.9-0.2-1.4-0.2c-0.4,0-0.7,0-1.1,0.1
		c-0.2,0.1-0.5,0.1-0.7,0.2c-0.2-0.1-0.3-0.2-0.5-0.2c0,0,0,0,0,0c0-0.2,0-0.5,0.1-0.7c0-0.2,0-0.4,0-0.6c0-0.2,0-0.5,0.1-0.7
		c0,0,0-0.2,0-0.2c0.1-1-0.4-1.9-1.2-2.5c0,0-0.1-0.1-0.1-0.1c-0.6-0.4-1.3-0.7-2.1-0.7c-0.3,0-0.5,0-0.8,0.1
		c-0.4,0.1-0.8,0.3-1.2,0.5c-0.4,0.3-0.7,0.6-1,1.1c-0.3,0.5-0.4,1-0.4,1.5c0,0.3,0,0.7,0,1.1c0,0.4,0,0.7,0,1.1l-0.1,0
		c-0.1,0-0.2,0-0.4,0.1c-0.1-0.1-0.3-0.1-0.4-0.2c0-0.1,0-0.3,0-0.4c0,0,0-0.2,0-0.2c0.1-1-0.5-2-1.4-2.6l-0.1-0.1
		c-0.3-0.2-0.5-0.2-0.6-0.3c-0.1,0-0.2-0.1-0.2-0.1c-0.3-0.1-0.7-0.2-1-0.2c-0.4,0-0.8,0.1-1.1,0.2c-0.3,0.1-0.6,0.3-0.9,0.5
		c0,0,0,0-0.1,0c0,0,0,0-0.1,0c-0.1,0-0.1-0.1-0.2-0.1c-0.3-0.2-0.6-0.3-1-0.4c0.2-0.7,0.5-1.5,0.8-2.3c0,0,0.1-0.1,0.1-0.2
		c0.3,0.1,0.7,0.2,1.1,0.2h0.8c0.7,0,1.4-0.3,2-0.8l0.2-0.2c0.7-0.7,1.2-1.6,1.5-2.5c0.3-0.8,0.4-1.6,0.4-2.4c0-0.8-0.1-1.5-0.3-2.2
		c-0.2-0.7-0.6-1.4-1-1.9c-0.5-0.6-1.1-1.1-1.8-1.5c-0.7-0.4-1.6-0.6-2.4-0.6c-1.5,0-3,0.6-4.2,1.7c-0.3-0.3-0.6-0.6-1-0.8
		c-0.7-0.4-1.5-0.6-2.5-0.6c-0.9,0-1.8,0.3-2.7,0.6c-0.9,0.3-1.9,0.7-3.4,1.5c0,0-0.1,0-0.1,0.1l0,0c-0.3-0.2-0.5-0.5-0.8-0.7
		c0,0,0,0,0,0c-1.4-1-3-1.6-4.7-1.6c-1.4,0-2.8,0.3-4,1c-0.8,0.4-1.6,1-2.3,1.7c-0.2-0.5-0.6-0.9-1.1-1.2c-0.4-0.3-0.9-0.4-1.4-0.4
		c-0.2,0-0.5,0-0.7,0.1c0,0-0.8,0.2-0.9,0.2c0,0-0.1,0-0.2,0c0.1-0.7,0.1-1.3,0.2-2l0-0.3c0.2-1.9,0.4-3.8,0.8-5.9c0,0,0,0,0-0.1
		l0.1-0.5c0.1-0.9-0.2-1.9-1-2.5l-0.4-0.3c0,0-0.1-0.1-0.1-0.1c-0.3-0.2-0.8-0.6-1.5-0.8c-0.8-0.3-1.4-0.3-1.9-0.3
		c-0.5,0-0.9,0.1-1.3,0.2c-0.4,0.1-0.7,0.2-1.1,0.4c-0.2,0.1-0.4,0.2-0.6,0.3l-0.1,0.1c-0.2,0.1-0.4,0.3-0.5,0.5
		c-0.3,0.3-0.5,0.6-0.7,1c-0.3,0.6-0.6,1.3-0.6,2l-0.1,0.6c-0.2,1.4-0.4,2.9-0.5,4.6c-0.1,1.2-0.2,2.3-0.3,3.6
		c-0.2,0.1-0.4,0.2-0.6,0.3c-0.3,0.2-0.6,0.4-0.9,0.6c-0.6-0.9-1.5-1.6-2.4-2.1c-1.1-0.6-2.3-0.8-3.7-0.8c-0.8,0-1.6,0.1-2.2,0.3
		c0,0-0.1,0-0.1,0c-0.5,0.1-1.3,0.4-2.1,0.8c-0.8,0.4-1.4,0.8-2,1.3c-0.4,0.3-0.7,0.6-1,0.9c-0.2-0.3-0.4-0.6-0.7-0.9
		c0,0,0,0-0.1-0.1c-0.7-0.7-1.6-1.3-2.5-1.7c-0.9-0.4-1.9-0.6-2.9-0.6c-1.3,0-2.6,0.3-3.9,0.9c0,0,0,0,0,0c-0.7,0.3-1.3,0.8-2,1.3
		c0-0.1-0.1-0.1-0.1-0.2c-0.5-0.6-1.1-1.1-1.8-1.5c-0.5-0.2-1-0.4-1.5-0.5c-0.1-0.2-0.1-0.4-0.2-0.5c0.2-0.5,0.3-1.1,0.3-1.7
		c0-0.5-0.1-1-0.3-1.5c-0.2-0.5-0.4-0.9-0.8-1.2c0,0,0,0-0.1-0.1c-0.4-0.4-0.8-0.7-1.3-0.8c-0.5-0.2-0.9-0.3-1.4-0.3
		c-0.6,0-1.2,0.1-1.7,0.4c0,0,0,0,0,0c0,0,0,0,0,0c0,0-0.1,0-0.1,0c0,0,0-0.1,0-0.1c0-0.4,0.1-0.8,0.1-1.2c0,0,0-0.2,0-0.2
		c0.1-1-0.4-1.9-1.2-2.5l-0.1-0.1c-0.6-0.4-1.3-0.6-2-0.6c-0.3,0-0.5,0-0.8,0.1c-0.4,0.1-0.8,0.3-1.2,0.5c-0.3,0.2-0.6,0.5-0.8,0.9
		c-0.2,0-0.3,0-0.3,0c-0.1,0-0.1,0-0.2,0l-0.4,0c-0.1,0-0.4,0-0.4,0c-0.1,0-0.3,0-0.4,0c-0.6,0-1.2,0.1-1.7,0.4
		c-0.5,0.3-0.9,0.6-1.2,1.1c-0.3-0.2-0.7-0.4-1.1-0.5c-1-0.4-2.2-0.8-3.5-1.1c0,0,0,0,0,0c-1.3-0.3-2.8-0.4-4.4-0.4
		c-2.2,0-4.4,0.3-6.3,1c-1.3,0.4-2.5,1-3.6,1.7c-0.1-0.2-0.2-0.4-0.3-0.5c-0.1-0.2-0.2-0.4-0.3-0.6c-0.5-0.9-1.1-1.9-1.9-2.8
		c-1.5-1.7-3.4-2.8-5.8-3.4c-0.2,0-0.4-0.1-0.6-0.1c-0.5,0-1,0.1-1.5,0.4c0,0-0.1,0-0.1,0c-0.6,0.3-2.1,1.1-2.2,2.9
		c0,0.5,0,1.1,0.2,1.7c-0.7-0.4-1.5-0.6-2.3-0.6c-0.2,0-0.4,0-0.6,0c-1.4,0.2-2.6,1-3.2,2.2c-0.6,1.2-0.5,2.6,0.3,3.8
		c0.3,0.5,0.7,0.9,1,1.2c0.1,0.1,0.2,0.2,0.3,0.3c0.2,0.2,0.2,0.6-0.1,0.8c0,0,0,0,0,0c-0.1,0-0.3-0.1-0.6-0.3
		c-2.1-1.3-4.1-2.5-6.1-3.5c-0.6-0.3-1.3-0.5-2-0.5c-1.3,0-2.5,0.6-3.3,1.6c-0.8,1-1.1,2.4-0.7,3.7c0.4,1.5,1.6,2.6,2.7,3.1
		c0.8,0.3,1.5,0.6,2.3,0.8c0.5,0.2,1,0.3,1.4,0.5l0.3,0.1c0.7,0.3,1.4,0.5,1.8,0.8c-0.2,0.1-0.5,0.2-0.7,0.3c-1.9,0.9-2.3,2.3-2.4,3
		c-0.1,0.7,0,2.2,1.7,3.4c-1.3,1.7-1.3,3.8,0.2,5.5c0.3,0.3,0.5,0.6,0.8,0.9c0.1,0.1,0.1,0.1,0.2,0.2c-0.1,0.1-0.3,0.3-0.7,0.4
		c-2.1,1-4.3,1.4-6.9,1.4c-0.4,0-0.7,0-1.1,0c-0.1,0-0.3,0-0.4,0c-0.9,0-1.8,0.2-2.6,0.4c-1.8,0.6-2.9,2.4-2.7,4.3
		c0.2,1.8,1.4,3.2,3.2,3.7c0.4,0.1,1,0.2,1.6,0.2c0.3,0,0.5,0,0.8-0.1c2.1-0.3,3.8-0.7,5.4-1c1.6-0.3,2.8-0.5,3.9-0.5
		c1.4,0,2.6,0.3,3.8,0.8c1.6,0.8,3.5,0.9,4.7,0.9c1,0,2,0,2.8,0c0,0,0.1,0,0.1,0c1.7,1.1,3.6,2,5.6,2.6c0.5,0.2,1,0.3,1.5,0.4
		c0.1,0.3,0.2,0.6,0.4,0.9c0.6,1.3,1.4,2.2,2.3,2.9c0.9,0.6,1.9,0.7,2.5,0.7c0,0,0,0,0,0c0.5,0,1.2-0.1,1.9-0.4
		c1.3-0.5,2.2-1.6,2.6-2.9c0,0,0.1,0,0.1,0c1.2,0,2.4-0.1,3.7-0.4c1.3-0.2,2.6-0.7,3.9-1.3c1.2-0.6,2.4-1.3,3.6-2.1
		c1-0.7,1.9-1.6,2.8-2.5l0,0.1c-0.1,1.5,1,2.8,2.5,3l1.1,0.1c0.1,0,0.2,0,0.2,0c0.2,0,0.3,0,0.5,0l3.1-0.5c1.3-0.2,2.2-1.3,2.3-2.6
		l0-0.6c0-0.4,0.1-1,0.1-1.6c0-0.2,0-0.4,0.1-0.7l0-0.3c0.1-0.8,0.2-1.7,0.4-2.6c0.2-1.1,0.4-2.2,0.6-3.3c0.2-1,0.5-2,0.7-3.1
		c0,0,0-0.1,0-0.1c-0.1,0.9-0.1,1.7-0.1,2.6c0,1.7,0.2,3.3,0.6,4.7c0.4,1.6,1,2.9,1.7,4.1c0.8,1.3,1.8,2.4,3,3.1c0,0,0,0,0,0
		c1.4,0.9,2.8,1.3,4.4,1.3c0.9,0,1.8-0.2,2.8-0.5c0.9-0.3,1.7-0.8,2.6-1.4c0.3-0.2,0.6-0.4,0.8-0.7c0.5,0.7,1.2,1.2,1.9,1.7
		c0,0,0,0,0.1,0c1,0.5,2.1,0.8,3.2,0.8c1.4,0,2.7-0.4,3.9-1.3c0,0,0,0,0,0c0.3-0.2,0.5-0.4,0.8-0.7c0.4,0.4,0.9,0.8,1.4,1.1
		c0.9,0.5,2,0.8,3.1,0.8c1.3,0,2.6-0.4,3.7-1.1c0.3-0.2,0.5-0.3,0.8-0.5c0.3,0.4,0.7,0.7,1.2,0.9c1,0.6,2.1,0.9,3.2,0.9
		c0.7,0,1.5-0.1,2.3-0.4c0.7-0.2,1.3-0.5,2-0.9c0.6-0.3,1.2-0.7,1.7-1.1c0,0,0,0,0.1,0c0.1-0.1,0.1-0.1,0.2-0.2
		c0.3,0.3,0.7,0.7,1.1,0.9c0,0,0,0,0,0c1.4,1,3,1.6,4.7,1.6c1.4,0,2.8-0.3,4-1c1.1-0.6,2.1-1.4,3-2.4c0.6-0.7,1.1-1.4,1.5-2.1
		c0,0.4,0,0.8-0.1,1.2l-0.1,0.8c-0.1,1.5,1,2.8,2.5,3l1.1,0.1c0.1,0,0.2,0,0.2,0c0.1,0,0.3,0,0.4,0l3.1-0.5c0.4-0.1,0.7-0.2,1-0.4
		c0.4,0.3,0.9,0.6,1.4,0.6l0.3,0c0.1,0,0.3,0,0.4,0c0.2,0,0.3,0,0.5,0l0.9-0.2c0.4-0.1,0.8-0.2,1.1-0.5c0.1,0,0.1,0.1,0.2,0.1
		c0,0,0,0,0,0c0.6,0.4,1.3,0.6,2,0.6c0.3,0,0.6,0,0.7-0.1c0.1,0,0.1,0,0.2,0c0.2,0,0.3-0.1,0.5-0.1c0.4,0.2,0.9,0.3,1.4,0.3
		c0.5,0,1-0.1,1.4-0.3c0.4,0.2,0.9,0.3,1.3,0.3c0.2,0,0.4,0,0.6,0c0.3,0.1,0.5,0.1,0.8,0.1c0.3,0,0.5,0,0.8-0.1
		c0.3,0.1,0.6,0.1,0.9,0.1c0.6,0,1.2-0.1,1.7-0.4c0.1,0,0.2-0.1,0.3-0.2c0.1,0.1,0.3,0.1,0.4,0.2c0.3,0.1,0.6,0.2,0.8,0.3
		c0.3,0.1,0.6,0.1,0.9,0.1c0.6,0,1.2-0.1,1.7-0.3c0.6-0.2,1.1-0.6,1.5-1c0.4-0.4,0.7-0.9,1-1.5c0,0,0,0,0,0c0.2-0.6,0.4-1.2,0.4-1.9
		c0-0.6-0.1-1.2-0.3-1.7C193.6,46.3,193.6,46.3,193.6,46.2z"/>
	<g>
		<g>
			<path class="st1" d="M98.5,23.9c-0.1,0.1-0.2,0.1-0.2,0.1c-0.1,0-0.1,0-0.2,0c0,0-0.1,0-0.1,0c0,0,0,0,0,0c0,0,0-0.1,0-0.2
				c0-0.1,0-0.2,0-0.4c0-0.1,0-0.2,0-0.3c0-0.1,0-0.3,0-0.4s0-0.3,0-0.5c0-0.2,0-0.3,0-0.4c0-0.1,0-0.3,0-0.4c0-0.1,0-0.2,0-0.3
				c0-0.2,0-0.4-0.1-0.6c0-0.2-0.1-0.3-0.2-0.4c-0.1-0.1-0.2-0.2-0.3-0.3c-0.1-0.1-0.2-0.1-0.3-0.1c-0.2,0-0.4,0.1-0.5,0.2
				c-0.2,0.1-0.3,0.3-0.5,0.6c-0.2,0.3-0.3,0.6-0.4,1l0,0c0-0.1,0-0.1,0-0.2c0-0.3,0-0.5,0-0.8c0-0.2,0-0.5,0-0.8
				c0-0.3,0-0.5,0.1-0.8c0-0.3,0-0.6,0.1-0.9c0-0.3,0.1-0.7,0.1-1.1c0-0.4,0.1-0.8,0.1-1.3l0-0.1L96,15.5c-0.1-0.1-0.3-0.1-0.4-0.1
				c-0.1,0-0.1,0-0.2,0s-0.1,0-0.2,0.1c-0.1,0-0.1,0.1-0.1,0.2c0,0.1-0.1,0.1-0.1,0.2l0,0c0,0.3,0,0.7,0,1.1s0,0.8,0,1.2
				c0,0.4,0,0.8,0,1.2c0,0.4,0,0.8,0,1.2c0,0.4,0,0.8,0,1.2c0,0.4,0,0.8,0,1.1c0,0.4,0,0.7,0,1c0,0.3,0,0.6,0,0.9l0,0.2l0.2,0
				l0.7-0.1l0-0.1c0-0.3,0-0.6,0.1-1c0.1-0.3,0.1-0.6,0.2-0.9c0.1-0.3,0.2-0.6,0.3-0.8c0.1-0.3,0.2-0.5,0.3-0.7
				c0.1-0.2,0.2-0.3,0.3-0.4c0.1-0.1,0.2-0.1,0.2-0.1c0,0,0,0,0.1,0c0,0,0,0,0.1,0.1c0,0.1,0.1,0.2,0.1,0.5c0,0.1,0,0.2,0,0.4
				c0,0.2,0,0.4,0,0.6c0,0.2,0,0.4,0,0.6c0,0.2,0,0.4,0,0.7c0,0.2,0,0.3,0,0.5c0,0.2,0,0.3,0.1,0.4c0,0.1,0.1,0.2,0.1,0.3
				c0.1,0.1,0.2,0.2,0.3,0.2c0.1,0,0.2,0,0.3-0.1c0.1,0,0.2-0.1,0.3-0.1s0.2-0.1,0.3-0.2c0.1-0.1,0.2-0.1,0.2-0.2l0.1-0.1l-0.1-0.5
				L98.5,23.9z"/>
			<path class="st1" d="M101,21.9c0.2-0.1,0.4-0.3,0.5-0.5s0.2-0.4,0.2-0.7c0-0.2,0-0.3-0.1-0.5c-0.1-0.1-0.1-0.3-0.2-0.4
				c-0.1-0.1-0.2-0.2-0.3-0.2c-0.1-0.1-0.3-0.1-0.4-0.1c-0.2,0-0.4,0-0.6,0.1c-0.2,0.1-0.3,0.2-0.5,0.4c-0.1,0.2-0.3,0.3-0.4,0.5
				c-0.1,0.2-0.2,0.4-0.3,0.6c-0.1,0.2-0.1,0.5-0.2,0.7c0,0.3-0.1,0.5-0.1,0.7c0,0.3,0,0.6,0.1,0.9c0.1,0.3,0.2,0.5,0.3,0.7
				c0.1,0.2,0.3,0.4,0.5,0.5c0.2,0.1,0.4,0.2,0.6,0.2c0.1,0,0.3,0,0.4-0.1c0.1,0,0.3-0.1,0.4-0.2c0.1-0.1,0.2-0.2,0.4-0.3
				s0.2-0.3,0.3-0.5l0,0l0,0l0,0l0,0c0,0,0-0.1,0-0.1c0-0.1,0-0.1,0-0.1l0,0c0,0,0-0.1-0.1-0.1l0,0c0,0,0,0-0.1-0.1l0,0c0,0,0,0,0,0
				l-0.1-0.1l-0.1,0.1c-0.2,0.2-0.3,0.4-0.4,0.4l0.1,0.1l-0.1-0.1c-0.1,0.1-0.3,0.1-0.4,0.1s-0.2,0-0.3-0.1
				c-0.1-0.1-0.2-0.2-0.3-0.3c-0.1-0.2-0.2-0.3-0.2-0.6c0-0.2-0.1-0.4-0.1-0.7c0.3,0,0.5-0.1,0.7-0.1
				C100.5,22.2,100.8,22.1,101,21.9z M99.6,21.8c0-0.1,0-0.1,0-0.2c0-0.1,0.1-0.3,0.1-0.4c0-0.1,0.1-0.2,0.1-0.3
				c0-0.1,0.1-0.2,0.2-0.3c0.1-0.1,0.1-0.1,0.2-0.2c0.1,0,0.1-0.1,0.2-0.1c0,0,0.1,0,0.1,0c0,0,0.1,0.1,0.1,0.1l0,0
				c0,0,0.1,0.1,0.1,0.2c0,0.1,0,0.2,0,0.2c0,0.1,0,0.2-0.1,0.3l0,0c-0.1,0.1-0.1,0.2-0.2,0.3c-0.1,0.1-0.2,0.1-0.4,0.2
				C99.9,21.7,99.7,21.7,99.6,21.8z"/>
			<path class="st1" d="M94.8,16.9l0-0.2l-0.2,0c-0.1,0-0.1,0-0.2,0c-0.1,0-0.1,0-0.2,0c-0.1,0-0.2,0-0.3,0c-0.1,0-0.2,0-0.3,0
				c-0.1,0-0.3,0-0.4,0c-0.2,0-0.4,0-0.6,0c-0.1,0-0.3,0-0.4,0c-0.1,0-0.3,0-0.4,0c-0.1,0-0.3,0-0.4,0c-0.1,0-0.2,0-0.3,0
				c-0.2,0-0.3,0-0.4,0.1c-0.1,0.1-0.2,0.2-0.3,0.3c-0.1,0.1-0.1,0.3-0.1,0.4c0,0.2,0,0.4,0,0.6c0,0.2,0,0.5,0,0.7v0.2l0.6,0v-0.3
				c0-0.2,0-0.4,0-0.6c0-0.2,0-0.3,0.1-0.4s0.1-0.1,0.1-0.2c0,0,0.1-0.1,0.1-0.1c0.1,0,0.1,0,0.2,0c0.1,0,0.2,0,0.3,0
				c0.1,0,0.2,0,0.3,0c0,0,0.1,0,0.1,0c0,0.4,0,0.8,0,1.2c0,0.4,0,0.8,0,1.2c0,0.4,0,0.8,0,1.2c0,0.4,0,0.8,0,1.1c0,0.4,0,0.8,0,1.2
				c0,0.4,0,0.8,0,1.2l0,0.2l0.2,0l0.7-0.1v-0.1c0-0.4,0-0.8,0-1.2c0-0.4,0-0.8,0-1.2s0-0.8,0-1.3c0-0.4,0-0.8,0-1.2s0-0.8,0-1.2
				c0-0.3,0-0.6,0-0.9c0.2,0,0.4,0,0.6,0.1c0.2,0,0.4,0,0.6,0c0.2,0,0.4,0,0.5-0.2c0.1-0.1,0.2-0.3,0.2-0.5
				C94.9,17.1,94.8,17,94.8,16.9z"/>
		</g>
		<g>
			<g>
				<path class="st1" d="M90,42.3L90,42.3L90,42.3z"/>
				<path class="st1" d="M105,32c0.4-0.4,0.7-0.9,0.9-1.4c0.2-0.5,0.3-1,0.3-1.6c0-0.4-0.1-0.9-0.2-1.2l0,0c-0.1-0.4-0.3-0.7-0.5-1
					c-0.2-0.3-0.5-0.5-0.9-0.7c-0.4-0.2-0.8-0.3-1.2-0.3c-1.1,0-2,0.5-2.8,1.4c-0.8,0.8-1.4,1.9-2,3.3c-0.3,0.7-0.5,1.4-0.8,2.1
					c0-0.5,0.1-0.9,0.1-1.3l0,0c0-0.5,0.1-1,0.1-1.4c0-0.4,0-0.5,0-0.7c0-0.9-0.1-1.6-0.4-2.2c-0.2-0.3-0.4-0.6-0.7-0.8
					s-0.7-0.2-1-0.2c-0.5,0-1,0.2-1.8,0.4C93,26.6,92,27,90.7,27.6l-0.5,0.3l0.4,2.6l0.9-0.3c0.3-0.1,0.5-0.2,0.7-0.2
					c0.2-0.1,0.4-0.1,0.5-0.2c0.2,0,0.3-0.1,0.4-0.1c0.1,0,0.2,0,0.3,0c0.1,0,0.2,0,0.2,0h0c0,0,0,0,0,0l0,0c0,0.1,0.1,0.2,0.1,0.5
					l0,0c0,0.2,0,0.5,0,0.9c0,0.5,0,1.1,0,1.9c0,0.8,0,1.7-0.1,2.7c0,1-0.1,2.1-0.1,3.3c0,1.2-0.1,2.3-0.1,3.5
					c0,1.2-0.1,2.4-0.2,3.5c-0.1,1.2-0.1,2.2-0.2,3.2L93,50.1l1.1,0.1l3.1-0.5l0-0.6c0-0.6,0.1-1.5,0.2-2.4c0.1-1,0.2-2,0.4-3.1
					c0.2-1.1,0.4-2.3,0.6-3.4c0.2-1.2,0.5-2.3,0.8-3.3c0.3-1,0.6-2,1-2.8c0.3-0.8,0.7-1.5,1.1-1.9l0,0c0.2-0.3,0.4-0.4,0.6-0.5
					c0.2-0.1,0.4-0.2,0.6-0.2c0.2,0,0.3,0,0.5,0.1c0.2,0.1,0.4,0.3,0.7,0.6l0.2,0.3h0.8L105,32z"/>
				<path class="st1" d="M115.3,36.5c1-0.6,1.7-1.3,2.3-2.3c0.6-0.9,0.9-2,0.9-3.2c0-0.8-0.1-1.6-0.4-2.2c-0.2-0.6-0.6-1.2-1.1-1.7
					c-0.5-0.5-1-0.8-1.6-1.1s-1.2-0.4-1.9-0.4c-0.9,0-1.9,0.2-2.7,0.6c-0.8,0.4-1.6,1-2.2,1.6c-0.7,0.7-1.2,1.5-1.8,2.4
					c-0.5,0.9-0.9,1.9-1.3,2.9c-0.3,1-0.6,2.1-0.8,3.3c-0.2,1.2-0.3,2.3-0.3,3.4c0,1.4,0.2,2.7,0.5,4c0.3,1.2,0.8,2.3,1.4,3.3
					c0.6,0.9,1.3,1.7,2.2,2.3c0.9,0.6,1.9,0.9,2.9,0.9c0.6,0,1.2-0.1,1.9-0.3c0.6-0.2,1.2-0.5,1.8-1c0.6-0.4,1.1-1,1.6-1.6
					c0.5-0.6,1-1.4,1.4-2.2l0,0l0,0l0,0l0,0c0.1-0.2,0.1-0.3,0.1-0.5c0-0.2-0.1-0.5-0.2-0.6l0,0c-0.1-0.1-0.2-0.2-0.2-0.3l0,0
					c-0.1-0.1-0.2-0.2-0.3-0.3l0,0c-0.1-0.1-0.2-0.1-0.2-0.2l-0.6-0.5l-0.5,0.6c-0.7,1-1.3,1.6-1.9,2l0.4,0.7l-0.4-0.7
					c-0.6,0.4-1.2,0.5-1.6,0.5c-0.5,0-0.9-0.2-1.4-0.5c-0.5-0.4-0.9-0.9-1.3-1.6c-0.4-0.7-0.7-1.6-0.9-2.6c-0.2-0.9-0.3-1.9-0.3-3
					c1.2-0.2,2.3-0.4,3.3-0.7C113.3,37.6,114.4,37.1,115.3,36.5z M108.9,35.6c0-0.3,0.1-0.5,0.1-0.8c0.1-0.6,0.2-1.2,0.4-1.8
					c0.2-0.6,0.3-1.1,0.6-1.6c0.2-0.5,0.5-0.9,0.7-1.2c0.3-0.3,0.5-0.6,0.9-0.8c0.3-0.2,0.5-0.2,0.9-0.2c0.2,0,0.3,0,0.5,0.2
					c0.2,0.1,0.3,0.3,0.5,0.5l0,0c0.2,0.2,0.3,0.5,0.4,0.9c0.1,0.3,0.2,0.7,0.2,1.1c0,0.6-0.1,1.1-0.4,1.5l0,0
					c-0.2,0.4-0.6,0.8-1.1,1.2c-0.5,0.3-1.1,0.6-1.9,0.9C110.2,35.4,109.6,35.5,108.9,35.6z"/>
				<path class="st1" d="M134.9,46.2c-0.6,0.5-1.1,0.7-1.4,0.7c-0.2,0-0.3,0-0.4-0.1c-0.1-0.1-0.3-0.3-0.5-0.6
					c-0.3-0.5-0.5-1.6-0.5-3c0-0.9,0-1.9,0.1-2.8c0-0.9,0.1-1.9,0.2-2.7c0.1-0.9,0.1-1.7,0.2-2.6c0-0.8,0.1-1.6,0.1-2.3
					c0-1-0.1-2-0.2-2.8c-0.2-0.9-0.5-1.6-0.9-2.3c-0.4-0.7-1-1.2-1.7-1.6c-0.7-0.4-1.5-0.5-2.4-0.5c-0.5,0-1,0.1-1.6,0.2
					c-0.5,0.2-1.1,0.3-1.6,0.6c-0.5,0.3-1.1,0.6-1.6,1c-0.5,0.4-1,0.8-1.4,1.3c-0.4,0.5-0.7,1.1-1,1.7c-0.2,0.6-0.4,1.3-0.4,2
					c0,0.4,0.1,0.9,0.2,1.2c0.1,0.4,0.3,0.7,0.5,1c0.2,0.3,0.5,0.5,0.9,0.7s0.7,0.2,1.1,0.2c0.6,0,1.2-0.2,1.7-0.6l0.2-0.2l0.2-0.8
					l-0.2-0.3c-0.2-0.4-0.4-0.9-0.5-1.3s-0.2-0.9-0.2-1.3c0-0.4,0-0.7,0.1-1l0,0c0.1-0.3,0.2-0.5,0.3-0.6c0.2-0.2,0.3-0.3,0.6-0.4
					c0.2-0.1,0.6-0.2,1-0.2c0.3,0,0.5,0.1,0.9,0.2c0.3,0.1,0.5,0.3,0.8,0.6c0.2,0.3,0.5,0.7,0.6,1.2c0.2,0.5,0.2,1.1,0.2,1.9
					c0,0.7,0,1.4-0.1,2c0,0.4-0.1,0.8-0.1,1.2c-0.6,0-1.2,0.1-1.8,0.2c-0.9,0.2-1.6,0.4-2.4,0.7c-0.8,0.3-1.5,0.7-2.1,1.2
					c-0.7,0.5-1.2,1-1.7,1.7c-0.5,0.7-0.9,1.4-1.1,2.2c-0.3,0.8-0.4,1.7-0.4,2.7c0,0.8,0.1,1.5,0.3,2.2c0.2,0.7,0.5,1.2,0.8,1.8
					c0.4,0.5,0.8,0.9,1.3,1.2c0.5,0.3,1.2,0.5,1.8,0.5c0.8,0,1.6-0.3,2.3-0.8c0.6-0.5,1.2-1.1,1.8-1.8c0.4-0.6,0.8-1.2,1.2-1.9
					c0,0.2,0.1,0.5,0.1,0.7c0.2,0.8,0.5,1.4,0.8,1.9c0.4,0.5,0.8,1,1.3,1.3s1.1,0.4,1.7,0.4c0.8,0,1.6-0.2,2.3-0.7
					c0.7-0.4,1.3-1,1.9-1.8l0.3-0.4l-1-2L134.9,46.2z M127.8,40.2c-0.2,0.7-0.4,1.3-0.6,1.9c-0.2,0.6-0.5,1.1-0.8,1.6
					c-0.3,0.5-0.6,0.9-0.9,1.2s-0.6,0.6-0.9,0.8c-0.3,0.2-0.5,0.2-0.6,0.2c-0.2,0-0.2,0-0.3-0.1l0,0c-0.1-0.1-0.2-0.2-0.3-0.4
					c-0.1-0.2-0.2-0.5-0.2-0.8l0,0c-0.1-0.3-0.1-0.7-0.1-1c0-0.6,0.1-1.2,0.2-1.6c0.2-0.5,0.3-0.9,0.6-1.2c0.2-0.3,0.5-0.6,0.9-0.8
					c0.4-0.2,0.8-0.4,1.2-0.6s0.9-0.2,1.4-0.3c0.2,0,0.4-0.1,0.6-0.1C127.9,39.5,127.9,39.8,127.8,40.2z"/>
				<path class="st1" d="M120.5,34.7L120.5,34.7L120.5,34.7z"/>
				<path class="st1" d="M138.8,15.4L138.8,15.4L138.8,15.4z"/>
				<path class="st1" d="M145.7,30.1L145.7,30.1L145.7,30.1z"/>
				<polygon class="st1" points="139.3,14.8 139.4,14.7 139.4,14.7 				"/>
				<path class="st1" d="M146.6,28L146.6,28L146.6,28L146.6,28z"/>
				<path class="st1" d="M146.6,45.4l-0.5-0.6l-0.6,0.4c-0.6,0.4-1.1,0.7-1.6,0.9c-0.4,0.2-0.8,0.2-1.1,0.2c-0.4,0-0.7-0.1-0.9-0.3
					l0,0c-0.2-0.2-0.5-0.5-0.6-1l0,0c-0.2-0.5-0.3-1.2-0.4-2l0,0c-0.1-0.8-0.1-1.8-0.1-2.9c0-0.6,0-1.3,0-2.1c0-0.8,0-1.6,0.1-2.6
					c0-0.9,0.1-1.9,0.1-3c0-0.8,0.1-1.6,0.2-2.4c0.4,0,0.8,0.1,1.2,0.2c0.6,0.1,1.2,0.1,1.8,0.1c0.6,0,1.1-0.1,1.5-0.3
					c0.3-0.2,0.5-0.4,0.7-0.7c0.1-0.3,0.2-0.6,0.2-0.9c0-0.2,0-0.3,0-0.5c0-0.2-0.1-0.3-0.1-0.5l-0.2-0.8l-0.8,0.2
					c-0.3,0.1-0.8,0.2-1.5,0.2c-0.2,0-0.4,0-0.6,0c-0.2,0-0.5,0-0.8,0c-0.3,0-0.6,0-0.9,0c-0.1,0-0.1,0-0.2,0
					c0.1-1.8,0.3-3.5,0.5-5.3c0.2-2.1,0.5-4.1,0.8-6l0.1-0.5l-0.4-0.3c-0.2-0.2-0.5-0.3-0.8-0.4l0,0c-0.3-0.1-0.6-0.2-0.9-0.2
					c-0.2,0-0.5,0-0.7,0.1c-0.3,0.1-0.5,0.2-0.7,0.4l0,0c-0.2,0.2-0.4,0.4-0.5,0.6c-0.2,0.3-0.3,0.6-0.3,0.9l0,0
					c-0.2,1.5-0.4,3.2-0.6,5.1c-0.2,1.7-0.3,3.6-0.5,5.5c-0.2,0-0.5,0.1-0.7,0.2c-0.4,0.1-0.8,0.3-1.2,0.5s-0.6,0.4-0.9,0.7
					c-0.2,0.3-0.4,0.7-0.4,1.1c0,0.2,0,0.3,0.1,0.5l0.3,0.7l0.7-0.2c0.3-0.1,0.7-0.2,1.1-0.2c0.2,0,0.5,0,0.7-0.1
					c-0.1,0.7-0.1,1.4-0.2,2.1c-0.1,1-0.1,2-0.2,3.1l0,0c0,1-0.1,2-0.1,3c0,1,0,2,0,2.9c0,1.7,0.1,3.1,0.3,4.3
					c0.2,1.1,0.4,2.1,0.8,2.8c0.3,0.7,0.8,1.3,1.4,1.7c0.5,0.3,1.2,0.5,1.8,0.5c0.5,0,1-0.1,1.5-0.2s1-0.4,1.5-0.6
					c0.5-0.3,1-0.6,1.5-0.9c0.5-0.4,1-0.8,1.5-1.2l0.3-0.3l0-0.4C147.1,46.3,146.9,45.8,146.6,45.4z"/>
				<path class="st1" d="M160.2,29.1c-0.5-1-1.2-1.8-2.1-2.5c-0.9-0.7-1.9-1-3-1c-1,0-1.9,0.2-2.7,0.7c-0.8,0.4-1.6,1-2.2,1.7
					s-1.2,1.6-1.7,2.5c-0.5,0.9-0.9,1.9-1.2,3c-0.3,1-0.5,2.1-0.7,3.2c-0.2,1.1-0.2,2.2-0.2,3.3c0,1.3,0.1,2.5,0.4,3.7l0,0
					c0.3,1.2,0.7,2.3,1.2,3.3c0.5,1,1.2,1.8,2.1,2.5c0.9,0.7,1.9,1,3,1c1,0,1.9-0.2,2.7-0.7c0.8-0.4,1.6-1,2.2-1.7
					c0.6-0.7,1.2-1.6,1.7-2.5c0.5-0.9,0.9-1.9,1.2-3c0.3-1,0.6-2.1,0.7-3.2c0.2-1.1,0.2-2.2,0.2-3.3c0-1.3-0.1-2.5-0.4-3.7
					C161.1,31.2,160.7,30.1,160.2,29.1z M156.7,43.7c-0.2,0.6-0.4,1.2-0.7,1.7c-0.3,0.5-0.5,0.8-0.9,1.1c-0.3,0.2-0.5,0.3-0.9,0.3
					c-0.4,0-0.7-0.1-1-0.3c-0.3-0.2-0.6-0.5-0.9-0.8c-0.3-0.4-0.5-0.8-0.8-1.3c-0.2-0.5-0.4-1.1-0.6-1.8c-0.2-0.6-0.3-1.3-0.3-2
					c-0.1-0.7-0.1-1.4-0.1-2c0-0.6,0-1.2,0.1-1.9l0,0c0.1-0.7,0.1-1.4,0.2-2.1l0,0c0.1-0.7,0.3-1.4,0.5-2c0.2-0.6,0.4-1.2,0.7-1.7
					c0.3-0.5,0.5-0.8,0.9-1c0.3-0.2,0.6-0.3,0.9-0.3c0.4,0,0.7,0.1,1,0.2c0.3,0.2,0.6,0.5,0.9,0.8c0.3,0.4,0.5,0.8,0.8,1.3
					c0.2,0.5,0.4,1.1,0.6,1.8c0.2,0.6,0.3,1.3,0.3,2s0.1,1.4,0.1,2.1c0,0.6,0,1.2-0.1,1.9c-0.1,0.7-0.1,1.4-0.2,2.1
					C157.1,42.4,156.9,43.1,156.7,43.7z"/>
				<path class="st1" d="M177.1,27.7l-0.1-0.2L177.1,27.7c-0.1-0.4-0.3-0.7-0.5-1c-0.2-0.3-0.5-0.5-0.9-0.7
					c-0.4-0.2-0.8-0.3-1.2-0.3c-1.1,0-2,0.5-2.8,1.4c-0.8,0.8-1.4,1.9-2,3.3c-0.3,0.7-0.5,1.4-0.8,2.1c0-0.5,0.1-0.9,0.1-1.3
					c0-0.5,0.1-1,0.1-1.4l0,0c0-0.4,0-0.5,0-0.7c0-0.9-0.1-1.6-0.4-2.2c-0.2-0.3-0.4-0.6-0.7-0.8c-0.3-0.2-0.7-0.2-1-0.2
					c-0.5,0-1,0.2-1.8,0.4c-0.8,0.3-1.9,0.7-3.1,1.3l-0.5,0.3l0.4,2.6l0.9-0.3c0.3-0.1,0.5-0.2,0.7-0.2c0.2-0.1,0.4-0.1,0.5-0.2
					c0.2,0,0.3-0.1,0.4-0.1c0.1,0,0.2,0,0.3,0c0.1,0,0.2,0,0.2,0h0c0,0,0,0,0,0l0,0c0,0.1,0.1,0.2,0.1,0.5l0,0c0,0.2,0,0.5,0,0.9
					c0,0.5,0,1.1,0,1.9c0,0.8,0,1.7-0.1,2.7c0,1-0.1,2.1-0.1,3.3c0,1.2-0.1,2.3-0.1,3.5c0,1.2-0.1,2.4-0.2,3.5
					c-0.1,1.2-0.1,2.2-0.2,3.2l-0.1,0.8l1.1,0.1l3.1-0.5l0-0.6c0-0.6,0.1-1.5,0.2-2.4c0.1-1,0.2-2,0.4-3.1c0.2-1.1,0.4-2.3,0.6-3.4
					l0,0c0.2-1.2,0.5-2.3,0.8-3.3c0.3-1,0.6-2,1-2.8c0.3-0.8,0.7-1.5,1.1-1.9c0.2-0.3,0.4-0.4,0.6-0.5c0.2-0.1,0.4-0.2,0.6-0.2
					c0.2,0,0.3,0,0.5,0.1c0.2,0.1,0.4,0.3,0.7,0.6l0.2,0.3h0.8l0.2-0.2c0.4-0.4,0.7-0.9,0.9-1.4l0,0c0.2-0.5,0.3-1,0.3-1.6
					C177.3,28.5,177.3,28.1,177.1,27.7z"/>
			</g>
		</g>
		<g>
			<path class="st1" d="M177.7,48.7c-0.1,0.1-0.2,0.1-0.3,0.1c-0.1,0-0.1,0-0.2,0c-0.1,0-0.1,0-0.2,0l0,0c0,0-0.1-0.1-0.1-0.2
				s-0.1-0.3-0.1-0.5l0,0c0-0.2,0-0.4,0-0.7c0-0.4,0-0.9,0-1.3c0-0.4,0-0.8,0-1.2c0-0.4,0-0.8,0-1.2c0-0.4,0-0.8,0-1.2
				s0-0.8,0.1-1.2c0-0.4,0-0.8,0.1-1.3l0-0.1l-0.1-0.1c-0.1,0-0.2-0.1-0.2-0.1c-0.1,0-0.2,0-0.3,0c-0.1,0-0.1,0-0.2,0
				c-0.1,0-0.1,0.1-0.2,0.1c-0.1,0-0.1,0.1-0.2,0.2c0,0.1-0.1,0.2-0.1,0.3l0,0c0,0.4,0,0.8-0.1,1.2c0,0.4,0,0.7,0,1
				c0,0.3,0,0.6,0,0.9c0,0.2,0,0.4,0,0.6c-0.2,0-0.4,0-0.6,0c-0.3,0-0.5,0-0.8,0c-0.3,0-0.5,0-0.8,0c-0.2,0-0.4,0-0.6,0
				c0-0.4,0-0.7,0-1c0-0.3,0-0.7,0-0.9c0-0.3,0-0.5,0-0.7c0-0.2,0-0.3,0-0.4c0-0.2,0-0.3,0-0.5l-0.2,0l0.2,0c0-0.2,0-0.3-0.1-0.4
				c0-0.1-0.1-0.2-0.3-0.3c-0.1-0.1-0.3-0.1-0.4-0.1c-0.2,0-0.3,0-0.6,0.1c-0.2,0.1-0.5,0.1-0.8,0.2l-0.2,0.1l0.1,0.7l0.2,0
				c0.2,0,0.4-0.1,0.5-0.1c0.1,0,0.1,0,0.2,0c0,0,0,0,0,0l0,0c0,0,0,0.1,0,0.1l0,0c0,0.1,0,0.2,0,0.3c0,0.7,0,1.3,0,2
				c0,0.7,0,1.3,0,2c0,0.7,0,1.4,0,2.1c0,0.7,0,1.5-0.1,2.3l0,0.2l0.3,0l0.9-0.2l0.1-4.6c0.2,0,0.4,0,0.6,0c0.3,0,0.5,0,0.8,0
				c0.3,0,0.5,0,0.8,0c0.2,0,0.4,0,0.6,0c0,0.1,0,0.2,0,0.3l0,0c0,0.2,0,0.3,0,0.5c0,0.2,0,0.4,0,0.6l0,0c0,0.2,0,0.4,0,0.6V48
				c0,0.3,0,0.6,0,0.8c0,0.2,0.1,0.4,0.1,0.6l0,0c0.1,0.2,0.2,0.3,0.3,0.4c0.1,0.1,0.3,0.1,0.4,0.1c0.1,0,0.2,0,0.3,0
				c0.1,0,0.2-0.1,0.3-0.1c0.1,0,0.2-0.1,0.4-0.2c0.1-0.1,0.3-0.1,0.4-0.2l0.1-0.1l-0.2-0.8L177.7,48.7z"/>
			<path class="st1" d="M176.1,39.9L176.1,39.9L176.1,39.9z"/>
			<path class="st1" d="M187.5,45.3c0-0.2,0-0.4-0.1-0.5l0,0c0-0.2-0.1-0.3-0.1-0.5l0,0c-0.1-0.2-0.1-0.3-0.2-0.5
				c-0.1-0.1-0.2-0.3-0.3-0.3c-0.1-0.1-0.3-0.1-0.5-0.1c-0.2,0-0.4,0.1-0.7,0.3c-0.2,0.2-0.4,0.4-0.6,0.7c-0.2,0.3-0.4,0.6-0.6,1.1
				c0,0.1-0.1,0.1-0.1,0.2c0,0,0,0,0,0c0-0.5,0-0.9,0.1-1.4c0-0.5,0.1-1,0.1-1.4c0-0.5,0.1-1,0.1-1.4c0-0.5,0.1-1,0.1-1.4
				c0-0.5,0.1-0.9,0.1-1.4l0-0.1l-0.1-0.1c-0.2-0.1-0.3-0.2-0.5-0.2c-0.1,0-0.1,0-0.2,0c-0.1,0-0.1,0-0.2,0.1
				c-0.1,0-0.1,0.1-0.2,0.2c0,0.1-0.1,0.2-0.1,0.3l0,0c0,0.3,0,0.7,0,1.1c0,0.4,0,0.8,0,1.3c0,0.4,0,0.9-0.1,1.4c0,0.5,0,0.9,0,1.4
				s0,0.9,0,1.3s0,0.8,0,1.1v0c0,0.7-0.1,1.4-0.1,2c0,0.2,0,0.5-0.1,0.7l-0.1-0.2l-0.2,0.2c0,0,0,0-0.1,0.1l0,0c0,0,0,0-0.1,0.1
				c0,0-0.1,0-0.1,0c0,0,0,0-0.1,0c0,0,0,0-0.1,0c0,0-0.1-0.1-0.1-0.2c0-0.1-0.1-0.3-0.1-0.6c0-0.3-0.1-0.6-0.1-1.1
				c0-0.2,0-0.5,0-0.8c0-0.3,0-0.6,0-0.9c0-0.3,0-0.6,0-0.9c0-0.3,0-0.6,0-0.8l0-0.2l-0.3,0l-0.8,0.1l0,0.2c0,0.7-0.1,1.3-0.2,1.9
				c-0.1,0.6-0.3,1.1-0.4,1.6c-0.2,0.5-0.3,0.8-0.5,1c-0.1,0.1-0.2,0.2-0.2,0.2c-0.1,0-0.1,0.1-0.1,0.1c0,0-0.1,0-0.1,0
				s-0.1,0-0.1-0.1c-0.1-0.1-0.1-0.3-0.1-0.6c0-0.1,0-0.2,0-0.4l0,0c0-0.2,0-0.3,0-0.5c0-0.2,0-0.4,0-0.6c0-0.2,0-0.4,0-0.7
				c0-0.2,0-0.4,0-0.7c0-0.2,0-0.4,0-0.6c0-0.1,0-0.3,0-0.4l-0.2,0l0.2,0c0-0.1,0-0.2-0.1-0.3l0,0c0-0.1-0.1-0.2-0.2-0.2
				c-0.1-0.1-0.2-0.1-0.3-0.1c-0.1,0-0.1,0-0.2,0c-0.1,0-0.2,0-0.3,0.1c-0.1,0-0.2,0.1-0.4,0.2c-0.1,0.1-0.3,0.1-0.5,0.2l-0.1,0.1
				l0.1,0.7l0.3-0.1c0.1,0,0.2-0.1,0.3-0.1c0.1,0,0.2,0,0.2,0c0,0,0,0,0,0c0,0,0,0,0,0c0,0,0,0.1,0,0.2c0,0.1,0,0.2,0,0.3
				c0,0.3,0,0.6,0,0.9c0,0.3,0,0.6,0,0.9c0,0.3,0,0.6,0,0.8c0,0.3,0,0.5,0,0.7c0,0.3,0,0.6,0.1,0.8l0,0c0.1,0.2,0.1,0.4,0.2,0.6
				c0.1,0.1,0.2,0.3,0.4,0.3c0.1,0.1,0.3,0.1,0.4,0.1c0.2,0,0.4-0.1,0.6-0.2c0.2-0.1,0.4-0.4,0.6-0.7c0.2-0.3,0.3-0.6,0.5-1.1
				c0,0.3,0,0.5,0.1,0.8c0.1,0.3,0.1,0.5,0.2,0.7c0.1,0.2,0.2,0.3,0.4,0.4c0.1,0.1,0.3,0.1,0.4,0.1c0.1,0,0.2,0,0.3-0.1
				c0.1,0,0.2-0.1,0.3-0.1c0.1-0.1,0.2-0.1,0.3-0.2l0,0c0,0,0,0.1,0,0.1l0,0.2l0.5,0.2l0.1-0.1c0.1-0.1,0.1-0.2,0.2-0.4
				c0-0.1,0.1-0.1,0.1-0.2c0,0,0,0.1,0.1,0.1l0,0l0,0l0,0c0.1,0.1,0.2,0.3,0.4,0.3c0.1,0.1,0.3,0.2,0.4,0.2s0.3,0.1,0.4,0.1
				c0.2,0,0.4,0,0.6-0.1s0.4-0.2,0.6-0.4c0.2-0.2,0.3-0.4,0.5-0.6c0.2-0.2,0.3-0.5,0.4-0.8c0.1-0.3,0.2-0.6,0.3-1
				c0.1-0.4,0.1-0.8,0.1-1.2C187.5,45.7,187.5,45.5,187.5,45.3L187.5,45.3z M182.6,48.9L182.6,48.9L182.6,48.9L182.6,48.9z
				 M184.4,47.9L184.4,47.9c0-0.1,0.1-0.3,0.1-0.5c0-0.2,0.1-0.4,0.2-0.6c0.1-0.2,0.1-0.4,0.2-0.6c0.1-0.2,0.2-0.4,0.3-0.6
				c0.1-0.2,0.2-0.3,0.3-0.5c0.1-0.1,0.2-0.2,0.3-0.3c0.1-0.1,0.2-0.1,0.2-0.1c0,0,0,0,0.1,0.1c0.1,0.1,0.1,0.2,0.1,0.3
				s0.1,0.3,0.1,0.5c0,0.2,0,0.4,0,0.6c0,0.5,0,0.9-0.1,1.3l0.2,0l-0.2,0c-0.1,0.4-0.2,0.7-0.3,0.9s-0.3,0.4-0.4,0.5
				c-0.1,0.1-0.3,0.2-0.4,0.2c-0.1,0-0.2,0-0.3-0.1s-0.2-0.1-0.2-0.2l0,0c-0.1-0.1-0.1-0.2-0.2-0.3l0,0c0-0.1-0.1-0.3-0.1-0.4
				C184.3,48.1,184.3,48,184.4,47.9z"/>
			<path class="st1" d="M190.7,46.8c-0.1-0.1-0.3-0.3-0.4-0.4c-0.2-0.1-0.3-0.2-0.5-0.3l0,0c-0.1-0.1-0.3-0.2-0.4-0.3
				c-0.1-0.1-0.2-0.2-0.3-0.3c-0.1-0.1-0.1-0.2-0.2-0.3l0,0c0-0.1-0.1-0.2-0.1-0.3c0-0.1,0-0.2,0-0.3l0,0c0-0.1,0.1-0.2,0.1-0.2
				c0.1-0.1,0.1-0.1,0.2-0.2c0.1,0,0.2-0.1,0.3-0.1c0.1,0,0.1,0,0.2,0c0.1,0,0.1,0,0.2,0.1c0,0,0.1,0.1,0.1,0.1c0,0,0,0.1,0,0.2
				c0,0,0,0.1,0,0.2c0,0.1,0,0.1,0,0.2l0,0.1l0,0.2l0.1,0c0.1,0,0.2,0.1,0.3,0.1l0,0l0,0c0.1,0,0.2,0,0.3-0.1
				c0.1-0.1,0.2-0.1,0.2-0.2c0-0.1,0.1-0.2,0.1-0.3l0,0c0-0.1,0-0.2,0-0.3c0-0.2,0-0.4-0.1-0.5c-0.1-0.2-0.2-0.3-0.3-0.4
				s-0.3-0.2-0.4-0.3c-0.2-0.1-0.3-0.1-0.5-0.1c-0.1,0-0.3,0-0.4,0.1c-0.1,0-0.3,0.1-0.4,0.2c-0.1,0.1-0.3,0.2-0.4,0.3
				s-0.2,0.2-0.3,0.4c-0.1,0.1-0.2,0.3-0.2,0.5c-0.1,0.2-0.1,0.4-0.1,0.6c0,0.2,0,0.4,0.1,0.5c0,0.2,0.1,0.3,0.2,0.4
				c0.1,0.1,0.2,0.3,0.3,0.4c0.1,0.1,0.2,0.2,0.3,0.3s0.2,0.2,0.3,0.2c0.1,0.1,0.2,0.1,0.3,0.2l0,0c0.1,0.1,0.2,0.2,0.3,0.2
				c0.1,0.1,0.2,0.1,0.3,0.2c0.1,0.1,0.1,0.2,0.2,0.2c0,0.1,0.1,0.2,0.1,0.3c0,0.1,0,0.2-0.1,0.3c0,0.1-0.1,0.2-0.1,0.2
				c-0.1,0.1-0.1,0.1-0.2,0.1c-0.1,0-0.2,0-0.2,0c-0.1,0-0.2,0-0.3-0.1c-0.1,0-0.2-0.1-0.3-0.2l0,0c-0.1-0.1-0.1-0.2-0.2-0.3l0,0
				c-0.1-0.1-0.1-0.3-0.1-0.5l0-0.1l-0.1-0.2l-0.1,0c-0.1,0-0.2,0-0.3,0c-0.1,0-0.2,0.1-0.3,0.1l0,0c-0.1,0.1-0.1,0.2-0.2,0.3
				s-0.1,0.2-0.1,0.4c0,0.1,0,0.3,0.1,0.4l0,0c0,0.1,0.1,0.2,0.2,0.3c0.1,0.1,0.2,0.2,0.3,0.3c0.1,0.1,0.2,0.1,0.3,0.2
				s0.2,0.1,0.4,0.1c0.1,0,0.3,0,0.4,0c0.2,0,0.5,0,0.7-0.1c0.2-0.1,0.4-0.2,0.6-0.4c0.2-0.2,0.3-0.4,0.4-0.6
				c0.1-0.3,0.2-0.5,0.2-0.8c0-0.3,0-0.5-0.1-0.7C191,47.1,190.9,46.9,190.7,46.8z"/>
		</g>
		<path class="st1" d="M68.7,50.9c-1.1-0.8-2.1-1.7-2.9-2.7c-0.9-1-1.6-2.2-2.2-3.5c-0.6-1.2-1.1-2.6-1.4-4.1
			c-0.3-1.5-0.5-3-0.5-4.6c0-1.6,0.2-3.1,0.5-4.7c0.3-1.6,0.8-3.1,1.4-4.6s1.4-2.8,2.3-4.1c0.7-1,1.5-1.9,2.5-2.6
			c-0.2-0.2-0.4-0.4-0.6-0.6c-0.5-0.8-0.9-1.7-1.3-2.5c-0.6-1-1.2-2.1-1.9-3c-1-1.2-2.4-2.1-4.3-2.5c-0.3,0.2-1,0.4-1,0.7
			c0,0.5,0.2,1.3,0.6,1.6c0.6,0.5,1.5,0.6,2.2,0.9c0.7,0.3,1.4,0.5,2,1c1.4,1.2,1.5,3.3,0.4,4.7c-1.2,1.6-3.3,2-5.1,1.1
			c-1.2-0.6-1.8-1.6-2.3-2.8c-0.3-0.6-0.5-1.2-0.9-1.8c-0.4-0.7-1.1-1.1-2-1c-1,0.1-1.4,0.9-0.9,1.8c0.3,0.4,0.7,0.8,1,1.2
			c1.2,1.4,1,3.5-0.3,4.6c-1.1,1-2.5,0.9-3.9,0c-1.9-1.2-3.9-2.3-5.9-3.4c-1.2-0.6-2.4,0.3-2.1,1.6c0.1,0.5,0.7,1,1.1,1.3
			c1.1,0.5,2.4,0.8,3.6,1.2c1,0.4,2.1,0.8,2.9,1.4c1.9,1.5,1.4,3.9-0.8,4.7c-0.2,0.1-0.3,0.1-0.5,0.2c-1,0.4-1,1.1-0.2,1.7
			c0.3,0.2,0.7,0.4,1,0.6c1.3,0.8,1.3,1.6,0.1,2.6c-0.1,0.1-0.2,0.2-0.3,0.3c-0.9,0.8-0.9,1.6-0.2,2.5c0.4,0.5,0.8,0.9,1.2,1.3
			c0.6,0.7,0.7,1.5,0.3,2.3c-0.4,1-1.3,1.6-2.2,2c-3,1.4-6.1,1.8-9.3,1.7c-0.7,0-1.4,0.1-2,0.3c-0.6,0.2-1,0.7-0.9,1.4
			c0.1,0.7,0.5,1.1,1.1,1.2c0.4,0.1,0.9,0.2,1.4,0.1c1.8-0.3,3.5-0.6,5.2-1c3.2-0.7,6.4-1,9.5,0.6c1,0.5,2.4,0.6,3.6,0.6
			c1.2,0,2.4,0,3.6,0c1.7,1.1,3.5,2.1,5.6,2.7h0c1,0.3,2,0.6,2.9,0.7c0.2,0.7,0.3,1.4,0.6,2c0.3,0.7,0.8,1.4,1.4,1.8
			c0.4,0.3,1.3,0.3,1.8,0.1c0.9-0.4,1.2-1.3,1-2.2c-0.1-0.5-0.2-0.9-0.4-1.3c-0.3-0.1-0.6-0.2-0.9-0.2C71,52.3,69.8,51.7,68.7,50.9z
			"/>
		<path class="st1" d="M89,46.1c-0.1-0.1-0.2-0.3-0.4-0.4c-0.1-0.1-0.3-0.2-0.4-0.3c-0.1-0.1-0.2-0.1-0.3-0.2l-0.2-0.1
			c-0.1,0.4-0.2,0.7-0.5,1.1c-3.2,4.1-8.4,6.5-14.1,6.6c0,0,0,0,0,0.1c1,0.2,2.1,0.4,3.2,0.4c1.1,0,2.1-0.1,3.2-0.3
			c1.1-0.2,2.1-0.6,3.2-1c1.1-0.5,2.1-1.1,3.1-1.9c1-0.8,2-1.7,3-2.8l0,0l0,0c0.1-0.2,0.2-0.3,0.2-0.6C89.2,46.5,89.2,46.3,89,46.1z
			"/>
		<g>
			<path class="st1" d="M72.7,21.9c-0.7,0.6-1.4,1.4-2,2.3c-0.6,0.9-1,1.9-1.4,3.1c-0.4,1.1-0.7,2.3-0.8,3.5
				c-0.2,1.2-0.3,2.5-0.3,3.8c0,1.5,0.1,2.9,0.3,4.2c0.2,1.3,0.6,2.5,1,3.6c0.5,1.1,1,2.1,1.6,2.9c0.6,0.9,1.3,1.5,2,2.1
				c0.7,0.5,1.5,1,2.3,1.3c0.8,0.3,1.6,0.4,2.5,0.4c0.6,0,1.3-0.1,1.9-0.2c0.6-0.1,1.3-0.4,2.1-0.7c0.7-0.3,1.5-0.7,2.2-1.2l0,0l0,0
				c0.7-0.5,1.5-1.1,2.3-1.8l0.7-0.6l0.5,0.3c0-0.1,0-0.2,0-0.3c0-0.8-0.4-1.6-1.1-2.2C82.4,38.9,80,34,80,29c0-1.6,0.2-3.2,0.7-4.7
				l0,0l0,0c0,0,0,0,0,0l0,0l0,0l0,0c0.1-0.3,0.1-0.5,0.1-0.8c0-1.1-0.7-2.2-2-2.8c-0.6-0.3-1.1-0.5-1.7-0.7c-0.7,0.1-1.4,0.2-2,0.5
				C74.3,20.8,73.5,21.3,72.7,21.9L72.7,21.9L72.7,21.9z"/>
			<path class="st1" d="M88,18.8c-0.5-0.5-1.2-0.9-2.1-1.3c-0.9-0.4-1.9-0.7-3-1c-1.2-0.3-2.5-0.4-3.8-0.4c-1.9,0-3.8,0.3-5.4,0.8
				c-1.6,0.6-3.1,1.3-4.4,2.3c-0.3,0.2-0.6,0.5-0.9,0.7c0.5,0.4,1,0.6,1.6,0.5c0.2-0.2,0.4-0.4,0.5-0.6c0.7-0.9,2-1.3,3.3-1.1
				c0.9,0.2,1.7,0.4,2.6,0.7l0,0c0.1,0,0.2,0.1,0.3,0.1c0.1,0,0.2,0,0.4,0l0,0l0,0c0.1,0,0.2,0.1,0.3,0.1c0.2,0,0.4,0,0.6,0
				c0.7,0,1.3,0.1,1.9,0.2c0.6,0.1,1.2,0.3,1.8,0.6c0.5,0.3,1.1,0.6,1.5,1s0.9,0.8,1.2,1.3c0.3,0.5,0.5,1,0.7,1.5
				c0.1,0.6,0.2,1.2,0.2,1.8c0,0.1,0,0.3,0,0.3c0,0.1,0,0.2,0,0.4l0,0.8l3.3,0.1l0-0.8c0.1-1.5,0.2-2.8,0.2-3.9s0.1-2,0.1-2.7
				C88.9,19.8,88.5,19.3,88,18.8z"/>
			<path class="st2" d="M77.2,19.6L77.2,19.6c-0.2,0-0.3,0-0.4,0c0.1,0,0.2,0.1,0.4,0.1c0.1,0,0.3,0,0.4,0
				C77.5,19.7,77.3,19.7,77.2,19.6L77.2,19.6z"/>
			<path class="st2" d="M86.7,45.5c-0.8,0.7-1.6,1.3-2.3,1.8l0,0l0,0c-0.8,0.5-1.5,0.9-2.3,1.3c-0.7,0.3-1.5,0.6-2.1,0.7l0,0l0,0
				c-0.7,0.1-1.4,0.2-2,0.2c-0.9,0-1.8-0.1-2.6-0.4c-0.8-0.3-1.6-0.7-2.4-1.3l0,0l0,0c-0.8-0.6-1.4-1.3-2.1-2.2
				c-0.6-0.9-1.1-1.9-1.6-3l0,0l0,0c-0.4-1.1-0.8-2.3-1-3.7c-0.2-1.3-0.4-2.8-0.4-4.3c0-1.3,0.1-2.6,0.3-3.8
				c0.2-1.3,0.5-2.5,0.9-3.6c0.4-1.1,0.9-2.2,1.5-3.1l0,0l0,0c0.6-0.9,1.3-1.8,2-2.4l0,0c0,0,0,0,0,0c0,0,0,0,0,0l0,0
				c0.8-0.7,1.6-1.2,2.5-1.5c0.5-0.2,1.1-0.4,1.8-0.4c-0.1,0-0.2-0.1-0.3-0.1l0,0c-0.9-0.3-1.7-0.5-2.6-0.7
				c-1.3-0.3-2.6,0.2-3.3,1.1c-0.2,0.2-0.3,0.4-0.5,0.6c-0.6,0-1.2-0.2-1.6-0.5c-0.9,0.8-1.7,1.7-2.5,2.6c-0.9,1.3-1.7,2.6-2.3,4.1
				s-1.1,3-1.4,4.6c-0.3,1.6-0.5,3.2-0.5,4.7c0,1.6,0.2,3.2,0.5,4.6c0.3,1.5,0.8,2.8,1.4,4.1c0.6,1.3,1.3,2.4,2.2,3.5
				c0.9,1,1.8,1.9,2.9,2.7c1.1,0.8,2.3,1.3,3.6,1.7c0.3,0.1,0.6,0.2,0.9,0.2c0,0,0,0,0-0.1c5.7-0.1,10.9-2.5,14.1-6.6
				c0.2-0.3,0.4-0.6,0.4-0.9l-0.5-0.3L86.7,45.5z"/>
		</g>
	</g>
</g>
</svg>
