<?xml version="1.0" encoding="utf-8"?>
<!-- Generator: Adobe Illustrator 25.4.1, SVG Export Plug-In . SVG Version: 6.00 Build 0)  -->
<svg version="1.1" id="Layer_1" xmlns="http://www.w3.org/2000/svg" xmlns:xlink="http://www.w3.org/1999/xlink" x="0px" y="0px"
	 viewBox="0 0 238 87" style="enable-background:new 0 0 238 87;" xml:space="preserve">
<style type="text/css">
	.st0{fill:#FFFFFF;}
	.st1{fill:#091B33;}
	.st2{fill:#46AE74;}
</style>
<g>
	<path class="st0" d="M225.3,60.3c0.1-0.3,0.2-0.5,0.3-0.8c0-0.1,0.1-0.2,0.1-0.3l0,0c0-0.2,0.1-0.5,0.1-1c0-0.8-0.2-1.6-0.5-2.3
		c0,0,0,0,0-0.1c-0.3-0.7-0.8-1.3-1.3-1.8c-0.5-0.5-1.2-0.8-1.9-1.1c-0.6-0.2-1.3-0.3-1.9-0.3c-0.5,0-1,0.1-1.5,0.2
		c-0.3,0.1-0.7,0.2-1,0.3c-0.2-0.1-0.5-0.2-0.7-0.3c0,0,0,0,0,0c0-0.3,0-0.6,0.1-0.9c0-0.3,0-0.5,0.1-0.8c0-0.3,0.1-0.7,0.1-1
		c0,0,0-0.3,0-0.3c0.1-1.3-0.5-2.6-1.6-3.4c0,0-0.2-0.1-0.2-0.1c-0.9-0.6-1.8-0.9-2.8-0.9c-0.4,0-0.7,0-1.1,0.1
		c-0.6,0.1-1.2,0.4-1.6,0.7c-0.5,0.4-1,0.9-1.3,1.5c-0.4,0.6-0.6,1.4-0.6,2.1c0,0.4,0,0.9-0.1,1.4c0,0.5,0,1-0.1,1.6l-0.2,0
		c-0.2,0-0.3,0.1-0.5,0.1c-0.2-0.1-0.4-0.2-0.6-0.2c0-0.2,0-0.3,0-0.5c0,0,0-0.2,0-0.2c0.1-1.4-0.6-2.8-1.9-3.5l-0.1-0.1
		c-0.4-0.2-0.7-0.3-0.8-0.4c-0.1,0-0.2-0.1-0.3-0.1c-0.5-0.1-1-0.2-1.4-0.2c-0.5,0-1,0.1-1.5,0.3c-0.4,0.2-0.8,0.4-1.2,0.6
		c0,0,0,0-0.1,0.1c0,0-0.1,0-0.1,0.1c-0.1-0.1-0.2-0.1-0.3-0.2c-0.4-0.3-0.9-0.5-1.4-0.6c0.3-1,0.7-2.1,1.1-3.1c0,0,0.1-0.2,0.1-0.3
		c0.5,0.2,1,0.3,1.5,0.3h1.1c1,0,2-0.4,2.7-1.1l0.3-0.3c0.9-0.9,1.7-2.1,2.1-3.4c0.4-1.1,0.6-2.2,0.6-3.3c0.1-1-0.1-2-0.4-3
		c-0.3-1-0.8-1.9-1.4-2.7c-0.7-0.8-1.5-1.5-2.5-2c-1-0.5-2.1-0.8-3.3-0.8c-2.1,0-4.1,0.8-5.8,2.3c-0.4-0.4-0.9-0.8-1.4-1.1
		c-1-0.6-2.1-0.9-3.4-0.9c-1.3,0-2.4,0.4-3.7,0.8c-1.2,0.4-2.6,1-4.7,2c0,0-0.1,0-0.1,0.1l0,0c-0.3-0.3-0.7-0.6-1.1-0.9c0,0,0,0,0,0
		c-1.8-1.4-4.1-2.1-6.4-2.1c-2,0-3.8,0.5-5.5,1.4c-1.2,0.6-2.2,1.4-3.2,2.3c-0.3-0.7-0.8-1.3-1.5-1.7c-0.6-0.4-1.3-0.6-2-0.6
		c-0.3,0-0.6,0-0.9,0.1c0,0-1.2,0.3-1.2,0.3c0,0-0.1,0-0.3,0c0.1-0.9,0.2-1.8,0.3-2.8l0-0.4c0.3-2.5,0.6-5.2,1.1-8.1
		c0,0,0-0.1,0-0.1l0.1-0.6c0.2-1.3-0.3-2.6-1.3-3.4l-0.5-0.4c0,0-0.1-0.1-0.2-0.1c-0.4-0.3-1.1-0.8-2-1.1c-1-0.4-2-0.4-2.6-0.4
		c-0.6,0-1.3,0.1-1.8,0.2c-0.5,0.1-1,0.3-1.4,0.5c-0.3,0.1-0.6,0.3-0.8,0.5l-0.2,0.1c-0.3,0.2-0.5,0.4-0.7,0.7
		c-0.4,0.4-0.7,0.9-1,1.4c-0.5,0.8-0.8,1.7-0.9,2.7l-0.1,0.8c-0.2,1.9-0.5,4-0.7,6.3c-0.2,1.6-0.3,3.2-0.5,5
		c-0.3,0.1-0.6,0.3-0.8,0.4c-0.4,0.2-0.8,0.5-1.2,0.8c-0.9-1.2-2-2.1-3.3-2.8c-1.5-0.8-3.1-1.1-5-1.1c-1.1,0-2.1,0.2-3,0.4
		c-0.1,0-0.1,0-0.2,0c-0.7,0.2-1.8,0.5-2.9,1.1c-1.1,0.5-1.9,1.1-2.8,1.7c-0.5,0.4-1,0.8-1.4,1.2c-0.3-0.4-0.6-0.8-1-1.2
		c0,0-0.1-0.1-0.1-0.1c-1-1-2.2-1.8-3.4-2.3c-1.3-0.5-2.6-0.8-4-0.8c-1.8,0-3.6,0.4-5.3,1.2c0,0,0,0,0,0c-0.9,0.4-1.8,1-2.7,1.8
		c-0.1-0.1-0.1-0.1-0.2-0.2c-0.7-0.8-1.5-1.5-2.5-2c-0.6-0.3-1.3-0.5-2-0.7c-0.1-0.3-0.2-0.5-0.3-0.8c0.3-0.7,0.5-1.5,0.5-2.3
		c0-0.7-0.1-1.4-0.4-2c-0.2-0.6-0.6-1.2-1.1-1.7c0,0-0.1-0.1-0.1-0.1c-0.5-0.5-1.1-0.9-1.7-1.2c-0.6-0.3-1.3-0.4-2-0.4
		c-0.8,0-1.6,0.2-2.4,0.5c0,0,0,0,0,0c0,0,0,0,0,0c0,0-0.1,0-0.1-0.1c0-0.1,0-0.1,0-0.2c0-0.5,0.1-1,0.1-1.6c0,0,0-0.2,0-0.2
		c0.1-1.3-0.5-2.6-1.6-3.4l-0.1-0.1c-0.8-0.6-1.7-0.9-2.7-0.9c-0.4,0-0.7,0-1.1,0.1c-0.6,0.1-1.1,0.4-1.6,0.7
		c-0.5,0.3-0.8,0.7-1.1,1.2c-0.2,0-0.4,0-0.5,0c-0.1,0-0.2,0-0.3,0l-0.6,0c-0.2,0-0.6,0-0.6,0c-0.2,0-0.4,0-0.6,0
		c-0.9,0-1.6,0.2-2.4,0.6c-0.7,0.4-1.3,0.9-1.7,1.5c-0.5-0.3-0.9-0.5-1.4-0.7c-1.4-0.6-3-1.1-4.8-1.5c0,0,0,0,0,0
		c-1.8-0.4-3.8-0.6-6-0.6c-3.1,0-6,0.5-8.6,1.4c-1.7,0.6-3.4,1.3-5,2.3c-0.1-0.2-0.3-0.5-0.4-0.7c-0.2-0.3-0.3-0.5-0.5-0.8
		c-0.7-1.2-1.5-2.6-2.6-3.9c-2-2.4-4.6-3.9-7.9-4.6c-0.3-0.1-0.6-0.1-0.8-0.1c-0.7,0-1.4,0.2-2,0.6c0,0-0.1,0-0.1,0.1
		c-0.8,0.4-2.9,1.5-3,3.9c0,0.7,0,1.5,0.3,2.4c-0.9-0.5-2-0.8-3.1-0.8c-0.3,0-0.5,0-0.8,0c-2,0.2-3.6,1.3-4.4,3
		c-0.8,1.6-0.6,3.6,0.4,5.2c0.4,0.7,0.9,1.2,1.3,1.7c0.1,0.1,0.2,0.3,0.4,0.4c0.3,0.3,0.2,0.8-0.1,1.1c0,0,0,0,0,0
		c-0.1,0-0.4-0.1-0.8-0.4c-2.9-1.8-5.6-3.4-8.3-4.8c-0.9-0.4-1.8-0.7-2.8-0.7c-1.8,0-3.4,0.8-4.5,2.2c-1.1,1.4-1.4,3.2-1,5
		c0.5,2,2.2,3.6,3.7,4.2c1.1,0.5,2.1,0.8,3.1,1.1c0.7,0.2,1.3,0.4,1.9,0.6l0.5,0.2c0.9,0.4,1.9,0.7,2.5,1.2
		c-0.3,0.1-0.6,0.2-0.9,0.4c-2.6,1.2-3.1,3.1-3.2,4.1c-0.1,1,0.1,3,2.3,4.6c-1.8,2.3-1.7,5.2,0.2,7.6c0.4,0.4,0.7,0.8,1,1.2
		c0.1,0.1,0.2,0.2,0.3,0.3c-0.2,0.2-0.5,0.3-1,0.6c-2.9,1.3-5.9,2-9.4,2c-0.5,0-1,0-1.5,0c-0.2,0-0.4,0-0.6,0
		c-1.2,0-2.5,0.2-3.6,0.6c-2.5,0.9-4,3.2-3.7,5.9c0.2,2.5,1.9,4.4,4.4,5c0.5,0.1,1.4,0.3,2.3,0.3c0.4,0,0.7,0,1.1-0.1
		c2.8-0.5,5.2-0.9,7.3-1.4c2.1-0.5,3.8-0.7,5.3-0.7c2,0,3.6,0.4,5.2,1.2c2.2,1.1,4.8,1.2,6.4,1.2c1.4,0,2.7,0.1,3.8,0.1
		c0.1,0,0.1,0,0.2,0c2.4,1.5,4.9,2.7,7.6,3.6c0.7,0.2,1.4,0.4,2.1,0.6c0.1,0.4,0.3,0.8,0.5,1.2c0.9,1.8,1.9,3.1,3.1,3.9
		c1.2,0.8,2.6,1,3.5,1c0,0,0,0,0,0c0.6,0,1.6-0.1,2.6-0.5c1.8-0.8,3-2.3,3.5-4c0.1,0,0.1,0,0.2,0c1.6,0,3.3-0.2,5.1-0.5
		c1.8-0.3,3.5-0.9,5.3-1.7c1.7-0.8,3.3-1.8,4.9-2.9c1.4-1,2.7-2.2,3.8-3.5l0,0.2c-0.2,2.1,1.4,3.9,3.4,4.1l1.5,0.1
		c0.1,0,0.2,0,0.3,0c0.2,0,0.4,0,0.6-0.1l4.2-0.7c1.8-0.3,3.1-1.8,3.1-3.5l0-0.9c0-0.6,0.1-1.3,0.2-2.2c0-0.3,0.1-0.6,0.1-0.9
		l0.1-0.4c0.1-1.2,0.3-2.4,0.5-3.6c0.2-1.5,0.5-3,0.8-4.6c0.3-1.4,0.6-2.8,1-4.3c0,0,0-0.1,0-0.1c-0.1,1.2-0.2,2.4-0.2,3.6
		c0,2.3,0.3,4.5,0.8,6.4c0.6,2.2,1.3,4,2.3,5.6c1.1,1.8,2.5,3.2,4.1,4.3c0,0,0,0,0.1,0c1.9,1.2,3.9,1.8,6.1,1.8
		c1.2,0,2.5-0.2,3.8-0.7c1.2-0.4,2.4-1.1,3.5-1.9c0.4-0.3,0.8-0.6,1.2-1c0.7,0.9,1.6,1.7,2.6,2.3c0,0,0.1,0,0.1,0
		c1.3,0.7,2.8,1.1,4.3,1.1c1.9,0,3.7-0.6,5.4-1.8c0,0,0,0,0,0c0.4-0.3,0.7-0.6,1.1-0.9c0.6,0.6,1.2,1.1,1.9,1.5
		c1.2,0.7,2.7,1.1,4.3,1.1c1.8,0,3.5-0.5,5.1-1.5c0.4-0.2,0.7-0.5,1-0.7c0.5,0.5,1,0.9,1.6,1.3c1.3,0.8,2.8,1.2,4.4,1.2
		c1,0,2-0.2,3.1-0.5c0.9-0.3,1.8-0.7,2.7-1.2c0.8-0.5,1.6-0.9,2.4-1.5c0,0,0.1,0,0.1-0.1c0.1-0.1,0.2-0.1,0.3-0.2
		c0.5,0.5,0.9,0.9,1.4,1.3c0,0,0,0,0,0c1.8,1.4,4.1,2.1,6.4,2.1c2,0,3.8-0.5,5.5-1.4c1.5-0.8,2.9-1.9,4.1-3.2
		c0.8-0.9,1.5-1.9,2.1-2.9c0,0.6-0.1,1.1-0.1,1.6l-0.1,1.1c-0.2,2.1,1.4,3.9,3.4,4.1l1.5,0.1c0.1,0,0.2,0,0.3,0c0.2,0,0.4,0,0.6,0
		l4.2-0.7c0.5-0.1,1-0.3,1.4-0.5c0.5,0.4,1.2,0.8,1.9,0.9l0.4,0.1c0.2,0,0.4,0,0.5,0c0.2,0,0.4,0,0.7-0.1l1.3-0.2
		c0.6-0.1,1.1-0.3,1.5-0.6c0.1,0.1,0.1,0.1,0.2,0.2c0,0,0,0,0,0c0.8,0.5,1.7,0.8,2.7,0.8c0.4,0,0.8-0.1,1-0.1c0.1,0,0.2,0,0.3-0.1
		c0.2-0.1,0.4-0.1,0.6-0.2c0.6,0.2,1.2,0.4,1.9,0.4c0.7,0,1.3-0.1,1.9-0.4c0.6,0.2,1.2,0.4,1.8,0.4c0.3,0,0.5,0,0.8-0.1
		c0.3,0.1,0.7,0.1,1,0.1c0.4,0,0.7-0.1,1.1-0.2c0.4,0.1,0.8,0.1,1.2,0.1c0.8,0,1.6-0.2,2.4-0.5c0.2-0.1,0.3-0.1,0.5-0.2
		c0.2,0.1,0.4,0.2,0.6,0.3c0.4,0.2,0.8,0.3,1.2,0.4c0.4,0.1,0.8,0.1,1.2,0.1c0.8,0,1.6-0.2,2.4-0.5c0.8-0.3,1.5-0.8,2.1-1.4
		c0.6-0.6,1-1.2,1.4-2c0,0,0,0,0,0c0.3-0.8,0.5-1.7,0.5-2.6c0-0.8-0.1-1.6-0.4-2.3C225.4,60.4,225.3,60.3,225.3,60.3z"/>
	<g>
		<g>
			<path class="st1" d="M95.2,29.7c-0.1,0.1-0.2,0.1-0.3,0.2c-0.1,0-0.2,0.1-0.3,0.1c0,0-0.1,0-0.1,0c0,0,0,0,0-0.1
				c0-0.1,0-0.2-0.1-0.3c0-0.1,0-0.3,0-0.6c0-0.1,0-0.3,0-0.5c0-0.2,0-0.4,0-0.6c0-0.2,0-0.4,0-0.6c0-0.2,0-0.4,0-0.6
				c0-0.2,0-0.4,0-0.5c0-0.2,0-0.3,0-0.4c0-0.3,0-0.6-0.1-0.8c-0.1-0.2-0.1-0.4-0.2-0.6c-0.1-0.2-0.2-0.3-0.4-0.4
				c-0.1-0.1-0.3-0.1-0.5-0.1c-0.2,0-0.5,0.1-0.7,0.3c-0.2,0.2-0.4,0.4-0.7,0.8c-0.2,0.4-0.4,0.8-0.6,1.4l0,0c0-0.1,0-0.2,0-0.2
				c0-0.3,0-0.7,0.1-1c0-0.3,0-0.7,0.1-1s0-0.7,0.1-1.1c0-0.4,0.1-0.8,0.1-1.2c0-0.4,0.1-0.9,0.1-1.4c0-0.5,0.1-1.1,0.1-1.7l0-0.1
				l-0.1-0.1c-0.2-0.1-0.4-0.2-0.5-0.2c-0.1,0-0.2,0-0.2,0c-0.1,0-0.2,0.1-0.2,0.1c-0.1,0.1-0.1,0.1-0.2,0.2c0,0.1-0.1,0.2-0.1,0.3
				l0,0c0,0.5,0,1-0.1,1.5c0,0.5,0,1.1-0.1,1.6c0,0.5,0,1.1-0.1,1.7s0,1.1-0.1,1.7c0,0.5,0,1.1-0.1,1.6c0,0.5,0,1-0.1,1.5
				c0,0.5,0,0.9-0.1,1.4c0,0.4,0,0.8,0,1.2l0,0.2l0.3,0l0.9-0.2l0-0.2c0-0.4,0.1-0.9,0.1-1.3c0.1-0.4,0.2-0.9,0.3-1.3
				c0.1-0.4,0.2-0.8,0.3-1.1c0.1-0.4,0.3-0.6,0.4-0.9c0.1-0.3,0.3-0.4,0.4-0.6c0.1-0.1,0.2-0.2,0.2-0.2c0,0,0.1,0,0.1,0
				c0,0,0.1,0,0.1,0.1c0.1,0.1,0.1,0.3,0.1,0.6c0,0.1,0,0.3,0,0.5c0,0.2,0,0.5,0,0.8c0,0.3,0,0.6,0,0.9c0,0.3,0,0.6,0,0.9
				c0,0.2,0,0.5,0,0.7c0,0.2,0,0.4,0.1,0.6c0,0.2,0.1,0.3,0.2,0.5c0.1,0.1,0.3,0.2,0.5,0.2c0.1,0,0.3,0,0.4-0.1
				c0.1-0.1,0.3-0.1,0.4-0.2s0.3-0.2,0.4-0.3c0.1-0.1,0.2-0.2,0.3-0.3l0.1-0.1l-0.2-0.7L95.2,29.7z"/>
			<path class="st1" d="M98.6,27c0.3-0.2,0.5-0.4,0.7-0.7c0.2-0.3,0.3-0.6,0.3-0.9c0-0.2,0-0.5-0.1-0.7c-0.1-0.2-0.2-0.4-0.3-0.5
				c-0.1-0.1-0.3-0.2-0.5-0.3c-0.2-0.1-0.4-0.1-0.6-0.1c-0.3,0-0.5,0.1-0.8,0.2c-0.2,0.1-0.5,0.3-0.7,0.5c-0.2,0.2-0.4,0.4-0.5,0.7
				c-0.2,0.3-0.3,0.6-0.4,0.9c-0.1,0.3-0.2,0.6-0.2,1c-0.1,0.3-0.1,0.7-0.1,1c0,0.4,0,0.8,0.1,1.2c0.1,0.4,0.2,0.7,0.4,1
				c0.2,0.3,0.4,0.5,0.6,0.7c0.3,0.2,0.5,0.3,0.9,0.3c0.2,0,0.4,0,0.5-0.1c0.2-0.1,0.4-0.2,0.5-0.3c0.2-0.1,0.3-0.3,0.5-0.5
				c0.2-0.2,0.3-0.4,0.4-0.7l0,0l0,0l0,0l0,0c0,0,0-0.1,0-0.1c0-0.1,0-0.1-0.1-0.2l0,0c0,0,0-0.1-0.1-0.1l0,0c0,0-0.1-0.1-0.1-0.1
				l0,0c0,0,0,0-0.1,0L99,28.9l-0.1,0.2c-0.2,0.3-0.4,0.5-0.6,0.6l0.1,0.2l-0.1-0.2c-0.2,0.1-0.3,0.2-0.5,0.2c-0.1,0-0.3,0-0.4-0.1
				c-0.1-0.1-0.3-0.3-0.4-0.5c-0.1-0.2-0.2-0.5-0.3-0.8c-0.1-0.3-0.1-0.6-0.1-0.9c0.3,0,0.7-0.1,1-0.2C98,27.3,98.3,27.2,98.6,27z
				 M96.7,26.7c0-0.1,0-0.2,0-0.2c0-0.2,0.1-0.4,0.1-0.5c0-0.2,0.1-0.3,0.2-0.5c0.1-0.1,0.1-0.3,0.2-0.4s0.2-0.2,0.3-0.2
				c0.1,0,0.2-0.1,0.3-0.1c0.1,0,0.1,0,0.2,0c0.1,0,0.1,0.1,0.1,0.1l0,0c0,0.1,0.1,0.1,0.1,0.3c0,0.1,0,0.2,0,0.3
				c0,0.2,0,0.3-0.1,0.4l0,0c-0.1,0.1-0.2,0.2-0.3,0.3c-0.1,0.1-0.3,0.2-0.6,0.3C97,26.7,96.9,26.7,96.7,26.7z"/>
			<path class="st1" d="M90.1,20l-0.1-0.2l-0.2,0.1c-0.1,0-0.2,0-0.3,0.1c-0.1,0-0.2,0-0.3,0c-0.1,0-0.2,0-0.4,0c-0.1,0-0.3,0-0.5,0
				c-0.2,0-0.4,0-0.6,0c-0.2,0-0.5,0-0.8,0c-0.2,0-0.4,0-0.5,0c-0.2,0-0.4,0-0.6,0c-0.2,0-0.4,0-0.5,0c-0.2,0-0.3,0-0.5,0
				c-0.2,0-0.4,0-0.6,0.1c-0.2,0.1-0.3,0.2-0.4,0.4c-0.1,0.2-0.1,0.4-0.1,0.6c0,0.2,0,0.5,0,0.8c0,0.3,0,0.6,0,1v0.2l0.8,0v-0.4
				c0-0.3,0-0.6,0-0.8c0-0.2,0.1-0.4,0.1-0.5c0-0.1,0.1-0.2,0.1-0.2c0.1-0.1,0.1-0.1,0.2-0.1c0.1,0,0.2,0,0.3,0c0.1,0,0.2,0,0.4,0
				c0.1,0,0.3,0,0.4,0c0.1,0,0.1,0,0.2,0c0,0.6,0,1.1,0,1.6c0,0.6,0,1.2,0,1.7c0,0.5,0,1.1,0,1.6c0,0.5,0,1,0,1.5s0,1,0,1.6
				c0,0.5,0,1.1-0.1,1.7l0,0.2l0.3,0l1-0.2v-0.2c0-0.5,0-1.1,0-1.6s0-1.1,0-1.7c0-0.6,0-1.1,0-1.7c0-0.6,0-1.1,0-1.7
				c0-0.5,0-1.1,0-1.6c0-0.4,0-0.8,0-1.2c0.3,0,0.5,0.1,0.8,0.1c0.3,0,0.6,0.1,0.8,0.1c0.3,0,0.5-0.1,0.7-0.2
				c0.2-0.2,0.3-0.4,0.3-0.6C90.2,20.3,90.2,20.2,90.1,20z"/>
		</g>
		<g>
			<g>
				<path class="st1" d="M83.5,54.9L83.5,54.9L83.5,54.9z"/>
				<path class="st1" d="M104.1,40.7c0.5-0.5,1-1.2,1.2-2c0.3-0.7,0.4-1.4,0.4-2.2c0-0.6-0.1-1.2-0.3-1.7l0,0
					c-0.2-0.5-0.4-1-0.8-1.4c-0.3-0.4-0.8-0.8-1.3-1c-0.5-0.3-1-0.4-1.6-0.4c-1.5,0-2.8,0.7-3.9,1.9c-1,1.1-2,2.6-2.8,4.5
					c-0.4,0.9-0.8,1.9-1.1,2.9c0-0.7,0.1-1.3,0.1-1.8l0,0c0-0.8,0.1-1.4,0.1-1.9c0-0.5,0-0.8,0-0.9c0-1.2-0.1-2.1-0.6-3
					c-0.2-0.4-0.6-0.8-1-1c-0.4-0.3-0.9-0.3-1.4-0.3c-0.7,0-1.4,0.2-2.5,0.6c-1.1,0.4-2.5,1-4.3,1.8l-0.7,0.4l0.5,3.6l1.3-0.4
					c0.4-0.1,0.7-0.3,1-0.3c0.3-0.1,0.5-0.2,0.7-0.2s0.4-0.1,0.5-0.1c0.1,0,0.3,0,0.4,0c0.1,0,0.2,0,0.3,0h0c0,0,0,0,0,0l0,0
					c0,0.1,0.1,0.3,0.1,0.6l0,0c0,0.3,0,0.8,0,1.3c0,0.6,0,1.5,0,2.6c0,1.1,0,2.3-0.1,3.7c0,1.4-0.1,2.9-0.1,4.5
					c0,1.6-0.1,3.2-0.2,4.8c0,1.6-0.1,3.3-0.2,4.8c-0.1,1.6-0.2,3-0.3,4.4l-0.1,1.1l1.5,0.1l4.2-0.7l0-0.9c0-0.9,0.2-2,0.3-3.3
					c0.2-1.3,0.3-2.8,0.6-4.3c0.3-1.5,0.5-3.1,0.8-4.7c0.3-1.6,0.7-3.1,1.1-4.5c0.4-1.4,0.8-2.8,1.3-3.9c0.5-1.1,1-2,1.5-2.7l0,0
					c0.3-0.4,0.6-0.6,0.9-0.8c0.3-0.2,0.5-0.2,0.8-0.2c0.3,0,0.5,0,0.7,0.2c0.3,0.1,0.6,0.4,1,0.8l0.3,0.4h1.1L104.1,40.7z"/>
				<path class="st1" d="M118.2,46.9c1.3-0.8,2.4-1.8,3.2-3.1c0.8-1.3,1.2-2.8,1.2-4.4c0-1.1-0.2-2.1-0.5-3
					c-0.3-0.9-0.8-1.7-1.5-2.3c-0.6-0.6-1.3-1.1-2.2-1.5c-0.8-0.3-1.7-0.5-2.6-0.5c-1.3,0-2.5,0.3-3.7,0.8c-1.1,0.5-2.1,1.3-3,2.3
					c-0.9,1-1.7,2-2.4,3.3s-1.3,2.6-1.8,4c-0.5,1.4-0.8,2.9-1.1,4.5s-0.4,3.1-0.4,4.7c0,1.9,0.2,3.8,0.7,5.5c0.5,1.7,1,3.2,1.9,4.5
					c0.8,1.3,1.8,2.4,3,3.2c1.2,0.8,2.5,1.2,4,1.2c0.8,0,1.7-0.2,2.5-0.5c0.9-0.3,1.7-0.8,2.5-1.4c0.8-0.6,1.5-1.3,2.3-2.2
					s1.4-1.9,2-3l0,0l0,0l0,0l0,0c0.1-0.2,0.2-0.4,0.2-0.7c0-0.3-0.1-0.6-0.3-0.9l0,0c-0.1-0.2-0.2-0.3-0.3-0.5l0,0
					c-0.1-0.1-0.3-0.3-0.4-0.4l0,0c-0.1-0.1-0.2-0.2-0.3-0.2l-0.9-0.6l-0.6,0.9c-1,1.3-1.8,2.3-2.6,2.8l0.6,0.9l-0.6-0.9
					c-0.8,0.5-1.6,0.8-2.3,0.8c-0.7,0-1.3-0.2-1.9-0.7c-0.6-0.5-1.3-1.2-1.8-2.1c-0.5-1-1-2.1-1.3-3.5c-0.3-1.3-0.4-2.6-0.5-4.1
					c1.6-0.2,3.1-0.5,4.5-0.9C115.4,48.4,116.9,47.8,118.2,46.9z M109.5,45.7c0-0.4,0.1-0.8,0.2-1.1c0.1-0.8,0.3-1.7,0.5-2.5
					c0.2-0.8,0.5-1.5,0.8-2.2c0.3-0.7,0.6-1.3,1-1.7c0.4-0.5,0.8-0.8,1.2-1c0.4-0.2,0.8-0.3,1.3-0.3c0.3,0,0.5,0,0.7,0.2
					c0.3,0.2,0.5,0.4,0.7,0.7l0,0c0.2,0.3,0.4,0.7,0.5,1.2c0.1,0.5,0.2,1,0.2,1.5c0,0.8-0.2,1.5-0.5,2l0,0c-0.3,0.6-0.8,1.1-1.5,1.6
					c-0.7,0.5-1.5,0.9-2.6,1.2C111.1,45.4,110.3,45.6,109.5,45.7z"/>
				<path class="st1" d="M145,60.2c-0.9,0.7-1.5,1-2,1c-0.3,0-0.4,0-0.6-0.2c-0.2-0.1-0.4-0.4-0.6-0.8c-0.4-0.8-0.7-2.1-0.7-4.1
					c0-1.3,0-2.5,0.1-3.8c0-1.3,0.1-2.5,0.2-3.8c0.1-1.2,0.1-2.4,0.2-3.5c0-1.1,0.1-2.2,0.1-3.1c0-1.4-0.1-2.7-0.3-3.9
					c-0.3-1.2-0.6-2.2-1.2-3.1s-1.3-1.6-2.3-2.1c-1-0.5-2-0.7-3.3-0.7c-0.7,0-1.4,0.1-2.2,0.3c-0.8,0.2-1.5,0.5-2.3,0.8
					c-0.8,0.4-1.5,0.8-2.2,1.3c-0.7,0.5-1.3,1.1-1.9,1.8c-0.5,0.7-1,1.5-1.3,2.3c-0.3,0.9-0.5,1.8-0.5,2.8c0,0.6,0.1,1.2,0.3,1.7
					c0.2,0.5,0.4,1,0.7,1.4c0.3,0.4,0.7,0.8,1.2,1s1,0.3,1.5,0.3c0.8,0,1.7-0.3,2.4-0.8l0.3-0.3l0.3-1l-0.2-0.4
					c-0.3-0.6-0.5-1.2-0.7-1.8s-0.3-1.2-0.3-1.8c0-0.5,0-0.9,0.2-1.3l0,0c0.1-0.4,0.3-0.6,0.5-0.9c0.2-0.2,0.5-0.4,0.8-0.6
					c0.3-0.1,0.8-0.3,1.4-0.3c0.4,0,0.8,0.1,1.2,0.3c0.4,0.2,0.8,0.5,1.1,0.9c0.3,0.4,0.6,0.9,0.8,1.7c0.2,0.7,0.3,1.5,0.3,2.5
					c0,1,0,1.9-0.1,2.7c0,0.5-0.1,1-0.1,1.6c-0.8,0-1.7,0.1-2.5,0.3c-1.2,0.2-2.3,0.5-3.3,0.9c-1,0.4-2,1-2.9,1.6
					c-0.9,0.7-1.7,1.4-2.4,2.3c-0.7,0.9-1.2,1.9-1.5,3c-0.4,1.1-0.5,2.4-0.5,3.7c0,1,0.1,2,0.4,3c0.3,0.9,0.6,1.7,1.1,2.4
					c0.5,0.7,1.1,1.3,1.8,1.7c0.8,0.4,1.6,0.7,2.5,0.7c1.1,0,2.2-0.4,3.1-1.1c0.9-0.7,1.7-1.5,2.5-2.5c0.6-0.8,1.1-1.7,1.6-2.6
					c0,0.3,0.1,0.7,0.2,1c0.3,1,0.6,1.9,1.1,2.7c0.5,0.8,1.1,1.3,1.8,1.8c0.7,0.4,1.5,0.6,2.4,0.6c1.1,0,2.2-0.3,3.1-0.9
					c1-0.6,1.8-1.4,2.5-2.5l0.4-0.5l-1.3-2.8L145,60.2z M135.2,51.9c-0.2,0.9-0.5,1.8-0.8,2.6c-0.3,0.8-0.7,1.5-1.1,2.3
					c-0.4,0.7-0.8,1.3-1.3,1.7c-0.4,0.5-0.8,0.8-1.2,1c-0.4,0.2-0.6,0.3-0.9,0.3c-0.2,0-0.3,0-0.4-0.1l0,0c-0.1-0.1-0.3-0.3-0.4-0.5
					c-0.1-0.3-0.3-0.6-0.3-1l0,0c-0.1-0.4-0.1-0.9-0.1-1.4c0-0.9,0.1-1.6,0.3-2.3c0.2-0.6,0.5-1.2,0.8-1.6c0.3-0.5,0.8-0.8,1.2-1.1
					c0.5-0.3,1-0.6,1.6-0.8c0.6-0.2,1.3-0.3,1.9-0.5c0.3,0,0.6-0.1,0.9-0.1C135.4,51,135.4,51.4,135.2,51.9z"/>
				<path class="st1" d="M125.2,44.5L125.2,44.5L125.2,44.5z"/>
				<path class="st1" d="M150.4,18L150.4,18L150.4,18z"/>
				<path class="st1" d="M159.8,38.2L159.8,38.2L159.8,38.2z"/>
				<polygon class="st1" points="151,17.2 151.2,17.1 151.2,17.1 				"/>
				<path class="st1" d="M161,35.3L161,35.3L161,35.3L161,35.3z"/>
				<path class="st1" d="M161.1,59.1l-0.6-0.9l-0.9,0.6c-0.8,0.5-1.5,1-2.1,1.2c-0.6,0.3-1.1,0.3-1.5,0.3c-0.6,0-0.9-0.1-1.2-0.4
					l0,0c-0.3-0.3-0.6-0.8-0.9-1.4l0,0c-0.3-0.7-0.4-1.6-0.5-2.8l0,0c-0.1-1.1-0.2-2.5-0.2-4c0-0.8,0-1.8,0-2.8c0-1.1,0-2.3,0.1-3.5
					c0-1.3,0.1-2.6,0.2-4c0-1.1,0.1-2.2,0.2-3.3c0.5,0,1.1,0.1,1.6,0.2c0.9,0.1,1.7,0.2,2.4,0.2c0.8,0,1.5-0.1,2.1-0.4
					c0.4-0.2,0.8-0.6,0.9-1c0.2-0.4,0.3-0.8,0.3-1.2c0-0.3,0-0.5,0-0.7c0-0.2-0.1-0.5-0.1-0.7l-0.3-1.1l-1.1,0.3
					c-0.5,0.1-1.1,0.2-2,0.2c-0.2,0-0.5,0-0.8,0s-0.7,0-1,0c-0.4,0-0.8,0-1.3,0c-0.1,0-0.2,0-0.3,0c0.2-2.4,0.4-4.8,0.7-7.3
					c0.3-2.8,0.7-5.6,1.1-8.3l0.1-0.6l-0.5-0.4c-0.3-0.3-0.7-0.5-1-0.6l0,0c-0.4-0.2-0.8-0.2-1.3-0.2c-0.3,0-0.6,0-0.9,0.1
					c-0.4,0.1-0.7,0.3-1,0.5l0,0c-0.3,0.3-0.6,0.5-0.8,0.9c-0.3,0.4-0.4,0.8-0.4,1.3l0,0c-0.3,2.1-0.5,4.4-0.8,7
					c-0.3,2.4-0.5,4.9-0.7,7.5c-0.3,0-0.7,0.1-1,0.2c-0.6,0.2-1.1,0.4-1.6,0.6c-0.5,0.3-0.9,0.6-1.2,1c-0.3,0.4-0.5,1-0.5,1.5
					c0,0.2,0,0.4,0.1,0.7l0.4,1l1-0.3c0.4-0.1,0.9-0.3,1.5-0.3c0.3,0,0.6,0,1-0.1c-0.1,1-0.1,1.9-0.2,2.9c-0.1,1.4-0.2,2.8-0.2,4.2
					l0,0c0,1.4-0.1,2.8-0.1,4.2s0,2.7,0,4c0,2.3,0.1,4.3,0.4,5.8c0.3,1.5,0.6,2.8,1,3.9c0.5,1,1.1,1.8,1.9,2.3
					c0.8,0.5,1.6,0.7,2.5,0.7c0.7,0,1.3-0.1,2-0.3s1.3-0.5,2-0.9c0.7-0.4,1.3-0.8,2-1.3c0.7-0.5,1.3-1,2-1.7l0.4-0.4l0-0.5
					C161.7,60.4,161.5,59.7,161.1,59.1z"/>
				<path class="st1" d="M179.6,36.8c-0.8-1.4-1.7-2.5-2.8-3.4c-1.2-0.9-2.6-1.4-4.1-1.4c-1.3,0-2.6,0.3-3.8,0.9
					c-1.1,0.6-2.1,1.4-3,2.4c-0.9,1-1.7,2.1-2.3,3.4c-0.7,1.3-1.2,2.6-1.6,4c-0.4,1.4-0.8,2.9-1,4.4c-0.2,1.5-0.3,3-0.3,4.5
					c0,1.8,0.2,3.5,0.5,5.1l0,0c0.4,1.7,0.9,3.2,1.7,4.5c0.8,1.4,1.7,2.5,2.8,3.4c1.2,0.9,2.6,1.4,4.1,1.4c1.3,0,2.6-0.3,3.8-0.9
					c1.1-0.6,2.1-1.4,3-2.4c0.9-1,1.7-2.1,2.3-3.4c0.7-1.3,1.2-2.6,1.6-4c0.5-1.4,0.8-2.9,1-4.4c0.2-1.5,0.3-3,0.3-4.5
					c0-1.8-0.2-3.5-0.5-5.1C180.9,39.7,180.4,38.2,179.6,36.8z M174.9,56.8c-0.3,0.9-0.6,1.6-0.9,2.3c-0.4,0.6-0.8,1.1-1.2,1.5
					c-0.4,0.3-0.8,0.4-1.3,0.4c-0.5,0-0.9-0.1-1.3-0.4c-0.5-0.3-0.8-0.6-1.3-1.1c-0.4-0.5-0.8-1.1-1-1.8c-0.3-0.8-0.6-1.5-0.8-2.4
					c-0.2-0.9-0.4-1.8-0.5-2.7c-0.1-1-0.2-1.9-0.2-2.8c0-0.8,0-1.7,0.1-2.7l0,0c0.1-1,0.2-1.9,0.3-2.9l0,0c0.2-1,0.4-1.9,0.6-2.8
					c0.3-0.9,0.6-1.6,0.9-2.3c0.4-0.6,0.8-1.1,1.2-1.4c0.4-0.3,0.8-0.4,1.3-0.4c0.5,0,0.9,0.1,1.3,0.3c0.5,0.3,0.8,0.6,1.3,1.1
					c0.4,0.5,0.8,1.1,1,1.8c0.3,0.8,0.6,1.5,0.8,2.4c0.2,0.9,0.4,1.8,0.5,2.7c0.1,1,0.2,1.9,0.2,2.8c0,0.8,0,1.7-0.1,2.7
					c-0.1,1-0.2,1.9-0.3,2.9C175.4,55,175.2,55.9,174.9,56.8z"/>
				<path class="st1" d="M202.8,34.8l-0.1-0.2L202.8,34.8c-0.2-0.5-0.4-1-0.8-1.4c-0.3-0.4-0.8-0.8-1.3-1c-0.5-0.3-1-0.4-1.6-0.4
					c-1.5,0-2.8,0.7-3.9,1.9c-1,1.1-2,2.6-2.8,4.5c-0.4,0.9-0.8,1.9-1.1,2.9c0-0.7,0.1-1.3,0.1-1.8c0-0.8,0.1-1.4,0.1-1.9l0,0
					c0-0.5,0-0.8,0-0.9c0-1.2-0.1-2.1-0.6-3c-0.2-0.4-0.6-0.8-1-1c-0.4-0.3-0.9-0.3-1.4-0.3c-0.7,0-1.4,0.2-2.5,0.6
					c-1.1,0.4-2.5,1-4.3,1.8l-0.7,0.4l0.5,3.6l1.3-0.4c0.4-0.1,0.7-0.3,1-0.3c0.3-0.1,0.5-0.2,0.7-0.2c0.2,0,0.4-0.1,0.5-0.1
					c0.1,0,0.3,0,0.4,0c0.1,0,0.2,0,0.3,0h0c0,0,0,0,0,0l0,0c0,0.1,0.1,0.3,0.1,0.6l0,0c0,0.3,0,0.8,0,1.3c0,0.6,0,1.5,0,2.6
					c0,1.1,0,2.3-0.1,3.7c0,1.4-0.1,2.9-0.1,4.5c0,1.6-0.1,3.2-0.2,4.8c0,1.6-0.1,3.3-0.2,4.8c-0.1,1.6-0.2,3-0.3,4.4l-0.1,1.1
					l1.5,0.1l4.2-0.7l0-0.9c0-0.9,0.2-2,0.3-3.3c0.2-1.3,0.3-2.8,0.6-4.3c0.3-1.5,0.5-3.1,0.8-4.7l0,0c0.3-1.6,0.7-3.1,1.1-4.5
					c0.4-1.4,0.8-2.7,1.3-3.9c0.5-1.1,1-2,1.5-2.7c0.3-0.4,0.6-0.6,0.9-0.8c0.3-0.2,0.5-0.2,0.8-0.2c0.3,0,0.5,0,0.7,0.2
					c0.3,0.1,0.5,0.4,1,0.8l0.3,0.4h1.1l0.3-0.3c0.5-0.5,1-1.2,1.2-2l0,0c0.3-0.7,0.4-1.4,0.4-2.2C203.1,36,203,35.4,202.8,34.8z"/>
			</g>
		</g>
		<g>
			<path class="st1" d="M203.6,63.6c-0.2,0.1-0.3,0.1-0.4,0.1c-0.1,0-0.2,0-0.3,0c-0.1,0-0.2,0-0.2-0.1l0,0c0,0-0.1-0.1-0.2-0.3
				s-0.1-0.4-0.1-0.6l0,0c0-0.3,0-0.6,0-1c0-0.6,0-1.2,0-1.7c0-0.6,0-1.1,0-1.6c0-0.5,0-1.1,0-1.6c0-0.5,0-1,0.1-1.6
				c0-0.5,0-1.1,0.1-1.6c0-0.6,0.1-1.2,0.1-1.8l0-0.2l-0.2-0.1c-0.1-0.1-0.2-0.1-0.3-0.2c-0.1,0-0.2-0.1-0.3-0.1c-0.1,0-0.2,0-0.3,0
				c-0.1,0-0.2,0.1-0.3,0.1c-0.1,0.1-0.2,0.1-0.2,0.2c-0.1,0.1-0.1,0.2-0.1,0.3l0,0c0,0.6-0.1,1.1-0.1,1.6c0,0.5,0,0.9-0.1,1.4
				c0,0.4,0,0.8,0,1.2c0,0.3,0,0.6,0,0.9c-0.3,0-0.6,0-0.8,0c-0.4,0-0.7,0-1.1,0c-0.4,0-0.7,0-1.1,0c-0.3,0-0.5,0-0.8,0
				c0-0.5,0-0.9,0-1.3c0-0.5,0-0.9,0-1.3c0-0.4,0-0.7,0-0.9c0-0.2,0-0.5,0-0.6c0-0.2,0-0.5,0-0.7l-0.3,0l0.3,0c0-0.2,0-0.4-0.1-0.6
				c-0.1-0.2-0.2-0.3-0.3-0.4c-0.2-0.1-0.4-0.1-0.6-0.1c-0.2,0-0.5,0-0.8,0.1c-0.3,0.1-0.6,0.2-1,0.3L194,52l0.1,1l0.3-0.1
				c0.3-0.1,0.5-0.1,0.6-0.1c0.1,0,0.2,0,0.2,0c0,0,0,0,0.1,0.1l0,0c0,0,0,0.1,0.1,0.2l0,0c0,0.1,0,0.2,0,0.4c0,0.9,0,1.8,0,2.7
				s0,1.8,0,2.7c0,0.9,0,1.9-0.1,2.8c0,1-0.1,2-0.1,3.1l0,0.3l0.4,0.1l1.3-0.2l0.1-6.3c0.3,0,0.6,0,0.9-0.1c0.4,0,0.7,0,1.1,0
				c0.4,0,0.7,0,1.1,0c0.3,0,0.5,0,0.8,0c0,0.1,0,0.3,0,0.4l0,0c0,0.2,0,0.5,0,0.7c0,0.3,0,0.5,0,0.8l0,0c0,0.3,0,0.6,0,0.9v1.3
				c0,0.5,0,0.8,0.1,1.2c0,0.3,0.1,0.6,0.2,0.8l0,0c0.1,0.2,0.2,0.4,0.4,0.5c0.2,0.1,0.4,0.2,0.6,0.2c0.1,0,0.3,0,0.4,0
				c0.1,0,0.3-0.1,0.4-0.1c0.2-0.1,0.3-0.1,0.5-0.2c0.2-0.1,0.4-0.2,0.6-0.3l0.2-0.1l-0.3-1L203.6,63.6z"/>
			<path class="st1" d="M201.3,51.6L201.3,51.6L201.3,51.6z"/>
			<path class="st1" d="M217,59c0-0.2-0.1-0.5-0.1-0.7l0,0c0-0.2-0.1-0.5-0.2-0.7l0,0c-0.1-0.2-0.2-0.4-0.3-0.6s-0.3-0.3-0.5-0.5
				c-0.2-0.1-0.4-0.2-0.7-0.2c-0.3,0-0.6,0.1-0.9,0.3c-0.3,0.2-0.6,0.5-0.8,0.9c-0.3,0.4-0.5,0.9-0.8,1.4c0,0.1-0.1,0.2-0.1,0.3
				c0,0,0,0,0,0c0-0.6,0.1-1.2,0.1-1.9c0-0.6,0.1-1.3,0.1-2c0-0.7,0.1-1.3,0.1-2c0-0.7,0.1-1.3,0.1-1.9c0.1-0.6,0.1-1.3,0.2-1.9
				l0-0.2l-0.1-0.1c-0.2-0.1-0.4-0.2-0.7-0.2c-0.1,0-0.2,0-0.3,0c-0.1,0-0.2,0.1-0.3,0.1c-0.1,0.1-0.2,0.2-0.2,0.3
				c-0.1,0.1-0.1,0.2-0.1,0.4l0,0c0,0.4,0,0.9-0.1,1.5s0,1.1-0.1,1.7s0,1.2-0.1,1.9c0,0.6,0,1.3-0.1,1.9s0,1.2-0.1,1.8
				s0,1.1-0.1,1.5v0c0,1-0.1,1.9-0.2,2.7c0,0.3-0.1,0.6-0.1,0.9l-0.2-0.3l-0.3,0.3c0,0-0.1,0.1-0.1,0.1l0,0c0,0-0.1,0.1-0.1,0.1
				c0,0-0.1,0-0.1,0.1c0,0-0.1,0-0.1,0c0,0-0.1,0-0.1-0.1c0,0-0.1-0.1-0.2-0.3c-0.1-0.2-0.1-0.5-0.2-0.9c0-0.4-0.1-0.9-0.1-1.5
				c0-0.3,0-0.7,0-1.1c0-0.4,0-0.8,0-1.2c0-0.4,0-0.8,0.1-1.2c0-0.4,0-0.8,0.1-1.1l0-0.3l-0.4,0l-1.1,0.2l0,0.2
				c0,0.9-0.1,1.8-0.3,2.6c-0.2,0.8-0.3,1.5-0.6,2.2c-0.2,0.6-0.4,1.1-0.7,1.4c-0.1,0.2-0.2,0.3-0.3,0.3c-0.1,0.1-0.1,0.1-0.2,0.1
				c-0.1,0-0.1,0-0.1,0c0,0-0.1-0.1-0.1-0.1c-0.1-0.1-0.1-0.4-0.1-0.8c0-0.1,0-0.3,0-0.5l0,0c0-0.2,0-0.5,0-0.7c0-0.3,0-0.6,0.1-0.8
				c0-0.3,0-0.6,0.1-0.9c0-0.3,0-0.6,0-0.9c0-0.3,0-0.6,0-0.8c0-0.2,0-0.3,0-0.5l-0.3,0l0.3,0c0-0.2,0-0.3-0.1-0.4l0,0
				c-0.1-0.1-0.1-0.2-0.2-0.3c-0.1-0.1-0.3-0.1-0.4-0.1c-0.1,0-0.2,0-0.3,0c-0.1,0-0.3,0.1-0.4,0.1c-0.2,0.1-0.3,0.1-0.5,0.2
				c-0.2,0.1-0.4,0.2-0.6,0.3l-0.2,0.1l0.1,1l0.3-0.1c0.2-0.1,0.3-0.1,0.4-0.1c0.1,0,0.2,0,0.3,0c0,0,0,0,0.1,0c0,0,0,0,0,0
				c0,0,0,0.1,0,0.2c0,0.1,0,0.2,0,0.4c0,0.4,0,0.8,0,1.2c0,0.4,0,0.8-0.1,1.2c0,0.4,0,0.8-0.1,1.1c0,0.4,0,0.7,0,0.9
				c0,0.4,0,0.8,0.1,1.1l0,0c0.1,0.3,0.2,0.5,0.3,0.8c0.1,0.2,0.3,0.4,0.5,0.5c0.2,0.1,0.4,0.1,0.6,0.1c0.3,0,0.6-0.1,0.8-0.3
				c0.3-0.2,0.5-0.5,0.8-0.9c0.2-0.4,0.4-0.9,0.6-1.5c0,0.4,0,0.7,0.1,1c0.1,0.4,0.2,0.7,0.3,0.9c0.1,0.2,0.3,0.4,0.5,0.5
				c0.2,0.1,0.4,0.2,0.6,0.2c0.2,0,0.3,0,0.5-0.1c0.1,0,0.3-0.1,0.4-0.2c0.1-0.1,0.3-0.2,0.4-0.3l0,0c0,0.1,0,0.1,0,0.2l-0.1,0.3
				l0.7,0.2l0.1-0.2c0.1-0.1,0.2-0.3,0.3-0.5c0-0.1,0.1-0.2,0.1-0.3c0,0,0.1,0.1,0.1,0.1l0,0l0,0l0,0c0.2,0.2,0.3,0.3,0.5,0.5
				c0.2,0.1,0.4,0.2,0.6,0.3s0.4,0.1,0.6,0.1c0.3,0,0.6-0.1,0.9-0.2s0.6-0.3,0.8-0.5c0.2-0.2,0.5-0.5,0.7-0.8
				c0.2-0.3,0.4-0.7,0.5-1.1c0.1-0.4,0.3-0.9,0.3-1.4c0.1-0.5,0.1-1,0.1-1.6C217.1,59.5,217,59.2,217,59L217,59z M210.3,63.9
				L210.3,63.9L210.3,63.9L210.3,63.9z M212.7,62.5L212.7,62.5c0-0.2,0.1-0.4,0.2-0.7c0.1-0.2,0.1-0.5,0.2-0.8
				c0.1-0.3,0.2-0.6,0.3-0.8c0.1-0.3,0.2-0.5,0.4-0.8c0.1-0.2,0.3-0.5,0.4-0.6c0.1-0.2,0.3-0.3,0.4-0.4c0.1-0.1,0.2-0.1,0.3-0.1
				c0,0,0.1,0,0.1,0.1c0.1,0.1,0.1,0.3,0.2,0.5c0.1,0.2,0.1,0.4,0.1,0.7c0,0.3,0,0.5,0,0.8c0,0.6-0.1,1.2-0.2,1.7l0.3,0.1l-0.3-0.1
				c-0.1,0.5-0.2,0.9-0.4,1.3c-0.2,0.3-0.4,0.6-0.6,0.7c-0.2,0.2-0.4,0.2-0.6,0.2c-0.1,0-0.2,0-0.3-0.1c-0.1-0.1-0.2-0.1-0.3-0.2
				l0,0c-0.1-0.1-0.2-0.2-0.3-0.4l0,0c-0.1-0.2-0.1-0.3-0.2-0.5C212.7,62.8,212.7,62.6,212.7,62.5z"/>
			<path class="st1" d="M221.4,61c-0.2-0.2-0.4-0.4-0.6-0.5c-0.2-0.1-0.4-0.3-0.6-0.4l0,0c-0.2-0.1-0.4-0.2-0.5-0.4
				c-0.2-0.1-0.3-0.2-0.4-0.3c-0.1-0.1-0.2-0.2-0.3-0.4l0,0c-0.1-0.1-0.1-0.3-0.1-0.4c0-0.1,0-0.2,0.1-0.4l0,0
				c0-0.1,0.1-0.2,0.2-0.3c0.1-0.1,0.2-0.2,0.3-0.2c0.1-0.1,0.2-0.1,0.4-0.1c0.1,0,0.2,0,0.3,0c0.1,0,0.1,0.1,0.2,0.1
				c0.1,0,0.1,0.1,0.2,0.2c0,0.1,0.1,0.2,0.1,0.3c0,0.1,0,0.1,0,0.2c0,0.1,0,0.2-0.1,0.3l0,0.1l0.1,0.3l0.1,0.1
				c0.2,0.1,0.3,0.1,0.5,0.1l0,0l0,0c0.2,0,0.3-0.1,0.5-0.1c0.1-0.1,0.2-0.2,0.3-0.3c0.1-0.1,0.1-0.2,0.1-0.4l0,0c0-0.1,0-0.2,0-0.3
				c0-0.3-0.1-0.5-0.2-0.7c-0.1-0.2-0.2-0.4-0.4-0.6c-0.2-0.2-0.4-0.3-0.6-0.3c-0.2-0.1-0.5-0.1-0.7-0.1c-0.2,0-0.4,0-0.6,0.1
				c-0.2,0-0.4,0.1-0.6,0.2c-0.2,0.1-0.4,0.2-0.5,0.4s-0.3,0.3-0.4,0.5c-0.1,0.2-0.2,0.4-0.3,0.7c-0.1,0.2-0.1,0.5-0.1,0.8
				c0,0.3,0,0.5,0.1,0.7c0.1,0.2,0.1,0.4,0.2,0.6c0.1,0.2,0.2,0.3,0.4,0.5c0.1,0.1,0.3,0.3,0.4,0.4c0.1,0.1,0.3,0.2,0.5,0.3
				c0.1,0.1,0.3,0.2,0.4,0.3l0,0c0.2,0.1,0.3,0.2,0.5,0.3c0.1,0.1,0.3,0.2,0.4,0.3c0.1,0.1,0.2,0.2,0.2,0.3c0,0.1,0.1,0.2,0.1,0.4
				c0,0.2,0,0.3-0.1,0.4c-0.1,0.1-0.1,0.2-0.2,0.3c-0.1,0.1-0.2,0.1-0.3,0.2c-0.1,0-0.2,0.1-0.3,0.1c-0.1,0-0.2,0-0.4-0.1
				c-0.1,0-0.2-0.1-0.3-0.2l0,0c-0.1-0.1-0.2-0.2-0.3-0.4l0,0c-0.1-0.2-0.1-0.4-0.1-0.6l0-0.1l-0.2-0.2l-0.1,0c-0.1,0-0.2,0-0.4,0.1
				c-0.1,0-0.2,0.1-0.3,0.2l0,0c-0.1,0.1-0.2,0.2-0.3,0.4s-0.1,0.3-0.1,0.5c0,0.2,0,0.4,0.1,0.6l0,0c0.1,0.2,0.2,0.3,0.3,0.5
				c0.1,0.1,0.2,0.3,0.4,0.4c0.1,0.1,0.3,0.2,0.5,0.3c0.2,0.1,0.3,0.1,0.5,0.2c0.2,0,0.3,0.1,0.5,0.1c0.3,0,0.6-0.1,0.9-0.2
				s0.6-0.3,0.8-0.5c0.2-0.2,0.4-0.5,0.6-0.9c0.1-0.3,0.2-0.7,0.2-1.1c0-0.4-0.1-0.7-0.2-1C221.7,61.5,221.6,61.2,221.4,61z"/>
		</g>
		<path class="st1" d="M54.4,66.7c-1.5-1-2.8-2.3-4-3.7c-1.2-1.4-2.2-3-3-4.7c-0.8-1.7-1.4-3.6-1.9-5.6c-0.4-2-0.6-4.1-0.6-6.4
			c0-2.1,0.2-4.3,0.6-6.5c0.4-2.1,1.1-4.3,1.9-6.2s1.9-3.9,3.2-5.6c1-1.3,2.1-2.5,3.4-3.6c-0.3-0.2-0.5-0.5-0.8-0.8
			c-0.7-1-1.2-2.3-1.8-3.4c-0.8-1.4-1.6-2.9-2.6-4.1c-1.4-1.7-3.3-2.8-5.9-3.4c-0.4,0.2-1.4,0.6-1.4,1c0,0.7,0.3,1.8,0.8,2.2
			c0.8,0.6,2,0.8,3,1.2c0.9,0.4,2,0.7,2.7,1.3c1.9,1.7,2,4.5,0.6,6.4c-1.7,2.2-4.6,2.8-7,1.5c-1.6-0.8-2.5-2.2-3.2-3.8
			c-0.4-0.8-0.7-1.7-1.2-2.4c-0.6-1-1.5-1.5-2.7-1.4c-1.4,0.2-2,1.3-1.3,2.5c0.4,0.6,0.9,1.1,1.4,1.6c1.6,1.9,1.4,4.7-0.5,6.4
			c-1.5,1.3-3.4,1.2-5.3,0c-2.6-1.6-5.3-3.2-8-4.6c-1.6-0.8-3.3,0.5-2.8,2.2c0.2,0.7,0.9,1.4,1.6,1.7c1.6,0.7,3.3,1.1,4.9,1.7
			c1.4,0.5,2.8,1.1,4,1.9c2.6,2,1.9,5.3-1.1,6.4c-0.2,0.1-0.4,0.2-0.7,0.3c-1.3,0.6-1.4,1.5-0.2,2.4c0.4,0.3,0.9,0.6,1.4,0.9
			c1.7,1.1,1.8,2.2,0.2,3.5c-0.1,0.1-0.3,0.3-0.5,0.4c-1.2,1-1.3,2.2-0.3,3.4c0.5,0.6,1.1,1.2,1.7,1.8c0.8,1,0.9,2,0.4,3.2
			c-0.6,1.4-1.8,2.2-3.1,2.8c-4,1.9-8.3,2.5-12.7,2.3c-0.9,0-1.9,0.1-2.7,0.4c-0.8,0.3-1.3,1-1.2,1.9c0.1,0.9,0.7,1.5,1.5,1.7
			c0.6,0.1,1.3,0.3,1.8,0.2c2.4-0.4,4.8-0.8,7.2-1.4c4.4-1,8.7-1.3,13,0.8c1.4,0.7,3.3,0.8,4.9,0.9c1.6,0.1,3.3,0.1,5,0
			c2.3,1.6,4.8,2.8,7.7,3.8h0c1.3,0.4,2.7,0.8,4,1c0.2,0.9,0.4,1.9,0.8,2.8c0.4,0.9,1.1,1.9,1.9,2.5c0.6,0.4,1.7,0.4,2.4,0.1
			c1.2-0.5,1.7-1.8,1.4-3c-0.1-0.6-0.3-1.2-0.5-1.8c-0.4-0.1-0.8-0.2-1.3-0.3C57.5,68.5,55.9,67.7,54.4,66.7z"/>
		<path class="st1" d="M82.2,60.1c-0.2-0.2-0.3-0.4-0.5-0.5c-0.2-0.2-0.4-0.3-0.6-0.4c-0.2-0.1-0.3-0.2-0.4-0.2l-0.2-0.1
			c-0.1,0.5-0.3,1-0.7,1.4c-4.3,5.6-11.5,8.9-19.3,9c0,0,0,0.1,0,0.1c1.4,0.3,2.9,0.5,4.3,0.5c1.4,0,2.9-0.2,4.4-0.4
			c1.5-0.3,2.9-0.8,4.4-1.4c1.4-0.7,2.8-1.5,4.2-2.5c1.4-1,2.8-2.3,4.1-3.8l0.1,0l0.1,0c0.2-0.2,0.3-0.4,0.3-0.8
			C82.5,60.6,82.4,60.3,82.2,60.1z"/>
		<g>
			<path class="st1" d="M59.9,26.9c-1,0.9-1.9,1.9-2.7,3.2c-0.8,1.3-1.4,2.7-1.9,4.2c-0.5,1.5-0.9,3.1-1.2,4.8
				c-0.3,1.7-0.4,3.4-0.4,5.2c0,2.1,0.2,4,0.5,5.8c0.3,1.8,0.8,3.5,1.4,5c0.6,1.5,1.3,2.8,2.2,4c0.8,1.2,1.7,2.1,2.7,2.9
				c1,0.7,2,1.3,3.1,1.7c1.1,0.4,2.2,0.6,3.4,0.6c0.8,0,1.7-0.1,2.7-0.3c0.9-0.2,1.8-0.5,2.8-0.9c1-0.4,2-1,3.1-1.7l0,0l0,0
				c1-0.7,2.1-1.5,3.1-2.5l0.9-0.9l0.7,0.4c0-0.1,0-0.3,0-0.4c0-1.1-0.5-2.2-1.5-3c-5.6-4.8-9-11.6-9-18.4c0-2.1,0.3-4.3,1-6.4l0,0
				l0,0c0,0,0,0,0,0l0,0l0,0l0,0c0.1-0.3,0.2-0.7,0.2-1.1c0-1.5-1-3-2.7-3.8c-0.8-0.4-1.6-0.7-2.4-1c-1,0.1-1.9,0.3-2.7,0.6
				C62,25.4,60.9,26,59.9,26.9L59.9,26.9L59.9,26.9z"/>
			<path class="st1" d="M80.8,22.7c-0.7-0.6-1.7-1.2-2.9-1.7c-1.2-0.5-2.6-1-4.1-1.3c-1.6-0.4-3.4-0.5-5.2-0.5
				c-2.7,0-5.2,0.4-7.4,1.2c-2.2,0.8-4.2,1.8-6,3.1c-0.4,0.3-0.8,0.6-1.2,1c0.6,0.5,1.4,0.8,2.2,0.7c0.2-0.3,0.5-0.6,0.7-0.9
				c1-1.2,2.8-1.8,4.6-1.5c1.2,0.2,2.4,0.5,3.5,0.9l0,0c0.1,0,0.3,0.1,0.4,0.1c0.2,0,0.3,0,0.5-0.1l0.1,0l0,0
				c0.2,0.1,0.3,0.1,0.5,0.2c0.3,0,0.5,0,0.8,0c0.9,0,1.8,0.1,2.6,0.3c0.9,0.2,1.7,0.4,2.4,0.8c0.7,0.4,1.4,0.8,2.1,1.3
				c0.6,0.5,1.2,1.1,1.7,1.8c0.4,0.7,0.7,1.4,0.9,2.1c0.2,0.8,0.3,1.6,0.3,2.5c0,0.2,0,0.4,0,0.5c0,0.2,0,0.3-0.1,0.5l-0.1,1
				l4.5,0.2l0.1-1.1c0.1-2.1,0.2-3.9,0.3-5.4s0.1-2.7,0.1-3.7C82.1,24.1,81.5,23.3,80.8,22.7z"/>
			<path class="st2" d="M66,23.8L66,23.8c-0.2,0-0.4,0-0.5,0.1c0.2,0.1,0.3,0.1,0.5,0.2c0.2,0,0.4,0,0.6,0
				C66.4,23.9,66.2,23.9,66,23.8L66,23.8z"/>
			<path class="st2" d="M79,59.3c-1.1,1-2.2,1.8-3.2,2.5l0,0l0,0c-1.1,0.7-2.1,1.3-3.1,1.7c-1,0.4-2,0.8-2.9,1l0,0l0,0
				c-1,0.2-1.9,0.3-2.8,0.3c-1.3,0-2.4-0.2-3.5-0.6c-1.1-0.4-2.2-1-3.3-1.8l0,0l0,0c-1-0.8-2-1.8-2.8-3c-0.9-1.2-1.6-2.6-2.2-4.1
				l0,0l0,0c-0.6-1.5-1.1-3.2-1.4-5c-0.3-1.8-0.5-3.8-0.5-5.9c0-1.8,0.1-3.5,0.4-5.2c0.3-1.7,0.6-3.4,1.2-4.9c0.5-1.6,1.2-3,2-4.3
				l0,0l0,0c0.8-1.3,1.7-2.4,2.8-3.3l0,0c0,0,0,0,0,0c0,0,0,0,0,0l0,0c1-0.9,2.2-1.6,3.5-2.1c0.7-0.3,1.5-0.5,2.4-0.6
				c-0.1,0-0.3-0.1-0.4-0.1l0,0c-1.2-0.4-2.4-0.7-3.5-0.9C59.7,22.5,58,23,57,24.3c-0.2,0.3-0.5,0.6-0.7,0.9c-0.8,0-1.6-0.2-2.2-0.7
				c-1.2,1.1-2.4,2.3-3.4,3.6c-1.3,1.7-2.3,3.6-3.2,5.6s-1.5,4.1-1.9,6.2c-0.4,2.2-0.6,4.3-0.6,6.5c0,2.2,0.2,4.4,0.6,6.4
				c0.4,2,1.1,3.9,1.9,5.6c0.8,1.7,1.8,3.3,3,4.7c1.2,1.4,2.5,2.6,4,3.7c1.5,1,3.1,1.8,4.9,2.3c0.4,0.1,0.8,0.2,1.3,0.3
				c0,0,0-0.1,0-0.1c7.8-0.2,14.9-3.5,19.3-9c0.3-0.4,0.5-0.8,0.6-1.2l-0.7-0.4L79,59.3z"/>
		</g>
	</g>
</g>
</svg>
