<?xml version="1.0" encoding="utf-8"?>
<!-- Generator: Adobe Illustrator 25.4.1, SVG Export Plug-In . SVG Version: 6.00 Build 0)  -->
<svg version="1.1" id="Layer_1" xmlns="http://www.w3.org/2000/svg" xmlns:xlink="http://www.w3.org/1999/xlink" x="0px" y="0px"
	 viewBox="0 0 220 63" style="enable-background:new 0 0 220 63;" xml:space="preserve">
<style type="text/css">
	.st0{fill:#FFFFFF;}
	.st1{fill:#091B33;}
	.st2{fill:#46AE74;}
</style>
<g>
	<path class="st0" d="M201.1,45.4c0.1-0.2,0.2-0.5,0.3-0.7c0-0.1,0-0.2,0.1-0.3l0,0c0-0.2,0.1-0.5,0.1-0.8c0-0.7-0.1-1.3-0.4-1.9
		c0,0,0,0,0-0.1c-0.3-0.6-0.6-1.1-1.1-1.5c-0.5-0.4-1-0.7-1.6-0.9c-0.5-0.2-1-0.3-1.6-0.3c-0.4,0-0.8,0.1-1.3,0.2
		c-0.3,0.1-0.6,0.2-0.8,0.3c-0.2-0.1-0.4-0.2-0.6-0.2c0,0,0,0,0,0c0-0.3,0-0.5,0.1-0.8c0-0.2,0-0.5,0.1-0.7c0-0.3,0-0.6,0.1-0.8
		c0,0,0-0.2,0-0.2c0.1-1.1-0.4-2.2-1.3-2.8c0,0-0.1-0.1-0.1-0.1c-0.7-0.5-1.5-0.7-2.3-0.7c-0.3,0-0.6,0-0.9,0.1
		c-0.5,0.1-1,0.3-1.4,0.6c-0.4,0.3-0.8,0.7-1.1,1.2c-0.3,0.5-0.5,1.1-0.5,1.8c0,0.4,0,0.8-0.1,1.2c0,0.4,0,0.8-0.1,1.3l-0.2,0
		c-0.1,0-0.3,0.1-0.4,0.1c-0.2-0.1-0.3-0.1-0.5-0.2c0-0.1,0-0.3,0-0.4c0,0,0-0.2,0-0.2c0.1-1.2-0.5-2.3-1.6-2.9l-0.1-0.1
		c-0.3-0.2-0.5-0.3-0.7-0.3c-0.1,0-0.2-0.1-0.3-0.1c-0.4-0.1-0.8-0.2-1.2-0.2c-0.4,0-0.9,0.1-1.3,0.2c-0.4,0.1-0.7,0.3-1,0.5
		c0,0,0,0-0.1,0c0,0,0,0-0.1,0.1c-0.1-0.1-0.1-0.1-0.2-0.2c-0.3-0.2-0.7-0.4-1.1-0.5c0.3-0.8,0.5-1.8,0.9-2.6c0,0,0.1-0.2,0.1-0.2
		c0.4,0.2,0.8,0.3,1.2,0.3h0.9c0.8,0,1.6-0.3,2.2-0.9l0.3-0.3c0.8-0.8,1.4-1.8,1.8-2.8c0.3-0.9,0.5-1.8,0.5-2.7
		c0-0.9-0.1-1.7-0.3-2.5c-0.2-0.8-0.6-1.6-1.2-2.2c-0.6-0.7-1.3-1.3-2.1-1.7c-0.8-0.4-1.8-0.6-2.7-0.6c-1.7,0-3.4,0.7-4.8,1.9
		c-0.3-0.4-0.7-0.7-1.1-0.9c-0.8-0.5-1.7-0.7-2.8-0.7c-1.1,0-2,0.3-3.1,0.7c-1,0.3-2.2,0.8-3.9,1.7c0,0-0.1,0-0.1,0.1l0,0
		c-0.3-0.3-0.6-0.5-0.9-0.8c0,0,0,0,0,0c-1.5-1.2-3.4-1.8-5.3-1.8c-1.6,0-3.2,0.4-4.6,1.1c-1,0.5-1.8,1.1-2.6,1.9
		c-0.3-0.6-0.7-1.1-1.2-1.4c-0.5-0.3-1.1-0.5-1.6-0.5c-0.3,0-0.5,0-0.8,0.1c0,0-1,0.2-1,0.3c0,0-0.1,0-0.2,0
		c0.1-0.8,0.2-1.5,0.2-2.3l0-0.3c0.2-2.1,0.5-4.3,0.9-6.7c0,0,0,0,0-0.1l0.1-0.5c0.1-1.1-0.3-2.1-1.1-2.8l-0.4-0.3
		c0,0-0.1-0.1-0.1-0.1c-0.4-0.3-0.9-0.7-1.7-0.9C142.2,6,141.4,6,140.9,6c-0.5,0-1,0.1-1.5,0.2c-0.4,0.1-0.8,0.3-1.2,0.5
		c-0.2,0.1-0.5,0.2-0.7,0.4l-0.1,0.1c-0.2,0.2-0.4,0.4-0.6,0.6c-0.3,0.3-0.6,0.7-0.8,1.1c-0.4,0.7-0.6,1.4-0.7,2.3l-0.1,0.6
		c-0.2,1.6-0.4,3.3-0.6,5.2c-0.1,1.3-0.3,2.7-0.4,4.2c-0.2,0.1-0.5,0.2-0.7,0.3c-0.3,0.2-0.7,0.4-1,0.7c-0.7-1-1.7-1.8-2.7-2.3
		c-1.2-0.6-2.6-0.9-4.2-0.9c-0.9,0-1.8,0.2-2.5,0.3c-0.1,0-0.1,0-0.2,0c-0.6,0.2-1.5,0.4-2.4,0.9c-0.9,0.4-1.6,0.9-2.3,1.4
		c-0.4,0.3-0.8,0.6-1.1,1c-0.2-0.3-0.5-0.7-0.8-1c0,0,0,0-0.1-0.1c-0.8-0.8-1.8-1.5-2.9-1.9c-1.1-0.4-2.2-0.6-3.3-0.6
		c-1.5,0-3,0.3-4.4,1c0,0,0,0,0,0c-0.8,0.4-1.5,0.9-2.3,1.5c0-0.1-0.1-0.1-0.1-0.2c-0.6-0.7-1.3-1.3-2.1-1.7
		c-0.5-0.3-1.1-0.5-1.7-0.6c-0.1-0.2-0.1-0.4-0.2-0.6c0.3-0.6,0.4-1.2,0.4-1.9c0-0.6-0.1-1.2-0.3-1.7c-0.2-0.5-0.5-1-0.9-1.4
		c0,0,0,0-0.1-0.1c-0.4-0.4-0.9-0.7-1.4-1c-0.5-0.2-1.1-0.3-1.6-0.3c-0.7,0-1.4,0.1-2,0.4c0,0,0,0,0,0c0,0,0,0,0,0
		c0,0-0.1,0-0.1-0.1c0,0,0-0.1,0-0.1c0-0.4,0.1-0.9,0.1-1.4c0,0,0-0.2,0-0.2c0.1-1.1-0.4-2.2-1.3-2.8l-0.1-0.1
		c-0.7-0.5-1.4-0.7-2.2-0.7c-0.3,0-0.6,0-0.9,0.1c-0.5,0.1-0.9,0.3-1.3,0.6c-0.4,0.3-0.7,0.6-0.9,1c-0.2,0-0.4,0-0.4,0
		c-0.1,0-0.1,0-0.2,0l-0.5,0c-0.1,0-0.5,0-0.5,0c-0.1,0-0.3,0-0.5,0c-0.7,0-1.4,0.2-2,0.5c-0.6,0.3-1,0.7-1.4,1.3
		c-0.4-0.2-0.8-0.4-1.2-0.6c-1.1-0.5-2.5-0.9-4-1.3c0,0,0,0,0,0c-1.5-0.3-3.2-0.5-5-0.5c-2.5,0-5,0.4-7.2,1.1
		c-1.4,0.5-2.8,1.1-4.1,1.9c-0.1-0.2-0.2-0.4-0.3-0.6c-0.1-0.2-0.3-0.4-0.4-0.7c-0.6-1-1.2-2.2-2.1-3.2c-1.7-2-3.8-3.2-6.6-3.9
		c-0.2-0.1-0.5-0.1-0.7-0.1c-0.6,0-1.2,0.2-1.7,0.5c0,0-0.1,0-0.1,0.1c-0.7,0.3-2.4,1.2-2.5,3.3c0,0.6,0,1.3,0.2,2
		c-0.8-0.4-1.7-0.7-2.6-0.7c-0.2,0-0.4,0-0.7,0c-1.6,0.2-3,1.1-3.7,2.5c-0.7,1.4-0.5,3,0.3,4.3c0.4,0.6,0.8,1,1.1,1.4
		c0.1,0.1,0.2,0.2,0.3,0.3c0.2,0.3,0.2,0.7-0.1,0.9c0,0,0,0,0,0c-0.1,0-0.3-0.1-0.6-0.3c-2.4-1.5-4.7-2.8-6.9-4
		c-0.7-0.4-1.5-0.6-2.3-0.6c-1.5,0-2.8,0.7-3.7,1.8c-0.9,1.2-1.2,2.7-0.8,4.2c0.4,1.7,1.9,3,3.1,3.5c0.9,0.4,1.7,0.7,2.6,0.9
		c0.6,0.2,1.1,0.3,1.6,0.5l0.4,0.2c0.8,0.3,1.6,0.6,2.1,1c-0.3,0.1-0.5,0.2-0.8,0.3c-2.1,1-2.6,2.6-2.7,3.4
		c-0.1,0.9,0.1,2.5,1.9,3.9c-1.5,1.9-1.5,4.3,0.2,6.3c0.3,0.4,0.6,0.7,0.9,1c0.1,0.1,0.1,0.2,0.2,0.2c-0.1,0.1-0.4,0.3-0.8,0.5
		c-2.4,1.1-4.9,1.6-7.8,1.6c-0.4,0-0.9,0-1.3,0c-0.2,0-0.3,0-0.5,0c-1,0-2.1,0.2-3,0.5c-2.1,0.7-3.3,2.7-3.1,4.9
		c0.2,2.1,1.6,3.7,3.7,4.2c0.4,0.1,1.1,0.3,1.9,0.3c0.3,0,0.6,0,0.9-0.1c2.4-0.4,4.3-0.8,6.1-1.2c1.8-0.4,3.2-0.6,4.4-0.6
		c1.6,0,3,0.3,4.3,1c1.8,0.9,4,1,5.4,1c1.2,0,2.3,0,3.1,0c0.1,0,0.1,0,0.2,0c2,1.2,4.1,2.2,6.3,3c0.6,0.2,1.1,0.4,1.7,0.5
		c0.1,0.3,0.2,0.7,0.4,1c0.7,1.5,1.6,2.5,2.6,3.3c1,0.7,2.1,0.8,2.9,0.8c0,0,0,0,0,0c0.5,0,1.3-0.1,2.1-0.4c1.5-0.6,2.5-1.9,2.9-3.3
		c0.1,0,0.1,0,0.2,0c1.4,0,2.8-0.1,4.2-0.4c1.5-0.3,2.9-0.7,4.4-1.4c1.4-0.7,2.7-1.5,4-2.4c1.1-0.8,2.2-1.8,3.2-2.9l0,0.1
		c-0.1,1.7,1.1,3.2,2.9,3.4l1.2,0.1c0.1,0,0.2,0,0.3,0c0.2,0,0.3,0,0.5,0l3.5-0.6c1.5-0.2,2.5-1.5,2.6-2.9l0-0.7
		c0-0.5,0.1-1.1,0.2-1.8c0-0.3,0-0.5,0.1-0.8l0-0.4c0.1-1,0.2-2,0.4-3c0.2-1.2,0.4-2.5,0.7-3.8c0.2-1.1,0.5-2.3,0.8-3.5
		c0,0,0-0.1,0-0.1c-0.1,1-0.2,2-0.2,3c0,1.9,0.2,3.7,0.7,5.4c0.5,1.8,1.1,3.3,1.9,4.6c0.9,1.5,2,2.7,3.4,3.6c0,0,0,0,0,0
		c1.5,1,3.2,1.5,5.1,1.5c1,0,2.1-0.2,3.1-0.6c1-0.3,2-0.9,2.9-1.6c0.3-0.2,0.6-0.5,1-0.8c0.6,0.8,1.4,1.4,2.2,1.9c0,0,0,0,0.1,0
		c1.1,0.6,2.4,1,3.6,1c1.6,0,3.1-0.5,4.5-1.5c0,0,0,0,0,0c0.3-0.2,0.6-0.5,0.9-0.8c0.5,0.5,1,0.9,1.6,1.2c1,0.6,2.3,0.9,3.6,0.9
		c1.5,0,2.9-0.4,4.2-1.2c0.3-0.2,0.6-0.4,0.9-0.6c0.4,0.4,0.8,0.8,1.3,1.1c1.1,0.7,2.3,1,3.7,1c0.8,0,1.7-0.1,2.6-0.4
		c0.8-0.2,1.5-0.6,2.3-1c0.7-0.4,1.3-0.8,2-1.2c0,0,0,0,0.1-0.1c0.1-0.1,0.1-0.1,0.2-0.2c0.4,0.4,0.8,0.7,1.2,1.1c0,0,0,0,0,0
		c1.5,1.2,3.4,1.8,5.3,1.8c1.6,0,3.2-0.4,4.6-1.1c1.3-0.7,2.4-1.6,3.4-2.7c0.7-0.8,1.3-1.6,1.8-2.4c0,0.5-0.1,0.9-0.1,1.4l-0.1,0.9
		c-0.1,1.7,1.1,3.2,2.9,3.4l1.2,0.1c0.1,0,0.2,0,0.3,0c0.2,0,0.3,0,0.5,0l3.5-0.6c0.4-0.1,0.8-0.2,1.2-0.4c0.4,0.4,1,0.6,1.6,0.7
		l0.3,0c0.2,0,0.3,0,0.5,0c0.2,0,0.4,0,0.5,0l1-0.2c0.5-0.1,0.9-0.3,1.3-0.5c0.1,0,0.1,0.1,0.2,0.1c0,0,0,0,0,0
		c0.7,0.4,1.4,0.7,2.2,0.7c0.4,0,0.7,0,0.8-0.1c0.1,0,0.1,0,0.2,0c0.2,0,0.4-0.1,0.5-0.2c0.5,0.2,1,0.3,1.5,0.3
		c0.6,0,1.1-0.1,1.6-0.3c0.5,0.2,1,0.3,1.5,0.3c0.2,0,0.4,0,0.7,0c0.3,0.1,0.6,0.1,0.9,0.1c0.3,0,0.6,0,0.9-0.1
		c0.3,0.1,0.7,0.1,1,0.1c0.7,0,1.3-0.1,2-0.4c0.1-0.1,0.3-0.1,0.4-0.2c0.2,0.1,0.3,0.2,0.5,0.2c0.3,0.1,0.7,0.2,1,0.3
		c0.4,0.1,0.7,0.1,1,0.1c0.7,0,1.4-0.1,2-0.4c0.6-0.3,1.2-0.6,1.7-1.1c0.5-0.5,0.9-1,1.1-1.7c0,0,0,0,0,0c0.3-0.7,0.4-1.4,0.4-2.2
		c0-0.7-0.1-1.3-0.4-1.9C201.1,45.5,201.1,45.5,201.1,45.4z"/>
	<g>
		<g>
			<path class="st1" d="M92.8,20c-0.1,0.1-0.2,0.1-0.3,0.1c-0.1,0-0.2,0-0.2,0c0,0-0.1,0-0.1,0c0,0,0,0,0-0.1c0,0,0-0.1,0-0.2
				c0-0.1,0-0.3,0-0.5c0-0.1,0-0.2,0-0.4c0-0.2,0-0.3,0-0.5c0-0.2,0-0.3,0-0.5c0-0.2,0-0.3,0-0.5c0-0.2,0-0.3,0-0.4
				c0-0.1,0-0.2,0-0.3c0-0.3,0-0.5-0.1-0.7c0-0.2-0.1-0.4-0.2-0.5c-0.1-0.1-0.2-0.2-0.3-0.3c-0.1-0.1-0.3-0.1-0.4-0.1
				c-0.2,0-0.4,0.1-0.6,0.2c-0.2,0.1-0.4,0.4-0.5,0.7c-0.2,0.3-0.3,0.7-0.5,1.1l0,0c0-0.1,0-0.1,0-0.2c0-0.3,0-0.6,0-0.9
				c0-0.3,0-0.6,0-0.9c0-0.3,0-0.6,0.1-0.9c0-0.3,0-0.7,0.1-1c0-0.4,0.1-0.8,0.1-1.2c0-0.4,0.1-0.9,0.1-1.4l0-0.1L90,10.4
				c-0.1-0.1-0.3-0.2-0.5-0.2c-0.1,0-0.1,0-0.2,0s-0.1,0-0.2,0.1c-0.1,0-0.1,0.1-0.1,0.2c0,0.1-0.1,0.2-0.1,0.2l0,0
				c0,0.4,0,0.8,0,1.2c0,0.4,0,0.9-0.1,1.3c0,0.4,0,0.9-0.1,1.4c0,0.5,0,0.9-0.1,1.4c0,0.5,0,0.9-0.1,1.3c0,0.4,0,0.9-0.1,1.3
				s0,0.8,0,1.2c0,0.4,0,0.7,0,1l0,0.2l0.3,0l0.8-0.1l0-0.2c0-0.4,0.1-0.7,0.1-1.1c0.1-0.4,0.1-0.7,0.2-1.1c0.1-0.3,0.2-0.7,0.3-0.9
				c0.1-0.3,0.2-0.5,0.3-0.7c0.1-0.2,0.2-0.4,0.3-0.5c0.1-0.1,0.2-0.1,0.2-0.1c0,0,0.1,0,0.1,0c0,0,0,0,0.1,0.1
				c0.1,0.1,0.1,0.3,0.1,0.5c0,0.1,0,0.3,0,0.4c0,0.2,0,0.4,0,0.6c0,0.2,0,0.5,0,0.7c0,0.3,0,0.5,0,0.7c0,0.2,0,0.4,0,0.6
				c0,0.2,0,0.3,0.1,0.5c0,0.1,0.1,0.3,0.2,0.4c0.1,0.1,0.2,0.2,0.4,0.2c0.1,0,0.2,0,0.4-0.1c0.1,0,0.2-0.1,0.4-0.2
				c0.1-0.1,0.2-0.1,0.3-0.2c0.1-0.1,0.2-0.2,0.3-0.2l0.1-0.1L93,19.8L92.8,20z"/>
			<path class="st1" d="M95.6,17.8c0.2-0.1,0.4-0.3,0.6-0.6c0.1-0.2,0.2-0.5,0.2-0.8c0-0.2,0-0.4-0.1-0.5c-0.1-0.2-0.1-0.3-0.3-0.4
				c-0.1-0.1-0.2-0.2-0.4-0.3c-0.1-0.1-0.3-0.1-0.5-0.1c-0.2,0-0.5,0.1-0.7,0.1c-0.2,0.1-0.4,0.2-0.5,0.4c-0.2,0.2-0.3,0.4-0.4,0.6
				c-0.1,0.2-0.2,0.5-0.3,0.7c-0.1,0.3-0.1,0.5-0.2,0.8c0,0.3-0.1,0.6-0.1,0.8c0,0.3,0,0.7,0.1,1c0.1,0.3,0.2,0.6,0.3,0.8
				c0.1,0.2,0.3,0.4,0.5,0.6c0.2,0.1,0.5,0.2,0.7,0.2c0.1,0,0.3,0,0.5-0.1c0.2-0.1,0.3-0.1,0.4-0.2c0.1-0.1,0.3-0.2,0.4-0.4
				c0.1-0.2,0.2-0.3,0.4-0.5l0,0l0,0l0,0l0,0c0,0,0-0.1,0-0.1c0-0.1,0-0.1,0-0.2l0,0c0,0,0-0.1-0.1-0.1l0,0c0,0,0,0-0.1-0.1l0,0
				c0,0,0,0-0.1,0L96,19.4l-0.1,0.2c-0.2,0.2-0.3,0.4-0.5,0.5l0.1,0.2L95.4,20c-0.1,0.1-0.3,0.1-0.4,0.1s-0.2,0-0.3-0.1
				c-0.1-0.1-0.2-0.2-0.3-0.4c-0.1-0.2-0.2-0.4-0.2-0.6c-0.1-0.2-0.1-0.5-0.1-0.7c0.3,0,0.6-0.1,0.8-0.2
				C95.1,18,95.4,17.9,95.6,17.8z M94.1,17.6c0-0.1,0-0.1,0-0.2c0-0.1,0.1-0.3,0.1-0.4s0.1-0.3,0.1-0.4c0.1-0.1,0.1-0.2,0.2-0.3
				c0.1-0.1,0.1-0.1,0.2-0.2c0.1,0,0.1-0.1,0.2-0.1c0,0,0.1,0,0.1,0c0,0,0.1,0.1,0.1,0.1l0,0c0,0.1,0.1,0.1,0.1,0.2
				c0,0.1,0,0.2,0,0.3c0,0.1,0,0.3-0.1,0.4l0,0c-0.1,0.1-0.1,0.2-0.3,0.3c-0.1,0.1-0.3,0.2-0.5,0.2C94.4,17.5,94.2,17.5,94.1,17.6z"
				/>
			<path class="st1" d="M88.6,12l0-0.2l-0.2,0c-0.1,0-0.2,0-0.2,0c-0.1,0-0.2,0-0.2,0c-0.1,0-0.2,0-0.3,0c-0.1,0-0.2,0-0.4,0
				c-0.1,0-0.3,0-0.5,0c-0.2,0-0.4,0-0.7,0c-0.1,0-0.3,0-0.5,0c-0.2,0-0.3,0-0.5,0c-0.1,0-0.3,0-0.4,0c-0.1,0-0.3,0-0.4,0
				c-0.2,0-0.4,0-0.5,0.1c-0.1,0.1-0.2,0.2-0.3,0.3c-0.1,0.1-0.1,0.3-0.1,0.5c0,0.2,0,0.4,0,0.7c0,0.2,0,0.5,0,0.8v0.2l0.7,0v-0.3
				c0-0.3,0-0.5,0-0.6c0-0.2,0.1-0.3,0.1-0.4c0-0.1,0.1-0.2,0.1-0.2c0,0,0.1-0.1,0.1-0.1c0.1,0,0.1,0,0.2,0c0.1,0,0.2,0,0.3,0
				c0.1,0,0.2,0,0.3,0c0,0,0.1,0,0.1,0c0,0.5,0,0.9,0,1.4c0,0.5,0,1,0,1.4c0,0.4,0,0.9,0,1.3c0,0.4,0,0.9,0,1.3c0,0.4,0,0.9,0,1.3
				c0,0.4,0,0.9,0,1.4l0,0.2l0.3,0l0.8-0.1v-0.2c0-0.4,0-0.9,0-1.4c0-0.5,0-0.9,0-1.4s0-1,0-1.4c0-0.5,0-0.9,0-1.4
				c0-0.5,0-0.9,0-1.3c0-0.3,0-0.7,0-1c0.2,0,0.5,0,0.7,0.1c0.3,0,0.5,0.1,0.7,0.1c0.2,0,0.4-0.1,0.6-0.2c0.1-0.1,0.2-0.3,0.2-0.5
				C88.7,12.2,88.7,12.1,88.6,12z"/>
		</g>
		<g>
			<g>
				<path class="st1" d="M83.2,41L83.2,41L83.2,41z"/>
				<path class="st1" d="M100.3,29.2c0.5-0.5,0.8-1,1-1.6c0.2-0.6,0.3-1.2,0.3-1.8c0-0.5-0.1-1-0.2-1.4l0,0
					c-0.1-0.4-0.3-0.8-0.6-1.2s-0.6-0.6-1-0.8c-0.4-0.2-0.9-0.3-1.3-0.3c-1.2,0-2.3,0.6-3.2,1.6c-0.9,0.9-1.6,2.2-2.3,3.7
					c-0.3,0.8-0.6,1.6-0.9,2.4c0-0.6,0.1-1.1,0.1-1.5l0,0c0-0.6,0.1-1.1,0.1-1.6c0-0.4,0-0.6,0-0.8c0-1-0.1-1.8-0.5-2.5
					c-0.2-0.3-0.5-0.7-0.8-0.9c-0.3-0.2-0.8-0.3-1.2-0.3c-0.6,0-1.1,0.2-2,0.5c-0.9,0.3-2.1,0.8-3.6,1.5l-0.6,0.3l0.5,3l1-0.3
					c0.3-0.1,0.6-0.2,0.8-0.3c0.2-0.1,0.4-0.1,0.6-0.2c0.2,0,0.3-0.1,0.4-0.1c0.1,0,0.2,0,0.3,0c0.1,0,0.2,0,0.2,0h0c0,0,0,0,0,0
					l0,0c0,0.1,0.1,0.3,0.1,0.5l0,0c0,0.3,0,0.6,0,1c0,0.5,0,1.2,0,2.1c0,0.9,0,1.9-0.1,3.1c0,1.1-0.1,2.4-0.1,3.7
					c0,1.3-0.1,2.7-0.1,4c0,1.4-0.1,2.7-0.2,4c-0.1,1.3-0.1,2.5-0.2,3.6l-0.1,0.9l1.2,0.1l3.5-0.6l0-0.7c0-0.7,0.1-1.7,0.2-2.8
					c0.1-1.1,0.3-2.3,0.5-3.5c0.2-1.2,0.5-2.6,0.7-3.9c0.3-1.3,0.6-2.6,0.9-3.8c0.3-1.2,0.7-2.3,1.1-3.2c0.4-0.9,0.8-1.7,1.2-2.2
					l0,0c0.2-0.3,0.5-0.5,0.7-0.6c0.2-0.1,0.5-0.2,0.7-0.2c0.2,0,0.4,0,0.6,0.1c0.2,0.1,0.5,0.3,0.8,0.7l0.3,0.3h0.9L100.3,29.2z"/>
				<path class="st1" d="M112,34.3c1.1-0.7,2-1.5,2.6-2.6c0.7-1,1-2.3,1-3.6c0-0.9-0.1-1.8-0.5-2.5c-0.3-0.7-0.7-1.4-1.2-1.9
					c-0.5-0.5-1.1-0.9-1.8-1.2c-0.7-0.3-1.4-0.4-2.1-0.4c-1.1,0-2.1,0.2-3.1,0.7c-0.9,0.5-1.8,1.1-2.5,1.9c-0.8,0.8-1.4,1.7-2,2.7
					c-0.6,1-1.1,2.1-1.5,3.3c-0.4,1.2-0.7,2.4-0.9,3.7c-0.2,1.3-0.3,2.6-0.3,3.9c0,1.6,0.2,3.1,0.6,4.5c0.4,1.4,0.9,2.7,1.6,3.8
					c0.7,1.1,1.5,2,2.5,2.6c1,0.7,2.1,1,3.3,1c0.7,0,1.4-0.1,2.1-0.4c0.7-0.2,1.4-0.6,2-1.1c0.7-0.5,1.3-1.1,1.9-1.8
					c0.6-0.7,1.1-1.6,1.6-2.5l0,0l0,0l0,0l0,0c0.1-0.2,0.1-0.3,0.1-0.6c0-0.3-0.1-0.5-0.2-0.7l0,0c-0.1-0.1-0.2-0.3-0.3-0.4l0,0
					c-0.1-0.1-0.2-0.2-0.3-0.3l0,0c-0.1-0.1-0.2-0.1-0.2-0.2l-0.7-0.5l-0.5,0.7c-0.8,1.1-1.5,1.9-2.2,2.3l0.5,0.8l-0.5-0.8
					c-0.7,0.5-1.3,0.6-1.9,0.6c-0.6,0-1-0.2-1.6-0.6c-0.5-0.4-1-1-1.5-1.8c-0.5-0.8-0.8-1.8-1-2.9c-0.2-1-0.3-2.2-0.4-3.4
					c1.3-0.2,2.6-0.4,3.7-0.8C109.7,35.6,110.9,35,112,34.3z M104.7,33.3c0-0.3,0.1-0.6,0.1-0.9c0.1-0.7,0.3-1.4,0.5-2
					s0.4-1.3,0.7-1.8c0.2-0.6,0.5-1,0.8-1.4c0.3-0.4,0.6-0.7,1-0.9c0.3-0.2,0.6-0.3,1-0.3c0.2,0,0.4,0,0.6,0.2
					c0.2,0.1,0.4,0.3,0.6,0.6l0,0c0.2,0.2,0.3,0.6,0.4,1c0.1,0.4,0.2,0.8,0.2,1.3c0,0.7-0.1,1.2-0.4,1.7l0,0
					c-0.3,0.5-0.7,0.9-1.2,1.3c-0.6,0.4-1.3,0.7-2.2,1C106.1,33.1,105.4,33.2,104.7,33.3z"/>
				<path class="st1" d="M134.2,45.4c-0.7,0.6-1.3,0.8-1.6,0.8c-0.2,0-0.3,0-0.5-0.1c-0.1-0.1-0.3-0.3-0.5-0.7
					c-0.3-0.6-0.6-1.8-0.6-3.4c0-1,0-2.1,0.1-3.2c0-1.1,0.1-2.1,0.2-3.1s0.1-2,0.2-2.9c0-0.9,0.1-1.8,0.1-2.6c0-1.2-0.1-2.3-0.3-3.2
					c-0.2-1-0.5-1.8-1-2.6c-0.5-0.8-1.1-1.4-1.9-1.8c-0.8-0.4-1.7-0.6-2.7-0.6c-0.6,0-1.2,0.1-1.8,0.2c-0.6,0.2-1.2,0.4-1.9,0.7
					c-0.6,0.3-1.2,0.7-1.8,1.1c-0.6,0.5-1.1,0.9-1.6,1.5c-0.5,0.6-0.8,1.2-1.1,1.9c-0.3,0.7-0.4,1.5-0.4,2.3c0,0.5,0.1,1,0.2,1.4
					c0.1,0.4,0.3,0.8,0.6,1.1c0.2,0.3,0.6,0.6,1,0.8s0.8,0.3,1.2,0.3c0.7,0,1.4-0.2,2-0.7l0.3-0.2l0.2-0.9l-0.2-0.3
					c-0.2-0.5-0.5-1-0.6-1.5c-0.1-0.5-0.2-1-0.2-1.5c0-0.4,0-0.8,0.1-1.1l0,0c0.1-0.3,0.2-0.5,0.4-0.7c0.2-0.2,0.4-0.3,0.7-0.5
					c0.3-0.1,0.7-0.2,1.2-0.2c0.3,0,0.6,0.1,1,0.2c0.3,0.1,0.6,0.4,0.9,0.7c0.3,0.3,0.5,0.8,0.7,1.4c0.2,0.6,0.3,1.3,0.3,2.1
					c0,0.8,0,1.6-0.1,2.3c0,0.4-0.1,0.9-0.1,1.3c-0.7,0-1.4,0.1-2,0.2c-1,0.2-1.9,0.4-2.7,0.8c-0.9,0.3-1.7,0.8-2.4,1.3
					c-0.8,0.6-1.4,1.2-2,1.9c-0.6,0.8-1,1.6-1.3,2.5c-0.3,0.9-0.5,2-0.5,3.1c0,0.9,0.1,1.7,0.3,2.5c0.2,0.8,0.5,1.4,0.9,2
					c0.4,0.6,0.9,1.1,1.5,1.4c0.6,0.3,1.4,0.6,2.1,0.6c0.9,0,1.8-0.3,2.6-0.9c0.7-0.6,1.4-1.2,2-2c0.5-0.7,0.9-1.4,1.4-2.2
					c0,0.3,0.1,0.6,0.1,0.8c0.2,0.9,0.5,1.6,0.9,2.2c0.4,0.6,0.9,1.1,1.5,1.5c0.6,0.3,1.3,0.5,2,0.5c0.9,0,1.8-0.3,2.6-0.8
					s1.5-1.2,2.1-2l0.3-0.5l-1.1-2.3L134.2,45.4z M126.1,38.5c-0.2,0.8-0.4,1.5-0.7,2.1c-0.3,0.7-0.6,1.3-0.9,1.9
					c-0.3,0.6-0.7,1-1,1.4c-0.3,0.4-0.7,0.7-1,0.9c-0.3,0.2-0.5,0.2-0.7,0.2c-0.2,0-0.2,0-0.3-0.1l0,0c-0.1-0.1-0.2-0.2-0.3-0.4
					c-0.1-0.2-0.2-0.5-0.3-0.9l0,0c-0.1-0.3-0.1-0.8-0.1-1.1c0-0.7,0.1-1.4,0.2-1.9c0.2-0.5,0.4-1,0.7-1.3c0.3-0.4,0.6-0.7,1-0.9
					c0.4-0.3,0.9-0.5,1.4-0.7c0.5-0.2,1-0.3,1.6-0.4c0.2,0,0.5-0.1,0.7-0.1C126.3,37.7,126.3,38.1,126.1,38.5z"/>
				<path class="st1" d="M117.8,32.3L117.8,32.3L117.8,32.3z"/>
				<path class="st1" d="M138.7,10.3L138.7,10.3L138.7,10.3z"/>
				<path class="st1" d="M146.6,27.1L146.6,27.1L146.6,27.1z"/>
				<polygon class="st1" points="139.3,9.6 139.4,9.5 139.4,9.5 				"/>
				<path class="st1" d="M147.5,24.7L147.5,24.7L147.5,24.7L147.5,24.7z"/>
				<path class="st1" d="M147.6,44.5l-0.5-0.7l-0.7,0.5c-0.7,0.5-1.3,0.8-1.8,1c-0.5,0.2-0.9,0.3-1.2,0.3c-0.5,0-0.8-0.1-1-0.3l0,0
					c-0.3-0.2-0.5-0.6-0.7-1.2l0,0c-0.2-0.6-0.3-1.4-0.5-2.3l0,0c-0.1-0.9-0.1-2-0.1-3.3c0-0.7,0-1.5,0-2.4c0-0.9,0-1.9,0.1-2.9
					c0-1,0.1-2.2,0.1-3.4c0-0.9,0.1-1.8,0.2-2.7c0.5,0,0.9,0.1,1.3,0.2c0.7,0.1,1.4,0.1,2,0.1c0.7,0,1.2-0.1,1.7-0.3
					c0.3-0.2,0.6-0.5,0.8-0.8c0.1-0.3,0.2-0.7,0.2-1c0-0.2,0-0.4,0-0.6c0-0.2-0.1-0.4-0.1-0.6l-0.2-0.9l-0.9,0.2
					c-0.4,0.1-0.9,0.2-1.7,0.2c-0.2,0-0.4,0-0.7,0c-0.2,0-0.6,0-0.9,0c-0.3,0-0.7,0-1.1,0c-0.1,0-0.1,0-0.2,0c0.1-2,0.3-4,0.6-6.1
					c0.2-2.4,0.6-4.6,0.9-6.9l0.1-0.5l-0.4-0.3c-0.3-0.2-0.6-0.4-0.9-0.5l0,0c-0.3-0.1-0.7-0.2-1.1-0.2c-0.2,0-0.5,0-0.8,0.1
					c-0.3,0.1-0.6,0.2-0.8,0.4l0,0c-0.3,0.2-0.5,0.5-0.6,0.7c-0.2,0.3-0.3,0.7-0.3,1.1l0,0c-0.2,1.7-0.5,3.7-0.7,5.9
					c-0.2,2-0.4,4.1-0.6,6.2c-0.3,0-0.6,0.1-0.8,0.2c-0.5,0.1-0.9,0.3-1.3,0.5s-0.7,0.5-1,0.8c-0.3,0.3-0.5,0.8-0.5,1.3
					c0,0.2,0,0.3,0.1,0.6l0.3,0.8l0.8-0.3c0.3-0.1,0.8-0.2,1.3-0.3c0.2,0,0.5,0,0.8-0.1c-0.1,0.8-0.1,1.6-0.2,2.4
					c-0.1,1.2-0.1,2.3-0.2,3.5l0,0c0,1.2-0.1,2.3-0.1,3.5s0,2.3,0,3.3c0,1.9,0.1,3.5,0.3,4.9c0.2,1.3,0.5,2.4,0.9,3.2
					c0.4,0.8,0.9,1.5,1.6,1.9c0.6,0.4,1.3,0.6,2,0.6c0.6,0,1.1-0.1,1.7-0.3s1.1-0.4,1.7-0.7c0.6-0.3,1.1-0.7,1.7-1.1
					c0.6-0.4,1.1-0.9,1.7-1.4l0.3-0.3l0-0.5C148.2,45.5,148,45,147.6,44.5z"/>
				<path class="st1" d="M163,26c-0.6-1.1-1.4-2.1-2.4-2.8c-1-0.8-2.2-1.1-3.4-1.1c-1.1,0-2.1,0.2-3.1,0.8c-0.9,0.5-1.8,1.1-2.5,2
					c-0.7,0.8-1.4,1.8-1.9,2.8c-0.6,1-1,2.2-1.4,3.4c-0.3,1.2-0.6,2.4-0.8,3.7c-0.2,1.2-0.3,2.5-0.3,3.7c0,1.5,0.1,2.9,0.5,4.3l0,0
					c0.3,1.4,0.8,2.7,1.4,3.8c0.6,1.1,1.4,2.1,2.4,2.8c1,0.8,2.2,1.1,3.4,1.1c1.1,0,2.1-0.2,3.1-0.8c0.9-0.5,1.8-1.1,2.5-2
					c0.7-0.8,1.4-1.8,1.9-2.8c0.6-1,1-2.2,1.4-3.4c0.4-1.2,0.7-2.4,0.8-3.7c0.2-1.2,0.3-2.5,0.3-3.7c0-1.5-0.1-2.9-0.5-4.3
					C164.1,28.3,163.7,27.1,163,26z M159.1,42.6c-0.2,0.7-0.5,1.4-0.8,1.9c-0.3,0.5-0.6,0.9-1,1.2c-0.3,0.2-0.6,0.3-1.1,0.3
					c-0.4,0-0.8-0.1-1.1-0.3c-0.4-0.2-0.7-0.5-1-0.9c-0.3-0.4-0.6-0.9-0.9-1.5c-0.2-0.6-0.5-1.3-0.7-2c-0.2-0.7-0.3-1.5-0.4-2.3
					c-0.1-0.8-0.1-1.6-0.1-2.3c0-0.7,0-1.4,0.1-2.2l0,0c0.1-0.8,0.1-1.6,0.3-2.4l0,0c0.1-0.8,0.3-1.6,0.5-2.3
					c0.2-0.7,0.5-1.4,0.8-1.9c0.3-0.5,0.6-0.9,1-1.2c0.3-0.2,0.7-0.3,1.1-0.3c0.4,0,0.8,0.1,1.1,0.3c0.4,0.2,0.7,0.5,1,0.9
					c0.3,0.4,0.6,0.9,0.9,1.5c0.2,0.6,0.5,1.3,0.7,2c0.2,0.7,0.3,1.5,0.4,2.3c0.1,0.8,0.1,1.6,0.1,2.4c0,0.7,0,1.4-0.1,2.2
					c-0.1,0.8-0.1,1.6-0.3,2.4C159.5,41.1,159.4,41.8,159.1,42.6z"/>
				<path class="st1" d="M182.4,24.3l-0.1-0.2L182.4,24.3c-0.1-0.5-0.3-0.8-0.6-1.2c-0.3-0.3-0.6-0.6-1-0.8
					c-0.4-0.2-0.9-0.3-1.3-0.3c-1.2,0-2.3,0.6-3.2,1.6c-0.9,0.9-1.6,2.2-2.3,3.7c-0.3,0.8-0.6,1.6-0.9,2.4c0-0.6,0.1-1.1,0.1-1.5
					c0-0.6,0.1-1.2,0.1-1.6l0,0c0-0.4,0-0.6,0-0.8c0-1-0.1-1.8-0.5-2.5c-0.2-0.3-0.5-0.7-0.8-0.9c-0.3-0.2-0.8-0.3-1.2-0.3
					c-0.6,0-1.1,0.2-2,0.5c-0.9,0.3-2.1,0.8-3.6,1.5l-0.6,0.3l0.5,3l1-0.3c0.3-0.1,0.6-0.2,0.8-0.3c0.2-0.1,0.4-0.1,0.6-0.2
					c0.2,0,0.3-0.1,0.4-0.1c0.1,0,0.2,0,0.3,0c0.1,0,0.2,0,0.2,0h0c0,0,0,0,0,0l0,0c0,0.1,0.1,0.3,0.1,0.5l0,0c0,0.3,0,0.6,0,1
					c0,0.5,0,1.2,0,2.1c0,0.9,0,1.9-0.1,3.1c0,1.1-0.1,2.4-0.1,3.7c0,1.3-0.1,2.7-0.1,4c0,1.4-0.1,2.7-0.2,4
					c-0.1,1.3-0.1,2.5-0.2,3.6l-0.1,0.9l1.2,0.1l3.5-0.6l0-0.7c0-0.7,0.1-1.7,0.2-2.8c0.1-1.1,0.3-2.3,0.5-3.5
					c0.2-1.2,0.5-2.6,0.7-3.9l0,0c0.3-1.3,0.6-2.6,0.9-3.8c0.3-1.2,0.7-2.3,1.1-3.2c0.4-0.9,0.8-1.7,1.2-2.2
					c0.2-0.3,0.5-0.5,0.7-0.6c0.2-0.1,0.5-0.2,0.7-0.2c0.2,0,0.4,0,0.6,0.1c0.2,0.1,0.5,0.3,0.8,0.7l0.3,0.3h0.9l0.3-0.3
					c0.5-0.5,0.8-1,1-1.6l0,0c0.2-0.6,0.3-1.2,0.3-1.8C182.6,25.2,182.5,24.7,182.4,24.3z"/>
			</g>
		</g>
		<g>
			<path class="st1" d="M183,48.3c-0.1,0.1-0.2,0.1-0.3,0.1c-0.1,0-0.2,0-0.2,0c-0.1,0-0.1,0-0.2,0l0,0c0,0-0.1-0.1-0.1-0.2
				c0-0.1-0.1-0.3-0.1-0.5l0,0c0-0.2,0-0.5,0-0.8c0-0.5,0-1,0-1.4c0-0.5,0-0.9,0-1.4c0-0.4,0-0.9,0-1.3c0-0.4,0-0.9,0-1.3
				c0-0.4,0-0.9,0.1-1.4s0.1-1,0.1-1.5l0-0.1l-0.1-0.1c-0.1-0.1-0.2-0.1-0.3-0.1c-0.1,0-0.2,0-0.3,0c-0.1,0-0.2,0-0.2,0
				c-0.1,0-0.2,0.1-0.2,0.1c-0.1,0.1-0.1,0.1-0.2,0.2c-0.1,0.1-0.1,0.2-0.1,0.3l0,0c0,0.5,0,0.9-0.1,1.4c0,0.4,0,0.8,0,1.1
				c0,0.4,0,0.7,0,1c0,0.2,0,0.5,0,0.7c-0.2,0-0.5,0-0.7,0c-0.3,0-0.6,0-0.9,0s-0.6,0-0.9,0c-0.2,0-0.5,0-0.7,0c0-0.4,0-0.8,0-1.1
				c0-0.4,0-0.7,0-1c0-0.3,0-0.5,0-0.8c0-0.2,0-0.4,0-0.5c0-0.2,0-0.4,0-0.5l-0.2,0l0.2,0c0-0.2,0-0.3-0.1-0.5
				c-0.1-0.1-0.2-0.3-0.3-0.4c-0.1-0.1-0.3-0.1-0.5-0.1c-0.2,0-0.4,0-0.6,0.1c-0.2,0.1-0.5,0.1-0.9,0.3l-0.2,0.1l0.1,0.9l0.3-0.1
				c0.2,0,0.4-0.1,0.5-0.1c0.1,0,0.1,0,0.2,0c0,0,0,0,0.1,0l0,0c0,0,0,0.1,0,0.2l0,0c0,0.1,0,0.2,0,0.3c0,0.8,0,1.5,0,2.3
				c0,0.7,0,1.5,0,2.3c0,0.8,0,1.6-0.1,2.4c0,0.8,0,1.7-0.1,2.6l0,0.2l0.3,0l1-0.2l0.1-5.2c0.2,0,0.5,0,0.7,0c0.3,0,0.6,0,0.9,0
				c0.3,0,0.6,0,0.9,0c0.2,0,0.4,0,0.7,0c0,0.1,0,0.2,0,0.3l0,0c0,0.2,0,0.4,0,0.6c0,0.2,0,0.4,0,0.7l0,0c0,0.2,0,0.5,0,0.7v1.1
				c0,0.4,0,0.7,0,1c0,0.3,0.1,0.5,0.2,0.7l0,0c0.1,0.2,0.2,0.3,0.3,0.4c0.1,0.1,0.3,0.1,0.5,0.1c0.1,0,0.2,0,0.4,0
				c0.1,0,0.2-0.1,0.4-0.1c0.1,0,0.3-0.1,0.4-0.2c0.1-0.1,0.3-0.2,0.5-0.3l0.2-0.1l-0.2-0.9L183,48.3z"/>
			<path class="st1" d="M181.1,38.3L181.1,38.3L181.1,38.3z"/>
			<path class="st1" d="M194.2,44.4c0-0.2,0-0.4-0.1-0.6l0,0c0-0.2-0.1-0.4-0.1-0.6l0,0c-0.1-0.2-0.1-0.4-0.2-0.5
				c-0.1-0.2-0.2-0.3-0.4-0.4c-0.2-0.1-0.4-0.2-0.6-0.2c-0.3,0-0.5,0.1-0.7,0.3c-0.2,0.2-0.5,0.4-0.7,0.8c-0.2,0.3-0.4,0.7-0.7,1.2
				c0,0.1-0.1,0.2-0.1,0.2c0,0,0,0,0,0c0-0.5,0-1,0.1-1.6c0-0.5,0.1-1.1,0.1-1.6c0-0.6,0.1-1.1,0.1-1.6c0-0.5,0.1-1.1,0.1-1.6
				c0-0.5,0.1-1,0.1-1.6l0-0.1l-0.1-0.1c-0.2-0.1-0.4-0.2-0.6-0.2c-0.1,0-0.2,0-0.2,0c-0.1,0-0.2,0.1-0.2,0.1
				c-0.1,0.1-0.1,0.1-0.2,0.2c-0.1,0.1-0.1,0.2-0.1,0.3l0,0c0,0.4,0,0.8-0.1,1.2s0,0.9-0.1,1.4c0,0.5,0,1-0.1,1.6
				c0,0.5,0,1.1-0.1,1.6c0,0.5,0,1-0.1,1.5c0,0.5,0,0.9,0,1.2v0c0,0.8-0.1,1.6-0.1,2.3c0,0.3-0.1,0.5-0.1,0.8l-0.1-0.3l-0.2,0.2
				c0,0-0.1,0-0.1,0.1l0,0c0,0-0.1,0-0.1,0.1c0,0-0.1,0-0.1,0c0,0,0,0-0.1,0c0,0-0.1,0-0.1-0.1c0,0-0.1-0.1-0.2-0.3
				c-0.1-0.2-0.1-0.4-0.2-0.7c0-0.3-0.1-0.7-0.1-1.2c0-0.3,0-0.6,0-0.9s0-0.6,0-1c0-0.3,0-0.7,0-1c0-0.3,0-0.6,0.1-0.9l0-0.2l-0.3,0
				l-0.9,0.2l0,0.2c0,0.8-0.1,1.5-0.2,2.2c-0.1,0.7-0.3,1.3-0.5,1.8c-0.2,0.5-0.4,0.9-0.5,1.2c-0.1,0.1-0.2,0.2-0.2,0.3
				c-0.1,0-0.1,0.1-0.1,0.1c0,0-0.1,0-0.1,0c0,0-0.1-0.1-0.1-0.1c-0.1-0.1-0.1-0.3-0.1-0.7c0-0.1,0-0.3,0-0.5l0,0c0-0.2,0-0.4,0-0.6
				s0-0.5,0-0.7c0-0.2,0-0.5,0-0.7c0-0.2,0-0.5,0-0.7c0-0.2,0-0.5,0-0.7c0-0.1,0-0.3,0-0.4l-0.2,0l0.2,0c0-0.1,0-0.2-0.1-0.3l0,0
				c0-0.1-0.1-0.2-0.2-0.3c-0.1-0.1-0.2-0.1-0.4-0.1c-0.1,0-0.2,0-0.2,0c-0.1,0-0.2,0.1-0.3,0.1c-0.1,0-0.3,0.1-0.4,0.2
				s-0.3,0.1-0.5,0.2l-0.2,0.1l0.1,0.8l0.3-0.1c0.1,0,0.2-0.1,0.4-0.1c0.1,0,0.2,0,0.2,0c0,0,0,0,0,0c0,0,0,0,0,0c0,0,0,0.1,0,0.2
				c0,0.1,0,0.2,0,0.3c0,0.3,0,0.7,0,1c0,0.4,0,0.7-0.1,1c0,0.3,0,0.6-0.1,0.9c0,0.3,0,0.6,0,0.8c0,0.4,0,0.6,0.1,0.9l0,0
				c0.1,0.2,0.1,0.5,0.3,0.6c0.1,0.2,0.2,0.3,0.4,0.4c0.1,0.1,0.3,0.1,0.5,0.1c0.2,0,0.5-0.1,0.7-0.3c0.2-0.2,0.4-0.4,0.6-0.8
				c0.2-0.3,0.4-0.7,0.5-1.2c0,0.3,0,0.6,0.1,0.9c0.1,0.3,0.1,0.5,0.3,0.7c0.1,0.2,0.2,0.4,0.4,0.5c0.2,0.1,0.3,0.1,0.5,0.1
				c0.1,0,0.3,0,0.4-0.1c0.1,0,0.2-0.1,0.4-0.2c0.1-0.1,0.2-0.2,0.3-0.2l0,0c0,0,0,0.1,0,0.1l-0.1,0.2l0.6,0.2l0.1-0.2
				c0.1-0.1,0.2-0.3,0.2-0.5c0-0.1,0.1-0.1,0.1-0.2c0,0,0,0.1,0.1,0.1l0,0l0,0l0,0c0.1,0.2,0.3,0.3,0.4,0.4c0.2,0.1,0.3,0.2,0.5,0.2
				c0.2,0,0.3,0.1,0.5,0.1c0.2,0,0.5-0.1,0.7-0.2s0.5-0.3,0.7-0.5s0.4-0.4,0.6-0.7c0.2-0.3,0.3-0.6,0.4-0.9c0.1-0.4,0.2-0.7,0.3-1.1
				c0.1-0.4,0.1-0.9,0.1-1.4C194.2,44.8,194.2,44.6,194.2,44.4L194.2,44.4z M188.6,48.5L188.6,48.5L188.6,48.5L188.6,48.5z
				 M190.6,47.3L190.6,47.3c0-0.2,0.1-0.4,0.1-0.6c0.1-0.2,0.1-0.4,0.2-0.7c0.1-0.2,0.2-0.5,0.3-0.7c0.1-0.2,0.2-0.4,0.3-0.6
				c0.1-0.2,0.2-0.4,0.3-0.5c0.1-0.1,0.2-0.3,0.3-0.3c0.1-0.1,0.2-0.1,0.3-0.1c0,0,0,0,0.1,0.1c0.1,0.1,0.1,0.2,0.2,0.4
				c0,0.2,0.1,0.4,0.1,0.6c0,0.2,0,0.4,0,0.6c0,0.5,0,1-0.1,1.4l0.2,0l-0.2,0c-0.1,0.4-0.2,0.8-0.3,1c-0.1,0.3-0.3,0.5-0.5,0.6
				c-0.2,0.1-0.3,0.2-0.5,0.2c-0.1,0-0.2,0-0.3-0.1c-0.1,0-0.2-0.1-0.3-0.2l0,0c-0.1-0.1-0.2-0.2-0.2-0.3l0,0
				c-0.1-0.1-0.1-0.3-0.1-0.5C190.5,47.5,190.6,47.4,190.6,47.3z"/>
			<path class="st1" d="M197.8,46.1c-0.1-0.2-0.3-0.3-0.5-0.5c-0.2-0.1-0.4-0.2-0.5-0.4l0,0c-0.1-0.1-0.3-0.2-0.4-0.3
				c-0.1-0.1-0.2-0.2-0.3-0.3c-0.1-0.1-0.2-0.2-0.2-0.3l0,0c0-0.1-0.1-0.2-0.1-0.4c0-0.1,0-0.2,0.1-0.3l0,0c0-0.1,0.1-0.2,0.2-0.3
				c0.1-0.1,0.1-0.1,0.2-0.2c0.1,0,0.2-0.1,0.3-0.1c0.1,0,0.1,0,0.2,0c0.1,0,0.1,0,0.2,0.1c0,0,0.1,0.1,0.1,0.2c0,0.1,0,0.1,0.1,0.3
				c0,0.1,0,0.1,0,0.2c0,0.1,0,0.1-0.1,0.2l0,0.1l0.1,0.2l0.1,0c0.1,0,0.3,0.1,0.4,0.1l0,0l0,0c0.1,0,0.3,0,0.4-0.1
				c0.1-0.1,0.2-0.2,0.2-0.3c0.1-0.1,0.1-0.2,0.1-0.3l0,0c0-0.1,0-0.2,0-0.3c0-0.2,0-0.4-0.1-0.6c-0.1-0.2-0.2-0.3-0.4-0.5
				c-0.1-0.1-0.3-0.2-0.5-0.3c-0.2-0.1-0.4-0.1-0.6-0.1c-0.2,0-0.3,0-0.5,0.1c-0.2,0-0.3,0.1-0.5,0.2c-0.2,0.1-0.3,0.2-0.4,0.3
				c-0.1,0.1-0.3,0.3-0.4,0.4c-0.1,0.2-0.2,0.4-0.2,0.6c-0.1,0.2-0.1,0.4-0.1,0.7c0,0.2,0,0.4,0.1,0.6c0,0.2,0.1,0.4,0.2,0.5
				c0.1,0.1,0.2,0.3,0.3,0.4c0.1,0.1,0.2,0.2,0.3,0.3c0.1,0.1,0.2,0.2,0.4,0.3c0.1,0.1,0.2,0.2,0.4,0.2l0,0c0.1,0.1,0.3,0.2,0.4,0.3
				c0.1,0.1,0.2,0.2,0.3,0.2c0.1,0.1,0.1,0.2,0.2,0.3c0,0.1,0.1,0.2,0.1,0.3c0,0.1,0,0.2-0.1,0.3c0,0.1-0.1,0.2-0.2,0.2
				c-0.1,0.1-0.1,0.1-0.2,0.1c-0.1,0-0.2,0.1-0.3,0.1c-0.1,0-0.2,0-0.3-0.1c-0.1,0-0.2-0.1-0.3-0.2l0,0c-0.1-0.1-0.2-0.2-0.2-0.4
				l0,0c-0.1-0.1-0.1-0.3-0.1-0.5l0-0.1l-0.2-0.2l-0.1,0c-0.1,0-0.2,0-0.3,0.1c-0.1,0-0.2,0.1-0.3,0.2l0,0c-0.1,0.1-0.2,0.2-0.2,0.3
				s-0.1,0.3-0.1,0.4c0,0.2,0,0.3,0.1,0.5l0,0c0.1,0.1,0.1,0.3,0.2,0.4c0.1,0.1,0.2,0.2,0.3,0.3c0.1,0.1,0.2,0.2,0.4,0.2
				s0.3,0.1,0.4,0.1c0.1,0,0.3,0,0.4,0c0.3,0,0.5,0,0.8-0.1c0.2-0.1,0.5-0.2,0.7-0.4c0.2-0.2,0.4-0.4,0.5-0.7c0.1-0.3,0.2-0.6,0.2-1
				c0-0.3,0-0.6-0.1-0.8C198.1,46.4,198,46.2,197.8,46.1z"/>
		</g>
		<path class="st1" d="M58.9,50.8c-1.2-0.9-2.3-1.9-3.3-3c-1-1.2-1.8-2.5-2.5-3.9c-0.7-1.4-1.2-3-1.6-4.7c-0.4-1.7-0.5-3.4-0.5-5.3
			c0-1.8,0.2-3.6,0.5-5.4c0.4-1.8,0.9-3.5,1.6-5.2c0.7-1.7,1.6-3.2,2.7-4.7c0.8-1.1,1.8-2.1,2.8-3c-0.2-0.2-0.4-0.4-0.6-0.7
			c-0.6-0.9-1-1.9-1.5-2.8c-0.7-1.2-1.3-2.4-2.2-3.4c-1.2-1.4-2.7-2.3-4.9-2.8c-0.3,0.2-1.1,0.5-1.2,0.8c0,0.6,0.2,1.5,0.7,1.9
			c0.7,0.5,1.7,0.6,2.5,1c0.8,0.3,1.6,0.6,2.2,1.1c1.6,1.4,1.7,3.7,0.5,5.3c-1.4,1.8-3.8,2.3-5.8,1.3c-1.3-0.7-2.1-1.8-2.6-3.2
			c-0.3-0.7-0.6-1.4-1-2c-0.5-0.8-1.2-1.3-2.2-1.1c-1.1,0.1-1.6,1.1-1,2c0.3,0.5,0.8,0.9,1.1,1.3c1.3,1.6,1.2,3.9-0.4,5.3
			c-1.3,1.1-2.8,1-4.4,0c-2.2-1.4-4.4-2.7-6.7-3.8c-1.4-0.7-2.7,0.4-2.4,1.8c0.1,0.6,0.8,1.2,1.3,1.4c1.3,0.6,2.7,0.9,4.1,1.4
			c1.1,0.4,2.4,0.9,3.3,1.6c2.1,1.7,1.6,4.4-0.9,5.4c-0.2,0.1-0.4,0.1-0.5,0.2c-1.1,0.5-1.2,1.2-0.2,2c0.4,0.3,0.8,0.5,1.2,0.7
			c1.4,0.9,1.5,1.8,0.2,2.9c-0.1,0.1-0.3,0.2-0.4,0.3c-1,0.9-1.1,1.8-0.3,2.8c0.4,0.5,0.9,1,1.4,1.5c0.7,0.8,0.8,1.7,0.3,2.7
			c-0.5,1.1-1.5,1.8-2.5,2.3c-3.4,1.6-6.9,2.1-10.6,1.9c-0.8,0-1.6,0.1-2.3,0.3c-0.7,0.2-1.1,0.8-1,1.6c0.1,0.8,0.6,1.2,1.3,1.4
			c0.5,0.1,1,0.2,1.5,0.1c2-0.3,4-0.7,6-1.1c3.7-0.8,7.3-1.1,10.8,0.7c1.2,0.6,2.7,0.7,4.1,0.7c1.4,0,2.7,0,4.1,0
			c1.9,1.3,4,2.4,6.4,3.1h0c1.1,0.4,2.2,0.6,3.3,0.8c0.2,0.8,0.3,1.6,0.6,2.3c0.4,0.8,0.9,1.6,1.5,2c0.5,0.3,1.4,0.4,2,0.1
			c1-0.4,1.4-1.5,1.1-2.5c-0.1-0.5-0.3-1-0.5-1.5c-0.4-0.1-0.7-0.2-1-0.3C61.5,52.3,60.2,51.6,58.9,50.8z"/>
		<path class="st1" d="M82,45.3c-0.1-0.2-0.3-0.3-0.4-0.4c-0.1-0.1-0.3-0.2-0.5-0.3c-0.1-0.1-0.3-0.1-0.4-0.2l-0.2-0.1
			c-0.1,0.4-0.3,0.8-0.6,1.2c-3.6,4.6-9.5,7.4-16,7.5c0,0,0,0.1,0,0.1c1.2,0.3,2.4,0.4,3.6,0.4c1.2,0,2.4-0.1,3.6-0.4
			c1.2-0.2,2.4-0.6,3.6-1.2c1.2-0.6,2.3-1.3,3.5-2.1c1.2-0.9,2.3-1.9,3.4-3.2l0,0l0,0c0.1-0.2,0.3-0.4,0.3-0.7
			C82.3,45.7,82.2,45.5,82,45.3z"/>
		<g>
			<path class="st1" d="M63.5,17.7c-0.8,0.7-1.6,1.6-2.2,2.7c-0.7,1.1-1.2,2.2-1.6,3.5c-0.4,1.3-0.7,2.6-1,4
				c-0.2,1.4-0.3,2.9-0.3,4.3c0,1.7,0.1,3.3,0.4,4.8c0.3,1.5,0.7,2.9,1.1,4.1c0.5,1.2,1.1,2.4,1.8,3.3c0.7,1,1.4,1.8,2.3,2.4
				c0.8,0.6,1.7,1.1,2.6,1.4c0.9,0.3,1.8,0.5,2.8,0.5c0.7,0,1.4-0.1,2.2-0.2c0.7-0.2,1.5-0.4,2.4-0.8c0.8-0.4,1.7-0.8,2.5-1.4l0,0
				l0,0c0.8-0.6,1.7-1.2,2.6-2.1l0.8-0.7l0.6,0.3c0-0.1,0-0.2,0-0.3c0-0.9-0.4-1.8-1.2-2.5c-4.7-4-7.5-9.6-7.5-15.3
				c0-1.8,0.3-3.6,0.8-5.3l0,0l0,0c0,0,0,0,0,0l0,0l0,0l0,0c0.1-0.3,0.1-0.6,0.1-0.9c0-1.3-0.8-2.5-2.2-3.2c-0.6-0.3-1.3-0.6-2-0.8
				c-0.8,0.1-1.6,0.3-2.3,0.5C65.3,16.4,64.3,17,63.5,17.7L63.5,17.7L63.5,17.7z"/>
			<path class="st1" d="M80.9,14.2c-0.6-0.5-1.4-1-2.4-1.5c-1-0.4-2.1-0.8-3.4-1.1c-1.3-0.3-2.8-0.4-4.3-0.4c-2.2,0-4.3,0.3-6.2,1
				c-1.9,0.6-3.5,1.5-5,2.6c-0.3,0.3-0.7,0.5-1,0.8c0.5,0.4,1.1,0.6,1.8,0.6c0.2-0.2,0.4-0.5,0.6-0.7c0.8-1,2.3-1.5,3.8-1.2
				c1,0.2,2,0.5,2.9,0.8l0,0c0.1,0,0.2,0.1,0.3,0.1c0.1,0,0.3,0,0.4-0.1l0,0l0,0c0.1,0,0.3,0.1,0.4,0.2c0.2,0,0.4,0,0.7,0
				c0.8,0,1.5,0.1,2.2,0.2c0.7,0.2,1.4,0.4,2,0.7c0.6,0.3,1.2,0.7,1.7,1.1c0.5,0.4,1,0.9,1.4,1.5c0.4,0.6,0.6,1.2,0.8,1.8
				c0.1,0.7,0.2,1.4,0.2,2.1c0,0.1,0,0.3,0,0.4c0,0.1,0,0.3,0,0.4l0,0.9l3.8,0.1l0-0.9c0.1-1.8,0.2-3.2,0.2-4.5s0.1-2.2,0.1-3
				C81.9,15.3,81.5,14.7,80.9,14.2z"/>
			<path class="st2" d="M68.6,15.1L68.6,15.1c-0.2,0-0.3,0-0.4,0.1c0.1,0,0.3,0.1,0.4,0.1c0.2,0,0.3,0,0.5,0
				C68.9,15.2,68.7,15.2,68.6,15.1L68.6,15.1z"/>
			<path class="st2" d="M79.4,44.6c-0.9,0.8-1.8,1.5-2.6,2.1l0,0l0,0c-0.9,0.6-1.7,1.1-2.6,1.4c-0.9,0.4-1.7,0.6-2.4,0.8l0,0l0,0
				c-0.8,0.2-1.6,0.2-2.3,0.2c-1,0-2-0.2-2.9-0.5c-1-0.3-1.9-0.8-2.7-1.5l0,0l0,0c-0.9-0.7-1.6-1.5-2.3-2.5c-0.7-1-1.3-2.1-1.8-3.4
				l0,0l0,0c-0.5-1.3-0.9-2.7-1.2-4.2c-0.3-1.5-0.4-3.2-0.4-4.9c0-1.5,0.1-2.9,0.3-4.4c0.2-1.4,0.5-2.8,1-4.1c0.4-1.3,1-2.5,1.7-3.6
				l0,0l0,0c0.7-1.1,1.4-2,2.3-2.7l0,0c0,0,0,0,0,0c0,0,0,0,0,0l0,0c0.9-0.8,1.9-1.3,2.9-1.8c0.6-0.2,1.3-0.4,2-0.5
				c-0.1,0-0.2-0.1-0.3-0.1l0,0c-1-0.3-2-0.6-2.9-0.8c-1.5-0.3-3,0.2-3.8,1.2c-0.2,0.2-0.4,0.5-0.6,0.7c-0.7,0-1.3-0.2-1.8-0.6
				c-1,0.9-2,1.9-2.8,3c-1.1,1.5-1.9,3-2.7,4.7c-0.7,1.7-1.2,3.4-1.6,5.2c-0.4,1.8-0.5,3.6-0.5,5.4c0,1.8,0.2,3.6,0.5,5.3
				c0.4,1.7,0.9,3.2,1.6,4.7c0.7,1.5,1.5,2.7,2.5,3.9c1,1.2,2.1,2.2,3.3,3c1.2,0.9,2.6,1.5,4.1,1.9c0.3,0.1,0.7,0.2,1,0.3
				c0,0,0-0.1,0-0.1c6.5-0.1,12.4-2.9,16-7.5c0.2-0.3,0.4-0.7,0.5-1l-0.6-0.3L79.4,44.6z"/>
		</g>
	</g>
</g>
</svg>
