<?xml version="1.0" encoding="utf-8"?>
<!-- Generator: Adobe Illustrator 25.4.1, SVG Export Plug-In . SVG Version: 6.00 Build 0)  -->
<svg version="1.1" id="Layer_1" xmlns="http://www.w3.org/2000/svg" xmlns:xlink="http://www.w3.org/1999/xlink" x="0px" y="0px"
	 viewBox="0 0 220 57" style="enable-background:new 0 0 220 57;" xml:space="preserve">
<style type="text/css">
	.st0{fill:#FFFFFF;}
	.st1{fill:#091B33;}
	.st2{fill:#46AE74;}
</style>
<g>
	<path class="st0" d="M190.6,40.2c0.1-0.2,0.2-0.4,0.2-0.6c0-0.1,0-0.2,0.1-0.2l0,0c0-0.1,0.1-0.4,0.1-0.7c0-0.6-0.1-1.1-0.4-1.7
		c0,0,0,0,0,0c-0.2-0.5-0.6-0.9-1-1.3c-0.4-0.3-0.9-0.6-1.4-0.8c-0.4-0.2-0.9-0.2-1.4-0.2c-0.4,0-0.7,0-1.1,0.1
		c-0.2,0.1-0.5,0.1-0.7,0.2c-0.2-0.1-0.3-0.2-0.5-0.2c0,0,0,0,0,0c0-0.2,0-0.5,0.1-0.7c0-0.2,0-0.4,0-0.6c0-0.2,0-0.5,0.1-0.7
		c0,0,0-0.2,0-0.2c0.1-1-0.4-1.9-1.2-2.5c0,0-0.1-0.1-0.1-0.1c-0.6-0.4-1.3-0.7-2.1-0.7c-0.3,0-0.5,0-0.8,0.1
		c-0.4,0.1-0.8,0.3-1.2,0.5c-0.4,0.3-0.7,0.6-1,1.1c-0.3,0.5-0.4,1-0.4,1.5c0,0.3,0,0.7,0,1.1c0,0.4,0,0.7,0,1.1l-0.1,0
		c-0.1,0-0.2,0-0.4,0.1c-0.1-0.1-0.3-0.1-0.4-0.2c0-0.1,0-0.3,0-0.4c0,0,0-0.2,0-0.2c0.1-1-0.5-2-1.4-2.6l-0.1-0.1
		c-0.3-0.2-0.5-0.2-0.6-0.3c-0.1,0-0.2-0.1-0.2-0.1c-0.3-0.1-0.7-0.2-1-0.2c-0.4,0-0.8,0.1-1.1,0.2c-0.3,0.1-0.6,0.3-0.9,0.5
		c0,0,0,0-0.1,0c0,0,0,0-0.1,0c-0.1,0-0.1-0.1-0.2-0.1c-0.3-0.2-0.6-0.3-1-0.4c0.2-0.7,0.5-1.5,0.8-2.3c0,0,0.1-0.1,0.1-0.2
		c0.3,0.1,0.7,0.2,1.1,0.2h0.8c0.7,0,1.4-0.3,2-0.8l0.2-0.2c0.7-0.7,1.2-1.6,1.5-2.5c0.3-0.8,0.4-1.6,0.4-2.4c0-0.8-0.1-1.5-0.3-2.2
		c-0.2-0.7-0.6-1.4-1-1.9c-0.5-0.6-1.1-1.1-1.8-1.5c-0.7-0.4-1.6-0.6-2.4-0.6c-1.5,0-3,0.6-4.2,1.7c-0.3-0.3-0.6-0.6-1-0.8
		c-0.7-0.4-1.5-0.6-2.5-0.6c-0.9,0-1.8,0.3-2.7,0.6c-0.9,0.3-1.9,0.7-3.4,1.5c0,0-0.1,0-0.1,0.1l0,0c-0.3-0.2-0.5-0.5-0.8-0.7
		c0,0,0,0,0,0c-1.4-1-3-1.6-4.7-1.6c-1.4,0-2.8,0.3-4,1c-0.8,0.4-1.6,1-2.3,1.7c-0.2-0.5-0.6-0.9-1.1-1.2c-0.4-0.3-0.9-0.4-1.4-0.4
		c-0.2,0-0.5,0-0.7,0.1c0,0-0.8,0.2-0.9,0.2c0,0-0.1,0-0.2,0c0.1-0.7,0.1-1.3,0.2-2l0-0.3c0.2-1.9,0.4-3.8,0.8-5.9c0,0,0,0,0-0.1
		l0.1-0.5c0.1-0.9-0.2-1.9-1-2.5l-0.4-0.3c0,0-0.1-0.1-0.1-0.1c-0.3-0.2-0.8-0.6-1.5-0.8c-0.8-0.3-1.4-0.3-1.9-0.3
		c-0.5,0-0.9,0.1-1.3,0.2c-0.4,0.1-0.7,0.2-1.1,0.4c-0.2,0.1-0.4,0.2-0.6,0.3l-0.1,0.1c-0.2,0.1-0.4,0.3-0.5,0.5
		c-0.3,0.3-0.5,0.6-0.7,1c-0.3,0.6-0.6,1.3-0.6,2l-0.1,0.6c-0.2,1.4-0.4,2.9-0.5,4.6c-0.1,1.2-0.2,2.3-0.3,3.6
		c-0.2,0.1-0.4,0.2-0.6,0.3c-0.3,0.2-0.6,0.4-0.9,0.6c-0.6-0.9-1.5-1.6-2.4-2.1c-1.1-0.6-2.3-0.8-3.7-0.8c-0.8,0-1.6,0.1-2.2,0.3
		c0,0-0.1,0-0.1,0c-0.5,0.1-1.3,0.4-2.1,0.8c-0.8,0.4-1.4,0.8-2,1.3c-0.4,0.3-0.7,0.6-1,0.9c-0.2-0.3-0.4-0.6-0.7-0.9
		c0,0,0,0-0.1-0.1c-0.7-0.7-1.6-1.3-2.5-1.7c-0.9-0.4-1.9-0.6-2.9-0.6c-1.3,0-2.6,0.3-3.9,0.9c0,0,0,0,0,0c-0.7,0.3-1.3,0.8-2,1.3
		c0-0.1-0.1-0.1-0.1-0.2c-0.5-0.6-1.1-1.1-1.8-1.5c-0.5-0.2-1-0.4-1.5-0.5c-0.1-0.2-0.1-0.4-0.2-0.5c0.2-0.5,0.3-1.1,0.3-1.7
		c0-0.5-0.1-1-0.3-1.5c-0.2-0.5-0.4-0.9-0.8-1.2c0,0,0,0-0.1-0.1c-0.4-0.4-0.8-0.7-1.3-0.8c-0.5-0.2-0.9-0.3-1.4-0.3
		c-0.6,0-1.2,0.1-1.7,0.4c0,0,0,0,0,0c0,0,0,0,0,0c0,0-0.1,0-0.1,0c0,0,0-0.1,0-0.1c0-0.4,0.1-0.8,0.1-1.2c0,0,0-0.2,0-0.2
		c0.1-1-0.4-1.9-1.2-2.5l-0.1-0.1c-0.6-0.4-1.3-0.6-2-0.6c-0.3,0-0.5,0-0.8,0.1C91.4,6.8,91,7,90.7,7.2c-0.3,0.2-0.6,0.5-0.8,0.9
		c-0.2,0-0.3,0-0.3,0c-0.1,0-0.1,0-0.2,0l-0.4,0c-0.1,0-0.4,0-0.4,0c-0.1,0-0.3,0-0.4,0c-0.6,0-1.2,0.1-1.7,0.4
		c-0.5,0.3-0.9,0.6-1.2,1.1C84.8,9.4,84.4,9.2,84,9c-1-0.4-2.2-0.8-3.5-1.1c0,0,0,0,0,0c-1.3-0.3-2.8-0.4-4.4-0.4
		c-2.2,0-4.4,0.3-6.3,1c-1.3,0.4-2.5,1-3.6,1.7c-0.1-0.2-0.2-0.4-0.3-0.5c-0.1-0.2-0.2-0.4-0.3-0.6c-0.5-0.9-1.1-1.9-1.9-2.8
		c-1.5-1.7-3.4-2.8-5.8-3.4c-0.2,0-0.4-0.1-0.6-0.1c-0.5,0-1,0.1-1.5,0.4c0,0-0.1,0-0.1,0c-0.6,0.3-2.1,1.1-2.2,2.9
		c0,0.5,0,1.1,0.2,1.7c-0.7-0.4-1.5-0.6-2.3-0.6c-0.2,0-0.4,0-0.6,0c-1.4,0.2-2.6,1-3.2,2.2c-0.6,1.2-0.5,2.6,0.3,3.8
		c0.3,0.5,0.7,0.9,1,1.2c0.1,0.1,0.2,0.2,0.3,0.3c0.2,0.2,0.2,0.6-0.1,0.8c0,0,0,0,0,0c-0.1,0-0.3-0.1-0.6-0.3
		c-2.1-1.3-4.1-2.5-6.1-3.5c-0.6-0.3-1.3-0.5-2-0.5c-1.3,0-2.5,0.6-3.3,1.6c-0.8,1-1.1,2.4-0.7,3.7c0.4,1.5,1.6,2.6,2.7,3.1
		c0.8,0.3,1.5,0.6,2.3,0.8c0.5,0.2,1,0.3,1.4,0.5l0.3,0.1c0.7,0.3,1.4,0.5,1.8,0.8c-0.2,0.1-0.5,0.2-0.7,0.3c-1.9,0.9-2.3,2.3-2.4,3
		c-0.1,0.7,0,2.2,1.7,3.4c-1.3,1.7-1.3,3.8,0.2,5.5c0.3,0.3,0.5,0.6,0.8,0.9c0.1,0.1,0.1,0.1,0.2,0.2c-0.1,0.1-0.3,0.3-0.7,0.4
		c-2.1,1-4.3,1.4-6.9,1.4c-0.4,0-0.7,0-1.1,0c-0.1,0-0.3,0-0.4,0c-0.9,0-1.8,0.2-2.6,0.4c-1.8,0.6-2.9,2.4-2.7,4.3
		c0.2,1.8,1.4,3.2,3.2,3.7c0.4,0.1,1,0.2,1.6,0.2c0.3,0,0.5,0,0.8-0.1c2.1-0.3,3.8-0.7,5.4-1c1.6-0.3,2.8-0.5,3.9-0.5
		c1.4,0,2.6,0.3,3.8,0.8c1.6,0.8,3.5,0.9,4.7,0.9c1,0,2,0,2.8,0c0,0,0.1,0,0.1,0c1.7,1.1,3.6,2,5.6,2.6c0.5,0.2,1,0.3,1.5,0.4
		c0.1,0.3,0.2,0.6,0.4,0.9c0.6,1.3,1.4,2.2,2.3,2.9c0.9,0.6,1.9,0.7,2.5,0.7c0,0,0,0,0,0c0.5,0,1.2-0.1,1.9-0.4
		c1.3-0.5,2.2-1.6,2.6-2.9c0,0,0.1,0,0.1,0c1.2,0,2.4-0.1,3.7-0.4c1.3-0.2,2.6-0.7,3.9-1.3c1.2-0.6,2.4-1.3,3.6-2.1
		c1-0.7,1.9-1.6,2.8-2.5l0,0.1c-0.1,1.5,1,2.8,2.5,3l1.1,0.1c0.1,0,0.2,0,0.2,0c0.2,0,0.3,0,0.5,0l3.1-0.5c1.3-0.2,2.2-1.3,2.3-2.6
		l0-0.6c0-0.4,0.1-1,0.1-1.6c0-0.2,0-0.4,0.1-0.7l0-0.3c0.1-0.8,0.2-1.7,0.4-2.6c0.2-1.1,0.4-2.2,0.6-3.3c0.2-1,0.5-2,0.7-3.1
		c0,0,0-0.1,0-0.1c-0.1,0.9-0.1,1.7-0.1,2.6c0,1.7,0.2,3.3,0.6,4.7c0.4,1.6,1,2.9,1.7,4.1c0.8,1.3,1.8,2.4,3,3.1c0,0,0,0,0,0
		c1.4,0.9,2.8,1.3,4.4,1.3c0.9,0,1.8-0.2,2.8-0.5c0.9-0.3,1.7-0.8,2.6-1.4c0.3-0.2,0.6-0.4,0.8-0.7c0.5,0.7,1.2,1.2,1.9,1.7
		c0,0,0,0,0.1,0c1,0.5,2.1,0.8,3.2,0.8c1.4,0,2.7-0.4,3.9-1.3c0,0,0,0,0,0c0.3-0.2,0.5-0.4,0.8-0.7c0.4,0.4,0.9,0.8,1.4,1.1
		c0.9,0.5,2,0.8,3.1,0.8c1.3,0,2.6-0.4,3.7-1.1c0.3-0.2,0.5-0.3,0.8-0.5c0.3,0.4,0.7,0.7,1.2,0.9c1,0.6,2.1,0.9,3.2,0.9
		c0.7,0,1.5-0.1,2.3-0.4c0.7-0.2,1.3-0.5,2-0.9c0.6-0.3,1.2-0.7,1.7-1.1c0,0,0,0,0.1,0c0.1-0.1,0.1-0.1,0.2-0.2
		c0.3,0.3,0.7,0.7,1.1,0.9c0,0,0,0,0,0c1.4,1,3,1.6,4.7,1.6c1.4,0,2.8-0.3,4-1c1.1-0.6,2.1-1.4,3-2.4c0.6-0.7,1.1-1.4,1.5-2.1
		c0,0.4,0,0.8-0.1,1.2l-0.1,0.8c-0.1,1.5,1,2.8,2.5,3l1.1,0.1c0.1,0,0.2,0,0.2,0c0.1,0,0.3,0,0.4,0l3.1-0.5c0.4-0.1,0.7-0.2,1-0.4
		c0.4,0.3,0.9,0.6,1.4,0.6l0.3,0c0.1,0,0.3,0,0.4,0c0.2,0,0.3,0,0.5,0l0.9-0.2c0.4-0.1,0.8-0.2,1.1-0.5c0.1,0,0.1,0.1,0.2,0.1
		c0,0,0,0,0,0c0.6,0.4,1.3,0.6,2,0.6c0.3,0,0.6,0,0.7-0.1c0.1,0,0.1,0,0.2,0c0.2,0,0.3-0.1,0.5-0.1c0.4,0.2,0.9,0.3,1.4,0.3
		c0.5,0,1-0.1,1.4-0.3c0.4,0.2,0.9,0.3,1.3,0.3c0.2,0,0.4,0,0.6,0c0.3,0.1,0.5,0.1,0.8,0.1c0.3,0,0.5,0,0.8-0.1
		c0.3,0.1,0.6,0.1,0.9,0.1c0.6,0,1.2-0.1,1.7-0.4c0.1,0,0.2-0.1,0.3-0.2c0.1,0.1,0.3,0.1,0.4,0.2c0.3,0.1,0.6,0.2,0.8,0.3
		c0.3,0.1,0.6,0.1,0.9,0.1c0.6,0,1.2-0.1,1.7-0.3c0.6-0.2,1.1-0.6,1.5-1c0.4-0.4,0.7-0.9,1-1.5c0,0,0,0,0,0c0.2-0.6,0.4-1.2,0.4-1.9
		c0-0.6-0.1-1.2-0.3-1.7C190.6,40.3,190.6,40.3,190.6,40.2z"/>
	<g>
		<g>
			<path class="st1" d="M95.5,17.9c-0.1,0.1-0.2,0.1-0.2,0.1c-0.1,0-0.1,0-0.2,0c0,0-0.1,0-0.1,0c0,0,0,0,0,0c0,0,0-0.1,0-0.2
				c0-0.1,0-0.2,0-0.4c0-0.1,0-0.2,0-0.3c0-0.1,0-0.3,0-0.4s0-0.3,0-0.5c0-0.2,0-0.3,0-0.4c0-0.1,0-0.3,0-0.4c0-0.1,0-0.2,0-0.3
				c0-0.2,0-0.4-0.1-0.6c0-0.2-0.1-0.3-0.2-0.4c-0.1-0.1-0.2-0.2-0.3-0.3c-0.1-0.1-0.2-0.1-0.3-0.1c-0.2,0-0.4,0.1-0.5,0.2
				c-0.2,0.1-0.3,0.3-0.5,0.6c-0.2,0.3-0.3,0.6-0.4,1l0,0c0-0.1,0-0.1,0-0.2c0-0.3,0-0.5,0-0.8c0-0.2,0-0.5,0-0.8
				c0-0.3,0-0.5,0.1-0.8c0-0.3,0-0.6,0.1-0.9c0-0.3,0.1-0.7,0.1-1.1c0-0.4,0.1-0.8,0.1-1.3l0-0.1L93,9.5c-0.1-0.1-0.3-0.1-0.4-0.1
				c-0.1,0-0.1,0-0.2,0s-0.1,0-0.2,0.1c-0.1,0-0.1,0.1-0.1,0.2c0,0.1-0.1,0.1-0.1,0.2l0,0c0,0.3,0,0.7,0,1.1c0,0.4,0,0.8,0,1.2
				c0,0.4,0,0.8,0,1.2c0,0.4,0,0.8,0,1.2c0,0.4,0,0.8,0,1.2s0,0.8,0,1.1c0,0.4,0,0.7,0,1c0,0.3,0,0.6,0,0.9l0,0.2l0.2,0l0.7-0.1
				l0-0.1c0-0.3,0-0.6,0.1-1c0.1-0.3,0.1-0.6,0.2-0.9c0.1-0.3,0.2-0.6,0.3-0.8c0.1-0.3,0.2-0.5,0.3-0.7c0.1-0.2,0.2-0.3,0.3-0.4
				c0.1-0.1,0.2-0.1,0.2-0.1c0,0,0,0,0.1,0c0,0,0,0,0.1,0.1c0,0.1,0.1,0.2,0.1,0.5c0,0.1,0,0.2,0,0.4c0,0.2,0,0.4,0,0.6
				c0,0.2,0,0.4,0,0.6c0,0.2,0,0.4,0,0.7c0,0.2,0,0.3,0,0.5c0,0.2,0,0.3,0.1,0.4c0,0.1,0.1,0.2,0.1,0.3c0.1,0.1,0.2,0.2,0.3,0.2
				c0.1,0,0.2,0,0.3-0.1c0.1,0,0.2-0.1,0.3-0.1s0.2-0.1,0.3-0.2c0.1-0.1,0.2-0.1,0.2-0.2l0.1-0.1l-0.1-0.5L95.5,17.9z"/>
			<path class="st1" d="M98,15.9c0.2-0.1,0.4-0.3,0.5-0.5c0.1-0.2,0.2-0.4,0.2-0.7c0-0.2,0-0.3-0.1-0.5c-0.1-0.1-0.1-0.3-0.2-0.4
				c-0.1-0.1-0.2-0.2-0.3-0.2c-0.1-0.1-0.3-0.1-0.4-0.1c-0.2,0-0.4,0-0.6,0.1c-0.2,0.1-0.3,0.2-0.5,0.4c-0.1,0.2-0.3,0.3-0.4,0.5
				c-0.1,0.2-0.2,0.4-0.3,0.6c-0.1,0.2-0.1,0.5-0.2,0.7c0,0.3-0.1,0.5-0.1,0.7c0,0.3,0,0.6,0.1,0.9c0.1,0.3,0.2,0.5,0.3,0.7
				c0.1,0.2,0.3,0.4,0.5,0.5c0.2,0.1,0.4,0.2,0.6,0.2c0.1,0,0.3,0,0.4-0.1c0.1,0,0.3-0.1,0.4-0.2c0.1-0.1,0.2-0.2,0.4-0.3
				s0.2-0.3,0.3-0.5l0,0l0,0l0,0l0,0c0,0,0-0.1,0-0.1c0-0.1,0-0.1,0-0.1l0,0c0,0,0-0.1-0.1-0.1l0,0c0,0,0,0-0.1-0.1l0,0c0,0,0,0,0,0
				l-0.1-0.1l-0.1,0.1c-0.2,0.2-0.3,0.4-0.4,0.4l0.1,0.1l-0.1-0.1C97.6,18,97.5,18,97.4,18s-0.2,0-0.3-0.1c-0.1-0.1-0.2-0.2-0.3-0.3
				c-0.1-0.2-0.2-0.3-0.2-0.6c0-0.2-0.1-0.4-0.1-0.7c0.3,0,0.5-0.1,0.7-0.1C97.5,16.2,97.8,16.1,98,15.9z M96.6,15.8
				c0-0.1,0-0.1,0-0.2c0-0.1,0.1-0.3,0.1-0.4c0-0.1,0.1-0.2,0.1-0.3c0-0.1,0.1-0.2,0.2-0.3c0.1-0.1,0.1-0.1,0.2-0.2
				c0.1,0,0.1-0.1,0.2-0.1c0,0,0.1,0,0.1,0c0,0,0.1,0.1,0.1,0.1l0,0c0,0,0.1,0.1,0.1,0.2c0,0.1,0,0.2,0,0.2c0,0.1,0,0.2-0.1,0.3l0,0
				c-0.1,0.1-0.1,0.2-0.2,0.3c-0.1,0.1-0.2,0.1-0.4,0.2C96.9,15.7,96.7,15.7,96.6,15.8z"/>
			<path class="st1" d="M91.8,10.9l0-0.2l-0.2,0c-0.1,0-0.1,0-0.2,0c-0.1,0-0.1,0-0.2,0c-0.1,0-0.2,0-0.3,0c-0.1,0-0.2,0-0.3,0
				c-0.1,0-0.3,0-0.4,0c-0.2,0-0.4,0-0.6,0c-0.1,0-0.3,0-0.4,0c-0.1,0-0.3,0-0.4,0c-0.1,0-0.3,0-0.4,0c-0.1,0-0.2,0-0.3,0
				c-0.2,0-0.3,0-0.4,0.1c-0.1,0.1-0.2,0.2-0.3,0.3c-0.1,0.1-0.1,0.3-0.1,0.4c0,0.2,0,0.4,0,0.6c0,0.2,0,0.5,0,0.7v0.2l0.6,0v-0.3
				c0-0.2,0-0.4,0-0.6c0-0.2,0-0.3,0.1-0.4c0-0.1,0.1-0.1,0.1-0.2c0,0,0.1-0.1,0.1-0.1c0.1,0,0.1,0,0.2,0c0.1,0,0.2,0,0.3,0
				c0.1,0,0.2,0,0.3,0c0,0,0.1,0,0.1,0c0,0.4,0,0.8,0,1.2c0,0.4,0,0.8,0,1.2s0,0.8,0,1.2c0,0.4,0,0.8,0,1.1c0,0.4,0,0.8,0,1.2
				c0,0.4,0,0.8,0,1.2l0,0.2l0.2,0l0.7-0.1v-0.1c0-0.4,0-0.8,0-1.2c0-0.4,0-0.8,0-1.2s0-0.8,0-1.3c0-0.4,0-0.8,0-1.2
				c0-0.4,0-0.8,0-1.2c0-0.3,0-0.6,0-0.9c0.2,0,0.4,0,0.6,0.1c0.2,0,0.4,0,0.6,0c0.2,0,0.4,0,0.5-0.2s0.2-0.3,0.2-0.5
				C91.9,11.1,91.8,11,91.8,10.9z"/>
		</g>
		<g>
			<g>
				<path class="st1" d="M87,36.3L87,36.3L87,36.3z"/>
				<path class="st1" d="M102,26c0.4-0.4,0.7-0.9,0.9-1.4c0.2-0.5,0.3-1,0.3-1.6c0-0.4-0.1-0.9-0.2-1.2l0,0c-0.1-0.4-0.3-0.7-0.5-1
					c-0.2-0.3-0.5-0.5-0.9-0.7c-0.4-0.2-0.8-0.3-1.2-0.3c-1.1,0-2,0.5-2.8,1.4c-0.8,0.8-1.4,1.9-2,3.3c-0.3,0.7-0.5,1.4-0.8,2.1
					c0-0.5,0.1-0.9,0.1-1.3l0,0c0-0.5,0.1-1,0.1-1.4c0-0.4,0-0.5,0-0.7c0-0.9-0.1-1.6-0.4-2.2c-0.2-0.3-0.4-0.6-0.7-0.8
					s-0.7-0.2-1-0.2c-0.5,0-1,0.2-1.8,0.4C90,20.6,89,21,87.7,21.6l-0.5,0.3l0.4,2.6l0.9-0.3c0.3-0.1,0.5-0.2,0.7-0.2
					c0.2-0.1,0.4-0.1,0.5-0.2c0.2,0,0.3-0.1,0.4-0.1c0.1,0,0.2,0,0.3,0c0.1,0,0.2,0,0.2,0h0c0,0,0,0,0,0l0,0c0,0.1,0.1,0.2,0.1,0.5
					l0,0c0,0.2,0,0.5,0,0.9c0,0.5,0,1.1,0,1.9c0,0.8,0,1.7-0.1,2.7c0,1-0.1,2.1-0.1,3.3c0,1.2-0.1,2.3-0.1,3.5
					c0,1.2-0.1,2.4-0.2,3.5c-0.1,1.2-0.1,2.2-0.2,3.2L90,44.1l1.1,0.1l3.1-0.5l0-0.6c0-0.6,0.1-1.5,0.2-2.4c0.1-1,0.2-2,0.4-3.1
					c0.2-1.1,0.4-2.3,0.6-3.4c0.2-1.2,0.5-2.3,0.8-3.3c0.3-1,0.6-2,1-2.8c0.3-0.8,0.7-1.5,1.1-1.9l0,0c0.2-0.3,0.4-0.4,0.6-0.5
					c0.2-0.1,0.4-0.2,0.6-0.2c0.2,0,0.3,0,0.5,0.1c0.2,0.1,0.4,0.3,0.7,0.6l0.2,0.3h0.8L102,26z"/>
				<path class="st1" d="M112.3,30.5c1-0.6,1.7-1.3,2.3-2.3c0.6-0.9,0.9-2,0.9-3.2c0-0.8-0.1-1.6-0.4-2.2c-0.2-0.6-0.6-1.2-1.1-1.7
					c-0.5-0.5-1-0.8-1.6-1.1s-1.2-0.4-1.9-0.4c-0.9,0-1.9,0.2-2.7,0.6c-0.8,0.4-1.6,1-2.2,1.6c-0.7,0.7-1.2,1.5-1.8,2.4
					c-0.5,0.9-0.9,1.9-1.3,2.9c-0.3,1-0.6,2.1-0.8,3.3s-0.3,2.3-0.3,3.4c0,1.4,0.2,2.7,0.5,4c0.3,1.2,0.8,2.3,1.4,3.3
					c0.6,0.9,1.3,1.7,2.2,2.3c0.9,0.6,1.9,0.9,2.9,0.9c0.6,0,1.2-0.1,1.9-0.3c0.6-0.2,1.2-0.5,1.8-1c0.6-0.4,1.1-1,1.6-1.6
					c0.5-0.6,1-1.4,1.4-2.2l0,0l0,0l0,0l0,0c0.1-0.2,0.1-0.3,0.1-0.5c0-0.2-0.1-0.5-0.2-0.6l0,0c-0.1-0.1-0.2-0.2-0.2-0.3l0,0
					c-0.1-0.1-0.2-0.2-0.3-0.3l0,0c-0.1-0.1-0.2-0.1-0.2-0.2l-0.6-0.5l-0.5,0.6c-0.7,1-1.3,1.6-1.9,2l0.4,0.7l-0.4-0.7
					c-0.6,0.4-1.2,0.5-1.6,0.5c-0.5,0-0.9-0.2-1.4-0.5c-0.5-0.4-0.9-0.9-1.3-1.6c-0.4-0.7-0.7-1.6-0.9-2.6c-0.2-0.9-0.3-1.9-0.3-3
					c1.2-0.2,2.3-0.4,3.3-0.7C110.3,31.6,111.4,31.1,112.3,30.5z M105.9,29.6c0-0.3,0.1-0.5,0.1-0.8c0.1-0.6,0.2-1.2,0.4-1.8
					c0.2-0.6,0.3-1.1,0.6-1.6c0.2-0.5,0.5-0.9,0.7-1.2c0.3-0.3,0.5-0.6,0.9-0.8c0.3-0.2,0.5-0.2,0.9-0.2c0.2,0,0.3,0,0.5,0.2
					c0.2,0.1,0.3,0.3,0.5,0.5l0,0c0.2,0.2,0.3,0.5,0.4,0.9c0.1,0.3,0.2,0.7,0.2,1.1c0,0.6-0.1,1.1-0.4,1.5l0,0
					c-0.2,0.4-0.6,0.8-1.1,1.2c-0.5,0.3-1.1,0.6-1.9,0.9C107.2,29.4,106.6,29.5,105.9,29.6z"/>
				<path class="st1" d="M131.9,40.2c-0.6,0.5-1.1,0.7-1.4,0.7c-0.2,0-0.3,0-0.4-0.1c-0.1-0.1-0.3-0.3-0.5-0.6
					c-0.3-0.5-0.5-1.6-0.5-3c0-0.9,0-1.9,0.1-2.8c0-0.9,0.1-1.9,0.2-2.7c0.1-0.9,0.1-1.7,0.2-2.6c0-0.8,0.1-1.6,0.1-2.3
					c0-1-0.1-2-0.2-2.8c-0.2-0.9-0.5-1.6-0.9-2.3c-0.4-0.7-1-1.2-1.7-1.6c-0.7-0.4-1.5-0.5-2.4-0.5c-0.5,0-1,0.1-1.6,0.2
					c-0.5,0.2-1.1,0.3-1.6,0.6c-0.5,0.3-1.1,0.6-1.6,1c-0.5,0.4-1,0.8-1.4,1.3c-0.4,0.5-0.7,1.1-1,1.7c-0.2,0.6-0.4,1.3-0.4,2
					c0,0.4,0.1,0.9,0.2,1.2c0.1,0.4,0.3,0.7,0.5,1c0.2,0.3,0.5,0.5,0.9,0.7c0.3,0.2,0.7,0.2,1.1,0.2c0.6,0,1.2-0.2,1.7-0.6l0.2-0.2
					l0.2-0.8l-0.2-0.3c-0.2-0.4-0.4-0.9-0.5-1.3c-0.1-0.4-0.2-0.9-0.2-1.3c0-0.4,0-0.7,0.1-1l0,0c0.1-0.3,0.2-0.5,0.3-0.6
					c0.2-0.2,0.3-0.3,0.6-0.4c0.2-0.1,0.6-0.2,1-0.2c0.3,0,0.5,0.1,0.9,0.2c0.3,0.1,0.5,0.3,0.8,0.6c0.2,0.3,0.5,0.7,0.6,1.2
					c0.2,0.5,0.2,1.1,0.2,1.9c0,0.7,0,1.4-0.1,2c0,0.4-0.1,0.8-0.1,1.2c-0.6,0-1.2,0.1-1.8,0.2c-0.9,0.2-1.6,0.4-2.4,0.7
					c-0.8,0.3-1.5,0.7-2.1,1.2c-0.7,0.5-1.2,1-1.7,1.7c-0.5,0.7-0.9,1.4-1.1,2.2c-0.3,0.8-0.4,1.7-0.4,2.7c0,0.8,0.1,1.5,0.3,2.2
					c0.2,0.7,0.5,1.2,0.8,1.8c0.4,0.5,0.8,0.9,1.3,1.2c0.5,0.3,1.2,0.5,1.8,0.5c0.8,0,1.6-0.3,2.3-0.8c0.6-0.5,1.2-1.1,1.8-1.8
					c0.4-0.6,0.8-1.2,1.2-1.9c0,0.2,0.1,0.5,0.1,0.7c0.2,0.8,0.5,1.4,0.8,1.9c0.4,0.5,0.8,1,1.3,1.3c0.5,0.3,1.1,0.4,1.7,0.4
					c0.8,0,1.6-0.2,2.3-0.7c0.7-0.4,1.3-1,1.9-1.8l0.3-0.4l-1-2L131.9,40.2z M124.8,34.2c-0.2,0.7-0.4,1.3-0.6,1.9
					c-0.2,0.6-0.5,1.1-0.8,1.6c-0.3,0.5-0.6,0.9-0.9,1.2s-0.6,0.6-0.9,0.8c-0.3,0.2-0.5,0.2-0.6,0.2c-0.2,0-0.2,0-0.3-0.1l0,0
					c-0.1-0.1-0.2-0.2-0.3-0.4c-0.1-0.2-0.2-0.5-0.2-0.8l0,0c-0.1-0.3-0.1-0.7-0.1-1c0-0.6,0.1-1.2,0.2-1.6c0.2-0.5,0.3-0.9,0.6-1.2
					c0.2-0.3,0.5-0.6,0.9-0.8c0.4-0.2,0.8-0.4,1.2-0.6s0.9-0.2,1.4-0.3c0.2,0,0.4-0.1,0.6-0.1C124.9,33.5,124.9,33.8,124.8,34.2z"/>
				<path class="st1" d="M117.5,28.7L117.5,28.7L117.5,28.7z"/>
				<path class="st1" d="M135.8,9.4L135.8,9.4L135.8,9.4z"/>
				<path class="st1" d="M142.7,24.1L142.7,24.1L142.7,24.1z"/>
				<polygon class="st1" points="136.3,8.8 136.4,8.7 136.4,8.7 				"/>
				<path class="st1" d="M143.6,22L143.6,22L143.6,22L143.6,22z"/>
				<path class="st1" d="M143.6,39.4l-0.5-0.6l-0.6,0.4c-0.6,0.4-1.1,0.7-1.6,0.9c-0.4,0.2-0.8,0.2-1.1,0.2c-0.4,0-0.7-0.1-0.9-0.3
					l0,0c-0.2-0.2-0.5-0.5-0.6-1l0,0c-0.2-0.5-0.3-1.2-0.4-2l0,0c-0.1-0.8-0.1-1.8-0.1-2.9c0-0.6,0-1.3,0-2.1c0-0.8,0-1.6,0.1-2.6
					c0-0.9,0.1-1.9,0.1-3c0-0.8,0.1-1.6,0.2-2.4c0.4,0,0.8,0.1,1.2,0.2c0.6,0.1,1.2,0.1,1.8,0.1c0.6,0,1.1-0.1,1.5-0.3
					c0.3-0.2,0.5-0.4,0.7-0.7c0.1-0.3,0.2-0.6,0.2-0.9c0-0.2,0-0.3,0-0.5c0-0.2-0.1-0.3-0.1-0.5l-0.2-0.8l-0.8,0.2
					c-0.3,0.1-0.8,0.2-1.5,0.2c-0.2,0-0.4,0-0.6,0c-0.2,0-0.5,0-0.8,0c-0.3,0-0.6,0-0.9,0c-0.1,0-0.1,0-0.2,0
					c0.1-1.8,0.3-3.5,0.5-5.3c0.2-2.1,0.5-4.1,0.8-6l0.1-0.5l-0.4-0.3c-0.2-0.2-0.5-0.3-0.8-0.4l0,0c-0.3-0.1-0.6-0.2-0.9-0.2
					c-0.2,0-0.5,0-0.7,0.1c-0.3,0.1-0.5,0.2-0.7,0.4l0,0c-0.2,0.2-0.4,0.4-0.5,0.6c-0.2,0.3-0.3,0.6-0.3,0.9l0,0
					c-0.2,1.5-0.4,3.2-0.6,5.1c-0.2,1.7-0.3,3.6-0.5,5.5c-0.2,0-0.5,0.1-0.7,0.2c-0.4,0.1-0.8,0.3-1.2,0.5s-0.6,0.4-0.9,0.7
					c-0.2,0.3-0.4,0.7-0.4,1.1c0,0.2,0,0.3,0.1,0.5l0.3,0.7l0.7-0.2c0.3-0.1,0.7-0.2,1.1-0.2c0.2,0,0.5,0,0.7-0.1
					c-0.1,0.7-0.1,1.4-0.2,2.1c-0.1,1-0.1,2-0.2,3.1l0,0c0,1-0.1,2-0.1,3c0,1,0,2,0,2.9c0,1.7,0.1,3.1,0.3,4.3
					c0.2,1.1,0.4,2.1,0.8,2.8c0.3,0.7,0.8,1.3,1.4,1.7c0.5,0.3,1.2,0.5,1.8,0.5c0.5,0,1-0.1,1.5-0.2s1-0.4,1.5-0.6
					c0.5-0.3,1-0.6,1.5-0.9c0.5-0.4,1-0.8,1.5-1.2l0.3-0.3l0-0.4C144.1,40.3,143.9,39.8,143.6,39.4z"/>
				<path class="st1" d="M157.2,23.1c-0.5-1-1.2-1.8-2.1-2.5c-0.9-0.7-1.9-1-3-1c-1,0-1.9,0.2-2.7,0.7c-0.8,0.4-1.6,1-2.2,1.7
					s-1.2,1.6-1.7,2.5c-0.5,0.9-0.9,1.9-1.2,3c-0.3,1-0.5,2.1-0.7,3.2c-0.2,1.1-0.2,2.2-0.2,3.3c0,1.3,0.1,2.5,0.4,3.7l0,0
					c0.3,1.2,0.7,2.3,1.2,3.3c0.5,1,1.2,1.8,2.1,2.5c0.9,0.7,1.9,1,3,1c1,0,1.9-0.2,2.7-0.7c0.8-0.4,1.6-1,2.2-1.7
					c0.6-0.7,1.2-1.6,1.7-2.5c0.5-0.9,0.9-1.9,1.2-3c0.3-1,0.6-2.1,0.7-3.2c0.2-1.1,0.2-2.2,0.2-3.3c0-1.3-0.1-2.5-0.4-3.7
					C158.1,25.2,157.7,24.1,157.2,23.1z M153.7,37.7c-0.2,0.6-0.4,1.2-0.7,1.7c-0.3,0.5-0.5,0.8-0.9,1.1c-0.3,0.2-0.5,0.3-0.9,0.3
					c-0.4,0-0.7-0.1-1-0.3c-0.3-0.2-0.6-0.5-0.9-0.8c-0.3-0.4-0.5-0.8-0.8-1.3c-0.2-0.5-0.4-1.1-0.6-1.8c-0.2-0.6-0.3-1.3-0.3-2
					c-0.1-0.7-0.1-1.4-0.1-2c0-0.6,0-1.2,0.1-1.9l0,0c0.1-0.7,0.1-1.4,0.2-2.1l0,0c0.1-0.7,0.3-1.4,0.5-2c0.2-0.6,0.4-1.2,0.7-1.7
					c0.3-0.5,0.5-0.8,0.9-1c0.3-0.2,0.6-0.3,0.9-0.3c0.4,0,0.7,0.1,1,0.2c0.3,0.2,0.6,0.5,0.9,0.8c0.3,0.4,0.5,0.8,0.8,1.3
					c0.2,0.5,0.4,1.1,0.6,1.8c0.2,0.6,0.3,1.3,0.3,2c0.1,0.7,0.1,1.4,0.1,2.1c0,0.6,0,1.2-0.1,1.9c-0.1,0.7-0.1,1.4-0.2,2.1
					C154.1,36.4,153.9,37.1,153.7,37.7z"/>
				<path class="st1" d="M174.1,21.7l-0.1-0.2L174.1,21.7c-0.1-0.4-0.3-0.7-0.5-1c-0.2-0.3-0.5-0.5-0.9-0.7
					c-0.4-0.2-0.8-0.3-1.2-0.3c-1.1,0-2,0.5-2.8,1.4c-0.8,0.8-1.4,1.9-2,3.3c-0.3,0.7-0.5,1.4-0.8,2.1c0-0.5,0.1-0.9,0.1-1.3
					c0-0.5,0.1-1,0.1-1.4l0,0c0-0.4,0-0.5,0-0.7c0-0.9-0.1-1.6-0.4-2.2c-0.2-0.3-0.4-0.6-0.7-0.8c-0.3-0.2-0.7-0.2-1-0.2
					c-0.5,0-1,0.2-1.8,0.4c-0.8,0.3-1.9,0.7-3.1,1.3l-0.5,0.3l0.4,2.6l0.9-0.3c0.3-0.1,0.5-0.2,0.7-0.2c0.2-0.1,0.4-0.1,0.5-0.2
					c0.2,0,0.3-0.1,0.4-0.1c0.1,0,0.2,0,0.3,0c0.1,0,0.2,0,0.2,0h0c0,0,0,0,0,0l0,0c0,0.1,0.1,0.2,0.1,0.5l0,0c0,0.2,0,0.5,0,0.9
					c0,0.5,0,1.1,0,1.9c0,0.8,0,1.7-0.1,2.7c0,1-0.1,2.1-0.1,3.3c0,1.2-0.1,2.3-0.1,3.5c0,1.2-0.1,2.4-0.2,3.5
					c-0.1,1.2-0.1,2.2-0.2,3.2l-0.1,0.8l1.1,0.1l3.1-0.5l0-0.6c0-0.6,0.1-1.5,0.2-2.4c0.1-1,0.2-2,0.4-3.1c0.2-1.1,0.4-2.3,0.6-3.4
					l0,0c0.2-1.2,0.5-2.3,0.8-3.3c0.3-1,0.6-2,1-2.8c0.3-0.8,0.7-1.5,1.1-1.9c0.2-0.3,0.4-0.4,0.6-0.5c0.2-0.1,0.4-0.2,0.6-0.2
					c0.2,0,0.3,0,0.5,0.1c0.2,0.1,0.4,0.3,0.7,0.6l0.2,0.3h0.8l0.2-0.2c0.4-0.4,0.7-0.9,0.9-1.4l0,0c0.2-0.5,0.3-1,0.3-1.6
					C174.3,22.5,174.3,22.1,174.1,21.7z"/>
			</g>
		</g>
		<g>
			<path class="st1" d="M174.7,42.7c-0.1,0.1-0.2,0.1-0.3,0.1c-0.1,0-0.1,0-0.2,0c-0.1,0-0.1,0-0.2,0l0,0c0,0-0.1-0.1-0.1-0.2
				s-0.1-0.3-0.1-0.5l0,0c0-0.2,0-0.4,0-0.7c0-0.4,0-0.9,0-1.3c0-0.4,0-0.8,0-1.2c0-0.4,0-0.8,0-1.2c0-0.4,0-0.8,0-1.2
				s0-0.8,0.1-1.2c0-0.4,0-0.8,0.1-1.3l0-0.1l-0.1-0.1c-0.1,0-0.2-0.1-0.2-0.1c-0.1,0-0.2,0-0.3,0c-0.1,0-0.1,0-0.2,0
				c-0.1,0-0.1,0.1-0.2,0.1c-0.1,0-0.1,0.1-0.2,0.2c0,0.1-0.1,0.2-0.1,0.3l0,0c0,0.4,0,0.8-0.1,1.2c0,0.4,0,0.7,0,1
				c0,0.3,0,0.6,0,0.9c0,0.2,0,0.4,0,0.6c-0.2,0-0.4,0-0.6,0c-0.3,0-0.5,0-0.8,0c-0.3,0-0.5,0-0.8,0c-0.2,0-0.4,0-0.6,0
				c0-0.4,0-0.7,0-1c0-0.3,0-0.7,0-0.9c0-0.3,0-0.5,0-0.7c0-0.2,0-0.3,0-0.4c0-0.2,0-0.3,0-0.5l-0.2,0l0.2,0c0-0.2,0-0.3-0.1-0.4
				c0-0.1-0.1-0.2-0.3-0.3c-0.1-0.1-0.3-0.1-0.4-0.1c-0.2,0-0.3,0-0.6,0.1c-0.2,0.1-0.5,0.1-0.8,0.2l-0.2,0.1l0.1,0.7l0.2,0
				c0.2,0,0.4-0.1,0.5-0.1c0.1,0,0.1,0,0.2,0c0,0,0,0,0,0l0,0c0,0,0,0.1,0,0.1l0,0c0,0.1,0,0.2,0,0.3c0,0.7,0,1.3,0,2
				c0,0.7,0,1.3,0,2c0,0.7,0,1.4,0,2.1c0,0.7,0,1.5-0.1,2.3l0,0.2l0.3,0l0.9-0.2l0.1-4.6c0.2,0,0.4,0,0.6,0c0.3,0,0.5,0,0.8,0
				c0.3,0,0.5,0,0.8,0c0.2,0,0.4,0,0.6,0c0,0.1,0,0.2,0,0.3l0,0c0,0.2,0,0.3,0,0.5c0,0.2,0,0.4,0,0.6l0,0c0,0.2,0,0.4,0,0.6V42
				c0,0.3,0,0.6,0,0.8c0,0.2,0.1,0.4,0.1,0.6l0,0c0.1,0.2,0.2,0.3,0.3,0.4c0.1,0.1,0.3,0.1,0.4,0.1c0.1,0,0.2,0,0.3,0
				c0.1,0,0.2-0.1,0.3-0.1c0.1,0,0.2-0.1,0.4-0.2c0.1-0.1,0.3-0.1,0.4-0.2l0.1-0.1l-0.2-0.8L174.7,42.7z"/>
			<path class="st1" d="M173.1,33.9L173.1,33.9L173.1,33.9z"/>
			<path class="st1" d="M184.5,39.3c0-0.2,0-0.4-0.1-0.5l0,0c0-0.2-0.1-0.3-0.1-0.5l0,0c-0.1-0.2-0.1-0.3-0.2-0.5
				c-0.1-0.1-0.2-0.3-0.3-0.3c-0.1-0.1-0.3-0.1-0.5-0.1c-0.2,0-0.4,0.1-0.7,0.3c-0.2,0.2-0.4,0.4-0.6,0.7c-0.2,0.3-0.4,0.6-0.6,1.1
				c0,0.1-0.1,0.1-0.1,0.2c0,0,0,0,0,0c0-0.5,0-0.9,0.1-1.4c0-0.5,0.1-1,0.1-1.4c0-0.5,0.1-1,0.1-1.4c0-0.5,0.1-1,0.1-1.4
				c0-0.5,0.1-0.9,0.1-1.4l0-0.1l-0.1-0.1c-0.2-0.1-0.3-0.2-0.5-0.2c-0.1,0-0.1,0-0.2,0c-0.1,0-0.1,0-0.2,0.1
				c-0.1,0-0.1,0.1-0.2,0.2c0,0.1-0.1,0.2-0.1,0.3l0,0c0,0.3,0,0.7,0,1.1c0,0.4,0,0.8,0,1.3c0,0.4,0,0.9-0.1,1.4c0,0.5,0,0.9,0,1.4
				s0,0.9,0,1.3s0,0.8,0,1.1v0c0,0.7-0.1,1.4-0.1,2c0,0.2,0,0.5-0.1,0.7l-0.1-0.2l-0.2,0.2c0,0,0,0-0.1,0.1l0,0c0,0,0,0-0.1,0.1
				c0,0-0.1,0-0.1,0c0,0,0,0-0.1,0c0,0,0,0-0.1,0c0,0-0.1-0.1-0.1-0.2c0-0.1-0.1-0.3-0.1-0.6c0-0.3-0.1-0.6-0.1-1.1
				c0-0.2,0-0.5,0-0.8c0-0.3,0-0.6,0-0.9c0-0.3,0-0.6,0-0.9c0-0.3,0-0.6,0-0.8l0-0.2l-0.3,0l-0.8,0.1l0,0.2c0,0.7-0.1,1.3-0.2,1.9
				c-0.1,0.6-0.3,1.1-0.4,1.6c-0.2,0.5-0.3,0.8-0.5,1c-0.1,0.1-0.2,0.2-0.2,0.2c-0.1,0-0.1,0.1-0.1,0.1c0,0-0.1,0-0.1,0
				s-0.1,0-0.1-0.1c-0.1-0.1-0.1-0.3-0.1-0.6c0-0.1,0-0.2,0-0.4l0,0c0-0.2,0-0.3,0-0.5c0-0.2,0-0.4,0-0.6c0-0.2,0-0.4,0-0.7
				c0-0.2,0-0.4,0-0.7c0-0.2,0-0.4,0-0.6c0-0.1,0-0.3,0-0.4l-0.2,0l0.2,0c0-0.1,0-0.2-0.1-0.3l0,0c0-0.1-0.1-0.2-0.2-0.2
				c-0.1-0.1-0.2-0.1-0.3-0.1c-0.1,0-0.1,0-0.2,0c-0.1,0-0.2,0-0.3,0.1c-0.1,0-0.2,0.1-0.4,0.2c-0.1,0.1-0.3,0.1-0.5,0.2l-0.1,0.1
				l0.1,0.7l0.3-0.1c0.1,0,0.2-0.1,0.3-0.1c0.1,0,0.2,0,0.2,0c0,0,0,0,0,0c0,0,0,0,0,0c0,0,0,0.1,0,0.2c0,0.1,0,0.2,0,0.3
				c0,0.3,0,0.6,0,0.9c0,0.3,0,0.6,0,0.9c0,0.3,0,0.6,0,0.8c0,0.3,0,0.5,0,0.7c0,0.3,0,0.6,0.1,0.8l0,0c0.1,0.2,0.1,0.4,0.2,0.6
				c0.1,0.1,0.2,0.3,0.4,0.3c0.1,0.1,0.3,0.1,0.4,0.1c0.2,0,0.4-0.1,0.6-0.2c0.2-0.1,0.4-0.4,0.6-0.7c0.2-0.3,0.3-0.6,0.5-1.1
				c0,0.3,0,0.5,0.1,0.8c0.1,0.3,0.1,0.5,0.2,0.7c0.1,0.2,0.2,0.3,0.4,0.4c0.1,0.1,0.3,0.1,0.4,0.1c0.1,0,0.2,0,0.3-0.1
				c0.1,0,0.2-0.1,0.3-0.1c0.1-0.1,0.2-0.1,0.3-0.2l0,0c0,0,0,0.1,0,0.1l0,0.2l0.5,0.2l0.1-0.1c0.1-0.1,0.1-0.2,0.2-0.4
				c0-0.1,0.1-0.1,0.1-0.2c0,0,0,0.1,0.1,0.1l0,0l0,0l0,0c0.1,0.1,0.2,0.3,0.4,0.3c0.1,0.1,0.3,0.2,0.4,0.2s0.3,0.1,0.4,0.1
				c0.2,0,0.4,0,0.6-0.1s0.4-0.2,0.6-0.4c0.2-0.2,0.3-0.4,0.5-0.6c0.2-0.2,0.3-0.5,0.4-0.8c0.1-0.3,0.2-0.6,0.3-1
				c0.1-0.4,0.1-0.8,0.1-1.2C184.5,39.7,184.5,39.5,184.5,39.3L184.5,39.3z M179.6,42.9L179.6,42.9L179.6,42.9L179.6,42.9z
				 M181.4,41.9L181.4,41.9c0-0.1,0.1-0.3,0.1-0.5c0-0.2,0.1-0.4,0.2-0.6c0.1-0.2,0.1-0.4,0.2-0.6c0.1-0.2,0.2-0.4,0.3-0.6
				c0.1-0.2,0.2-0.3,0.3-0.5c0.1-0.1,0.2-0.2,0.3-0.3c0.1-0.1,0.2-0.1,0.2-0.1c0,0,0,0,0.1,0.1c0.1,0.1,0.1,0.2,0.1,0.3
				s0.1,0.3,0.1,0.5c0,0.2,0,0.4,0,0.6c0,0.5,0,0.9-0.1,1.3l0.2,0l-0.2,0c-0.1,0.4-0.2,0.7-0.3,0.9s-0.3,0.4-0.4,0.5
				c-0.1,0.1-0.3,0.2-0.4,0.2c-0.1,0-0.2,0-0.3-0.1s-0.2-0.1-0.2-0.2l0,0c-0.1-0.1-0.1-0.2-0.2-0.3l0,0c0-0.1-0.1-0.3-0.1-0.4
				C181.3,42.1,181.3,42,181.4,41.9z"/>
			<path class="st1" d="M187.7,40.8c-0.1-0.1-0.3-0.3-0.4-0.4c-0.2-0.1-0.3-0.2-0.5-0.3l0,0c-0.1-0.1-0.3-0.2-0.4-0.3
				c-0.1-0.1-0.2-0.2-0.3-0.3c-0.1-0.1-0.1-0.2-0.2-0.3l0,0c0-0.1-0.1-0.2-0.1-0.3c0-0.1,0-0.2,0-0.3l0,0c0-0.1,0.1-0.2,0.1-0.2
				c0.1-0.1,0.1-0.1,0.2-0.2c0.1,0,0.2-0.1,0.3-0.1c0.1,0,0.1,0,0.2,0c0.1,0,0.1,0,0.2,0.1c0,0,0.1,0.1,0.1,0.1c0,0,0,0.1,0,0.2
				c0,0,0,0.1,0,0.2c0,0.1,0,0.1,0,0.2l0,0.1l0,0.2l0.1,0c0.1,0,0.2,0.1,0.3,0.1l0,0l0,0c0.1,0,0.2,0,0.3-0.1
				c0.1-0.1,0.2-0.1,0.2-0.2c0-0.1,0.1-0.2,0.1-0.3l0,0c0-0.1,0-0.2,0-0.3c0-0.2,0-0.4-0.1-0.5c-0.1-0.2-0.2-0.3-0.3-0.4
				s-0.3-0.2-0.4-0.3c-0.2-0.1-0.3-0.1-0.5-0.1c-0.1,0-0.3,0-0.4,0.1c-0.1,0-0.3,0.1-0.4,0.2c-0.1,0.1-0.3,0.2-0.4,0.3
				s-0.2,0.2-0.3,0.4c-0.1,0.1-0.2,0.3-0.2,0.5c-0.1,0.2-0.1,0.4-0.1,0.6c0,0.2,0,0.4,0.1,0.5c0,0.2,0.1,0.3,0.2,0.4
				c0.1,0.1,0.2,0.3,0.3,0.4c0.1,0.1,0.2,0.2,0.3,0.3s0.2,0.2,0.3,0.2c0.1,0.1,0.2,0.1,0.3,0.2l0,0c0.1,0.1,0.2,0.2,0.3,0.2
				c0.1,0.1,0.2,0.1,0.3,0.2c0.1,0.1,0.1,0.2,0.2,0.2c0,0.1,0.1,0.2,0.1,0.3c0,0.1,0,0.2-0.1,0.3c0,0.1-0.1,0.2-0.1,0.2
				c-0.1,0.1-0.1,0.1-0.2,0.1c-0.1,0-0.2,0-0.2,0c-0.1,0-0.2,0-0.3-0.1c-0.1,0-0.2-0.1-0.3-0.2l0,0c-0.1-0.1-0.1-0.2-0.2-0.3l0,0
				c-0.1-0.1-0.1-0.3-0.1-0.5l0-0.1l-0.1-0.2l-0.1,0c-0.1,0-0.2,0-0.3,0c-0.1,0-0.2,0.1-0.3,0.1l0,0c-0.1,0.1-0.1,0.2-0.2,0.3
				s-0.1,0.2-0.1,0.4c0,0.1,0,0.3,0.1,0.4l0,0c0,0.1,0.1,0.2,0.2,0.3c0.1,0.1,0.2,0.2,0.3,0.3c0.1,0.1,0.2,0.1,0.3,0.2
				s0.2,0.1,0.4,0.1c0.1,0,0.3,0,0.4,0c0.2,0,0.5,0,0.7-0.1c0.2-0.1,0.4-0.2,0.6-0.4c0.2-0.2,0.3-0.4,0.4-0.6
				c0.1-0.3,0.2-0.5,0.2-0.8c0-0.3,0-0.5-0.1-0.7C188,41.1,187.9,40.9,187.7,40.8z"/>
		</g>
		<path class="st1" d="M65.7,44.9c-1.1-0.8-2.1-1.7-2.9-2.7c-0.9-1-1.6-2.2-2.2-3.5c-0.6-1.2-1.1-2.6-1.4-4.1
			c-0.3-1.5-0.5-3-0.5-4.6c0-1.6,0.2-3.1,0.5-4.7c0.3-1.6,0.8-3.1,1.4-4.6s1.4-2.8,2.3-4.1c0.7-1,1.5-1.9,2.5-2.6
			c-0.2-0.2-0.4-0.4-0.6-0.6c-0.5-0.8-0.9-1.7-1.3-2.5c-0.6-1-1.2-2.1-1.9-3c-1-1.2-2.4-2.1-4.3-2.5c-0.3,0.2-1,0.4-1,0.7
			c0,0.5,0.2,1.3,0.6,1.6c0.6,0.5,1.5,0.6,2.2,0.9c0.7,0.3,1.4,0.5,2,1c1.4,1.2,1.5,3.3,0.4,4.7c-1.2,1.6-3.3,2-5.1,1.1
			c-1.2-0.6-1.8-1.6-2.3-2.8c-0.3-0.6-0.5-1.2-0.9-1.8c-0.4-0.7-1.1-1.1-2-1c-1,0.1-1.4,0.9-0.9,1.8c0.3,0.4,0.7,0.8,1,1.2
			c1.2,1.4,1,3.5-0.3,4.6c-1.1,1-2.5,0.9-3.9,0c-1.9-1.2-3.9-2.3-5.9-3.4c-1.2-0.6-2.4,0.3-2.1,1.6c0.1,0.5,0.7,1,1.1,1.3
			c1.1,0.5,2.4,0.8,3.6,1.2c1,0.4,2.1,0.8,2.9,1.4c1.9,1.5,1.4,3.9-0.8,4.7c-0.2,0.1-0.3,0.1-0.5,0.2c-1,0.4-1,1.1-0.2,1.7
			c0.3,0.2,0.7,0.4,1,0.6c1.3,0.8,1.3,1.6,0.1,2.6c-0.1,0.1-0.2,0.2-0.3,0.3c-0.9,0.8-0.9,1.6-0.2,2.5c0.4,0.5,0.8,0.9,1.2,1.3
			c0.6,0.7,0.7,1.5,0.3,2.3c-0.4,1-1.3,1.6-2.2,2c-3,1.4-6.1,1.8-9.3,1.7c-0.7,0-1.4,0.1-2,0.3c-0.6,0.2-1,0.7-0.9,1.4
			c0.1,0.7,0.5,1.1,1.1,1.2c0.4,0.1,0.9,0.2,1.4,0.1c1.8-0.3,3.5-0.6,5.2-1c3.2-0.7,6.4-1,9.5,0.6c1,0.5,2.4,0.6,3.6,0.6
			c1.2,0,2.4,0,3.6,0c1.7,1.1,3.5,2.1,5.6,2.7h0c1,0.3,2,0.6,2.9,0.7c0.2,0.7,0.3,1.4,0.6,2c0.3,0.7,0.8,1.4,1.4,1.8
			c0.4,0.3,1.3,0.3,1.8,0.1c0.9-0.4,1.2-1.3,1-2.2c-0.1-0.5-0.2-0.9-0.4-1.3c-0.3-0.1-0.6-0.2-0.9-0.2C68,46.3,66.8,45.7,65.7,44.9z
			"/>
		<path class="st1" d="M86,40.1c-0.1-0.1-0.2-0.3-0.4-0.4c-0.1-0.1-0.3-0.2-0.4-0.3c-0.1-0.1-0.2-0.1-0.3-0.2l-0.2-0.1
			c-0.1,0.4-0.2,0.7-0.5,1.1c-3.2,4.1-8.4,6.5-14.1,6.6c0,0,0,0,0,0.1c1,0.2,2.1,0.4,3.2,0.4c1.1,0,2.1-0.1,3.2-0.3
			c1.1-0.2,2.1-0.6,3.2-1c1.1-0.5,2.1-1.1,3.1-1.9c1-0.8,2-1.7,3-2.8l0,0l0,0c0.1-0.2,0.2-0.3,0.2-0.6C86.2,40.5,86.2,40.3,86,40.1z
			"/>
		<g>
			<path class="st1" d="M69.7,15.9c-0.7,0.6-1.4,1.4-2,2.3c-0.6,0.9-1,1.9-1.4,3.1c-0.4,1.1-0.7,2.3-0.8,3.5
				c-0.2,1.2-0.3,2.5-0.3,3.8c0,1.5,0.1,2.9,0.3,4.2c0.2,1.3,0.6,2.5,1,3.6c0.5,1.1,1,2.1,1.6,2.9c0.6,0.9,1.3,1.5,2,2.1
				c0.7,0.5,1.5,1,2.3,1.3c0.8,0.3,1.6,0.4,2.5,0.4c0.6,0,1.3-0.1,1.9-0.2c0.6-0.1,1.3-0.4,2.1-0.7c0.7-0.3,1.5-0.7,2.2-1.2l0,0l0,0
				c0.7-0.5,1.5-1.1,2.3-1.8l0.7-0.6l0.5,0.3c0-0.1,0-0.2,0-0.3c0-0.8-0.4-1.6-1.1-2.2C79.4,32.9,77,28,77,23c0-1.6,0.2-3.2,0.7-4.7
				l0,0l0,0c0,0,0,0,0,0l0,0l0,0l0,0c0.1-0.3,0.1-0.5,0.1-0.8c0-1.1-0.7-2.2-2-2.8c-0.6-0.3-1.1-0.5-1.7-0.7c-0.7,0.1-1.4,0.2-2,0.5
				C71.3,14.8,70.5,15.3,69.7,15.9L69.7,15.9L69.7,15.9z"/>
			<path class="st1" d="M85,12.8c-0.5-0.5-1.2-0.9-2.1-1.3c-0.9-0.4-1.9-0.7-3-1c-1.2-0.3-2.5-0.4-3.8-0.4c-1.9,0-3.8,0.3-5.4,0.8
				c-1.6,0.6-3.1,1.3-4.4,2.3c-0.3,0.2-0.6,0.5-0.9,0.7c0.5,0.4,1,0.6,1.6,0.5c0.2-0.2,0.4-0.4,0.5-0.6c0.7-0.9,2-1.3,3.3-1.1
				c0.9,0.2,1.7,0.4,2.6,0.7l0,0c0.1,0,0.2,0.1,0.3,0.1c0.1,0,0.2,0,0.4,0l0,0l0,0c0.1,0,0.2,0.1,0.3,0.1c0.2,0,0.4,0,0.6,0
				c0.7,0,1.3,0.1,1.9,0.2c0.6,0.1,1.2,0.3,1.8,0.6c0.5,0.3,1.1,0.6,1.5,1s0.9,0.8,1.2,1.3c0.3,0.5,0.5,1,0.7,1.5
				c0.1,0.6,0.2,1.2,0.2,1.8c0,0.1,0,0.3,0,0.3c0,0.1,0,0.2,0,0.4l0,0.8l3.3,0.1l0-0.8c0.1-1.5,0.2-2.8,0.2-3.9s0.1-2,0.1-2.7
				C85.9,13.8,85.5,13.3,85,12.8z"/>
			<path class="st2" d="M74.2,13.6L74.2,13.6c-0.2,0-0.3,0-0.4,0c0.1,0,0.2,0.1,0.4,0.1c0.1,0,0.3,0,0.4,0
				C74.5,13.7,74.3,13.7,74.2,13.6L74.2,13.6z"/>
			<path class="st2" d="M83.7,39.5c-0.8,0.7-1.6,1.3-2.3,1.8l0,0l0,0c-0.8,0.5-1.5,0.9-2.3,1.3c-0.7,0.3-1.5,0.6-2.1,0.7l0,0l0,0
				c-0.7,0.1-1.4,0.2-2,0.2c-0.9,0-1.8-0.1-2.6-0.4c-0.8-0.3-1.6-0.7-2.4-1.3l0,0l0,0c-0.8-0.6-1.4-1.3-2.1-2.2
				c-0.6-0.9-1.1-1.9-1.6-3l0,0l0,0c-0.4-1.1-0.8-2.3-1-3.7c-0.2-1.3-0.4-2.8-0.4-4.3c0-1.3,0.1-2.6,0.3-3.8
				c0.2-1.3,0.5-2.5,0.9-3.6c0.4-1.1,0.9-2.2,1.5-3.1l0,0l0,0c0.6-0.9,1.3-1.8,2-2.4l0,0c0,0,0,0,0,0c0,0,0,0,0,0l0,0
				c0.8-0.7,1.6-1.2,2.5-1.5c0.5-0.2,1.1-0.4,1.8-0.4c-0.1,0-0.2-0.1-0.3-0.1l0,0c-0.9-0.3-1.7-0.5-2.6-0.7
				c-1.3-0.3-2.6,0.2-3.3,1.1c-0.2,0.2-0.3,0.4-0.5,0.6c-0.6,0-1.2-0.2-1.6-0.5c-0.9,0.8-1.7,1.7-2.5,2.6c-0.9,1.3-1.7,2.6-2.3,4.1
				s-1.1,3-1.4,4.6c-0.3,1.6-0.5,3.2-0.5,4.7c0,1.6,0.2,3.2,0.5,4.6c0.3,1.5,0.8,2.8,1.4,4.1c0.6,1.3,1.3,2.4,2.2,3.5
				c0.9,1,1.8,1.9,2.9,2.7c1.1,0.8,2.3,1.3,3.6,1.7c0.3,0.1,0.6,0.2,0.9,0.2c0,0,0,0,0-0.1c5.7-0.1,10.9-2.5,14.1-6.6
				c0.2-0.3,0.4-0.6,0.4-0.9l-0.5-0.3L83.7,39.5z"/>
		</g>
	</g>
</g>
</svg>
