<?xml version="1.0" encoding="utf-8"?>
<!-- Generator: Adobe Illustrator 25.4.1, SVG Export Plug-In . SVG Version: 6.00 Build 0)  -->
<svg version="1.1" id="Layer_1" xmlns="http://www.w3.org/2000/svg" xmlns:xlink="http://www.w3.org/1999/xlink" x="0px" y="0px"
	 viewBox="0 0 252 90" style="enable-background:new 0 0 252 90;" xml:space="preserve">
<style type="text/css">
	.st0{fill:#FFFFFF;}
	.st1{fill:#091B33;}
	.st2{fill:#46AE74;}
</style>
<g>
	<path class="st0" d="M234.1,63.8c0.1-0.3,0.2-0.5,0.3-0.8c0-0.1,0.1-0.2,0.1-0.3l0,0c0-0.2,0.1-0.5,0.1-1c0-0.8-0.2-1.5-0.5-2.3
		c0,0,0,0,0-0.1c-0.3-0.7-0.8-1.3-1.3-1.8c-0.5-0.5-1.2-0.8-1.9-1.1c-0.6-0.2-1.2-0.3-1.9-0.3c-0.5,0-1,0.1-1.5,0.2
		c-0.3,0.1-0.7,0.2-1,0.3c-0.2-0.1-0.5-0.2-0.7-0.3c0,0,0,0,0,0c0-0.3,0-0.6,0.1-0.9c0-0.3,0-0.5,0.1-0.8c0-0.3,0.1-0.7,0.1-1
		c0,0,0-0.3,0-0.3c0.1-1.3-0.5-2.6-1.6-3.3c0,0-0.2-0.1-0.2-0.1c-0.8-0.6-1.8-0.9-2.8-0.9c-0.4,0-0.7,0-1.1,0.1
		c-0.6,0.1-1.1,0.4-1.6,0.7c-0.5,0.4-1,0.9-1.3,1.4c-0.4,0.6-0.6,1.4-0.6,2.1c0,0.4,0,0.9-0.1,1.4c0,0.5,0,1-0.1,1.5l-0.2,0
		c-0.2,0-0.3,0.1-0.5,0.1c-0.2-0.1-0.4-0.2-0.6-0.2c0-0.2,0-0.3,0-0.5c0,0,0-0.2,0-0.2c0.1-1.4-0.6-2.8-1.9-3.5l-0.1-0.1
		c-0.3-0.2-0.6-0.3-0.8-0.4c-0.1,0-0.2-0.1-0.3-0.1c-0.5-0.1-0.9-0.2-1.4-0.2c-0.5,0-1,0.1-1.5,0.3c-0.4,0.1-0.8,0.4-1.2,0.6
		c0,0,0,0-0.1,0.1c0,0-0.1,0-0.1,0.1c-0.1-0.1-0.2-0.1-0.3-0.2c-0.4-0.3-0.9-0.5-1.3-0.6c0.3-1,0.6-2.1,1.1-3c0,0,0.1-0.2,0.1-0.3
		c0.5,0.2,1,0.3,1.5,0.3h1.1c1,0,1.9-0.4,2.6-1.1l0.3-0.3c0.9-0.9,1.7-2.1,2.1-3.4c0.4-1.1,0.6-2.1,0.6-3.2c0.1-1-0.1-2-0.4-3
		c-0.3-1-0.8-1.8-1.4-2.6c-0.7-0.8-1.5-1.5-2.5-2c-1-0.5-2.1-0.8-3.2-0.8c-2.1,0-4,0.8-5.7,2.2c-0.4-0.4-0.9-0.8-1.4-1.1
		c-1-0.6-2.1-0.9-3.3-0.9c-1.3,0-2.4,0.3-3.6,0.8c-1.2,0.4-2.6,1-4.6,2c0,0-0.1,0-0.1,0.1l0,0c-0.3-0.3-0.7-0.6-1.1-0.9c0,0,0,0,0,0
		c-1.8-1.4-4-2.1-6.3-2.1c-1.9,0-3.8,0.4-5.4,1.3c-1.1,0.6-2.2,1.3-3.1,2.3c-0.3-0.7-0.8-1.2-1.4-1.6c-0.6-0.4-1.3-0.5-1.9-0.5
		c-0.3,0-0.6,0-0.9,0.1c0,0-1.1,0.3-1.2,0.3c0,0-0.1,0-0.3,0c0.1-0.9,0.2-1.8,0.3-2.7l0-0.4c0.3-2.5,0.6-5.1,1-7.9c0,0,0-0.1,0-0.1
		l0.1-0.6c0.2-1.3-0.3-2.5-1.3-3.4l-0.5-0.4c0,0-0.1-0.1-0.2-0.1c-0.4-0.3-1.1-0.8-2-1.1c-1-0.4-1.9-0.4-2.6-0.4
		c-0.6,0-1.2,0.1-1.8,0.2c-0.5,0.1-1,0.3-1.4,0.5c-0.3,0.1-0.6,0.3-0.8,0.5l-0.2,0.1c-0.3,0.2-0.5,0.4-0.7,0.7
		c-0.4,0.4-0.7,0.9-1,1.4c-0.5,0.8-0.8,1.7-0.9,2.7l-0.1,0.8c-0.2,1.8-0.5,3.9-0.7,6.2c-0.2,1.6-0.3,3.2-0.5,4.9
		c-0.3,0.1-0.6,0.3-0.8,0.4c-0.4,0.2-0.8,0.5-1.2,0.8c-0.9-1.2-2-2.1-3.3-2.8c-1.4-0.8-3.1-1.1-4.9-1.1c-1.1,0-2.1,0.2-2.9,0.4
		c-0.1,0-0.1,0-0.2,0c-0.7,0.2-1.8,0.5-2.9,1.1c-1,0.5-1.9,1.1-2.7,1.7c-0.5,0.4-0.9,0.8-1.3,1.2c-0.3-0.4-0.6-0.8-0.9-1.2
		c0,0-0.1-0.1-0.1-0.1c-1-1-2.1-1.8-3.4-2.3c-1.3-0.5-2.6-0.8-3.9-0.8c-1.8,0-3.6,0.4-5.2,1.2c0,0,0,0,0,0c-0.9,0.4-1.8,1-2.7,1.7
		c-0.1-0.1-0.1-0.1-0.2-0.2c-0.7-0.8-1.5-1.5-2.5-2c-0.6-0.3-1.3-0.5-2-0.7c-0.1-0.3-0.2-0.5-0.3-0.7c0.3-0.7,0.5-1.5,0.5-2.2
		c0-0.7-0.1-1.4-0.4-2c-0.2-0.6-0.6-1.2-1.1-1.7c0,0-0.1-0.1-0.1-0.1c-0.5-0.5-1.1-0.9-1.7-1.1c-0.6-0.2-1.3-0.4-1.9-0.4
		c-0.8,0-1.6,0.2-2.4,0.5c0,0,0,0,0,0c0,0,0,0,0,0c0,0-0.1,0-0.1-0.1c0-0.1,0-0.1,0-0.2c0-0.5,0.1-1,0.1-1.6c0,0,0-0.2,0-0.2
		c0.1-1.3-0.5-2.6-1.6-3.3l-0.1-0.1c-0.8-0.5-1.7-0.8-2.6-0.8c-0.4,0-0.7,0-1,0.1c-0.6,0.1-1.1,0.4-1.6,0.7
		c-0.4,0.3-0.8,0.7-1.1,1.2c-0.2,0-0.4,0-0.5,0c-0.1,0-0.2,0-0.3,0l-0.5,0c-0.2,0-0.6,0-0.6,0c-0.2,0-0.4,0-0.6,0
		c-0.8,0-1.6,0.2-2.3,0.6c-0.7,0.4-1.2,0.9-1.7,1.5c-0.5-0.3-0.9-0.5-1.4-0.7c-1.3-0.6-2.9-1.1-4.7-1.5c0,0,0,0,0,0
		c-1.8-0.4-3.8-0.6-5.9-0.6c-3,0-5.9,0.4-8.5,1.3c-1.7,0.6-3.3,1.3-4.9,2.3c-0.1-0.2-0.2-0.5-0.4-0.7c-0.2-0.3-0.3-0.5-0.4-0.8
		c-0.7-1.2-1.5-2.6-2.5-3.8c-2-2.3-4.5-3.8-7.8-4.6c-0.3-0.1-0.6-0.1-0.8-0.1c-0.7,0-1.4,0.2-2,0.6c0,0-0.1,0-0.1,0.1
		c-0.8,0.4-2.8,1.4-3,3.9c0,0.7,0,1.5,0.3,2.3c-0.9-0.5-2-0.8-3.1-0.8c-0.3,0-0.5,0-0.8,0c-1.9,0.2-3.6,1.3-4.3,3
		c-0.8,1.6-0.6,3.5,0.4,5.1c0.4,0.7,0.9,1.2,1.3,1.7c0.1,0.1,0.2,0.3,0.3,0.4c0.3,0.3,0.2,0.8-0.1,1.1c0,0,0,0,0,0
		c-0.1,0-0.4-0.1-0.8-0.3c-2.8-1.8-5.5-3.3-8.2-4.7c-0.9-0.4-1.8-0.7-2.7-0.7c-1.7,0-3.3,0.8-4.4,2.1c-1.1,1.4-1.4,3.2-1,4.9
		c0.5,2,2.2,3.5,3.7,4.2c1,0.5,2.1,0.8,3,1.1c0.7,0.2,1.3,0.4,1.9,0.6l0.5,0.2c0.9,0.4,1.9,0.7,2.4,1.1c-0.3,0.1-0.6,0.2-0.9,0.4
		c-2.5,1.2-3.1,3.1-3.2,4.1c-0.1,1,0.1,2.9,2.2,4.6c-1.8,2.3-1.7,5.1,0.2,7.5c0.4,0.4,0.7,0.8,1,1.2c0.1,0.1,0.2,0.2,0.3,0.3
		c-0.2,0.1-0.4,0.3-0.9,0.6c-2.8,1.3-5.8,1.9-9.3,1.9c-0.5,0-1,0-1.5,0c-0.2,0-0.4,0-0.6,0c-1.2,0-2.5,0.2-3.6,0.6
		c-2.5,0.9-3.9,3.2-3.7,5.8c0.2,2.5,1.9,4.3,4.4,4.9c0.5,0.1,1.3,0.3,2.2,0.3c0.4,0,0.7,0,1.1-0.1c2.8-0.5,5.1-0.9,7.2-1.4
		c2.1-0.5,3.8-0.7,5.2-0.7c1.9,0,3.6,0.4,5.2,1.1c2.2,1.1,4.7,1.2,6.4,1.2c1.4,0,2.7,0.1,3.7,0.1c0.1,0,0.1,0,0.2,0
		c2.3,1.5,4.8,2.7,7.5,3.5c0.7,0.2,1.3,0.4,2,0.6c0.1,0.4,0.3,0.8,0.5,1.2c0.8,1.8,1.8,3,3.1,3.9c1.2,0.8,2.5,1,3.4,1c0,0,0,0,0,0
		c0.6,0,1.6-0.1,2.5-0.5c1.7-0.7,3-2.2,3.5-4c0.1,0,0.1,0,0.2,0c1.6,0,3.3-0.2,5-0.5c1.8-0.3,3.5-0.9,5.2-1.7
		c1.7-0.8,3.2-1.7,4.8-2.9c1.4-1,2.6-2.1,3.8-3.4l0,0.1c-0.2,2,1.4,3.8,3.4,4l1.4,0.1c0.1,0,0.2,0,0.3,0c0.2,0,0.4,0,0.6-0.1
		l4.1-0.7c1.7-0.3,3-1.7,3.1-3.5l0-0.9c0-0.5,0.1-1.3,0.2-2.1c0-0.3,0.1-0.6,0.1-0.9l0.1-0.4c0.1-1.1,0.3-2.3,0.5-3.5
		c0.2-1.4,0.5-3,0.8-4.5c0.3-1.3,0.6-2.8,1-4.2c0,0,0-0.1,0-0.1c-0.1,1.2-0.2,2.4-0.2,3.5c0,2.3,0.3,4.4,0.8,6.3
		c0.6,2.2,1.3,3.9,2.3,5.5c1.1,1.7,2.4,3.2,4,4.2c0,0,0,0,0.1,0c1.8,1.2,3.8,1.8,6,1.8c1.2,0,2.5-0.2,3.7-0.7c1.2-0.4,2.4-1,3.5-1.9
		c0.4-0.3,0.8-0.6,1.1-1c0.7,0.9,1.6,1.7,2.6,2.3c0,0,0.1,0,0.1,0c1.3,0.7,2.8,1.1,4.3,1.1c1.9,0,3.7-0.6,5.3-1.8c0,0,0,0,0,0
		c0.4-0.3,0.7-0.6,1.1-0.9c0.6,0.6,1.2,1.1,1.9,1.5c1.2,0.7,2.7,1.1,4.2,1.1c1.7,0,3.5-0.5,5-1.4c0.4-0.2,0.7-0.5,1-0.7
		c0.5,0.5,1,0.9,1.6,1.2c1.3,0.8,2.8,1.2,4.4,1.2c1,0,2-0.2,3.1-0.5c0.9-0.3,1.8-0.7,2.7-1.2c0.8-0.5,1.6-0.9,2.3-1.5
		c0,0,0.1,0,0.1-0.1c0.1-0.1,0.2-0.1,0.3-0.2c0.4,0.5,0.9,0.9,1.4,1.3c0,0,0,0,0,0c1.8,1.4,4,2.1,6.3,2.1c1.9,0,3.8-0.4,5.4-1.3
		c1.5-0.8,2.9-1.9,4-3.2c0.8-0.9,1.5-1.9,2.1-2.8c0,0.6-0.1,1.1-0.1,1.6l-0.1,1c-0.2,2,1.4,3.8,3.4,4l1.4,0.1c0.1,0,0.2,0,0.3,0
		c0.2,0,0.4,0,0.6,0l4.1-0.7c0.5-0.1,1-0.3,1.4-0.5c0.5,0.4,1.2,0.7,1.9,0.8l0.4,0.1c0.2,0,0.4,0,0.5,0c0.2,0,0.4,0,0.6-0.1l1.2-0.2
		c0.6-0.1,1.1-0.3,1.5-0.6c0.1,0.1,0.1,0.1,0.2,0.2c0,0,0,0,0,0c0.8,0.5,1.7,0.8,2.6,0.8c0.4,0,0.8-0.1,1-0.1c0.1,0,0.2,0,0.3-0.1
		c0.2-0.1,0.4-0.1,0.6-0.2c0.6,0.2,1.2,0.4,1.8,0.4c0.7,0,1.3-0.1,1.9-0.4c0.6,0.2,1.2,0.3,1.8,0.3c0.3,0,0.5,0,0.8-0.1
		c0.3,0.1,0.7,0.1,1,0.1c0.4,0,0.7-0.1,1.1-0.2c0.4,0.1,0.8,0.1,1.2,0.1c0.8,0,1.6-0.2,2.3-0.5c0.2-0.1,0.3-0.1,0.4-0.2
		c0.2,0.1,0.4,0.2,0.6,0.3c0.4,0.2,0.8,0.3,1.1,0.3c0.4,0.1,0.8,0.1,1.2,0.1c0.8,0,1.6-0.2,2.3-0.5c0.8-0.3,1.5-0.8,2-1.3
		c0.6-0.6,1-1.2,1.3-2c0,0,0,0,0,0c0.3-0.8,0.5-1.7,0.5-2.6c0-0.8-0.1-1.6-0.4-2.3C234.2,63.9,234.2,63.8,234.1,63.8z"/>
	<g>
		<g>
			<path class="st1" d="M105.9,33.6c-0.1,0.1-0.2,0.1-0.3,0.2c-0.1,0-0.2,0.1-0.3,0.1c0,0-0.1,0-0.1,0c0,0,0,0,0-0.1
				c0-0.1,0-0.2-0.1-0.3c0-0.1,0-0.3,0-0.6c0-0.1,0-0.3,0-0.5c0-0.2,0-0.4,0-0.6s0-0.4,0-0.6c0-0.2,0-0.4,0-0.6c0-0.2,0-0.4,0-0.5
				c0-0.2,0-0.3,0-0.4c0-0.3,0-0.6-0.1-0.8c-0.1-0.2-0.1-0.4-0.2-0.6c-0.1-0.2-0.2-0.3-0.4-0.4c-0.1-0.1-0.3-0.1-0.5-0.1
				c-0.2,0-0.5,0.1-0.7,0.3c-0.2,0.2-0.4,0.4-0.6,0.8c-0.2,0.3-0.4,0.8-0.6,1.3l0,0c0-0.1,0-0.2,0-0.2c0-0.3,0-0.7,0.1-1
				c0-0.3,0-0.7,0.1-1c0-0.3,0-0.7,0.1-1.1c0-0.4,0.1-0.8,0.1-1.2s0.1-0.9,0.1-1.4c0-0.5,0.1-1.1,0.1-1.7l0-0.1l-0.1-0.1
				c-0.2-0.1-0.4-0.2-0.5-0.2c-0.1,0-0.2,0-0.2,0s-0.2,0.1-0.2,0.1c-0.1,0.1-0.1,0.1-0.2,0.2c0,0.1-0.1,0.2-0.1,0.3l0,0
				c0,0.5,0,1-0.1,1.5c0,0.5,0,1-0.1,1.6c0,0.5,0,1.1-0.1,1.6c0,0.6,0,1.1-0.1,1.6c0,0.5,0,1.1-0.1,1.6c0,0.5,0,1-0.1,1.5
				c0,0.5,0,0.9-0.1,1.4c0,0.4,0,0.8,0,1.2l0,0.2l0.3,0l0.9-0.2l0-0.2c0-0.4,0.1-0.9,0.1-1.3c0.1-0.4,0.2-0.9,0.2-1.3
				s0.2-0.8,0.3-1.1c0.1-0.3,0.3-0.6,0.4-0.9c0.1-0.2,0.3-0.4,0.4-0.6c0.1-0.1,0.2-0.2,0.2-0.2c0,0,0.1,0,0.1,0c0,0,0.1,0,0.1,0.1
				c0.1,0.1,0.1,0.3,0.1,0.6c0,0.1,0,0.3,0,0.5c0,0.2,0,0.5,0,0.8c0,0.3,0,0.6,0,0.9c0,0.3,0,0.6,0,0.9c0,0.2,0,0.5,0,0.7
				c0,0.2,0,0.4,0.1,0.6s0.1,0.3,0.2,0.4c0.1,0.1,0.3,0.2,0.5,0.2c0.1,0,0.3,0,0.4-0.1c0.1-0.1,0.3-0.1,0.4-0.2
				c0.1-0.1,0.3-0.2,0.4-0.3c0.1-0.1,0.2-0.2,0.3-0.3l0.1-0.1l-0.2-0.7L105.9,33.6z"/>
			<path class="st1" d="M109.2,31c0.3-0.2,0.5-0.4,0.7-0.7c0.2-0.3,0.3-0.6,0.3-0.9c0-0.2,0-0.5-0.1-0.6c-0.1-0.2-0.2-0.4-0.3-0.5
				c-0.1-0.1-0.3-0.2-0.5-0.3s-0.4-0.1-0.6-0.1c-0.3,0-0.5,0.1-0.8,0.2c-0.2,0.1-0.5,0.3-0.6,0.5c-0.2,0.2-0.4,0.4-0.5,0.7
				s-0.3,0.6-0.4,0.9s-0.2,0.6-0.2,1s-0.1,0.7-0.1,1c0,0.4,0,0.8,0.1,1.2c0.1,0.4,0.2,0.7,0.4,1c0.2,0.3,0.4,0.5,0.6,0.7
				c0.3,0.2,0.5,0.3,0.9,0.3c0.2,0,0.4,0,0.5-0.1c0.2-0.1,0.4-0.2,0.5-0.3c0.2-0.1,0.3-0.3,0.5-0.5c0.2-0.2,0.3-0.4,0.4-0.6l0,0l0,0
				l0,0l0,0c0,0,0-0.1,0-0.1c0-0.1,0-0.1-0.1-0.2l0,0c0,0,0-0.1-0.1-0.1l0,0c0,0-0.1-0.1-0.1-0.1l0,0c0,0,0,0-0.1,0l-0.2-0.1
				l-0.1,0.2c-0.2,0.3-0.4,0.5-0.6,0.6l0.1,0.2l-0.1-0.2c-0.2,0.1-0.3,0.2-0.5,0.2c-0.1,0-0.3,0-0.4-0.1c-0.1-0.1-0.3-0.2-0.4-0.5
				c-0.1-0.2-0.2-0.5-0.3-0.8c-0.1-0.3-0.1-0.6-0.1-0.9c0.3,0,0.7-0.1,1-0.2C108.6,31.3,108.9,31.2,109.2,31z M107.4,30.7
				c0-0.1,0-0.2,0-0.2c0-0.2,0.1-0.4,0.1-0.5c0-0.2,0.1-0.3,0.2-0.5c0.1-0.1,0.1-0.3,0.2-0.4c0.1-0.1,0.2-0.2,0.2-0.2
				c0.1,0,0.2-0.1,0.3-0.1c0.1,0,0.1,0,0.2,0c0.1,0,0.1,0.1,0.1,0.1l0,0c0,0.1,0.1,0.1,0.1,0.2c0,0.1,0,0.2,0,0.3
				c0,0.2,0,0.3-0.1,0.4l0,0c-0.1,0.1-0.2,0.2-0.3,0.3c-0.1,0.1-0.3,0.2-0.6,0.3C107.7,30.7,107.5,30.7,107.4,30.7z"/>
			<path class="st1" d="M100.9,24.1l-0.1-0.2l-0.2,0.1c-0.1,0-0.2,0-0.3,0.1c-0.1,0-0.2,0-0.3,0c-0.1,0-0.2,0-0.3,0
				c-0.1,0-0.3,0-0.5,0c-0.2,0-0.4,0-0.6,0c-0.2,0-0.5,0-0.8,0c-0.2,0-0.4,0-0.5,0c-0.2,0-0.4,0-0.6,0c-0.2,0-0.3,0-0.5,0
				c-0.2,0-0.3,0-0.4,0c-0.2,0-0.4,0-0.6,0.1c-0.2,0.1-0.3,0.2-0.4,0.4c-0.1,0.2-0.1,0.4-0.1,0.6c0,0.2,0,0.5,0,0.8c0,0.3,0,0.6,0,1
				v0.2l0.8,0v-0.3c0-0.3,0-0.6,0-0.8c0-0.2,0.1-0.4,0.1-0.5c0-0.1,0.1-0.2,0.1-0.2c0.1-0.1,0.1-0.1,0.2-0.1c0.1,0,0.2,0,0.2,0
				c0.1,0,0.2,0,0.4,0c0.1,0,0.3,0,0.4,0c0.1,0,0.1,0,0.2,0c0,0.6,0,1.1,0,1.6c0,0.6,0,1.1,0,1.7c0,0.5,0,1.1,0,1.6s0,1,0,1.5
				c0,0.5,0,1,0,1.6c0,0.5,0,1.1-0.1,1.7l0,0.2l0.3,0l1-0.2v-0.2c0-0.5,0-1.1,0-1.6c0-0.6,0-1.1,0-1.7c0-0.6,0-1.1,0-1.7
				c0-0.6,0-1.1,0-1.7c0-0.5,0-1.1,0-1.6c0-0.4,0-0.8,0-1.2c0.3,0,0.5,0.1,0.8,0.1c0.3,0,0.6,0.1,0.8,0.1c0.3,0,0.5-0.1,0.7-0.2
				c0.2-0.2,0.3-0.4,0.3-0.6C101,24.4,101,24.3,100.9,24.1z"/>
		</g>
		<g>
			<g>
				<path class="st1" d="M94.4,58.5L94.4,58.5L94.4,58.5z"/>
				<path class="st1" d="M114.7,44.5c0.5-0.5,0.9-1.2,1.2-1.9c0.2-0.7,0.4-1.4,0.4-2.1c0-0.6-0.1-1.2-0.3-1.7l0,0
					c-0.2-0.5-0.4-1-0.7-1.4c-0.3-0.4-0.7-0.7-1.2-1c-0.5-0.2-1-0.4-1.6-0.4c-1.4,0-2.8,0.7-3.8,1.8c-1,1.1-1.9,2.6-2.7,4.4
					c-0.4,0.9-0.7,1.8-1.1,2.9c0-0.7,0.1-1.3,0.1-1.8l0,0c0-0.7,0.1-1.4,0.1-1.8s0-0.7,0-0.9c0-1.2-0.1-2.1-0.6-2.9
					c-0.2-0.4-0.6-0.8-1-1c-0.4-0.2-0.9-0.3-1.4-0.3c-0.7,0-1.4,0.2-2.4,0.6c-1.1,0.4-2.5,1-4.2,1.8L94.7,39l0.5,3.6l1.2-0.4
					c0.4-0.1,0.7-0.2,0.9-0.3c0.2-0.1,0.5-0.2,0.7-0.2s0.4-0.1,0.5-0.1c0.1,0,0.2,0,0.4,0c0.1,0,0.2,0,0.2,0h0c0,0,0,0,0,0l0,0
					c0,0.1,0.1,0.3,0.1,0.6l0,0c0,0.3,0,0.7,0,1.2c0,0.6,0,1.5,0,2.5c0,1.1,0,2.3-0.1,3.7c0,1.4-0.1,2.8-0.1,4.4
					c0,1.6-0.1,3.2-0.2,4.8c0,1.6-0.1,3.2-0.2,4.7c-0.1,1.6-0.2,3-0.2,4.3l-0.1,1.1L100,69l4.1-0.7l0-0.9c0-0.9,0.2-2,0.3-3.3
					c0.2-1.3,0.3-2.7,0.6-4.2c0.2-1.5,0.5-3,0.8-4.6c0.3-1.6,0.7-3.1,1.1-4.5c0.4-1.4,0.8-2.7,1.3-3.8c0.5-1.1,0.9-2,1.4-2.6l0,0
					c0.3-0.4,0.6-0.6,0.9-0.7c0.3-0.2,0.5-0.2,0.8-0.2c0.2,0,0.5,0,0.7,0.2c0.2,0.1,0.6,0.4,0.9,0.8l0.3,0.4h1.1L114.7,44.5z"/>
				<path class="st1" d="M128.6,50.6c1.3-0.8,2.3-1.8,3.1-3c0.8-1.2,1.2-2.7,1.2-4.3c0-1.1-0.2-2.1-0.5-3c-0.3-0.9-0.8-1.6-1.4-2.3
					c-0.6-0.6-1.3-1.1-2.1-1.4c-0.8-0.3-1.7-0.5-2.5-0.5c-1.3,0-2.5,0.3-3.7,0.8c-1.1,0.5-2.1,1.3-3,2.2c-0.9,0.9-1.7,2-2.4,3.2
					c-0.7,1.2-1.3,2.5-1.7,3.9c-0.5,1.4-0.8,2.9-1.1,4.4c-0.2,1.6-0.4,3.1-0.4,4.6c0,1.9,0.2,3.7,0.7,5.4c0.5,1.7,1,3.2,1.8,4.5
					c0.8,1.3,1.8,2.3,2.9,3.1c1.2,0.8,2.5,1.2,3.9,1.2c0.8,0,1.7-0.2,2.5-0.5c0.9-0.3,1.6-0.7,2.4-1.4c0.8-0.6,1.5-1.3,2.2-2.2
					c0.7-0.9,1.4-1.8,1.9-3l0,0l0,0l0,0l0,0c0.1-0.2,0.2-0.4,0.2-0.7c0-0.3-0.1-0.6-0.2-0.9l0,0c-0.1-0.2-0.2-0.3-0.3-0.5l0,0
					c-0.1-0.1-0.2-0.2-0.4-0.4l0,0c-0.1-0.1-0.2-0.2-0.3-0.2l-0.9-0.6l-0.6,0.9c-0.9,1.3-1.8,2.2-2.6,2.8l0.6,0.9l-0.6-0.9
					c-0.8,0.5-1.6,0.7-2.2,0.7c-0.7,0-1.2-0.2-1.9-0.7c-0.6-0.5-1.2-1.2-1.7-2.1c-0.5-0.9-0.9-2.1-1.2-3.5c-0.3-1.2-0.4-2.6-0.5-4.1
					c1.6-0.2,3-0.5,4.4-0.9C125.9,52.1,127.3,51.4,128.6,50.6z M120,49.4c0-0.4,0.1-0.7,0.2-1.1c0.1-0.8,0.3-1.6,0.5-2.4
					s0.5-1.5,0.8-2.2c0.3-0.7,0.6-1.2,1-1.7s0.7-0.8,1.2-1c0.4-0.2,0.7-0.3,1.2-0.3c0.2,0,0.5,0,0.7,0.2c0.2,0.2,0.5,0.4,0.7,0.7
					l0,0c0.2,0.3,0.4,0.7,0.5,1.2c0.1,0.5,0.2,0.9,0.2,1.5c0,0.8-0.2,1.5-0.5,2l0,0c-0.3,0.6-0.8,1.1-1.5,1.6
					c-0.7,0.5-1.5,0.9-2.6,1.2C121.6,49.1,120.8,49.3,120,49.4z"/>
				<path class="st1" d="M154.9,63.7c-0.9,0.7-1.5,0.9-1.9,0.9c-0.2,0-0.4,0-0.6-0.2c-0.2-0.1-0.4-0.4-0.6-0.8
					c-0.4-0.7-0.7-2.1-0.7-4c0-1.2,0-2.5,0.1-3.8c0-1.3,0.1-2.5,0.2-3.7c0.1-1.2,0.1-2.3,0.2-3.5c0-1.1,0.1-2.1,0.1-3.1
					c0-1.4-0.1-2.7-0.3-3.8c-0.2-1.2-0.6-2.2-1.2-3.1c-0.6-0.9-1.3-1.6-2.3-2.1c-0.9-0.5-2-0.7-3.2-0.7c-0.7,0-1.4,0.1-2.1,0.3
					c-0.7,0.2-1.5,0.5-2.2,0.8c-0.7,0.4-1.4,0.8-2.1,1.3c-0.7,0.5-1.3,1.1-1.8,1.8c-0.5,0.7-1,1.4-1.3,2.3c-0.3,0.9-0.5,1.8-0.5,2.7
					c0,0.6,0.1,1.2,0.2,1.7c0.2,0.5,0.4,1,0.7,1.4c0.3,0.4,0.7,0.7,1.2,0.9s0.9,0.3,1.4,0.3c0.8,0,1.6-0.3,2.3-0.8l0.3-0.2l0.3-1
					l-0.2-0.4c-0.3-0.6-0.5-1.2-0.7-1.7c-0.2-0.6-0.2-1.2-0.2-1.7c0-0.5,0-0.9,0.2-1.3l0,0c0.1-0.4,0.2-0.6,0.5-0.9
					c0.2-0.2,0.5-0.4,0.8-0.6c0.3-0.1,0.8-0.2,1.4-0.2c0.4,0,0.7,0.1,1.2,0.3c0.4,0.2,0.7,0.5,1.1,0.9c0.3,0.4,0.6,0.9,0.8,1.6
					c0.2,0.7,0.3,1.5,0.3,2.5c0,1,0,1.8-0.1,2.7c0,0.5-0.1,1-0.1,1.6c-0.8,0-1.6,0.1-2.4,0.2c-1.2,0.2-2.2,0.5-3.2,0.9
					c-1,0.4-2,0.9-2.9,1.6c-0.9,0.7-1.7,1.4-2.3,2.3c-0.7,0.9-1.2,1.9-1.5,3c-0.4,1.1-0.5,2.3-0.5,3.7c0,1,0.1,2,0.4,2.9
					c0.2,0.9,0.6,1.7,1.1,2.4c0.5,0.7,1.1,1.3,1.8,1.7c0.7,0.4,1.6,0.7,2.5,0.7c1.1,0,2.1-0.4,3.1-1.1c0.9-0.7,1.7-1.4,2.4-2.4
					c0.6-0.8,1.1-1.6,1.6-2.6c0,0.3,0.1,0.7,0.2,1c0.2,1,0.6,1.9,1.1,2.6c0.5,0.7,1.1,1.3,1.8,1.7s1.5,0.6,2.3,0.6
					c1.1,0,2.1-0.3,3.1-0.9c0.9-0.6,1.8-1.4,2.5-2.4l0.4-0.5l-1.3-2.7L154.9,63.7z M145.4,55.6c-0.2,0.9-0.5,1.7-0.8,2.5
					c-0.3,0.8-0.7,1.5-1.1,2.2c-0.4,0.7-0.8,1.2-1.2,1.7s-0.8,0.8-1.2,1c-0.4,0.2-0.6,0.3-0.9,0.3c-0.2,0-0.3,0-0.4-0.1l0,0
					c-0.1-0.1-0.2-0.2-0.4-0.5c-0.1-0.2-0.2-0.6-0.3-1l0,0c-0.1-0.4-0.1-0.9-0.1-1.4c0-0.9,0.1-1.6,0.3-2.2c0.2-0.6,0.5-1.2,0.8-1.6
					c0.3-0.5,0.7-0.8,1.2-1.1c0.5-0.3,1-0.6,1.6-0.8c0.6-0.2,1.2-0.3,1.9-0.5c0.3,0,0.6-0.1,0.9-0.1
					C145.6,54.6,145.5,55.1,145.4,55.6z"/>
				<path class="st1" d="M135.5,48.2L135.5,48.2L135.5,48.2z"/>
				<path class="st1" d="M160.3,22.1L160.3,22.1L160.3,22.1z"/>
				<path class="st1" d="M169.6,42L169.6,42L169.6,42z"/>
				<polygon class="st1" points="160.9,21.3 161.1,21.2 161.1,21.2 				"/>
				<path class="st1" d="M170.7,39.2L170.7,39.2L170.7,39.2L170.7,39.2z"/>
				<path class="st1" d="M170.8,62.7l-0.6-0.9l-0.9,0.6c-0.8,0.5-1.5,0.9-2.1,1.2c-0.6,0.2-1.1,0.3-1.4,0.3c-0.6,0-0.9-0.1-1.2-0.4
					l0,0c-0.3-0.3-0.6-0.7-0.9-1.4l0,0c-0.2-0.7-0.4-1.6-0.5-2.7l0,0c-0.1-1.1-0.2-2.4-0.2-3.9c0-0.8,0-1.7,0-2.8
					c0-1.1,0-2.2,0.1-3.5c0-1.2,0.1-2.6,0.2-4c0-1.1,0.1-2.1,0.2-3.2c0.5,0,1.1,0.1,1.6,0.2c0.9,0.1,1.6,0.2,2.4,0.2
					c0.8,0,1.5-0.1,2.1-0.4c0.4-0.2,0.7-0.6,0.9-0.9c0.2-0.4,0.2-0.8,0.2-1.2c0-0.2,0-0.5,0-0.7c0-0.2-0.1-0.5-0.1-0.7l-0.2-1.1
					l-1.1,0.3c-0.5,0.1-1.1,0.2-2,0.2c-0.2,0-0.5,0-0.8,0s-0.7,0-1,0c-0.4,0-0.8,0-1.3,0c-0.1,0-0.2,0-0.2,0
					c0.2-2.4,0.4-4.8,0.7-7.2c0.3-2.8,0.7-5.5,1.1-8.1l0.1-0.6l-0.5-0.4c-0.3-0.2-0.7-0.5-1-0.6l0,0c-0.4-0.2-0.8-0.2-1.3-0.2
					c-0.3,0-0.6,0-0.9,0.1c-0.4,0.1-0.7,0.2-1,0.5l0,0c-0.3,0.2-0.6,0.5-0.7,0.9c-0.2,0.4-0.4,0.8-0.4,1.3l0,0
					c-0.2,2.1-0.5,4.4-0.8,6.9c-0.2,2.3-0.5,4.8-0.7,7.4c-0.3,0-0.7,0.1-1,0.2c-0.6,0.2-1.1,0.4-1.6,0.6s-0.9,0.6-1.2,0.9
					c-0.3,0.4-0.5,0.9-0.5,1.5c0,0.2,0,0.4,0.1,0.7l0.4,1l1-0.3c0.4-0.1,0.9-0.2,1.5-0.3c0.3,0,0.6,0,0.9-0.1
					c-0.1,0.9-0.1,1.9-0.2,2.9c-0.1,1.4-0.2,2.8-0.2,4.1l0,0c0,1.4-0.1,2.8-0.1,4.1s0,2.7,0,3.9c0,2.3,0.1,4.2,0.4,5.8
					c0.2,1.5,0.6,2.8,1,3.8c0.5,1,1.1,1.8,1.9,2.3c0.7,0.5,1.6,0.7,2.4,0.7c0.7,0,1.3-0.1,2-0.3c0.7-0.2,1.3-0.5,2-0.9
					c0.7-0.4,1.3-0.8,2-1.3c0.7-0.5,1.3-1,2-1.6l0.4-0.4l0-0.5C171.5,63.9,171.2,63.2,170.8,62.7z"/>
				<path class="st1" d="M189.1,40.7c-0.7-1.4-1.7-2.5-2.8-3.3c-1.2-0.9-2.6-1.4-4.1-1.4c-1.3,0-2.5,0.3-3.7,0.9
					c-1.1,0.6-2.1,1.4-3,2.3c-0.9,1-1.6,2.1-2.3,3.3c-0.7,1.2-1.2,2.6-1.6,4c-0.4,1.4-0.7,2.9-1,4.4c-0.2,1.5-0.3,3-0.3,4.4
					c0,1.7,0.2,3.4,0.5,5.1l0,0c0.4,1.6,0.9,3.2,1.6,4.5c0.7,1.4,1.7,2.5,2.8,3.3c1.2,0.9,2.6,1.4,4.1,1.4c1.3,0,2.5-0.3,3.7-0.9
					c1.1-0.6,2.1-1.4,3-2.3c0.9-1,1.6-2.1,2.3-3.3c0.7-1.2,1.2-2.6,1.6-4c0.5-1.4,0.8-2.9,1-4.4c0.2-1.5,0.3-3,0.3-4.4
					c0-1.7-0.2-3.4-0.5-5.1C190.4,43.5,189.8,42,189.1,40.7z M184.4,60.4c-0.2,0.9-0.6,1.6-0.9,2.3c-0.4,0.6-0.7,1.1-1.2,1.4
					c-0.4,0.3-0.7,0.4-1.3,0.4c-0.5,0-0.9-0.1-1.3-0.4c-0.5-0.2-0.8-0.6-1.2-1.1c-0.4-0.5-0.7-1.1-1-1.8c-0.3-0.7-0.6-1.5-0.8-2.4
					c-0.2-0.9-0.4-1.8-0.5-2.7c-0.1-0.9-0.2-1.8-0.2-2.8c0-0.8,0-1.6,0.1-2.6l0,0c0.1-0.9,0.2-1.9,0.3-2.8l0,0
					c0.2-0.9,0.4-1.8,0.6-2.8c0.2-0.9,0.6-1.6,0.9-2.3c0.4-0.6,0.7-1.1,1.2-1.4c0.4-0.3,0.8-0.4,1.3-0.4c0.5,0,0.9,0.1,1.3,0.3
					c0.5,0.2,0.8,0.6,1.2,1.1c0.4,0.5,0.7,1.1,1,1.8c0.3,0.7,0.6,1.5,0.8,2.4c0.2,0.9,0.4,1.7,0.5,2.7s0.2,1.8,0.2,2.8
					c0,0.8,0,1.7-0.1,2.6c-0.1,0.9-0.2,1.9-0.3,2.8C184.9,58.6,184.7,59.5,184.4,60.4z"/>
				<path class="st1" d="M212,38.7l-0.1-0.2L212,38.7c-0.2-0.5-0.4-1-0.7-1.4c-0.3-0.4-0.7-0.7-1.2-1c-0.5-0.2-1-0.4-1.6-0.4
					c-1.4,0-2.8,0.7-3.8,1.8c-1,1.1-1.9,2.6-2.7,4.4c-0.4,0.9-0.7,1.8-1.1,2.9c0-0.7,0.1-1.3,0.1-1.8c0-0.7,0.1-1.4,0.1-1.8l0,0
					c0-0.5,0-0.7,0-0.9c0-1.2-0.1-2.1-0.6-2.9c-0.2-0.4-0.6-0.8-1-1s-0.9-0.3-1.4-0.3c-0.7,0-1.4,0.2-2.4,0.6
					c-1.1,0.4-2.5,1-4.2,1.8l-0.7,0.4l0.5,3.6l1.2-0.4c0.4-0.1,0.7-0.2,0.9-0.3c0.2-0.1,0.5-0.2,0.7-0.2c0.2,0,0.4-0.1,0.5-0.1
					c0.1,0,0.2,0,0.4,0c0.1,0,0.2,0,0.2,0h0c0,0,0,0,0,0l0,0c0,0.1,0.1,0.3,0.1,0.6l0,0c0,0.3,0,0.7,0,1.2c0,0.6,0,1.5,0,2.5
					c0,1.1,0,2.3-0.1,3.7c0,1.4-0.1,2.8-0.1,4.4c0,1.6-0.1,3.2-0.2,4.8c0,1.6-0.1,3.2-0.2,4.7c-0.1,1.6-0.2,3-0.2,4.3l-0.1,1.1
					l1.4,0.1l4.1-0.7l0-0.9c0-0.9,0.2-2,0.3-3.3c0.2-1.3,0.3-2.7,0.6-4.2c0.2-1.5,0.5-3,0.8-4.6l0,0c0.3-1.6,0.7-3.1,1.1-4.5
					c0.4-1.4,0.8-2.7,1.3-3.8c0.5-1.1,0.9-2,1.4-2.6c0.3-0.4,0.6-0.6,0.9-0.7c0.3-0.2,0.5-0.2,0.8-0.2c0.2,0,0.5,0,0.7,0.2
					c0.2,0.1,0.5,0.4,0.9,0.8l0.3,0.4h1.1l0.3-0.3c0.5-0.5,0.9-1.2,1.2-1.9l0,0c0.2-0.7,0.4-1.4,0.4-2.1
					C212.2,39.8,212.1,39.2,212,38.7z"/>
			</g>
		</g>
		<g>
			<path class="st1" d="M212.7,67.1c-0.2,0.1-0.3,0.1-0.4,0.1c-0.1,0-0.2,0-0.3,0c-0.1,0-0.2,0-0.2-0.1l0,0c0,0-0.1-0.1-0.2-0.3
				s-0.1-0.4-0.1-0.6l0,0c0-0.3,0-0.6,0-1c0-0.6,0-1.2,0-1.7c0-0.5,0-1.1,0-1.6c0-0.5,0-1,0-1.6c0-0.5,0-1,0.1-1.6s0-1.1,0.1-1.6
				c0-0.6,0.1-1.1,0.1-1.7l0-0.2l-0.2-0.1c-0.1-0.1-0.2-0.1-0.3-0.2c-0.1,0-0.2-0.1-0.3-0.1c-0.1,0-0.2,0-0.3,0
				c-0.1,0-0.2,0.1-0.3,0.1c-0.1,0.1-0.2,0.1-0.2,0.2c-0.1,0.1-0.1,0.2-0.1,0.3l0,0c0,0.6-0.1,1.1-0.1,1.6c0,0.5,0,0.9-0.1,1.4
				c0,0.4,0,0.8,0,1.2c0,0.3,0,0.6,0,0.9c-0.3,0-0.5,0-0.8,0c-0.4,0-0.7,0-1.1,0c-0.4,0-0.7,0-1.1,0c-0.3,0-0.5,0-0.8,0
				c0-0.5,0-0.9,0-1.3c0-0.5,0-0.9,0-1.2c0-0.4,0-0.6,0-0.9c0-0.2,0-0.4,0-0.6c0-0.2,0-0.5,0-0.6l-0.3,0l0.3,0c0-0.2,0-0.4-0.1-0.6
				c-0.1-0.2-0.2-0.3-0.3-0.4c-0.2-0.1-0.4-0.1-0.6-0.1c-0.2,0-0.5,0-0.8,0.1c-0.3,0.1-0.6,0.2-1,0.3l-0.2,0.1l0.1,1l0.3-0.1
				c0.3-0.1,0.5-0.1,0.6-0.1c0.1,0,0.2,0,0.2,0c0,0,0,0,0.1,0.1l0,0c0,0,0,0.1,0.1,0.2l0,0c0,0.1,0,0.2,0,0.4c0,0.9,0,1.8,0,2.7
				s0,1.8,0,2.7c0,0.9,0,1.8-0.1,2.8c0,1-0.1,2-0.1,3l0,0.3l0.4,0.1l1.2-0.2l0.1-6.2c0.3,0,0.6,0,0.9-0.1c0.4,0,0.7,0,1.1,0
				s0.7,0,1,0c0.3,0,0.5,0,0.8,0c0,0.1,0,0.3,0,0.4l0,0c0,0.2,0,0.5,0,0.7c0,0.3,0,0.5,0,0.8l0,0c0,0.3,0,0.5,0,0.8v1.3
				c0,0.4,0,0.8,0.1,1.1c0,0.3,0.1,0.6,0.2,0.8l0,0c0.1,0.2,0.2,0.4,0.4,0.5c0.2,0.1,0.4,0.2,0.6,0.2c0.1,0,0.3,0,0.4,0
				c0.1,0,0.3-0.1,0.4-0.1c0.2-0.1,0.3-0.1,0.5-0.2c0.2-0.1,0.4-0.2,0.6-0.3l0.2-0.1l-0.3-1L212.7,67.1z"/>
			<path class="st1" d="M210.5,55.3L210.5,55.3L210.5,55.3z"/>
			<path class="st1" d="M226,62.5c0-0.2-0.1-0.5-0.1-0.7l0,0c0-0.2-0.1-0.5-0.2-0.7l0,0c-0.1-0.2-0.2-0.4-0.3-0.6
				c-0.1-0.2-0.3-0.3-0.4-0.5c-0.2-0.1-0.4-0.2-0.7-0.2c-0.3,0-0.6,0.1-0.9,0.3c-0.3,0.2-0.5,0.5-0.8,0.9c-0.3,0.4-0.5,0.9-0.8,1.4
				c0,0.1-0.1,0.2-0.1,0.3c0,0,0,0,0,0c0-0.6,0.1-1.2,0.1-1.9c0-0.6,0.1-1.3,0.1-1.9c0-0.7,0.1-1.3,0.1-2c0-0.6,0.1-1.3,0.1-1.9
				c0.1-0.6,0.1-1.2,0.2-1.8l0-0.2l-0.1-0.1c-0.2-0.1-0.4-0.2-0.7-0.2c-0.1,0-0.2,0-0.3,0c-0.1,0-0.2,0.1-0.3,0.1
				c-0.1,0.1-0.2,0.2-0.2,0.3c-0.1,0.1-0.1,0.2-0.1,0.4l0,0c0,0.4,0,0.9-0.1,1.4c0,0.5,0,1.1-0.1,1.7s0,1.2-0.1,1.9
				c0,0.6,0,1.3-0.1,1.9c0,0.6,0,1.2-0.1,1.7c0,0.5,0,1-0.1,1.5v0c0,1-0.1,1.9-0.2,2.7c0,0.3-0.1,0.6-0.1,0.9l-0.2-0.3l-0.3,0.3
				c0,0-0.1,0.1-0.1,0.1l0,0c0,0-0.1,0.1-0.1,0.1s-0.1,0-0.1,0.1c0,0-0.1,0-0.1,0c0,0-0.1,0-0.1-0.1c0,0-0.1-0.1-0.2-0.3
				c-0.1-0.2-0.1-0.5-0.2-0.8c0-0.4-0.1-0.8-0.1-1.4c0-0.3,0-0.7,0-1c0-0.4,0-0.8,0-1.2c0-0.4,0-0.8,0.1-1.2c0-0.4,0-0.8,0.1-1.1
				l0-0.3l-0.4,0l-1.1,0.2l0,0.2c0,0.9-0.1,1.8-0.3,2.6c-0.2,0.8-0.3,1.5-0.5,2.2c-0.2,0.6-0.4,1.1-0.6,1.4
				c-0.1,0.2-0.2,0.3-0.3,0.3c-0.1,0.1-0.1,0.1-0.2,0.1c-0.1,0-0.1,0-0.1,0s-0.1-0.1-0.1-0.1c-0.1-0.1-0.1-0.4-0.1-0.8
				c0-0.1,0-0.3,0-0.5l0,0c0-0.2,0-0.5,0-0.7s0-0.5,0.1-0.8c0-0.3,0-0.6,0.1-0.9c0-0.3,0-0.6,0-0.9c0-0.3,0-0.6,0-0.8
				c0-0.2,0-0.3,0-0.5l-0.3,0l0.3,0c0-0.2,0-0.3-0.1-0.4l0,0c-0.1-0.1-0.1-0.2-0.2-0.3c-0.1-0.1-0.3-0.1-0.4-0.1c-0.1,0-0.2,0-0.3,0
				c-0.1,0-0.3,0.1-0.4,0.1c-0.2,0.1-0.3,0.1-0.5,0.2c-0.2,0.1-0.4,0.2-0.6,0.3l-0.2,0.1l0.1,1l0.3-0.1c0.2-0.1,0.3-0.1,0.4-0.1
				c0.1,0,0.2,0,0.3,0c0,0,0,0,0.1,0c0,0,0,0,0,0c0,0,0,0.1,0,0.2c0,0.1,0,0.2,0,0.4c0,0.4,0,0.8,0,1.2s0,0.8-0.1,1.2
				c0,0.4,0,0.8-0.1,1.1c0,0.4,0,0.7,0,0.9c0,0.4,0,0.8,0.1,1.1l0,0c0.1,0.3,0.2,0.5,0.3,0.7c0.1,0.2,0.3,0.4,0.5,0.4
				c0.2,0.1,0.4,0.1,0.6,0.1c0.3,0,0.6-0.1,0.8-0.3c0.3-0.2,0.5-0.5,0.8-0.9c0.2-0.4,0.4-0.9,0.6-1.4c0,0.4,0,0.7,0.1,1
				c0.1,0.4,0.2,0.6,0.3,0.9c0.1,0.2,0.3,0.4,0.5,0.5c0.2,0.1,0.4,0.2,0.6,0.2c0.2,0,0.3,0,0.5-0.1c0.1,0,0.3-0.1,0.4-0.2
				c0.1-0.1,0.3-0.2,0.4-0.3l0,0c0,0.1,0,0.1,0,0.2l-0.1,0.3l0.7,0.2l0.1-0.2c0.1-0.1,0.2-0.3,0.3-0.5c0-0.1,0.1-0.2,0.1-0.3
				c0,0,0.1,0.1,0.1,0.1l0,0l0,0l0,0c0.2,0.2,0.3,0.3,0.5,0.5c0.2,0.1,0.4,0.2,0.6,0.3s0.4,0.1,0.6,0.1c0.3,0,0.6-0.1,0.9-0.2
				s0.5-0.3,0.8-0.5c0.2-0.2,0.5-0.5,0.7-0.8c0.2-0.3,0.4-0.7,0.5-1.1c0.1-0.4,0.3-0.9,0.3-1.4c0.1-0.5,0.1-1,0.1-1.6
				C226,63,226,62.8,226,62.5L226,62.5z M219.3,67.4L219.3,67.4L219.3,67.4L219.3,67.4z M221.7,65.9L221.7,65.9
				c0-0.2,0.1-0.4,0.2-0.7c0.1-0.2,0.1-0.5,0.2-0.8c0.1-0.3,0.2-0.5,0.3-0.8s0.2-0.5,0.4-0.8c0.1-0.2,0.3-0.4,0.4-0.6
				c0.1-0.2,0.3-0.3,0.4-0.4c0.1-0.1,0.2-0.1,0.3-0.1c0,0,0.1,0,0.1,0.1c0.1,0.1,0.1,0.3,0.2,0.4c0.1,0.2,0.1,0.4,0.1,0.7
				c0,0.3,0,0.5,0,0.7c0,0.6-0.1,1.2-0.2,1.7l0.3,0.1l-0.3-0.1c-0.1,0.5-0.2,0.9-0.4,1.2s-0.4,0.6-0.5,0.7c-0.2,0.2-0.4,0.2-0.6,0.2
				c-0.1,0-0.2,0-0.3-0.1c-0.1-0.1-0.2-0.1-0.3-0.2l0,0c-0.1-0.1-0.2-0.2-0.3-0.4l0,0c-0.1-0.2-0.1-0.3-0.2-0.5
				C221.7,66.3,221.7,66.1,221.7,65.9z"/>
			<path class="st1" d="M230.3,64.5c-0.2-0.2-0.4-0.4-0.6-0.5c-0.2-0.1-0.4-0.3-0.6-0.4l0,0c-0.2-0.1-0.4-0.2-0.5-0.4
				c-0.2-0.1-0.3-0.2-0.4-0.3c-0.1-0.1-0.2-0.2-0.3-0.4l0,0c-0.1-0.1-0.1-0.3-0.1-0.4c0-0.1,0-0.2,0.1-0.4l0,0
				c0-0.1,0.1-0.2,0.2-0.3c0.1-0.1,0.2-0.2,0.3-0.2c0.1-0.1,0.2-0.1,0.4-0.1c0.1,0,0.2,0,0.3,0c0.1,0,0.1,0.1,0.2,0.1
				c0.1,0,0.1,0.1,0.2,0.2c0,0.1,0.1,0.2,0.1,0.3c0,0.1,0,0.1,0,0.2c0,0.1,0,0.2-0.1,0.3l0,0.1l0.1,0.3l0.1,0.1
				c0.2,0.1,0.3,0.1,0.5,0.1l0,0l0,0c0.2,0,0.3-0.1,0.5-0.1c0.1-0.1,0.2-0.2,0.3-0.3c0.1-0.1,0.1-0.2,0.1-0.4l0,0c0-0.1,0-0.2,0-0.3
				c0-0.3-0.1-0.5-0.2-0.7c-0.1-0.2-0.2-0.4-0.4-0.5c-0.2-0.2-0.4-0.3-0.6-0.3c-0.2-0.1-0.5-0.1-0.7-0.1c-0.2,0-0.4,0-0.6,0.1
				c-0.2,0-0.4,0.1-0.6,0.2c-0.2,0.1-0.4,0.2-0.5,0.4s-0.3,0.3-0.4,0.5c-0.1,0.2-0.2,0.4-0.3,0.7c-0.1,0.2-0.1,0.5-0.1,0.8
				c0,0.3,0,0.5,0.1,0.7c0.1,0.2,0.1,0.4,0.2,0.6c0.1,0.2,0.2,0.3,0.4,0.5c0.1,0.1,0.3,0.3,0.4,0.4c0.1,0.1,0.3,0.2,0.4,0.3
				c0.1,0.1,0.3,0.2,0.4,0.3l0,0c0.2,0.1,0.3,0.2,0.5,0.3c0.1,0.1,0.3,0.2,0.4,0.3c0.1,0.1,0.2,0.2,0.2,0.3c0,0.1,0.1,0.2,0.1,0.4
				c0,0.2,0,0.3-0.1,0.4c-0.1,0.1-0.1,0.2-0.2,0.3c-0.1,0.1-0.2,0.1-0.3,0.2c-0.1,0-0.2,0.1-0.3,0.1c-0.1,0-0.2,0-0.4-0.1
				c-0.1,0-0.2-0.1-0.3-0.2l0,0c-0.1-0.1-0.2-0.2-0.3-0.4l0,0c-0.1-0.2-0.1-0.4-0.1-0.6l0-0.1l-0.2-0.2l-0.1,0c-0.1,0-0.2,0-0.4,0.1
				c-0.1,0-0.2,0.1-0.3,0.2l0,0c-0.1,0.1-0.2,0.2-0.3,0.4c-0.1,0.1-0.1,0.3-0.1,0.5c0,0.2,0,0.4,0.1,0.6l0,0
				c0.1,0.2,0.2,0.3,0.3,0.5c0.1,0.1,0.2,0.3,0.4,0.4c0.1,0.1,0.3,0.2,0.5,0.3c0.2,0.1,0.3,0.1,0.5,0.2c0.2,0,0.3,0.1,0.5,0.1
				c0.3,0,0.6-0.1,0.9-0.2c0.3-0.1,0.6-0.3,0.8-0.5c0.2-0.2,0.4-0.5,0.6-0.8c0.1-0.3,0.2-0.7,0.2-1.1c0-0.4-0.1-0.7-0.2-0.9
				C230.6,65,230.5,64.7,230.3,64.5z"/>
		</g>
		<path class="st1" d="M65.7,70.1c-1.5-1-2.8-2.2-3.9-3.6c-1.2-1.4-2.2-2.9-2.9-4.7c-0.8-1.7-1.4-3.5-1.8-5.5
			c-0.4-2-0.6-4.1-0.6-6.3c0-2.1,0.2-4.2,0.6-6.4c0.4-2.1,1.1-4.2,1.9-6.1c0.8-2,1.9-3.8,3.2-5.5c1-1.3,2.1-2.5,3.3-3.6
			c-0.3-0.2-0.5-0.5-0.8-0.8c-0.7-1-1.2-2.3-1.8-3.4c-0.8-1.4-1.6-2.9-2.6-4.1c-1.4-1.6-3.2-2.8-5.8-3.4c-0.4,0.2-1.3,0.6-1.4,1
			c0,0.7,0.3,1.8,0.8,2.2c0.8,0.6,2,0.7,3,1.2c0.9,0.4,1.9,0.7,2.6,1.3c1.8,1.7,2,4.4,0.5,6.3c-1.6,2.1-4.5,2.7-6.9,1.5
			c-1.6-0.8-2.5-2.2-3.1-3.8c-0.4-0.8-0.7-1.6-1.2-2.4c-0.6-0.9-1.5-1.5-2.6-1.4c-1.4,0.2-2,1.3-1.2,2.4c0.4,0.6,0.9,1.1,1.3,1.6
			c1.6,1.9,1.4,4.7-0.5,6.3c-1.5,1.3-3.3,1.2-5.2,0c-2.6-1.6-5.2-3.2-7.9-4.6c-1.6-0.8-3.2,0.4-2.8,2.2c0.2,0.7,0.9,1.4,1.5,1.7
			c1.5,0.7,3.2,1,4.8,1.7c1.4,0.5,2.8,1,3.9,1.9c2.5,2,1.9,5.2-1.1,6.4c-0.2,0.1-0.4,0.2-0.6,0.3c-1.3,0.6-1.4,1.5-0.2,2.3
			c0.4,0.3,0.9,0.6,1.4,0.9c1.7,1.1,1.8,2.1,0.2,3.5c-0.1,0.1-0.3,0.2-0.4,0.4c-1.2,1-1.3,2.1-0.3,3.4c0.5,0.6,1.1,1.2,1.6,1.8
			c0.8,1,0.9,2,0.4,3.2c-0.6,1.4-1.7,2.2-3,2.8c-4,1.9-8.2,2.5-12.6,2.2c-0.9,0-1.9,0.1-2.7,0.4c-0.8,0.3-1.3,1-1.2,1.9
			c0.1,0.9,0.7,1.5,1.5,1.7c0.6,0.1,1.2,0.3,1.8,0.2c2.4-0.4,4.7-0.8,7.1-1.3c4.4-1,8.6-1.3,12.8,0.8c1.4,0.7,3.2,0.8,4.8,0.8
			c1.6,0.1,3.3,0.1,4.9,0c2.2,1.5,4.8,2.8,7.5,3.7h0c1.3,0.4,2.6,0.8,4,1c0.2,0.9,0.4,1.9,0.8,2.7c0.4,0.9,1,1.9,1.8,2.4
			c0.6,0.4,1.7,0.4,2.4,0.1c1.2-0.5,1.6-1.8,1.4-2.9c-0.1-0.6-0.3-1.2-0.5-1.8c-0.4-0.1-0.8-0.2-1.2-0.3
			C68.8,71.9,67.2,71.1,65.7,70.1z"/>
		<path class="st1" d="M93.1,63.6c-0.2-0.2-0.3-0.4-0.5-0.5c-0.2-0.2-0.4-0.3-0.6-0.4c-0.2-0.1-0.3-0.2-0.4-0.2l-0.2-0.1
			c-0.1,0.5-0.3,1-0.7,1.4c-4.3,5.5-11.3,8.8-19,8.9c0,0,0,0.1,0,0.1c1.4,0.3,2.8,0.5,4.3,0.5c1.4,0,2.9-0.2,4.3-0.4
			c1.5-0.3,2.9-0.7,4.3-1.4c1.4-0.7,2.8-1.5,4.1-2.5c1.4-1,2.7-2.3,4-3.8l0.1,0l0.1,0c0.2-0.2,0.3-0.4,0.3-0.8
			C93.4,64.1,93.3,63.8,93.1,63.6z"/>
		<g>
			<path class="st1" d="M71.1,30.9c-1,0.8-1.9,1.9-2.6,3.2c-0.8,1.3-1.4,2.6-1.9,4.1c-0.5,1.5-0.9,3.1-1.1,4.8
				c-0.3,1.7-0.4,3.4-0.4,5.1c0,2,0.2,3.9,0.5,5.7c0.3,1.8,0.8,3.4,1.4,4.9c0.6,1.5,1.3,2.8,2.1,3.9c0.8,1.2,1.7,2.1,2.7,2.8
				c1,0.7,2,1.3,3.1,1.7c1.1,0.4,2.2,0.6,3.3,0.6c0.8,0,1.7-0.1,2.6-0.3c0.9-0.2,1.8-0.5,2.8-0.9c1-0.4,2-1,3-1.7l0,0l0,0
				c1-0.7,2-1.5,3.1-2.4l0.9-0.9l0.7,0.4c0-0.1,0-0.2,0-0.4c0-1-0.5-2.1-1.5-3c-5.6-4.8-8.9-11.4-8.9-18.1c0-2.1,0.3-4.2,1-6.3l0,0
				l0,0c0,0,0,0,0,0l0,0l0,0l0,0c0.1-0.3,0.2-0.7,0.2-1c0-1.5-1-3-2.7-3.8c-0.8-0.4-1.6-0.7-2.4-1c-1,0.1-1.8,0.3-2.7,0.6
				C73.2,29.4,72.1,30.1,71.1,30.9L71.1,30.9L71.1,30.9z"/>
			<path class="st1" d="M91.8,26.8c-0.7-0.6-1.7-1.2-2.8-1.7c-1.2-0.5-2.5-0.9-4-1.3c-1.6-0.4-3.3-0.5-5.1-0.5
				c-2.6,0-5.1,0.4-7.3,1.1c-2.2,0.7-4.1,1.8-5.9,3.1c-0.4,0.3-0.8,0.6-1.2,1c0.6,0.5,1.3,0.8,2.2,0.7c0.2-0.3,0.5-0.6,0.7-0.9
				c1-1.2,2.7-1.8,4.5-1.4c1.2,0.2,2.3,0.5,3.5,0.9l0,0c0.1,0,0.3,0.1,0.4,0.1c0.2,0,0.3,0,0.5-0.1l0.1,0l0,0
				c0.2,0.1,0.3,0.1,0.5,0.2c0.3,0,0.5,0,0.8,0c0.9,0,1.7,0.1,2.6,0.3c0.8,0.2,1.6,0.4,2.4,0.8c0.7,0.4,1.4,0.8,2,1.3
				c0.6,0.5,1.2,1.1,1.6,1.8c0.4,0.7,0.7,1.4,0.9,2.1c0.2,0.8,0.3,1.6,0.3,2.5c0,0.2,0,0.4,0,0.5c0,0.2,0,0.3-0.1,0.5l-0.1,1
				l4.5,0.2l0.1-1.1c0.1-2.1,0.2-3.8,0.3-5.3c0.1-1.4,0.1-2.7,0.1-3.6C93,28.1,92.4,27.4,91.8,26.8z"/>
			<path class="st2" d="M77.1,27.9L77.1,27.9c-0.2,0-0.4,0-0.5,0.1c0.2,0.1,0.3,0.1,0.5,0.2c0.2,0,0.4,0,0.5,0
				C77.5,28,77.3,27.9,77.1,27.9L77.1,27.9z"/>
			<path class="st2" d="M89.9,62.8c-1.1,1-2.1,1.8-3.1,2.5l0,0l0,0c-1.1,0.7-2.1,1.3-3.1,1.7c-1,0.4-2,0.8-2.9,1l0,0l0,0
				c-1,0.2-1.9,0.3-2.7,0.3c-1.2,0-2.4-0.2-3.5-0.6c-1.1-0.4-2.2-1-3.2-1.8l0,0l0,0c-1-0.8-1.9-1.8-2.8-2.9c-0.9-1.2-1.5-2.5-2.2-4
				l0,0l0,0c-0.6-1.5-1.1-3.2-1.4-5c-0.3-1.8-0.5-3.7-0.5-5.8c0-1.7,0.1-3.5,0.4-5.2c0.3-1.7,0.6-3.3,1.2-4.9c0.5-1.5,1.2-2.9,2-4.2
				l0,0l0,0c0.8-1.3,1.7-2.4,2.7-3.3l0,0c0,0,0,0,0,0c0,0,0,0,0,0l0,0c1-0.9,2.2-1.6,3.4-2.1c0.7-0.3,1.5-0.5,2.4-0.6
				c-0.1,0-0.3-0.1-0.4-0.1l0,0c-1.2-0.4-2.3-0.7-3.5-0.9c-1.8-0.4-3.5,0.2-4.5,1.4c-0.2,0.3-0.5,0.6-0.7,0.9
				c-0.8,0-1.6-0.2-2.2-0.7C64.1,29.5,63,30.7,62,32c-1.3,1.7-2.3,3.6-3.2,5.5c-0.8,2-1.5,4-1.9,6.1c-0.4,2.2-0.6,4.3-0.6,6.4
				c0,2.2,0.2,4.3,0.6,6.3c0.4,2,1.1,3.8,1.8,5.5c0.8,1.7,1.8,3.2,2.9,4.7c1.2,1.4,2.5,2.6,3.9,3.6c1.5,1,3,1.8,4.8,2.3
				c0.4,0.1,0.8,0.2,1.2,0.3c0,0,0-0.1,0-0.1c7.7-0.1,14.7-3.4,19-8.9c0.3-0.4,0.5-0.8,0.6-1.2l-0.7-0.4L89.9,62.8z"/>
		</g>
	</g>
</g>
</svg>
