<?xml version="1.0" encoding="utf-8"?>
<!-- Generator: Adobe Illustrator 25.4.1, SVG Export Plug-In . SVG Version: 6.00 Build 0)  -->
<svg version="1.1" id="Layer_1" xmlns="http://www.w3.org/2000/svg" xmlns:xlink="http://www.w3.org/1999/xlink" x="0px" y="0px"
	 viewBox="0 0 252 90" style="enable-background:new 0 0 252 90;" xml:space="preserve">
<style type="text/css">
	.st0{fill:#FFFFFF;}
	.st1{fill:#091B33;}
	.st2{fill:#46AE74;}
</style>
<g>
	<path class="st0" d="M241.7,62.2c0.1-0.3,0.2-0.6,0.3-0.9c0-0.1,0.1-0.2,0.1-0.3l0,0c0-0.2,0.1-0.6,0.1-1.1c0-0.8-0.2-1.7-0.5-2.4
		c0,0,0,0,0-0.1c-0.3-0.7-0.8-1.4-1.4-1.9c-0.6-0.5-1.3-0.9-2-1.1c-0.6-0.2-1.3-0.3-2.1-0.3c-0.6,0-1.1,0.1-1.6,0.2
		c-0.4,0.1-0.7,0.2-1.1,0.4c-0.2-0.1-0.5-0.2-0.8-0.3c0,0,0,0,0,0c0-0.3,0.1-0.7,0.1-1c0-0.3,0-0.6,0.1-0.9c0-0.4,0.1-0.7,0.1-1.1
		c0,0,0-0.3,0-0.3c0.1-1.4-0.6-2.8-1.7-3.6c0,0-0.2-0.1-0.2-0.1c-0.9-0.6-1.9-1-3-1c-0.4,0-0.8,0-1.2,0.1c-0.6,0.1-1.2,0.4-1.8,0.8
		c-0.6,0.4-1.1,0.9-1.4,1.5c-0.4,0.7-0.6,1.5-0.6,2.3c0,0.4,0,1-0.1,1.5c0,0.5,0,1.1-0.1,1.7l-0.2,0c-0.2,0-0.3,0.1-0.5,0.1
		c-0.2-0.1-0.4-0.2-0.7-0.2c0-0.2,0-0.4,0-0.6c0,0,0-0.2,0-0.2c0.1-1.5-0.7-3-2-3.7l-0.1-0.1c-0.4-0.2-0.7-0.4-0.9-0.4
		c-0.1,0-0.2-0.1-0.3-0.1c-0.5-0.2-1-0.2-1.5-0.2c-0.6,0-1.1,0.1-1.6,0.3c-0.5,0.2-0.9,0.4-1.3,0.7c0,0-0.1,0-0.1,0.1
		c0,0-0.1,0-0.1,0.1c-0.1-0.1-0.2-0.1-0.3-0.2c-0.4-0.3-0.9-0.5-1.4-0.6c0.3-1.1,0.7-2.2,1.1-3.3c0,0,0.1-0.2,0.1-0.3
		c0.5,0.2,1,0.3,1.6,0.3h1.2c1.1,0,2.1-0.4,2.8-1.2l0.4-0.4c1-1,1.8-2.3,2.2-3.6c0.4-1.1,0.6-2.3,0.6-3.5c0.1-1.1-0.1-2.2-0.4-3.2
		c-0.3-1-0.8-2-1.5-2.8c-0.7-0.9-1.6-1.6-2.7-2.1c-1.1-0.5-2.3-0.8-3.5-0.8c-2.2,0-4.4,0.8-6.2,2.4c-0.4-0.5-0.9-0.8-1.5-1.2
		c-1-0.6-2.2-0.9-3.6-0.9c-1.4,0-2.6,0.4-3.9,0.8c-1.3,0.4-2.8,1.1-5,2.1c-0.1,0-0.1,0-0.2,0.1l0,0c-0.4-0.4-0.7-0.7-1.2-1
		c0,0,0,0,0,0c-2-1.5-4.3-2.3-6.8-2.3c-2.1,0-4.1,0.5-5.9,1.4c-1.2,0.6-2.4,1.5-3.4,2.4c-0.3-0.7-0.9-1.3-1.6-1.8
		c-0.6-0.4-1.4-0.6-2.1-0.6c-0.3,0-0.7,0-1,0.1c0,0-1.2,0.3-1.2,0.3c0,0-0.1,0-0.3,0c0.1-1,0.2-1.9,0.3-2.9l0-0.4
		c0.3-2.7,0.6-5.5,1.1-8.6c0,0,0-0.1,0-0.1l0.1-0.7c0.2-1.4-0.4-2.7-1.4-3.6l-0.5-0.4c-0.1,0-0.1-0.1-0.2-0.1
		c-0.5-0.3-1.2-0.8-2.1-1.2c-1.1-0.4-2.1-0.5-2.8-0.5c-0.7,0-1.3,0.1-2,0.3c-0.5,0.1-1,0.3-1.5,0.6c-0.3,0.1-0.6,0.3-0.9,0.5
		l-0.2,0.1c-0.3,0.2-0.5,0.5-0.8,0.7c-0.4,0.4-0.8,0.9-1.1,1.5c-0.5,0.9-0.8,1.9-0.9,2.9l-0.1,0.8c-0.2,2-0.5,4.2-0.7,6.7
		c-0.2,1.7-0.3,3.4-0.5,5.3c-0.3,0.1-0.6,0.3-0.9,0.4c-0.4,0.2-0.9,0.5-1.3,0.8c-0.9-1.3-2.1-2.3-3.5-3c-1.6-0.8-3.3-1.2-5.3-1.2
		c-1.2,0-2.3,0.2-3.2,0.4c-0.1,0-0.1,0-0.2,0.1c-0.8,0.2-1.9,0.6-3.1,1.2c-1.1,0.6-2.1,1.1-2.9,1.8c-0.5,0.4-1,0.8-1.5,1.3
		c-0.3-0.4-0.6-0.9-1-1.3c0,0-0.1-0.1-0.1-0.1c-1.1-1.1-2.3-1.9-3.7-2.4c-1.4-0.5-2.8-0.8-4.2-0.8c-1.9,0-3.8,0.4-5.6,1.3
		c0,0,0,0-0.1,0c-1,0.5-1.9,1.1-2.9,1.9c-0.1-0.1-0.1-0.1-0.2-0.2c-0.7-0.9-1.6-1.6-2.7-2.1c-0.7-0.3-1.4-0.6-2.2-0.7
		c-0.1-0.3-0.2-0.5-0.3-0.8c0.3-0.7,0.5-1.6,0.5-2.4c0-0.8-0.1-1.5-0.4-2.2c-0.3-0.7-0.6-1.3-1.1-1.8c0,0-0.1-0.1-0.1-0.1
		c-0.5-0.5-1.2-0.9-1.8-1.2c-0.7-0.3-1.4-0.4-2.1-0.4c-0.9,0-1.7,0.2-2.5,0.6c0,0,0,0-0.1,0c0,0,0,0,0,0c0,0-0.1,0-0.1-0.1
		c0-0.1,0-0.1,0-0.2c0-0.5,0.1-1.1,0.1-1.7c0,0,0-0.2,0-0.2c0.1-1.4-0.6-2.8-1.7-3.6l-0.1-0.1c-0.9-0.6-1.8-0.9-2.9-0.9
		c-0.4,0-0.8,0-1.1,0.1c-0.6,0.1-1.2,0.4-1.7,0.8c-0.5,0.3-0.9,0.8-1.2,1.3c-0.2,0-0.5,0-0.5,0c-0.1,0-0.2,0-0.3,0l-0.6,0
		c-0.2,0-0.6,0-0.6,0c-0.2,0-0.4,0-0.6,0c-0.9,0-1.8,0.2-2.5,0.6c-0.7,0.4-1.3,0.9-1.8,1.6c-0.5-0.3-1-0.5-1.5-0.8
		c-1.4-0.6-3.2-1.2-5.1-1.6c0,0,0,0,0,0c-1.9-0.4-4.1-0.6-6.4-0.6c-3.3,0-6.3,0.5-9.2,1.4c-1.8,0.6-3.6,1.4-5.3,2.4
		c-0.1-0.3-0.3-0.5-0.4-0.8c-0.2-0.3-0.3-0.6-0.5-0.8c-0.7-1.3-1.6-2.8-2.7-4.1c-2.1-2.5-4.9-4.1-8.4-4.9c-0.3-0.1-0.6-0.1-0.9-0.1
		c-0.7,0-1.5,0.2-2.1,0.6c0,0-0.1,0-0.1,0.1c-0.8,0.4-3.1,1.5-3.2,4.2c0,0.8,0,1.6,0.3,2.5c-1-0.6-2.1-0.9-3.3-0.9
		c-0.3,0-0.6,0-0.8,0c-2.1,0.2-3.8,1.4-4.7,3.2c-0.8,1.7-0.7,3.8,0.4,5.5c0.5,0.7,1,1.3,1.4,1.8c0.1,0.1,0.3,0.3,0.4,0.4
		c0.3,0.3,0.2,0.8-0.1,1.1c0,0,0,0,0,0c-0.1,0-0.4-0.1-0.8-0.4c-3.1-1.9-6-3.6-8.8-5.1c-0.9-0.5-1.9-0.7-2.9-0.7
		c-1.9,0-3.6,0.8-4.7,2.3c-1.2,1.5-1.5,3.4-1.1,5.3c0.6,2.2,2.4,3.8,3.9,4.5c1.1,0.5,2.2,0.8,3.3,1.2c0.7,0.2,1.4,0.4,2,0.7l0.5,0.2
		c1,0.4,2,0.8,2.6,1.2c-0.4,0.1-0.7,0.3-1,0.4c-2.7,1.3-3.3,3.3-3.5,4.4c-0.1,1.1,0.1,3.2,2.4,4.9c-1.9,2.4-1.9,5.5,0.2,8.1
		c0.4,0.5,0.8,0.9,1.1,1.2c0.1,0.1,0.2,0.2,0.3,0.3c-0.2,0.2-0.5,0.4-1,0.6c-3,1.4-6.3,2.1-10,2.1c-0.5,0-1.1,0-1.6,0
		c-0.2,0-0.4,0-0.6,0c-1.3,0-2.7,0.2-3.9,0.6c-2.7,0.9-4.3,3.4-4,6.2c0.3,2.7,2.1,4.7,4.7,5.3c0.6,0.1,1.4,0.3,2.4,0.3
		c0.4,0,0.8,0,1.2-0.1c3-0.5,5.5-1,7.8-1.5c2.3-0.5,4-0.7,5.6-0.7c2.1,0,3.9,0.4,5.6,1.2c2.4,1.2,5.1,1.3,6.9,1.3
		c1.5,0.1,2.9,0.1,4,0.1c0.1,0,0.1,0,0.2,0c2.5,1.6,5.2,2.9,8.1,3.8c0.7,0.2,1.5,0.4,2.2,0.6c0.1,0.4,0.3,0.9,0.5,1.3
		c0.9,1.9,2,3.3,3.3,4.2c1.3,0.9,2.7,1.1,3.7,1.1c0,0,0,0,0,0c0.7,0,1.7-0.1,2.7-0.5c1.9-0.8,3.2-2.4,3.7-4.3c0.1,0,0.1,0,0.2,0
		c1.7,0,3.6-0.2,5.4-0.5c1.9-0.4,3.7-1,5.6-1.8c1.8-0.8,3.5-1.9,5.2-3.1c1.5-1.1,2.8-2.3,4.1-3.7l0,0.2c-0.2,2.2,1.5,4.1,3.7,4.3
		l1.6,0.1c0.1,0,0.2,0,0.3,0c0.2,0,0.4,0,0.7-0.1l4.5-0.8c1.9-0.3,3.3-1.9,3.3-3.8l0-0.9c0-0.6,0.1-1.4,0.2-2.3c0-0.3,0.1-0.7,0.1-1
		l0.1-0.5c0.2-1.2,0.3-2.5,0.5-3.8c0.3-1.5,0.6-3.2,0.9-4.8c0.3-1.4,0.7-3,1.1-4.5c0,0,0-0.1,0-0.1c-0.1,1.3-0.2,2.5-0.2,3.8
		c0,2.4,0.3,4.8,0.8,6.8c0.6,2.3,1.4,4.2,2.5,5.9c1.2,1.9,2.6,3.4,4.3,4.6c0,0,0,0,0.1,0c2,1.3,4.1,1.9,6.5,1.9c1.3,0,2.7-0.2,4-0.7
		c1.3-0.4,2.5-1.1,3.8-2.1c0.4-0.3,0.8-0.7,1.2-1c0.8,1,1.7,1.8,2.8,2.4c0,0,0.1,0,0.1,0c1.4,0.8,3,1.2,4.6,1.2c2,0,4-0.7,5.7-1.9
		c0,0,0,0,0,0c0.4-0.3,0.8-0.6,1.2-1c0.6,0.6,1.3,1.1,2,1.6c1.3,0.8,2.9,1.2,4.6,1.2c1.9,0,3.7-0.5,5.4-1.6c0.4-0.2,0.7-0.5,1.1-0.8
		c0.5,0.5,1.1,1,1.7,1.3c1.4,0.9,3,1.3,4.7,1.3c1.1,0,2.2-0.2,3.3-0.5c1-0.3,1.9-0.7,2.9-1.3c0.9-0.5,1.7-1,2.5-1.6
		c0,0,0.1,0,0.1-0.1c0.1-0.1,0.2-0.1,0.3-0.2c0.5,0.5,1,1,1.5,1.4c0,0,0,0,0,0c2,1.5,4.3,2.3,6.8,2.3c2.1,0,4.1-0.5,5.9-1.4
		c1.6-0.8,3.1-2,4.3-3.4c0.9-1,1.6-2,2.2-3.1c0,0.6-0.1,1.2-0.1,1.7l-0.1,1.1c-0.2,2.2,1.5,4.1,3.7,4.3l1.6,0.1c0.1,0,0.2,0,0.3,0
		c0.2,0,0.4,0,0.6,0l4.5-0.7c0.5-0.1,1.1-0.3,1.5-0.6c0.6,0.5,1.2,0.8,2,0.9l0.4,0.1c0.2,0,0.4,0,0.6,0c0.2,0,0.5,0,0.7-0.1l1.3-0.2
		c0.6-0.1,1.2-0.3,1.6-0.7c0.1,0.1,0.2,0.1,0.2,0.2c0,0,0,0,0.1,0c0.8,0.6,1.8,0.9,2.8,0.9c0.5,0,0.8-0.1,1.1-0.1
		c0.1,0,0.2,0,0.3-0.1c0.2-0.1,0.5-0.1,0.7-0.2c0.6,0.3,1.3,0.4,2,0.4c0.7,0,1.4-0.1,2.1-0.4c0.6,0.2,1.3,0.4,2,0.4
		c0.3,0,0.6,0,0.8-0.1c0.4,0.1,0.7,0.2,1.1,0.2c0.4,0,0.8-0.1,1.2-0.2c0.4,0.1,0.9,0.1,1.3,0.1c0.8,0,1.7-0.2,2.5-0.5
		c0.2-0.1,0.3-0.1,0.5-0.2c0.2,0.1,0.4,0.2,0.6,0.3c0.4,0.2,0.8,0.3,1.2,0.4c0.5,0.1,0.9,0.1,1.3,0.1c0.9,0,1.7-0.2,2.5-0.5
		c0.8-0.3,1.6-0.8,2.2-1.4c0.6-0.6,1.1-1.3,1.4-2.2c0,0,0,0,0,0c0.4-0.8,0.5-1.8,0.5-2.8c0-0.9-0.2-1.7-0.4-2.5
		C241.8,62.3,241.8,62.3,241.7,62.2z"/>
	<g>
		<g>
			<path class="st1" d="M103.4,29.7c-0.1,0.1-0.2,0.1-0.4,0.2c-0.1,0-0.2,0.1-0.3,0.1c0,0-0.1,0-0.1,0c0,0,0,0,0-0.1
				c0-0.1,0-0.2-0.1-0.3c0-0.1,0-0.3,0-0.6c0-0.1,0-0.3,0-0.5c0-0.2,0-0.4,0-0.6c0-0.2,0-0.4,0-0.7c0-0.2,0-0.4,0-0.7s0-0.4,0-0.6
				c0-0.2,0-0.3,0-0.4c0-0.3,0-0.6-0.1-0.9c-0.1-0.2-0.1-0.5-0.3-0.6c-0.1-0.2-0.2-0.3-0.4-0.4c-0.2-0.1-0.3-0.1-0.5-0.1
				c-0.3,0-0.5,0.1-0.8,0.3c-0.2,0.2-0.5,0.5-0.7,0.8c-0.2,0.4-0.4,0.9-0.6,1.4l0,0c0-0.1,0-0.2,0-0.2c0-0.4,0-0.7,0.1-1.1
				c0-0.4,0-0.7,0.1-1.1c0-0.4,0-0.8,0.1-1.2c0-0.4,0.1-0.9,0.1-1.3c0-0.5,0.1-1,0.1-1.5c0-0.6,0.1-1.2,0.1-1.8l0-0.1l-0.1-0.1
				c-0.2-0.1-0.4-0.2-0.6-0.2c-0.1,0-0.2,0-0.3,0s-0.2,0.1-0.2,0.1c-0.1,0.1-0.1,0.1-0.2,0.2c0,0.1-0.1,0.2-0.1,0.3l0,0
				c0,0.5,0,1-0.1,1.6s0,1.1-0.1,1.7c0,0.6,0,1.2-0.1,1.8c0,0.6,0,1.2-0.1,1.8c0,0.6,0,1.2-0.1,1.7c0,0.6,0,1.1-0.1,1.6
				c0,0.5,0,1-0.1,1.5c0,0.5,0,0.9,0,1.3l0,0.2l0.3,0l1-0.2l0-0.2c0-0.5,0.1-0.9,0.1-1.4c0.1-0.5,0.2-0.9,0.3-1.4
				c0.1-0.4,0.2-0.8,0.4-1.2c0.1-0.4,0.3-0.7,0.4-0.9c0.1-0.3,0.3-0.5,0.4-0.6c0.1-0.1,0.2-0.2,0.2-0.2c0,0,0.1,0,0.1,0
				s0.1,0,0.1,0.1c0.1,0.1,0.1,0.4,0.1,0.7c0,0.1,0,0.3,0,0.6c0,0.2,0,0.5,0,0.8c0,0.3,0,0.6,0,0.9c0,0.3,0,0.6,0,0.9
				c0,0.2,0,0.5,0,0.7c0,0.2,0,0.4,0.1,0.6c0,0.2,0.1,0.3,0.2,0.5c0.1,0.2,0.3,0.2,0.5,0.2c0.1,0,0.3,0,0.5-0.1
				c0.2-0.1,0.3-0.1,0.5-0.2s0.3-0.2,0.4-0.3c0.1-0.1,0.3-0.2,0.4-0.3l0.1-0.1l-0.2-0.7L103.4,29.7z"/>
			<path class="st1" d="M107,26.9c0.3-0.2,0.5-0.4,0.7-0.7c0.2-0.3,0.3-0.6,0.3-1c0-0.2,0-0.5-0.1-0.7c-0.1-0.2-0.2-0.4-0.3-0.5
				c-0.1-0.1-0.3-0.3-0.5-0.3c-0.2-0.1-0.4-0.1-0.6-0.1c-0.3,0-0.6,0.1-0.9,0.2c-0.3,0.1-0.5,0.3-0.7,0.5c-0.2,0.2-0.4,0.5-0.6,0.8
				c-0.2,0.3-0.3,0.6-0.4,0.9c-0.1,0.3-0.2,0.7-0.2,1c-0.1,0.4-0.1,0.7-0.1,1.1c0,0.4,0,0.9,0.2,1.3s0.2,0.7,0.4,1
				c0.2,0.3,0.4,0.5,0.7,0.7c0.3,0.2,0.6,0.3,0.9,0.3c0.2,0,0.4,0,0.6-0.1c0.2-0.1,0.4-0.2,0.6-0.3c0.2-0.1,0.4-0.3,0.5-0.5
				c0.2-0.2,0.3-0.4,0.5-0.7l0,0l0,0l0,0l0,0c0,0,0-0.1,0-0.2c0-0.1,0-0.1-0.1-0.2l0,0c0,0,0-0.1-0.1-0.1l0,0c0,0-0.1-0.1-0.1-0.1
				l0,0c0,0,0,0-0.1,0l-0.2-0.1l-0.1,0.2c-0.2,0.3-0.4,0.5-0.6,0.6l0.1,0.2l-0.1-0.2c-0.2,0.1-0.4,0.2-0.5,0.2c-0.2,0-0.3,0-0.4-0.2
				c-0.1-0.1-0.3-0.3-0.4-0.5c-0.1-0.2-0.2-0.5-0.3-0.8c-0.1-0.3-0.1-0.6-0.1-0.9c0.4,0,0.7-0.1,1-0.2
				C106.4,27.2,106.7,27.1,107,26.9z M105,26.6c0-0.1,0-0.2,0-0.3c0-0.2,0.1-0.4,0.1-0.6c0-0.2,0.1-0.4,0.2-0.5
				c0.1-0.2,0.1-0.3,0.2-0.4c0.1-0.1,0.2-0.2,0.3-0.2c0.1,0,0.2-0.1,0.3-0.1c0.1,0,0.1,0,0.2,0c0.1,0,0.1,0.1,0.2,0.2l0,0
				c0,0.1,0.1,0.2,0.1,0.3c0,0.1,0,0.2,0,0.4c0,0.2,0,0.3-0.1,0.5l0,0c-0.1,0.1-0.2,0.3-0.3,0.4c-0.2,0.1-0.4,0.2-0.6,0.3
				C105.4,26.5,105.2,26.6,105,26.6z"/>
			<path class="st1" d="M98.1,19.5L98,19.2l-0.2,0.1c-0.1,0-0.2,0-0.3,0.1c-0.1,0-0.2,0-0.3,0c-0.1,0-0.2,0-0.4,0
				c-0.1,0-0.3,0-0.5,0c-0.2,0-0.4,0-0.7,0c-0.2,0-0.5,0-0.8,0c-0.2,0-0.4,0-0.6,0c-0.2,0-0.4,0-0.6,0c-0.2,0-0.4,0-0.5,0
				c-0.2,0-0.3,0-0.5,0c-0.2,0-0.5,0-0.6,0.1c-0.2,0.1-0.3,0.2-0.4,0.4c-0.1,0.2-0.1,0.4-0.2,0.6c0,0.2,0,0.5,0,0.8
				c0,0.3,0,0.7,0,1.1v0.2l0.9,0v-0.4c0-0.3,0-0.6,0-0.8c0-0.2,0.1-0.4,0.1-0.5s0.1-0.2,0.2-0.3c0.1-0.1,0.1-0.1,0.2-0.1
				c0.1,0,0.2,0,0.3,0c0.1,0,0.2,0,0.4,0c0.1,0,0.3,0,0.4,0c0.1,0,0.1,0,0.2,0c0,0.6,0,1.2,0,1.8c0,0.6,0,1.2,0,1.8
				c0,0.6,0,1.1,0,1.7c0,0.5,0,1.1,0,1.6c0,0.5,0,1.1,0,1.7c0,0.6,0,1.2-0.1,1.8l0,0.2l0.3,0l1.1-0.2v-0.2c0-0.6,0-1.1,0-1.7
				c0-0.6,0-1.2,0-1.8c0-0.6,0-1.2,0-1.8c0-0.6,0-1.2,0-1.8c0-0.6,0-1.1,0-1.7c0-0.4,0-0.9,0-1.3c0.3,0,0.6,0.1,0.8,0.1
				c0.3,0,0.6,0.1,0.9,0.1c0.3,0,0.6-0.1,0.7-0.2c0.2-0.2,0.3-0.4,0.3-0.7C98.1,19.8,98.1,19.6,98.1,19.5z"/>
		</g>
		<g>
			<g>
				<path class="st1" d="M91.1,56.5L91.1,56.5L91.1,56.5z"/>
				<path class="st1" d="M113,41.4c0.6-0.6,1-1.3,1.3-2.1c0.3-0.8,0.4-1.5,0.4-2.3c0-0.6-0.1-1.2-0.3-1.8l0,0
					c-0.2-0.5-0.4-1.1-0.8-1.5s-0.8-0.8-1.3-1.1c-0.5-0.3-1.1-0.4-1.7-0.4c-1.6,0-3,0.8-4.1,2c-1.1,1.2-2.1,2.8-2.9,4.7
					c-0.4,1-0.8,2-1.2,3.1c0-0.7,0.1-1.4,0.1-1.9l0,0c0-0.8,0.1-1.5,0.1-2c0-0.5,0-0.8,0-1c0-1.2-0.1-2.3-0.6-3.1
					c-0.2-0.4-0.6-0.8-1.1-1.1c-0.4-0.3-1-0.4-1.5-0.4c-0.7,0-1.5,0.2-2.6,0.6c-1.2,0.4-2.7,1.1-4.6,1.9l-0.8,0.4l0.6,3.9l1.3-0.4
					c0.4-0.1,0.7-0.3,1-0.4c0.3-0.1,0.5-0.2,0.8-0.2c0.2,0,0.4-0.1,0.5-0.1c0.1,0,0.3,0,0.4,0c0.1,0,0.2,0,0.3,0h0c0,0,0,0,0,0l0,0
					c0,0.1,0.1,0.4,0.1,0.7l0,0c0,0.4,0,0.8,0,1.3c0,0.7,0,1.6,0,2.7c0,1.2,0,2.5-0.1,3.9c0,1.5-0.1,3.1-0.1,4.8
					c0,1.7-0.1,3.4-0.2,5.1c0,1.7-0.1,3.5-0.2,5.1c-0.1,1.7-0.2,3.2-0.3,4.7l-0.1,1.2l1.6,0.1l4.5-0.8l0-0.9c0-0.9,0.2-2.1,0.3-3.5
					c0.2-1.4,0.4-2.9,0.6-4.5c0.3-1.6,0.6-3.3,0.9-5c0.4-1.7,0.8-3.3,1.2-4.8c0.4-1.5,0.9-2.9,1.4-4.1c0.5-1.2,1-2.2,1.6-2.8l0,0
					c0.3-0.4,0.6-0.6,0.9-0.8c0.3-0.2,0.6-0.2,0.8-0.2c0.3,0,0.5,0,0.7,0.2c0.3,0.1,0.6,0.4,1,0.9l0.4,0.4h1.2L113,41.4z"/>
				<path class="st1" d="M127.9,48c1.4-0.9,2.5-1.9,3.4-3.3c0.8-1.3,1.3-2.9,1.3-4.7c0-1.2-0.2-2.3-0.6-3.2
					c-0.4-0.9-0.9-1.8-1.6-2.5c-0.7-0.7-1.4-1.2-2.3-1.6c-0.9-0.4-1.8-0.5-2.7-0.5c-1.4,0-2.7,0.3-3.9,0.9c-1.2,0.6-2.3,1.4-3.2,2.4
					c-1,1-1.8,2.2-2.6,3.5c-0.8,1.3-1.4,2.7-1.9,4.3c-0.5,1.5-0.9,3.1-1.2,4.8c-0.3,1.7-0.4,3.3-0.4,5c0,2,0.2,4,0.7,5.8
					c0.5,1.8,1.1,3.4,2,4.8c0.8,1.4,1.9,2.5,3.1,3.4c1.3,0.8,2.7,1.3,4.3,1.3c0.9,0,1.8-0.2,2.7-0.5c0.9-0.3,1.8-0.8,2.6-1.5
					c0.8-0.6,1.6-1.4,2.4-2.3s1.5-2,2.1-3.2l0,0l0,0l0,0l0,0c0.1-0.2,0.2-0.4,0.2-0.7c0-0.4-0.1-0.7-0.3-0.9l0,0
					c-0.1-0.2-0.2-0.4-0.4-0.5l0,0c-0.1-0.1-0.3-0.3-0.4-0.4l0,0c-0.1-0.1-0.2-0.2-0.3-0.2l-0.9-0.7l-0.7,0.9c-1,1.4-1.9,2.4-2.8,3
					l0.6,1l-0.6-1c-0.9,0.6-1.7,0.8-2.4,0.8c-0.7,0-1.3-0.2-2-0.7c-0.7-0.5-1.3-1.2-1.9-2.3c-0.6-1-1-2.3-1.3-3.8
					c-0.3-1.3-0.4-2.8-0.5-4.4c1.7-0.2,3.3-0.5,4.7-1C125,49.6,126.6,48.9,127.9,48z M118.6,46.8c0-0.4,0.1-0.8,0.2-1.2
					c0.1-0.9,0.4-1.8,0.6-2.6c0.2-0.8,0.5-1.6,0.8-2.3c0.3-0.7,0.7-1.3,1.1-1.8s0.8-0.8,1.2-1.1c0.4-0.2,0.8-0.4,1.3-0.4
					c0.3,0,0.5,0,0.8,0.2c0.3,0.2,0.5,0.4,0.7,0.7l0,0c0.2,0.3,0.4,0.7,0.5,1.2c0.1,0.5,0.2,1,0.2,1.6c0,0.9-0.2,1.6-0.5,2.2l0,0
					c-0.4,0.6-0.8,1.2-1.6,1.7c-0.7,0.5-1.6,0.9-2.8,1.3C120.4,46.5,119.6,46.6,118.6,46.8z"/>
				<path class="st1" d="M156.3,62.1c-0.9,0.8-1.6,1-2.1,1c-0.3,0-0.4,0-0.6-0.2c-0.2-0.1-0.4-0.4-0.7-0.8c-0.4-0.8-0.8-2.3-0.8-4.3
					c0-1.3,0-2.7,0.1-4.1c0-1.4,0.1-2.7,0.2-4s0.1-2.5,0.2-3.7c0-1.2,0.1-2.3,0.1-3.3c0-1.5-0.1-2.9-0.4-4.1
					c-0.3-1.2-0.7-2.3-1.3-3.3s-1.4-1.7-2.4-2.3c-1-0.5-2.2-0.8-3.5-0.8c-0.8,0-1.5,0.1-2.3,0.3c-0.8,0.2-1.6,0.5-2.4,0.9
					c-0.8,0.4-1.6,0.8-2.3,1.4c-0.8,0.6-1.4,1.2-2,1.9s-1.1,1.6-1.4,2.4c-0.4,0.9-0.5,1.9-0.5,2.9c0,0.6,0.1,1.2,0.3,1.8
					c0.2,0.5,0.4,1.1,0.8,1.5c0.3,0.4,0.8,0.8,1.2,1c0.5,0.2,1,0.4,1.6,0.4c0.9,0,1.8-0.3,2.5-0.8l0.4-0.3l0.3-1.1l-0.2-0.4
					c-0.3-0.6-0.6-1.2-0.8-1.9s-0.3-1.2-0.3-1.9c0-0.5,0-1,0.2-1.4l0,0c0.1-0.4,0.3-0.7,0.5-0.9c0.2-0.2,0.5-0.4,0.9-0.6
					c0.4-0.1,0.8-0.3,1.5-0.3c0.4,0,0.8,0.1,1.2,0.3c0.4,0.2,0.8,0.5,1.2,0.9c0.4,0.4,0.7,1,0.9,1.8c0.2,0.7,0.4,1.6,0.4,2.7
					c0,1.1,0,2-0.1,2.9c0,0.5-0.1,1.1-0.1,1.7c-0.9,0-1.8,0.1-2.6,0.3c-1.2,0.2-2.4,0.5-3.5,1c-1.1,0.4-2.1,1-3.1,1.7
					c-1,0.7-1.8,1.5-2.5,2.5c-0.7,1-1.2,2-1.6,3.2s-0.6,2.5-0.6,3.9c0,1.1,0.1,2.2,0.4,3.1c0.3,1,0.7,1.8,1.2,2.6
					c0.5,0.8,1.2,1.4,1.9,1.8c0.8,0.4,1.7,0.7,2.7,0.7c1.2,0,2.3-0.4,3.3-1.2c0.9-0.7,1.8-1.6,2.6-2.6c0.6-0.8,1.2-1.8,1.7-2.8
					c0,0.4,0.1,0.7,0.2,1.1c0.3,1.1,0.7,2,1.2,2.8c0.5,0.8,1.2,1.4,1.9,1.9c0.8,0.4,1.6,0.6,2.5,0.6c1.2,0,2.3-0.4,3.3-1
					s1.9-1.5,2.7-2.6l0.4-0.6l-1.4-2.9L156.3,62.1z M146,53.4c-0.2,1-0.5,1.9-0.9,2.7c-0.4,0.9-0.8,1.6-1.2,2.4
					c-0.4,0.7-0.9,1.3-1.3,1.8c-0.4,0.5-0.9,0.8-1.3,1.1c-0.4,0.2-0.7,0.3-0.9,0.3c-0.2,0-0.3,0-0.4-0.1l0,0
					c-0.1-0.1-0.3-0.3-0.4-0.5c-0.1-0.3-0.3-0.7-0.4-1.1l0,0c-0.1-0.4-0.1-1-0.1-1.5c0-0.9,0.1-1.7,0.3-2.4c0.2-0.7,0.5-1.2,0.8-1.7
					c0.4-0.5,0.8-0.8,1.3-1.2c0.5-0.4,1.1-0.6,1.7-0.8c0.6-0.2,1.3-0.4,2-0.5c0.3,0,0.6-0.1,0.9-0.1C146.2,52.3,146.1,52.8,146,53.4
					z"/>
				<path class="st1" d="M135.4,45.5L135.4,45.5L135.4,45.5z"/>
				<path class="st1" d="M162.1,17.3L162.1,17.3L162.1,17.3z"/>
				<path class="st1" d="M172.2,38.8L172.2,38.8L172.2,38.8z"/>
				<polygon class="st1" points="162.8,16.5 162.9,16.3 162.9,16.3 				"/>
				<path class="st1" d="M173.4,35.7L173.4,35.7L173.4,35.7L173.4,35.7z"/>
				<path class="st1" d="M173.4,61l-0.7-0.9l-0.9,0.6c-0.9,0.6-1.6,1-2.3,1.2c-0.6,0.3-1.2,0.4-1.6,0.4c-0.6,0-1-0.1-1.3-0.4l0,0
					c-0.4-0.3-0.7-0.8-0.9-1.5l0,0c-0.3-0.8-0.4-1.7-0.6-2.9l0,0c-0.1-1.2-0.2-2.6-0.2-4.2c0-0.8,0-1.9,0-3c0-1.2,0-2.4,0.1-3.7
					c0-1.3,0.1-2.8,0.2-4.3c0-1.2,0.1-2.3,0.2-3.5c0.6,0,1.2,0.1,1.7,0.2c0.9,0.1,1.8,0.2,2.6,0.2c0.8,0,1.6-0.1,2.2-0.4
					c0.4-0.2,0.8-0.6,1-1c0.2-0.4,0.3-0.8,0.3-1.3c0-0.3,0-0.5,0-0.8c0-0.2-0.1-0.5-0.1-0.8l-0.3-1.2l-1.2,0.3
					c-0.5,0.1-1.2,0.2-2.1,0.2c-0.2,0-0.5,0-0.8,0c-0.3,0-0.7,0-1.1,0c-0.4,0-0.9,0-1.4,0c-0.1,0-0.2,0-0.3,0
					c0.2-2.6,0.4-5.1,0.7-7.8c0.3-3,0.7-5.9,1.2-8.8l0.1-0.7l-0.5-0.4c-0.4-0.3-0.7-0.5-1.1-0.6l0,0c-0.4-0.2-0.9-0.2-1.4-0.2
					c-0.3,0-0.7,0-1,0.1c-0.4,0.1-0.8,0.3-1.1,0.5l0,0c-0.4,0.3-0.6,0.6-0.8,0.9c-0.3,0.4-0.4,0.9-0.4,1.4l0,0
					c-0.3,2.2-0.6,4.7-0.8,7.5c-0.3,2.5-0.5,5.2-0.7,8c-0.4,0-0.7,0.1-1.1,0.2c-0.6,0.2-1.2,0.4-1.7,0.7c-0.5,0.3-0.9,0.6-1.3,1
					c-0.4,0.4-0.6,1-0.6,1.6c0,0.2,0,0.4,0.1,0.7l0.4,1.1l1.1-0.4c0.4-0.1,1-0.3,1.6-0.4c0.3,0,0.7,0,1-0.1c-0.1,1-0.1,2-0.2,3.1
					c-0.1,1.5-0.2,3-0.2,4.5l0,0c0,1.5-0.1,3-0.1,4.4c0,1.5,0,2.9,0,4.3c0,2.5,0.1,4.5,0.4,6.2c0.3,1.6,0.6,3,1.1,4.1
					c0.5,1.1,1.2,1.9,2,2.4c0.8,0.5,1.7,0.7,2.6,0.7c0.7,0,1.4-0.1,2.1-0.4c0.7-0.2,1.4-0.5,2.1-0.9c0.7-0.4,1.4-0.8,2.2-1.4
					c0.7-0.5,1.4-1.1,2.1-1.8l0.4-0.4l0-0.6C174.1,62.4,173.9,61.7,173.4,61z"/>
				<path class="st1" d="M193.2,37.3c-0.8-1.5-1.8-2.7-3-3.6c-1.3-1-2.8-1.5-4.4-1.5c-1.4,0-2.7,0.3-4,1c-1.2,0.6-2.3,1.5-3.2,2.5
					c-0.9,1.1-1.8,2.3-2.4,3.6c-0.7,1.3-1.3,2.8-1.7,4.3c-0.4,1.5-0.8,3.1-1.1,4.7c-0.2,1.6-0.4,3.2-0.4,4.8c0,1.9,0.2,3.7,0.6,5.5
					l0,0c0.4,1.8,1,3.4,1.8,4.8c0.8,1.5,1.8,2.7,3,3.6c1.3,1,2.8,1.5,4.4,1.5c1.4,0,2.7-0.3,4-1c1.2-0.6,2.3-1.5,3.2-2.5
					c0.9-1.1,1.8-2.3,2.4-3.6c0.7-1.3,1.3-2.8,1.7-4.3c0.5-1.5,0.8-3.1,1.1-4.7s0.4-3.2,0.4-4.8c0-1.9-0.2-3.7-0.6-5.5
					C194.5,40.4,194,38.7,193.2,37.3z M188.2,58.6c-0.3,0.9-0.6,1.7-1,2.4c-0.4,0.7-0.8,1.2-1.3,1.6c-0.4,0.3-0.8,0.4-1.4,0.4
					c-0.5,0-1-0.1-1.4-0.4c-0.5-0.3-0.9-0.7-1.3-1.2c-0.4-0.5-0.8-1.2-1.1-1.9c-0.3-0.8-0.6-1.6-0.8-2.6c-0.2-0.9-0.4-1.9-0.5-2.9
					c-0.1-1-0.2-2-0.2-3c0-0.8,0-1.8,0.1-2.8l0,0c0.1-1,0.2-2,0.4-3.1l0,0c0.2-1,0.4-2,0.7-3c0.3-0.9,0.6-1.7,1-2.4
					c0.4-0.7,0.8-1.2,1.3-1.5c0.4-0.3,0.8-0.4,1.4-0.4c0.5,0,1,0.1,1.4,0.4c0.5,0.3,0.9,0.7,1.3,1.2c0.4,0.5,0.8,1.2,1.1,1.9
					c0.3,0.8,0.6,1.6,0.8,2.6c0.2,0.9,0.4,1.9,0.5,2.9c0.1,1,0.2,2,0.2,3c0,0.8,0,1.8-0.1,2.8c-0.1,1-0.2,2-0.4,3.1
					C188.7,56.6,188.5,57.6,188.2,58.6z"/>
				<path class="st1" d="M217.8,35.2l-0.1-0.2L217.8,35.2c-0.2-0.6-0.4-1.1-0.8-1.5c-0.4-0.4-0.8-0.8-1.3-1.1
					c-0.5-0.3-1.1-0.4-1.7-0.4c-1.6,0-3,0.8-4.1,2c-1.1,1.2-2.1,2.8-2.9,4.7c-0.4,1-0.8,2-1.2,3.1c0-0.7,0.1-1.4,0.1-1.9
					c0-0.8,0.1-1.5,0.1-2l0,0c0-0.5,0-0.8,0-1c0-1.2-0.1-2.3-0.6-3.1c-0.2-0.4-0.6-0.8-1.1-1.1s-1-0.4-1.5-0.4
					c-0.7,0-1.5,0.2-2.6,0.6c-1.2,0.4-2.7,1.1-4.6,1.9l-0.8,0.4l0.6,3.9l1.3-0.4c0.4-0.1,0.7-0.3,1-0.4c0.3-0.1,0.5-0.2,0.8-0.2
					c0.2,0,0.4-0.1,0.5-0.1c0.1,0,0.3,0,0.4,0c0.1,0,0.2,0,0.3,0h0c0,0,0,0,0,0l0,0c0,0.1,0.1,0.4,0.1,0.7l0,0c0,0.4,0,0.8,0,1.3
					c0,0.7,0,1.6,0,2.7c0,1.2,0,2.5-0.1,3.9c0,1.5-0.1,3.1-0.1,4.8c0,1.7-0.1,3.4-0.2,5.1c0,1.7-0.1,3.5-0.2,5.1
					c-0.1,1.7-0.2,3.2-0.3,4.7l-0.1,1.2l1.6,0.1l4.5-0.7l0-0.9c0-0.9,0.2-2.1,0.3-3.5c0.2-1.4,0.4-2.9,0.6-4.5
					c0.3-1.6,0.6-3.3,0.9-5l0,0c0.4-1.7,0.8-3.3,1.2-4.8c0.4-1.5,0.9-2.9,1.4-4.1c0.5-1.2,1-2.2,1.6-2.8c0.3-0.4,0.6-0.6,0.9-0.8
					c0.3-0.2,0.6-0.2,0.8-0.2c0.3,0,0.5,0,0.7,0.2c0.3,0.1,0.6,0.4,1,0.9l0.4,0.4h1.2l0.4-0.4c0.6-0.6,1-1.3,1.3-2.1l0,0
					c0.3-0.8,0.4-1.5,0.4-2.3C218.1,36.4,218,35.8,217.8,35.2z"/>
			</g>
		</g>
		<g>
			<path class="st1" d="M218.6,65.8c-0.2,0.1-0.3,0.1-0.4,0.2c-0.1,0-0.2,0-0.3,0c-0.1,0-0.2,0-0.2-0.1l0,0c0,0-0.1-0.1-0.2-0.3
				c-0.1-0.2-0.1-0.4-0.1-0.7l0,0c0-0.3,0-0.6,0-1.1c0-0.6,0-1.3,0-1.8c0-0.6,0-1.2,0-1.7c0-0.6,0-1.1,0-1.7c0-0.6,0-1.1,0.1-1.7
				c0-0.6,0-1.1,0.1-1.7c0-0.6,0.1-1.2,0.1-1.9l0-0.2l-0.2-0.1c-0.1-0.1-0.2-0.1-0.4-0.2c-0.1,0-0.2-0.1-0.4-0.1c-0.1,0-0.2,0-0.3,0
				c-0.1,0-0.2,0.1-0.3,0.1c-0.1,0.1-0.2,0.2-0.2,0.2c-0.1,0.1-0.1,0.2-0.1,0.4l0,0c0,0.6-0.1,1.2-0.1,1.7c0,0.5,0,1-0.1,1.5
				c0,0.4,0,0.9,0,1.3c0,0.3,0,0.6,0,0.9c-0.3,0-0.6,0-0.9,0c-0.4,0-0.8,0-1.1,0c-0.4,0-0.8,0-1.1,0c-0.3,0-0.6,0-0.9,0
				c0-0.5,0-1,0-1.4c0-0.5,0-0.9,0-1.3c0-0.4,0-0.7,0-1c0-0.3,0-0.5,0-0.7c0-0.3,0-0.5,0-0.7l-0.3,0l0.3,0c0-0.2,0-0.4-0.1-0.6
				c-0.1-0.2-0.2-0.4-0.4-0.5c-0.2-0.1-0.4-0.2-0.6-0.2s-0.5,0-0.8,0.1c-0.3,0.1-0.7,0.2-1.1,0.3l-0.2,0.1l0.1,1.1l0.3-0.1
				c0.3-0.1,0.5-0.1,0.7-0.1c0.1,0,0.2,0,0.2,0c0,0,0,0,0.1,0.1l0,0c0,0,0,0.1,0.1,0.2l0,0c0,0.1,0,0.3,0,0.4c0,1,0,1.9,0,2.9
				c0,0.9,0,1.9,0,2.9c0,1,0,2-0.1,3c0,1-0.1,2.1-0.1,3.3l0,0.3l0.4,0.1l1.3-0.2l0.1-6.7c0.3,0,0.6,0,0.9-0.1c0.4,0,0.8,0,1.1,0
				s0.7,0,1.1,0c0.3,0,0.6,0,0.9,0c0,0.1,0,0.3,0,0.4l0,0c0,0.2,0,0.5,0,0.8c0,0.3,0,0.5,0,0.8l0,0c0,0.3,0,0.6,0,0.9v1.4
				c0,0.5,0,0.9,0.1,1.2c0,0.3,0.1,0.6,0.2,0.9l0,0c0.1,0.2,0.2,0.4,0.4,0.6c0.2,0.1,0.4,0.2,0.6,0.2c0.1,0,0.3,0,0.4,0
				c0.2,0,0.3-0.1,0.5-0.2c0.2-0.1,0.3-0.1,0.5-0.2c0.2-0.1,0.4-0.2,0.6-0.3l0.2-0.1l-0.3-1.1L218.6,65.8z"/>
			<path class="st1" d="M216.3,53.1L216.3,53.1L216.3,53.1z"/>
			<path class="st1" d="M232.9,60.9c0-0.3-0.1-0.5-0.1-0.8l0,0c0-0.3-0.1-0.5-0.2-0.7l0,0c-0.1-0.2-0.2-0.5-0.3-0.7
				c-0.1-0.2-0.3-0.4-0.5-0.5c-0.2-0.1-0.4-0.2-0.7-0.2c-0.3,0-0.7,0.1-0.9,0.4c-0.3,0.2-0.6,0.6-0.9,1c-0.3,0.4-0.6,0.9-0.8,1.5
				c0,0.1-0.1,0.2-0.1,0.3c0,0,0,0,0,0c0-0.7,0.1-1.3,0.1-2c0-0.7,0.1-1.4,0.1-2.1c0-0.7,0.1-1.4,0.2-2.1c0-0.7,0.1-1.4,0.2-2.1
				c0.1-0.7,0.1-1.3,0.2-2l0-0.2l-0.2-0.1c-0.2-0.2-0.5-0.2-0.7-0.2c-0.1,0-0.2,0-0.3,0c-0.1,0-0.2,0.1-0.3,0.1
				c-0.1,0.1-0.2,0.2-0.2,0.3c-0.1,0.1-0.1,0.3-0.1,0.4l0,0c0,0.4,0,1-0.1,1.5c0,0.6,0,1.2-0.1,1.8c0,0.7,0,1.3-0.1,2
				c0,0.7,0,1.4-0.1,2c0,0.7,0,1.3-0.1,1.9s0,1.1-0.1,1.6v0c0,1.1-0.1,2-0.2,2.9c0,0.4-0.1,0.7-0.1,1l-0.2-0.4l-0.3,0.3
				c0,0-0.1,0.1-0.1,0.1l0,0c0,0-0.1,0.1-0.1,0.1c0,0-0.1,0-0.1,0.1c0,0-0.1,0-0.1,0c0,0-0.1,0-0.1-0.1c0,0-0.1-0.1-0.2-0.4
				c-0.1-0.2-0.1-0.5-0.2-0.9c0-0.4-0.1-0.9-0.1-1.6c0-0.3,0-0.7,0-1.1c0-0.4,0-0.8,0-1.2c0-0.4,0-0.9,0.1-1.3s0-0.8,0.1-1.2l0-0.3
				l-0.4,0l-1.2,0.2l0,0.2c0,1-0.2,1.9-0.3,2.8c-0.2,0.9-0.4,1.6-0.6,2.3c-0.2,0.7-0.5,1.2-0.7,1.5c-0.1,0.2-0.2,0.3-0.3,0.3
				c-0.1,0.1-0.2,0.1-0.2,0.1c-0.1,0-0.1,0-0.1,0c0,0-0.1-0.1-0.1-0.1c-0.1-0.1-0.2-0.4-0.2-0.9c0-0.2,0-0.3,0-0.6l0,0
				c0-0.2,0-0.5,0-0.8c0-0.3,0-0.6,0.1-0.9c0-0.3,0-0.6,0.1-1c0-0.3,0-0.6,0-0.9c0-0.3,0-0.6,0-0.9c0-0.2,0-0.4,0-0.5l-0.3,0l0.3,0
				c0-0.2,0-0.3-0.1-0.4l0,0c-0.1-0.1-0.1-0.3-0.3-0.4c-0.1-0.1-0.3-0.1-0.4-0.1c-0.1,0-0.2,0-0.3,0c-0.1,0-0.3,0.1-0.4,0.1
				s-0.4,0.1-0.6,0.2c-0.2,0.1-0.4,0.2-0.7,0.3l-0.2,0.1l0.2,1l0.4-0.1c0.2-0.1,0.3-0.1,0.5-0.2c0.1,0,0.2,0,0.3,0c0,0,0,0,0.1,0
				c0,0,0,0,0,0c0,0,0,0.1,0,0.2c0,0.1,0,0.3,0,0.4c0,0.4,0,0.9,0,1.3c0,0.4,0,0.9-0.1,1.3c0,0.4,0,0.8-0.1,1.2c0,0.4,0,0.7,0,1
				c0,0.4,0,0.8,0.1,1.2l0,0c0.1,0.3,0.2,0.6,0.3,0.8c0.1,0.2,0.3,0.4,0.5,0.5c0.2,0.1,0.4,0.2,0.6,0.2c0.3,0,0.6-0.1,0.9-0.3
				c0.3-0.2,0.6-0.5,0.8-1c0.2-0.4,0.5-0.9,0.7-1.5c0,0.4,0,0.8,0.1,1.1c0.1,0.4,0.2,0.7,0.3,1c0.1,0.2,0.3,0.4,0.5,0.6
				c0.2,0.1,0.4,0.2,0.7,0.2c0.2,0,0.3,0,0.5-0.1c0.2,0,0.3-0.1,0.4-0.2c0.1-0.1,0.3-0.2,0.4-0.3l0,0c0,0.1,0,0.1,0,0.2l-0.1,0.3
				l0.7,0.2l0.1-0.2c0.1-0.2,0.2-0.3,0.3-0.6c0-0.1,0.1-0.2,0.1-0.3c0,0,0.1,0.1,0.1,0.1l0,0l0,0l0,0c0.2,0.2,0.4,0.4,0.6,0.5
				c0.2,0.1,0.4,0.2,0.6,0.3c0.2,0.1,0.4,0.1,0.6,0.1c0.3,0,0.6-0.1,0.9-0.2c0.3-0.1,0.6-0.3,0.9-0.6c0.3-0.2,0.5-0.6,0.7-0.9
				c0.2-0.4,0.4-0.8,0.6-1.2c0.2-0.4,0.3-0.9,0.4-1.5c0.1-0.5,0.1-1.1,0.1-1.7C233,61.4,232.9,61.1,232.9,60.9L232.9,60.9z
				 M225.8,66.1L225.8,66.1L225.8,66.1L225.8,66.1z M228.4,64.6L228.4,64.6c0-0.2,0.1-0.4,0.2-0.7c0.1-0.3,0.2-0.5,0.3-0.8
				c0.1-0.3,0.2-0.6,0.3-0.9c0.1-0.3,0.3-0.6,0.4-0.8c0.1-0.3,0.3-0.5,0.4-0.7c0.1-0.2,0.3-0.3,0.4-0.4c0.1-0.1,0.2-0.1,0.3-0.1
				c0,0,0.1,0,0.1,0.1c0.1,0.1,0.2,0.3,0.2,0.5c0.1,0.2,0.1,0.5,0.1,0.7c0,0.3,0,0.5,0,0.8c0,0.7-0.1,1.3-0.2,1.8l0.3,0.1l-0.3-0.1
				c-0.1,0.5-0.2,1-0.4,1.3c-0.2,0.4-0.4,0.6-0.6,0.8c-0.2,0.2-0.4,0.2-0.6,0.2c-0.1,0-0.2,0-0.4-0.1c-0.1-0.1-0.2-0.1-0.3-0.3l0,0
				c-0.1-0.1-0.2-0.3-0.3-0.4l0,0c-0.1-0.2-0.1-0.4-0.2-0.6C228.3,64.9,228.3,64.8,228.4,64.6z"/>
			<path class="st1" d="M237.6,63c-0.2-0.2-0.4-0.4-0.6-0.6c-0.2-0.2-0.4-0.3-0.7-0.4l0,0c-0.2-0.1-0.4-0.2-0.6-0.4
				c-0.2-0.1-0.3-0.2-0.4-0.4c-0.1-0.1-0.2-0.3-0.3-0.4l0,0c-0.1-0.1-0.1-0.3-0.1-0.5c0-0.1,0-0.3,0.1-0.4l0,0
				c0-0.1,0.1-0.2,0.2-0.3c0.1-0.1,0.2-0.2,0.3-0.2s0.2-0.1,0.4-0.1c0.1,0,0.2,0,0.3,0c0.1,0,0.2,0.1,0.2,0.1c0.1,0,0.1,0.1,0.2,0.2
				c0,0.1,0.1,0.2,0.1,0.3c0,0.1,0,0.2,0,0.2c0,0.1,0,0.2-0.1,0.3l0,0.1l0.1,0.3l0.2,0.1c0.2,0.1,0.3,0.1,0.5,0.1l0,0l0,0
				c0.2,0,0.4-0.1,0.5-0.2c0.1-0.1,0.2-0.2,0.3-0.3c0.1-0.1,0.1-0.3,0.2-0.4l0,0c0-0.1,0-0.2,0-0.4c0-0.3-0.1-0.5-0.2-0.8
				c-0.1-0.2-0.3-0.4-0.4-0.6c-0.2-0.2-0.4-0.3-0.7-0.4c-0.2-0.1-0.5-0.1-0.8-0.1c-0.2,0-0.4,0-0.6,0.1c-0.2,0-0.4,0.1-0.6,0.2
				s-0.4,0.2-0.6,0.4s-0.3,0.3-0.5,0.6c-0.1,0.2-0.2,0.4-0.3,0.7c-0.1,0.3-0.1,0.6-0.1,0.9c0,0.3,0,0.5,0.1,0.8
				c0.1,0.2,0.1,0.4,0.2,0.7c0.1,0.2,0.2,0.4,0.4,0.5c0.1,0.2,0.3,0.3,0.4,0.4c0.2,0.1,0.3,0.2,0.5,0.4c0.2,0.1,0.3,0.2,0.5,0.3l0,0
				c0.2,0.1,0.3,0.2,0.5,0.3c0.1,0.1,0.3,0.2,0.4,0.3c0.1,0.1,0.2,0.2,0.2,0.4c0,0.1,0.1,0.2,0.1,0.4c0,0.2,0,0.3-0.1,0.4
				s-0.1,0.2-0.2,0.3c-0.1,0.1-0.2,0.1-0.3,0.2c-0.1,0-0.2,0.1-0.3,0.1c-0.1,0-0.3,0-0.4-0.1c-0.1,0-0.2-0.1-0.4-0.2l0,0
				c-0.1-0.1-0.2-0.2-0.3-0.4l0,0c-0.1-0.2-0.1-0.4-0.2-0.7l0-0.1l-0.2-0.2l-0.2,0c-0.1,0-0.3,0-0.4,0.1c-0.1,0-0.3,0.1-0.4,0.2l0,0
				c-0.1,0.1-0.2,0.2-0.3,0.4c-0.1,0.2-0.1,0.3-0.1,0.5c0,0.2,0,0.4,0.1,0.6l0,0c0.1,0.2,0.2,0.3,0.3,0.5c0.1,0.1,0.3,0.3,0.4,0.4
				c0.2,0.1,0.3,0.2,0.5,0.3c0.2,0.1,0.4,0.1,0.5,0.2c0.2,0,0.4,0.1,0.5,0.1c0.3,0,0.7-0.1,1-0.2c0.3-0.1,0.6-0.3,0.9-0.6
				c0.2-0.2,0.4-0.6,0.6-0.9c0.2-0.4,0.2-0.8,0.2-1.2c0-0.4-0.1-0.7-0.2-1C237.9,63.5,237.8,63.2,237.6,63z"/>
		</g>
		<path class="st1" d="M60.1,69.1c-1.6-1.1-3-2.4-4.2-3.9c-1.2-1.5-2.3-3.2-3.2-5c-0.8-1.8-1.5-3.8-2-6c-0.5-2.1-0.7-4.4-0.7-6.8
			c0-2.3,0.2-4.6,0.7-6.9c0.5-2.3,1.1-4.5,2-6.6s2-4.1,3.4-6c1.1-1.4,2.3-2.7,3.6-3.9c-0.3-0.2-0.6-0.5-0.8-0.9
			c-0.8-1.1-1.2-2.4-1.9-3.6c-0.9-1.5-1.7-3.1-2.8-4.4c-1.5-1.8-3.5-3-6.2-3.6c-0.4,0.3-1.4,0.6-1.5,1.1c-0.1,0.8,0.3,1.9,0.9,2.4
			c0.9,0.7,2.1,0.8,3.2,1.3c1,0.4,2.1,0.7,2.9,1.4c2,1.8,2.2,4.8,0.6,6.8c-1.8,2.3-4.9,3-7.4,1.6c-1.7-0.9-2.7-2.4-3.4-4
			c-0.4-0.9-0.8-1.8-1.3-2.6c-0.6-1-1.6-1.6-2.8-1.5c-1.5,0.2-2.1,1.4-1.3,2.6c0.4,0.6,1,1.1,1.4,1.7c1.7,2,1.5,5-0.5,6.8
			c-1.6,1.4-3.6,1.3-5.6,0c-2.8-1.8-5.6-3.4-8.5-4.9c-1.7-0.9-3.5,0.5-3,2.3c0.2,0.7,1,1.5,1.7,1.8c1.7,0.7,3.5,1.1,5.2,1.8
			c1.5,0.6,3,1.1,4.2,2.1c2.7,2.1,2,5.7-1.2,6.9c-0.2,0.1-0.5,0.2-0.7,0.3c-1.4,0.6-1.5,1.6-0.2,2.5c0.5,0.3,1,0.6,1.5,0.9
			c1.8,1.2,1.9,2.3,0.2,3.7c-0.2,0.1-0.3,0.3-0.5,0.4c-1.3,1.1-1.4,2.3-0.3,3.6c0.6,0.7,1.2,1.3,1.8,2c0.8,1,1,2.2,0.4,3.4
			c-0.7,1.5-1.9,2.3-3.3,3c-4.3,2-8.8,2.7-13.5,2.4c-1-0.1-2,0.1-2.9,0.4c-0.8,0.3-1.4,1-1.3,2.1c0.1,1,0.7,1.6,1.6,1.8
			c0.6,0.2,1.3,0.3,2,0.2c2.5-0.4,5.1-0.9,7.6-1.4c4.7-1,9.3-1.4,13.8,0.8c1.5,0.8,3.5,0.8,5.2,0.9c1.8,0.1,3.5,0.1,5.3,0.1
			c2.4,1.7,5.2,3,8.1,4h0c1.4,0.5,2.8,0.8,4.3,1.1c0.2,1,0.4,2,0.8,3c0.5,1,1.1,2,2,2.6c0.6,0.4,1.8,0.5,2.5,0.1
			c1.3-0.5,1.8-1.9,1.5-3.2c-0.2-0.7-0.4-1.3-0.6-1.9c-0.5-0.1-0.9-0.2-1.3-0.4C63.4,71,61.7,70.2,60.1,69.1z"/>
		<path class="st1" d="M89.6,62c-0.2-0.2-0.3-0.4-0.5-0.5c-0.2-0.2-0.4-0.3-0.6-0.4c-0.2-0.1-0.3-0.2-0.5-0.3l-0.2-0.1
			c-0.1,0.5-0.3,1.1-0.7,1.5c-4.6,5.9-12.2,9.5-20.5,9.6c0,0,0,0.1,0,0.1c1.5,0.3,3.1,0.5,4.6,0.5c1.5,0,3.1-0.2,4.6-0.5
			c1.6-0.3,3.1-0.8,4.6-1.5c1.5-0.7,3-1.6,4.5-2.7c1.5-1.1,2.9-2.4,4.3-4.1l0.1,0l0.1,0c0.2-0.3,0.3-0.5,0.3-0.9
			C90,62.6,89.9,62.3,89.6,62z"/>
		<g>
			<path class="st1" d="M65.9,26.8c-1.1,0.9-2,2.1-2.8,3.4c-0.8,1.4-1.5,2.8-2.1,4.5c-0.6,1.6-1,3.3-1.2,5.1
				c-0.3,1.8-0.4,3.6-0.4,5.5c0,2.2,0.2,4.2,0.5,6.2c0.3,1.9,0.8,3.7,1.5,5.3c0.7,1.6,1.4,3,2.3,4.3c0.9,1.2,1.8,2.2,2.9,3.1
				c1.1,0.8,2.2,1.4,3.3,1.8c1.2,0.4,2.3,0.6,3.6,0.6c0.9,0,1.8-0.1,2.8-0.3c0.9-0.2,1.9-0.5,3-1c1.1-0.5,2.1-1,3.2-1.8l0,0l0,0
				c1.1-0.7,2.2-1.6,3.3-2.6l1-0.9l0.7,0.4c0-0.1,0-0.3,0-0.4c0-1.1-0.5-2.3-1.6-3.2c-6-5.2-9.6-12.3-9.6-19.6
				c0-2.3,0.4-4.6,1.1-6.8l0,0l0,0c0,0,0,0,0,0l0,0l0,0l0,0c0.1-0.4,0.2-0.7,0.2-1.1c0-1.6-1.1-3.2-2.9-4.1c-0.8-0.4-1.7-0.7-2.5-1
				c-1.1,0.1-2,0.3-2.9,0.7C68.2,25.2,67,25.9,65.9,26.8L65.9,26.8L65.9,26.8z"/>
			<path class="st1" d="M88.2,22.3c-0.8-0.7-1.8-1.3-3.1-1.9c-1.2-0.5-2.7-1-4.4-1.4c-1.7-0.4-3.6-0.5-5.5-0.5
				c-2.8,0-5.5,0.4-7.9,1.2C65,20.6,63,21.7,61,23.1c-0.4,0.3-0.9,0.7-1.3,1c0.7,0.5,1.5,0.8,2.3,0.8c0.3-0.3,0.5-0.6,0.8-0.9
				c1-1.3,2.9-1.9,4.8-1.6c1.3,0.2,2.5,0.6,3.8,1l0,0c0.1,0,0.3,0.1,0.4,0.1c0.2,0,0.3,0,0.5-0.1l0.1,0l0.1,0
				c0.2,0.1,0.3,0.1,0.5,0.2c0.3,0,0.5,0,0.8,0c1,0,1.9,0.1,2.8,0.3c0.9,0.2,1.8,0.5,2.5,0.8c0.8,0.4,1.5,0.8,2.2,1.4
				c0.7,0.5,1.2,1.2,1.8,1.9c0.5,0.7,0.8,1.5,1,2.2c0.2,0.8,0.3,1.7,0.3,2.7c0,0.2,0,0.4,0,0.5c0,0.2,0,0.3-0.1,0.5l-0.1,1.1
				l4.8,0.2l0.1-1.1c0.1-2.2,0.2-4.1,0.3-5.7s0.1-2.9,0.1-3.9C89.5,23.8,88.9,23,88.2,22.3z"/>
			<path class="st2" d="M72.4,23.5L72.4,23.5c-0.2,0-0.4,0-0.6,0.1c0.2,0.1,0.4,0.1,0.5,0.2c0.2,0,0.4,0,0.6,0
				C72.8,23.6,72.7,23.6,72.4,23.5L72.4,23.5z"/>
			<path class="st2" d="M86.2,61.2c-1.1,1.1-2.3,2-3.4,2.7l0,0l0,0c-1.1,0.8-2.2,1.4-3.3,1.8c-1.1,0.5-2.1,0.8-3.1,1l0,0l0,0
				c-1,0.2-2,0.3-2.9,0.3c-1.3,0-2.6-0.2-3.8-0.6c-1.2-0.4-2.4-1.1-3.5-1.9l0,0l0,0c-1.1-0.9-2.1-1.9-3-3.2
				c-0.9-1.3-1.7-2.7-2.3-4.4l0,0l0,0c-0.6-1.6-1.1-3.4-1.5-5.4c-0.3-2-0.5-4-0.5-6.2c0-1.9,0.1-3.7,0.4-5.6
				c0.3-1.8,0.7-3.6,1.3-5.2c0.6-1.7,1.3-3.2,2.1-4.6l0,0l0,0c0.9-1.4,1.8-2.6,2.9-3.5l0,0c0,0,0,0,0,0c0,0,0,0,0,0l0,0
				c1.1-1,2.4-1.7,3.7-2.2c0.8-0.3,1.6-0.5,2.6-0.6c-0.1,0-0.3-0.1-0.4-0.1l0,0c-1.3-0.4-2.5-0.7-3.8-1c-1.9-0.4-3.8,0.2-4.8,1.6
				c-0.2,0.3-0.5,0.6-0.8,0.9c-0.9,0-1.7-0.2-2.3-0.8c-1.3,1.2-2.5,2.4-3.6,3.9c-1.4,1.9-2.5,3.8-3.4,6s-1.6,4.3-2,6.6
				c-0.5,2.3-0.7,4.6-0.7,6.9c0,2.4,0.2,4.6,0.7,6.8c0.5,2.2,1.1,4.1,2,6c0.8,1.9,1.9,3.5,3.2,5c1.2,1.5,2.7,2.8,4.2,3.9
				c1.6,1.1,3.3,1.9,5.2,2.5c0.4,0.1,0.9,0.3,1.3,0.4c0,0,0-0.1,0-0.1c8.3-0.2,15.8-3.7,20.5-9.6c0.3-0.4,0.5-0.8,0.6-1.3l-0.8-0.4
				L86.2,61.2z"/>
		</g>
	</g>
</g>
</svg>
