<svg width="50" height="50" viewBox="0 0 50 50" fill="none" xmlns="http://www.w3.org/2000/svg">
<g clip-path="url(#clip0_1_18234)">
<path d="M16.3426 30.7691C16.5465 30.8542 16.776 30.8548 16.9804 30.7707C17.1848 30.6867 17.3475 30.5248 17.4325 30.3208L18.6075 27.5H23.0526L24.2276 30.3208C24.4047 30.7456 24.8928 30.9463 25.3176 30.7692C25.7424 30.592 25.9431 30.1039 25.7659 29.6792L21.5993 19.6792C21.4699 19.3688 21.1665 19.1665 20.8301 19.1665C20.4938 19.1665 20.1904 19.3688 20.061 19.6792L15.8943 29.6792C15.8092 29.8832 15.8086 30.1126 15.8927 30.317C15.9768 30.5214 16.1385 30.684 16.3426 30.7691ZM20.8301 22.1666L22.3576 25.8333H19.3025L20.8301 22.1666Z" fill="#CCFF00"/>
<path fill-rule="evenodd" clip-rule="evenodd" d="M27.4974 29.1668C27.0371 29.1668 26.6641 29.5398 26.6641 30.0001C26.6641 30.4604 27.0371 30.8335 27.4974 30.8335H32.4974C32.9577 30.8335 33.3308 30.4604 33.3308 30.0001C33.3308 29.5398 32.9577 29.1668 32.4974 29.1668H30.8307V20.8334H32.4974C32.9577 20.8334 33.3308 20.4604 33.3308 20.0001C33.3308 19.5398 32.9577 19.1667 32.4974 19.1667H27.4974C27.0371 19.1667 26.6641 19.5398 26.6641 20.0001C26.6641 20.4604 27.0371 20.8334 27.4974 20.8334H29.1641V29.1668H27.4974Z" fill="#CCFF00"/>
<path d="M0.830236 36.6667C0.830236 38.5076 2.32265 40 4.16355 40C4.58108 39.9984 4.99452 39.9176 5.38187 39.7617C7.35186 41.27 10.1319 42.0567 13.5485 42.0567C14.0635 42.0567 14.5986 42.0325 15.141 41.9975C17.561 46.9425 21.0527 50 24.9968 50C28.941 50 32.4327 46.9425 34.8535 42C35.3968 42.035 35.931 42.0591 36.446 42.0591C39.8626 42.0591 42.6427 41.2724 44.6126 39.7641C44.9999 39.919 45.413 39.9991 45.8301 40C47.3014 39.9958 48.5959 39.0275 49.0155 37.6173C49.4351 36.2071 48.8806 34.6886 47.6509 33.8808C47.7676 31.1975 46.7301 28.1524 44.6185 25C46.7301 21.8483 47.7677 18.8033 47.6509 16.1191C49.0916 15.1894 49.5894 13.3168 48.8005 11.7944C48.0116 10.2721 46.1945 9.59897 44.6043 10.2399C42.3401 8.50744 38.9968 7.73995 34.8542 8.00994C32.4361 3.06086 28.9428 0 24.9969 0C21.0511 0 17.5577 3.06086 15.1369 8.01002C10.9961 7.74167 7.65441 8.50998 5.38687 10.24C3.7976 9.60421 1.98524 10.2783 1.19766 11.7981C0.410076 13.3179 0.904377 15.1873 2.3402 16.1192C2.22522 18.8017 3.26352 21.8467 5.37523 25C3.26352 28.1525 2.22522 31.1975 2.34275 33.8809C1.40024 34.4943 0.831302 35.5422 0.830236 36.6667ZM2.49693 36.6667C2.49693 35.7462 3.2431 35 4.16363 35C5.08416 35 5.83033 35.7461 5.83033 36.6667C5.83033 37.5872 5.08416 38.3334 4.16363 38.3334C3.72157 38.3334 3.29764 38.1578 2.98508 37.8452C2.67253 37.5327 2.49693 37.1087 2.49693 36.6667ZM16.1711 9.76669C18.3896 10.0323 20.5753 10.5229 22.6945 11.2309C21.2029 11.8966 19.7462 12.6381 18.3303 13.4526C16.9094 14.2726 15.533 15.1675 14.2069 16.1334C14.6438 13.95 15.302 11.8167 16.1711 9.76669ZM35.7861 16.1334C34.4604 15.1674 33.0843 14.2725 31.6635 13.4526C30.2497 12.6391 28.7956 11.8976 27.3069 11.2309C29.4239 10.5233 31.6073 10.0327 33.8236 9.76669C34.6922 11.8168 35.3497 13.95 35.7861 16.1334ZM33.8227 40.2334C31.6043 39.9678 29.4186 39.4771 27.2994 38.7692C28.791 38.1035 30.2477 37.362 31.6635 36.5475C33.0844 35.7274 34.4608 34.8326 35.7869 33.8667C35.35 36.0501 34.6919 38.1833 33.8227 40.2334ZM30.8303 14.8967C32.7096 15.9782 34.5061 17.1974 36.2053 18.5442C36.5117 20.6825 36.6649 22.8399 36.6636 25C36.6651 27.1601 36.5122 29.3176 36.2061 31.4559C34.5066 32.8026 32.7097 34.0219 30.8303 35.1034C28.9568 36.187 27.0073 37.1333 24.9969 37.935C22.9865 37.1329 21.0369 36.186 19.1636 35.1017C17.2843 34.0201 15.4878 32.801 13.7886 31.4542C13.1786 27.1719 13.1786 22.8248 13.7886 18.5425C15.4878 17.1963 17.2845 15.9777 19.1636 14.8966C21.0386 13.8122 22.9899 12.8653 25.0019 12.0633C27.0106 12.8657 28.9585 13.8126 30.8303 14.8967ZM38.0803 20.1192C39.7424 21.5906 41.2519 23.2258 42.5861 25C41.2538 26.7739 39.7461 28.4091 38.0862 29.8809C38.2498 28.2591 38.3313 26.6301 38.3303 25C38.3308 23.37 38.2487 21.741 38.0845 20.1192H38.0803ZM11.9136 29.8809C10.2511 28.4099 8.74143 26.7746 7.40771 25C8.74003 23.2262 10.2476 21.5909 11.9077 20.1192C11.5799 23.3648 11.5799 26.6352 11.9077 29.8809H11.9136ZM18.3352 36.5475C19.7491 37.361 21.2032 38.1025 22.6919 38.7692C20.5749 39.4768 18.3915 39.9673 16.1752 40.2334C15.3064 38.1833 14.6485 36.0501 14.2119 33.8667C15.5362 34.8326 16.911 35.7274 18.3302 36.5475H18.3352ZM24.9969 48.3334C21.8669 48.3334 19.0228 45.8509 16.9252 41.8242C19.6871 41.4327 22.3952 40.727 24.9969 39.7209C27.5997 40.7275 30.3089 41.4331 33.0719 41.8242C30.9703 45.8509 28.1269 48.3334 24.9969 48.3334ZM45.8303 38.3334C44.9099 38.3334 44.1636 37.5872 44.1636 36.6667C44.1636 35.7461 44.9098 35 45.8303 35C46.7508 35 47.497 35.7461 47.497 36.6667C47.497 37.5872 46.7508 38.3334 45.8303 38.3334ZM46.0052 33.3508C45.9461 33.3508 45.8903 33.3334 45.8302 33.3334C43.9892 33.3334 42.4969 34.8258 42.4969 36.6667C42.5 37.4119 42.7553 38.1341 43.2211 38.7158C41.4061 39.9133 38.7569 40.4825 35.5836 40.3633C36.6168 37.7822 37.3491 35.0904 37.7661 32.3416C39.9215 30.6061 41.8721 28.6305 43.5802 26.4533C44.9873 28.4962 45.8244 30.877 46.0052 33.3508ZM47.4969 13.3333C47.4969 14.2538 46.7508 15 45.8302 15C44.9097 15 44.1635 14.2539 44.1635 13.3333C44.1635 12.4128 44.9097 11.6666 45.8302 11.6666C46.7508 11.6666 47.4969 12.4129 47.4969 13.3333ZM43.2211 11.2842C42.7553 11.8659 42.5001 12.5881 42.4969 13.3333C42.4969 15.1743 43.9893 16.6666 45.8302 16.6666C45.8903 16.6666 45.946 16.6525 46.0052 16.6492C45.8246 19.1231 44.9875 21.504 43.5802 23.5467C41.8718 21.3694 39.9209 19.3939 37.7653 17.6584C37.3477 14.9094 36.6145 12.2177 35.5802 9.63669C38.7562 9.51671 41.4069 10.0833 43.2211 11.2842ZM24.9969 1.6667C28.1269 1.6667 30.9711 4.14919 33.0686 8.17585C30.3082 8.56772 27.6015 9.27337 25.0011 10.2792C22.3984 9.27263 19.6891 8.56698 16.9261 8.17585C19.0236 4.14919 21.8669 1.6667 24.9969 1.6667ZM4.16355 11.6667C5.08399 11.6667 5.83024 12.4129 5.83024 13.3334C5.83024 14.2539 5.08408 15.0001 4.16355 15.0001C3.24302 15.0001 2.49685 14.2539 2.49685 13.3334C2.49685 12.4129 3.2431 11.6667 4.16355 11.6667ZM3.98861 16.6492C4.04774 16.6492 4.10359 16.6666 4.16363 16.6666C6.00461 16.6666 7.49694 15.1742 7.49694 13.3333C7.49382 12.5881 7.23859 11.8658 6.77275 11.2842C8.58691 10.0867 11.2361 9.51835 14.4103 9.63669C13.3771 12.2178 12.6447 14.9096 12.2278 17.6584C10.0726 19.3939 8.12197 21.3691 6.41361 23.5458C5.00608 21.5036 4.16896 19.1229 3.98861 16.6492ZM6.41361 26.4542C8.12279 28.6307 10.0739 30.606 12.2294 32.3416C12.6469 35.0908 13.3798 37.7828 14.4136 40.3641C11.242 40.4841 8.59109 39.9133 6.77612 38.7158C7.24073 38.1337 7.49473 37.4114 7.49694 36.6667C7.49694 34.8257 6.00452 33.3334 4.16363 33.3334C4.10359 33.3334 4.04782 33.3484 3.98861 33.3508C4.16929 30.8772 5.00633 28.4966 6.41361 26.4542Z" fill="#CCFF00"/>
</g>
<defs>
<clipPath id="clip0_1_18234">
<rect width="50" height="50" fill="white"/>
</clipPath>
</defs>
</svg>
