<svg width="53" height="50" viewBox="0 0 53 50" fill="none" xmlns="http://www.w3.org/2000/svg">
<path d="M49.0615 28.1228C48.9379 28.1228 48.8156 28.147 48.7014 28.1943C48.5873 28.2415 48.4836 28.3108 48.3962 28.3982C48.3088 28.4855 48.2396 28.5892 48.1923 28.7034C48.1451 28.8175 48.1208 28.9399 48.1209 29.0634V37.0107C48.1207 37.2601 48.0215 37.4992 47.8452 37.6756C47.6688 37.8519 47.4297 37.9511 47.1803 37.9513H2.82178C2.57237 37.9511 2.33322 37.8519 2.15686 37.6756C1.9805 37.4992 1.88135 37.2601 1.88119 37.0107V8.69922C1.88135 8.44981 1.98051 8.21067 2.15687 8.03431C2.33322 7.85795 2.57237 7.7588 2.82178 7.75863H22.5081C22.7576 7.75863 22.9968 7.65953 23.1732 7.48313C23.3496 7.30674 23.4487 7.06749 23.4487 6.81803C23.4487 6.56857 23.3496 6.32933 23.1732 6.15293C22.9968 5.97654 22.7576 5.87744 22.5081 5.87744H2.82178C2.07365 5.87826 1.35639 6.17581 0.827382 6.70482C0.298373 7.23383 0.000816618 7.95109 0 8.69922V37.0107C0.000816618 37.7588 0.298373 38.4761 0.827382 39.0051C1.35639 39.5341 2.07365 39.8316 2.82178 39.8324H21.0522V42.713C21.0499 43.4699 20.9518 44.2235 20.7601 44.9558C10.696 45.558 7.06024 48.181 6.89279 48.307C6.70053 48.4586 6.575 48.6793 6.54285 48.9221C6.51071 49.1648 6.57449 49.4106 6.72064 49.6071C6.86679 49.8035 7.0838 49.9353 7.32555 49.9743C7.5673 50.0134 7.81475 49.9566 8.01531 49.8161C8.05841 49.7849 12.4325 46.7105 25.0001 46.7105C38.4443 46.7753 41.3514 49.7849 42.5425 49.9999C42.7381 49.9963 42.9278 49.9321 43.0855 49.8162C43.2431 49.7004 43.361 49.5385 43.4229 49.3529C43.4849 49.1673 43.4878 48.9671 43.4313 48.7798C43.3747 48.5925 43.2616 48.4273 43.1074 48.3069C42.9399 48.181 39.3039 45.558 29.2393 44.9558C28.9449 43.265 28.8472 41.5458 28.948 39.8324H47.1803C47.9284 39.8316 48.6457 39.5341 49.1747 39.0051C49.7037 38.476 50.0012 37.7588 50.0021 37.0107V29.0634C50.0021 28.9399 49.9778 28.8175 49.9306 28.7034C49.8834 28.5892 49.8141 28.4855 49.7267 28.3982C49.6394 28.3108 49.5356 28.2415 49.4215 28.1943C49.3073 28.147 49.185 28.1228 49.0615 28.1228ZM22.7062 44.8653C22.8538 44.1573 22.9299 43.4362 22.9334 42.713V39.8324H27.0668C26.9862 41.5134 27.0622 43.1983 27.2938 44.8652C25.8408 44.8181 24.1592 44.8181 22.7062 44.8653Z" fill="#CCFF00"/>
<path d="M50.8203 12.0615C50.7936 12.0603 50.7677 12.0513 50.746 12.0357C50.7243 12.02 50.7077 11.9983 50.6981 11.9733C50.3896 10.3331 49.5718 9.21685 49.1309 7.97954C49.4589 7.59203 49.6288 7.09506 49.6065 6.58782C49.5843 6.08058 49.3715 5.6004 49.0108 5.24313L47.4309 3.66319C47.0739 3.3012 46.5933 3.0876 46.0854 3.06529C45.5775 3.04297 45.08 3.21357 44.6927 3.54286C43.4153 2.89445 42.0789 2.36977 40.7015 1.976C40.6757 1.96601 40.6534 1.94865 40.6374 1.92607C40.6214 1.9035 40.6124 1.87672 40.6116 1.84906C40.5693 1.34326 40.3379 0.871988 39.9635 0.529266C39.5891 0.186544 39.0993 -0.00243564 38.5917 2.71598e-05H36.3578C35.8558 -0.00257729 35.3709 0.182214 34.998 0.518243C34.6251 0.854272 34.391 1.31735 34.3416 1.81688C34.3424 1.88336 34.3086 1.96201 34.2488 1.9749C32.8933 2.30117 31.5972 2.83734 30.4074 3.56398C30.383 3.57648 30.3553 3.58108 30.3281 3.57712C30.301 3.57317 30.2757 3.56087 30.2559 3.54192C29.8683 3.21394 29.3714 3.04416 28.8641 3.06646C28.3569 3.08877 27.8768 3.30152 27.5195 3.66225L25.9396 5.24307C25.5789 5.60033 25.3661 6.08048 25.3438 6.58769C25.3215 7.09491 25.4913 7.59188 25.8193 7.97942C25.3807 9.21119 24.5577 10.342 24.2515 11.9733C24.2418 11.9988 24.2247 12.0208 24.2024 12.0365C24.1801 12.0522 24.1537 12.0609 24.1264 12.0614C23.6205 12.1036 23.1492 12.335 22.8064 12.7094C22.4637 13.0838 22.2748 13.5737 22.2774 14.0813V16.3152C22.2749 16.8234 22.4644 17.3138 22.8079 17.6883C23.1514 18.0628 23.6236 18.2938 24.1301 18.3351C24.1569 18.3362 24.1827 18.3453 24.2043 18.3612C24.2259 18.3771 24.2423 18.399 24.2513 18.4242C24.5618 20.0663 25.3817 21.1854 25.8195 22.417C25.4915 22.8046 25.3216 23.3015 25.3439 23.8088C25.3661 24.316 25.5789 24.7962 25.9396 25.1535L27.5204 26.7352C27.878 27.0953 28.358 27.3075 28.865 27.3294C29.3719 27.3514 29.8685 27.1816 30.2559 26.8538C30.276 26.8353 30.3012 26.8233 30.3283 26.8193C30.3553 26.8154 30.3829 26.8197 30.4074 26.8317C31.5975 27.5594 32.8943 28.096 34.2506 28.4217C34.3092 28.4331 34.3414 28.5165 34.3425 28.5806C34.3919 29.0799 34.6259 29.5428 34.9987 29.8787C35.3714 30.2145 35.8561 30.3992 36.3578 30.3966H38.5917C39.1 30.3988 39.5903 30.2092 39.9648 29.8655C40.3393 29.5219 40.5703 29.0495 40.6116 28.543C40.6129 28.5161 40.6221 28.4902 40.6381 28.4686C40.6542 28.447 40.6763 28.4307 40.7016 28.4217C42.0789 28.0272 43.4154 27.5017 44.6926 26.8526C45.0797 27.1818 45.5769 27.3525 46.0845 27.3306C46.5921 27.3087 47.0727 27.0957 47.43 26.7343L49.0108 25.1535C49.3716 24.7961 49.5844 24.3157 49.6065 23.8083C49.6286 23.3009 49.4586 22.8038 49.1302 22.4163C49.5702 21.1836 50.3923 20.0556 50.698 18.4233C50.7077 18.3976 50.7249 18.3754 50.7474 18.3597C50.7699 18.344 50.7966 18.3354 50.8241 18.3351C51.3299 18.293 51.8012 18.0616 52.144 17.6872C52.4867 17.3128 52.6756 16.8229 52.673 16.3153V14.0814C52.6755 13.5732 52.486 13.0828 52.1425 12.7083C51.799 12.3338 51.3268 12.1028 50.8203 12.0615ZM50.7918 16.3153C50.792 16.3525 50.7779 16.3883 50.7524 16.4155C50.727 16.4426 50.6921 16.459 50.655 16.4613C50.2352 16.4961 49.8369 16.6618 49.5164 16.935C49.1958 17.2083 48.9692 17.5753 48.8684 17.9843C48.5893 19.1492 48.1287 20.2629 47.5034 21.2846C47.285 21.6451 47.1854 22.0651 47.2187 22.4852C47.2519 22.9054 47.4165 23.3044 47.689 23.626C47.7129 23.6538 47.7253 23.6897 47.7238 23.7264C47.7222 23.763 47.7069 23.7978 47.6807 23.8235L46.0999 25.4043C46.0737 25.4298 46.039 25.4446 46.0025 25.446C45.9661 25.4473 45.9304 25.4351 45.9024 25.4117C45.5807 25.1397 45.1819 24.9755 44.762 24.9422C44.3421 24.9089 43.9224 25.0082 43.5619 25.2261C42.5403 25.8512 41.427 26.3121 40.2625 26.592C39.8526 26.6924 39.4848 26.9193 39.2111 27.2404C38.9375 27.5616 38.7718 27.9608 38.7377 28.3813C38.7347 28.418 38.718 28.4521 38.6909 28.4769C38.6638 28.5018 38.6284 28.5155 38.5916 28.5154H36.3577C36.3364 28.5144 36.3155 28.509 36.2963 28.4997C36.2771 28.4904 36.26 28.4772 36.246 28.4611C36.232 28.4449 36.2214 28.4261 36.2149 28.4058C36.2084 28.3855 36.206 28.364 36.208 28.3428C36.1672 27.9297 35.9992 27.5395 35.7272 27.2259C35.4553 26.9124 35.0928 26.6909 34.6897 26.592C33.5245 26.3124 32.4105 25.8515 31.3884 25.2261C31.0275 25.0083 30.6074 24.9092 30.1873 24.9426C29.7671 24.9761 29.368 25.1404 29.0461 25.4126C29.0183 25.4363 28.9826 25.4486 28.9462 25.4471C28.9097 25.4455 28.8752 25.4303 28.8495 25.4043L27.2696 23.8235C27.2435 23.7978 27.2281 23.763 27.2265 23.7264C27.225 23.6897 27.2374 23.6538 27.2613 23.626C27.5339 23.3043 27.6984 22.905 27.7315 22.4846C27.7646 22.0643 27.6648 21.6441 27.446 21.2837C26.8212 20.2624 26.3606 19.1493 26.081 17.9852C25.9808 17.5753 25.754 17.2075 25.4328 16.9339C25.1115 16.6603 24.7123 16.495 24.2917 16.4613C24.2552 16.4582 24.2211 16.4415 24.1964 16.4144C24.1717 16.3873 24.1582 16.3519 24.1585 16.3153V14.0814C24.1584 14.0441 24.1725 14.0083 24.1979 13.9811C24.2233 13.954 24.2582 13.9376 24.2954 13.9353C24.715 13.9008 25.1131 13.7352 25.4335 13.4621C25.7539 13.189 25.9804 12.8221 26.081 12.4133C26.3606 11.2483 26.8211 10.1343 27.446 9.11202C27.6647 8.75172 27.7646 8.33174 27.7315 7.91154C27.6983 7.49134 27.5339 7.0922 27.2613 6.77064C27.2374 6.74279 27.225 6.70691 27.2265 6.67025C27.2281 6.63358 27.2435 6.59887 27.2696 6.57311L28.8496 4.99232C28.8751 4.96629 28.9096 4.95087 28.9461 4.94917C28.9825 4.94747 29.0183 4.9596 29.0462 4.98313C29.3676 5.25614 29.7668 5.42106 30.1872 5.45453C30.6076 5.488 31.0279 5.38831 31.3884 5.16959C32.4108 4.54473 33.5247 4.08385 34.6897 3.80372C35.0928 3.70476 35.4553 3.48325 35.7272 3.1697C35.9991 2.85614 36.1671 2.46598 36.2081 2.05296C36.206 2.03174 36.2084 2.01033 36.2149 1.99004C36.2214 1.96974 36.232 1.95099 36.246 1.93492C36.26 1.91885 36.2772 1.9058 36.2964 1.89656C36.3156 1.88733 36.3365 1.8821 36.3578 1.88119H38.5917C38.629 1.8811 38.665 1.89534 38.6922 1.92098C38.7193 1.94661 38.7357 1.98169 38.7377 2.01898C38.7727 2.43858 38.9385 2.83661 39.2118 3.15697C39.485 3.47732 39.8519 3.70386 40.2607 3.80463C41.4253 4.08396 42.539 4.54423 43.561 5.16868C43.9212 5.38764 44.3413 5.48764 44.7615 5.4545C45.1818 5.42137 45.5809 5.25677 45.9024 4.98405C45.9303 4.96036 45.9662 4.94806 46.0028 4.94959C46.0394 4.95112 46.0741 4.96638 46.0999 4.99232L47.6807 6.57313C47.7068 6.5987 47.7222 6.63317 47.7239 6.66962C47.7256 6.70608 47.7135 6.74183 47.6899 6.76972C47.417 7.09098 47.252 7.49004 47.2186 7.91029C47.1851 8.33054 47.2848 8.75066 47.5035 9.11109C48.1288 10.1339 48.5897 11.2485 48.8693 12.4142C48.9705 12.8233 49.1977 13.1903 49.5188 13.4632C49.8399 13.7362 50.2386 13.9013 50.6587 13.9353C50.6952 13.9384 50.7292 13.9551 50.7539 13.9822C50.7786 14.0093 50.7921 14.0447 50.7918 14.0814V16.3153Z" fill="#CCFF00"/>
<path d="M37.4745 6.29028C35.7127 6.29028 33.9904 6.81272 32.5254 7.79155C31.0605 8.77038 29.9187 10.1616 29.2445 11.7894C28.5703 13.4171 28.3939 15.2082 28.7376 16.9362C29.0813 18.6642 29.9297 20.2515 31.1755 21.4973C32.4213 22.7431 34.0086 23.5916 35.7366 23.9353C37.4646 24.279 39.2557 24.1026 40.8835 23.4284C42.5112 22.7541 43.9025 21.6124 44.8813 20.1474C45.8601 18.6825 46.3826 16.9602 46.3826 15.1984C46.3797 12.8367 45.4403 10.5725 43.7703 8.90252C42.1004 7.23255 39.8362 6.29311 37.4745 6.29028ZM37.4745 22.2252C36.0847 22.2253 34.7261 21.8131 33.5706 21.041C32.415 20.2689 31.5143 19.1714 30.9825 17.8874C30.4506 16.6035 30.3115 15.1906 30.5826 13.8275C30.8537 12.4644 31.523 11.2123 32.5057 10.2296C33.4884 9.24687 34.7405 8.57762 36.1036 8.30648C37.4667 8.03534 38.8796 8.1745 40.1636 8.70635C41.4476 9.23819 42.545 10.1388 43.3171 11.2944C44.0893 12.45 44.5014 13.8086 44.5014 15.1984C44.4992 17.0613 43.7582 18.8474 42.4409 20.1647C41.1235 21.482 39.3375 22.2231 37.4745 22.2252Z" fill="#CCFF00"/>
<path d="M9.68625 25.8615C9.59894 25.7741 9.49527 25.7048 9.38116 25.6576C9.26705 25.6103 9.14474 25.5859 9.02123 25.5859C8.89771 25.5859 8.7754 25.6103 8.6613 25.6576C8.54719 25.7048 8.44352 25.7741 8.3562 25.8615L5.17987 29.0379C5.0925 29.1252 5.0232 29.2289 4.97592 29.343C4.92863 29.4571 4.9043 29.5794 4.9043 29.7029C4.9043 29.8264 4.92863 29.9487 4.97592 30.0628C5.0232 30.177 5.0925 30.2806 5.17987 30.3679L8.3562 33.5443C8.44353 33.6317 8.54721 33.7009 8.66132 33.7482C8.77543 33.7955 8.89772 33.8198 9.02123 33.8198C9.14474 33.8198 9.26704 33.7955 9.38114 33.7482C9.49525 33.7009 9.59893 33.6317 9.68626 33.5443C9.77359 33.457 9.84287 33.3533 9.89013 33.2392C9.9374 33.1251 9.96172 33.0028 9.96172 32.8793C9.96172 32.7558 9.93739 32.6335 9.89013 32.5194C9.84286 32.4053 9.77359 32.3016 9.68625 32.2143L7.17495 29.7029L9.68625 27.1916C9.77362 27.1042 9.84292 27.0006 9.8902 26.8865C9.93749 26.7724 9.96182 26.6501 9.96182 26.5265C9.96182 26.403 9.93749 26.2807 9.8902 26.1666C9.84292 26.0525 9.77362 25.9488 9.68625 25.8615Z" fill="#CCFF00"/>
<path d="M19.4728 32.2142C19.2964 32.3905 19.1973 32.6297 19.1973 32.8792C19.1973 33.1286 19.2964 33.3678 19.4728 33.5442C19.6491 33.7206 19.8883 33.8197 20.1378 33.8197C20.3872 33.8197 20.6264 33.7206 20.8028 33.5442L23.9792 30.3678C24.0665 30.2805 24.1358 30.1768 24.1831 30.0627C24.2304 29.9486 24.2547 29.8263 24.2547 29.7028C24.2547 29.5793 24.2304 29.457 24.1831 29.3429C24.1358 29.2288 24.0665 29.1251 23.9792 29.0378L20.8028 25.8614C20.7155 25.7741 20.6118 25.7048 20.4977 25.6575C20.3836 25.6103 20.2613 25.5859 20.1378 25.5859C20.0142 25.5859 19.892 25.6103 19.7778 25.6575C19.6637 25.7048 19.5601 25.7741 19.4727 25.8614C19.3854 25.9487 19.3161 26.0524 19.2689 26.1665C19.2216 26.2806 19.1973 26.4029 19.1973 26.5264C19.1973 26.6499 19.2216 26.7722 19.2689 26.8863C19.3161 27.0004 19.3854 27.1041 19.4727 27.1915L21.984 29.7028L19.4728 32.2142Z" fill="#CCFF00"/>
<path d="M14.461 26.2988L12.8737 32.6515C12.8438 32.7713 12.8378 32.8958 12.856 33.0179C12.8742 33.14 12.9162 33.2574 12.9798 33.3632C13.0433 33.4691 13.1271 33.5614 13.2263 33.6348C13.3255 33.7083 13.4383 33.7615 13.558 33.7914C13.6778 33.8214 13.8023 33.8274 13.9244 33.8092C14.0465 33.791 14.1639 33.7489 14.2697 33.6854C14.3756 33.6218 14.4679 33.538 14.5414 33.4388C14.6148 33.3396 14.668 33.2269 14.698 33.1071L16.2852 26.7545C16.3404 26.5144 16.2992 26.2623 16.1704 26.0523C16.0417 25.8423 15.8357 25.6912 15.5967 25.6315C15.3577 25.5719 15.1048 25.6083 14.8925 25.7331C14.6801 25.8579 14.5251 26.061 14.461 26.2988Z" fill="#CCFF00"/>
</svg>
