<svg width="20" height="20" viewBox="0 0 20 20" fill="none" xmlns="http://www.w3.org/2000/svg">
<mask id="mask0_1_12452" style="mask-type:alpha" maskUnits="userSpaceOnUse" x="0" y="0" width="20" height="20">
<rect width="20" height="20" fill="#D9D9D9"/>
</mask>
<g mask="url(#mask0_1_12452)">
<path d="M4.8724 14.2498C5.58073 13.7082 6.3724 13.2811 7.2474 12.9686C8.1224 12.6561 9.03906 12.4998 9.9974 12.4998C10.9557 12.4998 11.8724 12.6561 12.7474 12.9686C13.6224 13.2811 14.4141 13.7082 15.1224 14.2498C15.6085 13.6804 15.987 13.0346 16.2578 12.3123C16.5286 11.5901 16.6641 10.8193 16.6641 9.99984C16.6641 8.15262 16.0148 6.5797 14.7161 5.28109C13.4175 3.98248 11.8446 3.33317 9.9974 3.33317C8.15017 3.33317 6.57726 3.98248 5.27865 5.28109C3.98003 6.5797 3.33073 8.15262 3.33073 9.99984C3.33073 10.8193 3.46615 11.5901 3.73698 12.3123C4.00781 13.0346 4.38628 13.6804 4.8724 14.2498ZM9.9974 10.8332C9.17795 10.8332 8.48698 10.5519 7.92448 9.98942C7.36198 9.42692 7.08073 8.73595 7.08073 7.9165C7.08073 7.09706 7.36198 6.40609 7.92448 5.84359C8.48698 5.28109 9.17795 4.99984 9.9974 4.99984C10.8168 4.99984 11.5078 5.28109 12.0703 5.84359C12.6328 6.40609 12.9141 7.09706 12.9141 7.9165C12.9141 8.73595 12.6328 9.42692 12.0703 9.98942C11.5078 10.5519 10.8168 10.8332 9.9974 10.8332ZM9.9974 18.3332C8.84462 18.3332 7.76128 18.1144 6.7474 17.6769C5.73351 17.2394 4.85156 16.6457 4.10156 15.8957C3.35156 15.1457 2.75781 14.2637 2.32031 13.2498C1.88281 12.2359 1.66406 11.1526 1.66406 9.99984C1.66406 8.84706 1.88281 7.76373 2.32031 6.74984C2.75781 5.73595 3.35156 4.854 4.10156 4.104C4.85156 3.354 5.73351 2.76025 6.7474 2.32275C7.76128 1.88525 8.84462 1.6665 9.9974 1.6665C11.1502 1.6665 12.2335 1.88525 13.2474 2.32275C14.2613 2.76025 15.1432 3.354 15.8932 4.104C16.6432 4.854 17.237 5.73595 17.6745 6.74984C18.112 7.76373 18.3307 8.84706 18.3307 9.99984C18.3307 11.1526 18.112 12.2359 17.6745 13.2498C17.237 14.2637 16.6432 15.1457 15.8932 15.8957C15.1432 16.6457 14.2613 17.2394 13.2474 17.6769C12.2335 18.1144 11.1502 18.3332 9.9974 18.3332ZM9.9974 16.6665C10.7335 16.6665 11.428 16.5589 12.0807 16.3436C12.7335 16.1283 13.3307 15.8193 13.8724 15.4165C13.3307 15.0137 12.7335 14.7047 12.0807 14.4894C11.428 14.2741 10.7335 14.1665 9.9974 14.1665C9.26128 14.1665 8.56684 14.2741 7.91406 14.4894C7.26128 14.7047 6.66406 15.0137 6.1224 15.4165C6.66406 15.8193 7.26128 16.1283 7.91406 16.3436C8.56684 16.5589 9.26128 16.6665 9.9974 16.6665ZM9.9974 9.1665C10.3585 9.1665 10.6571 9.04845 10.8932 8.81234C11.1293 8.57623 11.2474 8.27762 11.2474 7.9165C11.2474 7.55539 11.1293 7.25678 10.8932 7.02067C10.6571 6.78456 10.3585 6.6665 9.9974 6.6665C9.63628 6.6665 9.33767 6.78456 9.10156 7.02067C8.86545 7.25678 8.7474 7.55539 8.7474 7.9165C8.7474 8.27762 8.86545 8.57623 9.10156 8.81234C9.33767 9.04845 9.63628 9.1665 9.9974 9.1665Z" fill="#CCFF00"/>
</g>
</svg>
