<svg width="25" height="25" viewBox="0 0 25 25" fill="none" xmlns="http://www.w3.org/2000/svg">
<g clip-path="url(#clip0_1_12477)">
<path d="M24.2867 3.41785C23.919 3.04945 23.3222 3.04881 22.9545 3.41629L11.6511 14.6898L7.57286 10.2605C7.22047 9.87796 6.62467 9.85316 6.24152 10.2055C5.85865 10.5579 5.83414 11.154 6.18654 11.5368L10.929 16.6873C11.1027 16.8761 11.3458 16.9857 11.6021 16.991C11.6089 16.9913 11.6156 16.9913 11.6222 16.9913C11.8713 16.9913 12.1109 16.8924 12.2874 16.7165L24.2849 4.75042C24.6536 4.38299 24.6542 3.78626 24.2867 3.41785Z" fill="#CCDEFF"/>
<path d="M24.0578 11.5578C23.5374 11.5578 23.1156 11.9795 23.1156 12.5C23.1156 18.3537 18.3537 23.1156 12.5 23.1156C6.64668 23.1156 1.88442 18.3537 1.88442 12.5C1.88442 6.64668 6.64668 1.88442 12.5 1.88442C13.0204 1.88442 13.4422 1.46265 13.4422 0.942236C13.4422 0.421777 13.0204 0 12.5 0C5.60742 0 0 5.60742 0 12.5C0 19.3923 5.60742 25 12.5 25C19.3923 25 25 19.3923 25 12.5C25 11.9796 24.5782 11.5578 24.0578 11.5578Z" fill="#CCDEFF"/>
</g>
<defs>
<clipPath id="clip0_1_12477">
<rect width="25" height="25" fill="white"/>
</clipPath>
</defs>
</svg>
