<svg width="28" height="17" viewBox="0 0 28 17" fill="none" xmlns="http://www.w3.org/2000/svg">
<path d="M27.1848 8.51019C27.1848 12.4773 23.8872 15.7137 19.7941 15.7137C15.7009 15.7137 12.4033 12.4773 12.4033 8.51019C12.4033 4.54303 15.7009 1.30664 19.7941 1.30664C23.8872 1.30664 27.1848 4.54303 27.1848 8.51019Z" stroke="#CCFF00"/>
<path d="M21.0259 8.57914C21.2211 8.38388 21.2211 8.06729 21.0259 7.87203L17.8439 4.69005C17.6486 4.49479 17.3321 4.49479 17.1368 4.69005C16.9415 4.88531 16.9415 5.2019 17.1368 5.39716L19.9652 8.22558L17.1368 11.054C16.9415 11.2493 16.9415 11.5659 17.1368 11.7611C17.3321 11.9564 17.6486 11.9564 17.8439 11.7611L21.0259 8.57914ZM0.214844 8.72559L20.6723 8.72558L20.6723 7.72558L0.214844 7.72559L0.214844 8.72559Z" fill="#CCFF00"/>
</svg>
