<svg width="24" height="24" viewBox="0 0 24 24" fill="none" xmlns="http://www.w3.org/2000/svg">
<path d="M17 3.25H7C5.74071 3.25159 4.53345 3.75254 3.643 4.643C2.75254 5.53345 2.25159 6.74071 2.25 8V21C2.25013 21.1482 2.29419 21.2931 2.37661 21.4163C2.45903 21.5395 2.57611 21.6356 2.71308 21.6923C2.85004 21.749 3.00074 21.7638 3.14614 21.735C3.29154 21.7061 3.42511 21.6348 3.53 21.53L5.944 19.116C6.06008 18.9996 6.19804 18.9074 6.34993 18.8446C6.50182 18.7818 6.66464 18.7496 6.829 18.75H17C18.2593 18.7484 19.4666 18.2475 20.357 17.357C21.2475 16.4665 21.7484 15.2593 21.75 14V8C21.7484 6.74071 21.2475 5.53345 20.357 4.643C19.4666 3.75254 18.2593 3.25159 17 3.25ZM20.25 14C20.2489 14.8616 19.9062 15.6877 19.2969 16.2969C18.6877 16.9062 17.8616 17.2489 17 17.25H6.829C6.46759 17.2489 6.10956 17.3196 5.77568 17.458C5.44179 17.5963 5.13871 17.7996 4.884 18.056L3.75 19.189V8C3.75106 7.13837 4.09381 6.31234 4.70307 5.70307C5.31234 5.09381 6.13837 4.75106 7 4.75H17C17.8616 4.75106 18.6877 5.09381 19.2969 5.70307C19.9062 6.31234 20.2489 7.13837 20.25 8V14Z" fill="#FF4A3B"/>
</svg>
