<svg width="13" height="15" viewBox="0 0 13 15" fill="none" xmlns="http://www.w3.org/2000/svg">
<path d="M1 13.0469H3.25V10.7969H1V13.0469ZM3.75 13.0469H6.25V10.7969H3.75V13.0469ZM1 10.2969H3.25V7.79687H1V10.2969ZM3.75 10.2969H6.25V7.79687H3.75V10.2969ZM1 7.29687H3.25V5.04688H1V7.29687ZM6.75 13.0469H9.25V10.7969H6.75V13.0469ZM3.75 7.29687H6.25V5.04688H3.75V7.29687ZM9.75 13.0469H12V10.7969H9.75V13.0469ZM6.75 10.2969H9.25V7.79687H6.75V10.2969ZM4 3.54687V1.29687C4 1.22917 3.97396 1.17187 3.92188 1.125C3.875 1.07292 3.81771 1.04687 3.75 1.04687H3.25C3.18229 1.04687 3.1224 1.07292 3.07031 1.125C3.02344 1.17187 3 1.22917 3 1.29687V3.54687C3 3.61458 3.02344 3.67448 3.07031 3.72656C3.1224 3.77344 3.18229 3.79687 3.25 3.79687H3.75C3.81771 3.79687 3.875 3.77344 3.92188 3.72656C3.97396 3.67448 4 3.61458 4 3.54687ZM9.75 10.2969H12V7.79687H9.75V10.2969ZM6.75 7.29687H9.25V5.04688H6.75V7.29687ZM9.75 7.29687H12V5.04688H9.75V7.29687ZM10 3.54687V1.29687C10 1.22917 9.97396 1.17187 9.92188 1.125C9.875 1.07292 9.81771 1.04687 9.75 1.04687H9.25C9.18229 1.04687 9.1224 1.07292 9.07031 1.125C9.02344 1.17187 9 1.22917 9 1.29687V3.54687C9 3.61458 9.02344 3.67448 9.07031 3.72656C9.1224 3.77344 9.18229 3.79687 9.25 3.79687H9.75C9.81771 3.79687 9.875 3.77344 9.92188 3.72656C9.97396 3.67448 10 3.61458 10 3.54687ZM13 3.04687V13.0469C13 13.3177 12.901 13.5521 12.7031 13.75C12.5052 13.9479 12.2708 14.0469 12 14.0469H1C0.729167 14.0469 0.494792 13.9479 0.296875 13.75C0.0989583 13.5521 0 13.3177 0 13.0469V3.04687C0 2.77604 0.0989583 2.54167 0.296875 2.34375C0.494792 2.14583 0.729167 2.04687 1 2.04687H2V1.29687C2 0.953124 2.1224 0.658853 2.36719 0.414062C2.61198 0.16927 2.90625 0.046874 3.25 0.046874H3.75C4.09375 0.046874 4.38802 0.16927 4.63281 0.414062C4.8776 0.658853 5 0.953124 5 1.29687V2.04687H8V1.29687C8 0.953124 8.1224 0.658853 8.36719 0.414062C8.61198 0.16927 8.90625 0.046874 9.25 0.046874H9.75C10.0938 0.046874 10.388 0.16927 10.6328 0.414062C10.8776 0.658853 11 0.953124 11 1.29687V2.04687H12C12.2708 2.04687 12.5052 2.14583 12.7031 2.34375C12.901 2.54167 13 2.77604 13 3.04687Z" fill="#CCFF00"/>
</svg>
