<svg width="16" height="16" viewBox="0 0 16 16" fill="none" xmlns="http://www.w3.org/2000/svg">
<path d="M12.9109 1.23203H12.3141V0.62814C12.3141 0.283106 12.0344 0.00341797 11.6894 0.00341797C11.3444 0.00341797 11.0647 0.283106 11.0647 0.62814V1.23203H4.9353V0.62814C4.9353 0.283106 4.65561 0.00341797 4.31058 0.00341797C3.96555 0.00341797 3.68586 0.283106 3.68586 0.62814V1.23203H3.08909C1.38576 1.23203 0 2.61779 0 4.32109V12.9072C0 14.6105 1.38576 15.9963 3.08909 15.9963H12.9109C14.6142 15.9963 16 14.6105 16 12.9072V4.32109C16 2.61779 14.6142 1.23203 12.9109 1.23203ZM3.08909 2.48147H3.68586V3.69968C3.68586 4.04471 3.96555 4.3244 4.31058 4.3244C4.65561 4.3244 4.9353 4.04471 4.9353 3.69968V2.48147H11.0647V3.69968C11.0647 4.04471 11.3444 4.3244 11.6894 4.3244C12.0345 4.3244 12.3141 4.04471 12.3141 3.69968V2.48147H12.9109C13.9253 2.48147 14.7506 3.30673 14.7506 4.32109V4.91789H1.24944V4.32109C1.24944 3.30673 2.0747 2.48147 3.08909 2.48147ZM12.9109 14.7469H3.08909C2.0747 14.7469 1.24944 13.9216 1.24944 12.9072V6.16733H14.7506V12.9072C14.7506 13.9216 13.9253 14.7469 12.9109 14.7469ZM5.54962 8.62458C5.54962 8.96961 5.26993 9.2493 4.9249 9.2493H3.69629C3.35126 9.2493 3.07157 8.96961 3.07157 8.62458C3.07157 8.27954 3.35126 7.99986 3.69629 7.99986H4.9249C5.2699 7.99986 5.54962 8.27954 5.54962 8.62458ZM12.9285 8.62458C12.9285 8.96961 12.6488 9.2493 12.3037 9.2493H11.0751C10.7301 9.2493 10.4504 8.96961 10.4504 8.62458C10.4504 8.27954 10.7301 7.99986 11.0751 7.99986H12.3037C12.6487 7.99986 12.9285 8.27954 12.9285 8.62458ZM9.23548 8.62458C9.23548 8.96961 8.95579 9.2493 8.61076 9.2493H7.38215C7.03712 9.2493 6.75743 8.96961 6.75743 8.62458C6.75743 8.27954 7.03712 7.99986 7.38215 7.99986H8.61076C8.95576 7.99986 9.23548 8.27954 9.23548 8.62458ZM5.54962 12.3104C5.54962 12.6555 5.26993 12.9352 4.9249 12.9352H3.69629C3.35126 12.9352 3.07157 12.6555 3.07157 12.3104C3.07157 11.9654 3.35126 11.6857 3.69629 11.6857H4.9249C5.2699 11.6857 5.54962 11.9654 5.54962 12.3104ZM12.9285 12.3104C12.9285 12.6555 12.6488 12.9352 12.3037 12.9352H11.0751C10.7301 12.9352 10.4504 12.6555 10.4504 12.3104C10.4504 11.9654 10.7301 11.6857 11.0751 11.6857H12.3037C12.6487 11.6857 12.9285 11.9654 12.9285 12.3104ZM9.23548 12.3104C9.23548 12.6555 8.95579 12.9352 8.61076 12.9352H7.38215C7.03712 12.9352 6.75743 12.6555 6.75743 12.3104C6.75743 11.9654 7.03712 11.6857 7.38215 11.6857H8.61076C8.95576 11.6857 9.23548 11.9654 9.23548 12.3104Z" fill="#CCFF00"/>
</svg>
