<svg width="20" height="20" viewBox="0 0 20 20" fill="none" xmlns="http://www.w3.org/2000/svg">
<mask id="mask0_1_12456" style="mask-type:alpha" maskUnits="userSpaceOnUse" x="0" y="0" width="20" height="20">
<rect width="20" height="20" fill="#D9D9D9"/>
</mask>
<g mask="url(#mask0_1_12456)">
<path d="M1.66406 18.3332V3.33317C1.66406 2.87484 1.8274 2.48234 2.15406 2.15567C2.48017 1.82956 2.8724 1.6665 3.33073 1.6665H16.6641C17.1224 1.6665 17.5149 1.82956 17.8416 2.15567C18.1677 2.48234 18.3307 2.87484 18.3307 3.33317V13.3332C18.3307 13.7915 18.1677 14.184 17.8416 14.5107C17.5149 14.8368 17.1224 14.9998 16.6641 14.9998H4.9974L1.66406 18.3332ZM3.33073 14.3123L4.3099 13.3332H16.6641V3.33317H3.33073V14.3123Z" fill="#CCFF00"/>
</g>
</svg>
