<svg width="14" height="12" viewBox="0 0 14 12" fill="none" xmlns="http://www.w3.org/2000/svg">
<path d="M12.0599 0.953125L12.0594 5.39025C12.0594 5.60998 11.9721 5.82114 11.8161 5.97653L6.53125 11.2559L6.61236 11.3369C6.98501 11.7092 7.58908 11.7092 7.96173 11.3369L12.7341 6.57043C12.9135 6.39169 13.0142 6.14907 13.0142 5.89645V1.90642C13.0142 1.37973 12.5872 0.953125 12.0599 0.953125Z" fill="#CCFF00"/>
<path d="M10.1507 0H6.15505C5.90216 0 5.65929 0.100573 5.48036 0.279316L0.279488 5.47384C-0.0931625 5.8461 -0.0931625 6.44954 0.279488 6.82228L4.2751 10.8137C4.64775 11.186 5.25181 11.186 5.62446 10.8137L10.8253 5.61921C11.0043 5.43999 11.1049 5.19738 11.1049 4.94428V0.953298C11.1049 0.426601 10.6779 0 10.1507 0ZM8.48065 3.33654C8.08558 3.33654 7.76493 3.01623 7.76493 2.62157C7.76493 2.2269 8.08558 1.9066 8.48065 1.9066C8.87573 1.9066 9.19637 2.2269 9.19637 2.62157C9.19637 3.01623 8.87573 3.33654 8.48065 3.33654Z" fill="#CCFF00"/>
</svg>
