<svg width="40" height="40" viewBox="0 0 40 40" fill="none" xmlns="http://www.w3.org/2000/svg">
<path fill-rule="evenodd" clip-rule="evenodd" d="M4.48369 2.98633C4.94392 2.98633 5.31744 3.35985 5.31744 3.82008C5.31744 4.28031 4.94392 4.65383 4.48369 4.65383H3.7825C3.32394 4.65383 2.94875 5.02902 2.94875 5.48758V17.9938C2.94875 18.4524 3.32394 18.8276 3.7825 18.8276H11.0361C11.4588 18.8276 11.8148 19.1436 11.864 19.5638C12.0391 21.052 12.3843 24.9907 10.3708 29.1928C9.06762 31.9183 7.32341 33.7617 5.92438 34.9406C7.62523 35.014 10.1315 34.7639 12.481 33.1481C12.8604 32.8871 13.3798 32.983 13.6407 33.3624C13.9017 33.7417 13.8059 34.2611 13.4265 34.5221C9.13852 37.4702 4.40533 36.4956 3.60159 36.3163C3.2756 36.2438 3.02381 35.9845 2.96295 35.656C2.90125 35.3275 3.04214 34.994 3.31978 34.8089C4.50787 34.0168 7.12419 32.1167 8.86673 28.4724C10.4192 25.2333 10.415 22.1651 10.2816 20.4951H3.7825C2.40681 20.4951 1.28125 19.3695 1.28125 17.9938V5.48758C1.28125 4.11189 2.40681 2.98633 3.7825 2.98633H4.48369ZM17.06 30.4651C16.8398 30.8694 16.3329 31.0178 15.9286 30.7977C15.525 30.5768 15.3758 30.0699 15.5967 29.6663C17.3318 26.4897 17.1225 23.1647 17.1225 22.9963V5.48758C17.1225 5.02902 16.7473 4.65383 16.2888 4.65383H7.00662C6.54639 4.65383 6.17287 4.28031 6.17287 3.82008C6.17287 3.35985 6.54639 2.98633 7.00662 2.98633H16.2888C17.6644 2.98633 18.79 4.11189 18.79 5.48758V22.9963C18.79 23.1848 19.0043 26.9058 17.06 30.4651Z" fill="#CCFF00"/>
<path d="M15.2551 33.0688C15.7153 33.0688 16.0884 32.6958 16.0884 32.2356C16.0884 31.7754 15.7153 31.4023 15.2551 31.4023C14.7949 31.4023 14.4219 31.7754 14.4219 32.2356C14.4219 32.6958 14.7949 33.0688 15.2551 33.0688Z" fill="#CCFF00"/>
<path fill-rule="evenodd" clip-rule="evenodd" d="M37.9658 6.34385C37.9658 6.80408 37.5923 7.1776 37.132 7.1776C36.6718 7.1776 36.2983 6.80408 36.2983 6.34385V5.48758C36.2983 5.02902 35.9231 4.65383 35.4645 4.65383H22.9583C22.4997 4.65383 22.1245 5.02902 22.1245 5.48758V17.9938C22.1245 18.4524 22.4997 18.8276 22.9583 18.8276H30.2119C30.6346 18.8276 30.9906 19.1436 31.0398 19.5638C31.2149 21.052 31.5601 24.9907 29.5466 29.1928C28.2434 31.9183 26.4992 33.7617 25.1002 34.9406C26.801 35.014 29.3065 34.7639 31.656 33.1489C36.7235 29.6397 36.2983 23.2306 36.2983 22.9963V8.86678C36.2983 8.40655 36.6718 8.03303 37.132 8.03303C37.5923 8.03303 37.9658 8.40655 37.9658 8.86678V22.9963C37.9658 23.2623 38.3743 30.5259 32.6039 34.5204L32.6023 34.5221C28.3143 37.4702 23.5811 36.4956 22.7774 36.3163C22.4514 36.2438 22.1996 35.9845 22.1387 35.656C22.077 35.3275 22.2179 34.994 22.4956 34.8089C23.6836 34.0168 26.3 32.1167 28.0425 28.4724C29.5949 25.2333 29.5907 22.1651 29.4573 20.4951H22.9583C21.5826 20.4951 20.457 19.3695 20.457 17.9938V5.48758C20.457 4.11189 21.5826 2.98633 22.9583 2.98633H35.4645C36.8402 2.98633 37.9658 4.11189 37.9658 5.48758V6.34385Z" fill="#CCFF00"/>
</svg>
