<svg width="45" height="45" viewBox="0 0 45 45" fill="none" xmlns="http://www.w3.org/2000/svg">
<g clip-path="url(#clip0_1_18689)">
<path d="M35.5627 27.8755C34.6414 26.9163 33.5302 26.4034 32.3525 26.4034C31.1843 26.4034 30.0636 26.9068 29.1044 27.866L26.1031 30.8578C25.8562 30.7248 25.6093 30.6013 25.3718 30.4779C25.0299 30.3069 24.707 30.1455 24.4316 29.9745C21.6203 28.189 19.0654 25.8621 16.6151 22.8513C15.4279 21.3507 14.6301 20.0875 14.0507 18.8054C14.8295 18.0931 15.5514 17.3522 16.2542 16.6399C16.5201 16.374 16.786 16.0986 17.052 15.8326C19.0465 13.8381 19.0465 11.2548 17.052 9.26033L14.4591 6.66749C14.1647 6.37307 13.8608 6.06915 13.5759 5.76523C13.006 5.17638 12.4077 4.56853 11.7903 3.99868C10.8691 3.08691 9.76734 2.60254 8.60864 2.60254C7.44993 2.60254 6.32922 3.08691 5.37947 3.99868C5.36997 4.00818 5.36997 4.00818 5.36047 4.01768L2.1313 7.27534C0.915614 8.49103 0.222292 9.97264 0.070331 11.6917C-0.15761 14.465 0.65918 17.0483 1.28602 18.7389C2.82462 22.8893 5.12303 26.7358 8.55165 30.8578C12.7116 35.825 17.7168 39.7475 23.4343 42.5113C25.6188 43.5465 28.5345 44.7717 31.7922 44.9806C31.9916 44.9901 32.2006 44.9996 32.3905 44.9996C34.5845 44.9996 36.427 44.2113 37.8706 42.6442C37.8801 42.6253 37.8991 42.6158 37.9086 42.5968C38.4025 41.9984 38.9723 41.4571 39.5707 40.8777C39.9791 40.4883 40.397 40.0799 40.8054 39.6525C41.7456 38.6743 42.2395 37.5346 42.2395 36.3664C42.2395 35.1887 41.7361 34.0585 40.7769 33.1087L35.5627 27.8755ZM38.9628 37.8765C38.9533 37.8765 38.9533 37.886 38.9628 37.8765C38.5924 38.2754 38.2125 38.6363 37.8041 39.0352C37.1868 39.624 36.56 40.2414 35.9711 40.9347C35.0118 41.9604 33.8816 42.4448 32.4 42.4448C32.2576 42.4448 32.1056 42.4448 31.9631 42.4353C29.1424 42.2548 26.521 41.1531 24.555 40.2129C19.1794 37.6105 14.4591 33.916 10.5366 29.2337C7.29797 25.3302 5.13253 21.7211 3.6984 17.8461C2.81513 15.4812 2.49221 13.6387 2.63467 11.9006C2.72965 10.7894 3.15704 9.86817 3.94533 9.07987L7.184 5.84121C7.64938 5.40432 8.14326 5.16688 8.62763 5.16688C9.22598 5.16688 9.71035 5.52779 10.0143 5.83171C10.0238 5.84121 10.0333 5.8507 10.0428 5.8602C10.6221 6.40156 11.173 6.96192 11.7523 7.56027C12.0468 7.86419 12.3507 8.16811 12.6546 8.48153L15.2474 11.0744C16.2542 12.0811 16.2542 13.0119 15.2474 14.0186C14.972 14.294 14.7061 14.5695 14.4306 14.8354C13.6328 15.6522 12.873 16.412 12.0468 17.1528C12.0278 17.1718 12.0088 17.1813 11.9993 17.2003C11.1825 18.0171 11.3344 18.8149 11.5054 19.3562C11.5149 19.3847 11.5244 19.4132 11.5339 19.4417C12.2082 21.0753 13.158 22.6139 14.6016 24.4469L14.6111 24.4564C17.2324 27.6856 19.9962 30.2024 23.0449 32.1304C23.4343 32.3774 23.8332 32.5768 24.2131 32.7668C24.555 32.9377 24.878 33.0992 25.1534 33.2702C25.1914 33.2892 25.2294 33.3176 25.2674 33.3366C25.5903 33.4981 25.8942 33.5741 26.2076 33.5741C26.9959 33.5741 27.4898 33.0802 27.6512 32.9187L30.8994 29.6706C31.2223 29.3477 31.7352 28.9583 32.3335 28.9583C32.9224 28.9583 33.4068 29.3287 33.7012 29.6516C33.7107 29.6611 33.7107 29.6611 33.7202 29.6706L38.9533 34.9037C39.9316 35.8725 39.9316 36.8697 38.9628 37.8765Z" fill="#CCDEFF"/>
<path d="M24.3171 10.7046C26.8055 11.1225 29.0659 12.3002 30.8704 14.1048C32.675 15.9093 33.8432 18.1697 34.2705 20.6581C34.375 21.2849 34.9164 21.7218 35.5337 21.7218C35.6097 21.7218 35.6762 21.7123 35.7522 21.7028C36.455 21.5888 36.9204 20.924 36.8064 20.2212C36.2935 17.2105 34.8689 14.4657 32.694 12.2907C30.519 10.1158 27.7742 8.69117 24.7635 8.1783C24.0607 8.06433 23.4053 8.52971 23.2819 9.22303C23.1584 9.91635 23.6143 10.5907 24.3171 10.7046Z" fill="#CCDEFF"/>
<path d="M44.9452 19.8504C44.0999 14.8927 41.7635 10.3814 38.1734 6.79131C34.5833 3.20123 30.072 0.86483 25.1143 0.0195474C24.421 -0.103921 23.7656 0.370957 23.6422 1.06428C23.5282 1.7671 23.9936 2.42243 24.6964 2.5459C29.1222 3.2962 33.1587 5.39516 36.3689 8.59584C39.5791 11.806 41.6685 15.8425 42.4188 20.2683C42.5233 20.8952 43.0647 21.3321 43.682 21.3321C43.758 21.3321 43.8245 21.3226 43.9004 21.3131C44.5938 21.2086 45.0686 20.5438 44.9452 19.8504Z" fill="#CCDEFF"/>
</g>
<defs>
<clipPath id="clip0_1_18689">
<rect width="45" height="45" fill="white"/>
</clipPath>
</defs>
</svg>
