<svg width="45" height="45" viewBox="0 0 45 45" fill="none" xmlns="http://www.w3.org/2000/svg">
<g clip-path="url(#clip0_1_18698)">
<path d="M23.4294 25.4925C21.7483 25.4847 20.078 25.2213 18.4761 24.7114C15.9164 23.855 14.0153 21.6881 13.4992 19.0388C12.9345 16.319 13.9636 13.4431 16.322 11.1488C16.575 10.9024 16.838 10.6663 17.1108 10.4406C19.5256 8.41901 22.7811 7.71646 25.8146 8.5623C28.7514 9.49966 30.7807 12.1836 30.8822 15.2647C30.9921 17.0382 30.4141 18.7859 29.2683 20.1441C28.3845 21.2573 26.9527 21.7831 25.5585 21.5064C24.9884 21.3881 24.4909 21.0428 24.1807 20.55C23.9024 20.0713 23.831 19.4999 23.983 18.9675C24.6389 16.4883 25.3057 12.7207 25.3123 12.6825C25.3589 12.4186 25.5427 12.1995 25.7946 12.1079C26.0465 12.0163 26.3281 12.066 26.5334 12.2383C26.7386 12.4106 26.8364 12.6793 26.7898 12.9433C26.762 13.1 26.1054 16.8112 25.4334 19.3509C25.3854 19.4916 25.3974 19.6459 25.4667 19.7775C25.5704 19.921 25.7268 20.0174 25.9017 20.0456C26.7551 20.188 27.6172 19.8456 28.1403 19.1564C29.0301 18.0919 29.476 16.7257 29.3853 15.3413C29.312 12.8887 27.7037 10.7476 25.3688 9.99375C22.8201 9.29273 20.0896 9.89161 18.0682 11.595C17.8272 11.795 17.5929 12.0044 17.368 12.2234C16.2021 13.3576 14.3402 15.7109 14.9676 18.7334C15.3891 20.845 16.8972 22.5756 18.9314 23.2818C22.4489 24.4039 27.5033 24.539 30.1664 21.2277C30.428 20.9126 30.8941 20.8657 31.2133 21.1223C31.5325 21.3789 31.5868 21.8441 31.3353 22.1674C29.3661 24.6164 26.3694 25.4925 23.4294 25.4925Z" fill="#CCDEFF"/>
<path d="M20.8605 21.6045C20.0678 21.6181 19.2945 21.3581 18.671 20.8684C17.2314 19.7163 17.1918 17.7149 17.5954 16.3519C17.7313 15.898 17.9138 15.4594 18.14 15.043C18.7027 13.9076 19.6025 12.9738 20.7163 12.3694C22.1033 11.6497 23.798 11.9226 24.8889 13.0414C25.4301 13.6345 25.8378 14.3368 26.0844 15.1009C26.215 15.4887 26.0107 15.9096 25.6252 16.0469C25.2398 16.1841 24.8154 15.9871 24.6715 15.6041C24.4937 15.0396 24.1981 14.5192 23.8044 14.0773C23.1683 13.4269 22.1773 13.2789 21.379 13.7152C20.5437 14.1862 19.8725 14.9014 19.4553 15.7648C19.2799 16.0883 19.1383 16.429 19.0326 16.7815C18.7412 17.7673 18.8052 19.054 19.6095 19.698C20.4887 20.404 21.972 20.1055 22.8065 19.3856C23.4284 18.8257 23.9628 18.1756 24.3918 17.4571C24.5307 17.2244 24.7844 17.0847 25.0554 17.0917C25.3263 17.0988 25.5724 17.2516 25.699 17.4913C25.8256 17.731 25.813 18.0203 25.666 18.2481C25.1579 19.0947 24.5253 19.8601 23.7895 20.5186C22.9694 21.2105 21.9335 21.5946 20.8605 21.6045Z" fill="#CCDEFF"/>
<path d="M42.75 45.0005H2.25C1.00792 44.9991 0.00136403 43.9926 0 42.7505V15.0005C1.179e-05 14.7096 0.168163 14.445 0.431462 14.3215C0.694762 14.198 1.00574 14.2378 1.2294 14.4237L19.6322 29.7181C21.2974 31.0933 23.7043 31.0928 25.3689 29.7171L43.77 14.4237C43.9936 14.2374 44.3049 14.1974 44.5684 14.321C44.8319 14.4445 45.0002 14.7094 45 15.0005V42.7505C44.9986 43.9926 43.9921 44.9991 42.75 45.0005ZM1.5 16.599V42.7505C1.50054 43.1645 1.83601 43.4999 2.25 43.5005H42.75C43.1641 43.5001 43.4996 43.1645 43.5 42.7505V16.599L26.3266 30.8715C24.1061 32.7065 20.8956 32.707 18.6746 30.8726L1.5 16.599Z" fill="#CCDEFF"/>
<path d="M0.750734 15.7503C0.424057 15.7506 0.134763 15.5394 0.0355086 15.2282C-0.0637457 14.9169 0.0498726 14.5772 0.316409 14.3884L7.06641 9.60337C7.40436 9.36914 7.86788 9.45069 8.1056 9.78619C8.34331 10.1217 8.26657 10.586 7.93356 10.8272L1.18356 15.6122C1.05717 15.7022 0.905862 15.7504 0.750734 15.7503Z" fill="#CCDEFF"/>
<path d="M44.2508 15.7503C44.0956 15.7504 43.9443 15.7022 43.8179 15.6122L37.0679 10.8272C36.7349 10.586 36.6582 10.1217 36.8959 9.78619C37.1336 9.45069 37.5971 9.36914 37.9351 9.60337L44.6851 14.3884C44.9516 14.5772 45.0652 14.9169 44.966 15.2282C44.8667 15.5394 44.5774 15.7506 44.2508 15.7503Z" fill="#CCDEFF"/>
<path d="M29.4297 5.25024C29.2744 5.25032 29.123 5.20207 28.9964 5.11217L25.4114 2.56967C23.7472 1.16341 21.3154 1.14876 19.6344 2.53487L16.0044 5.11224C15.7858 5.26728 15.5011 5.2939 15.2575 5.18209C15.014 5.07028 14.8485 4.83701 14.8236 4.57017C14.7986 4.30332 14.9179 4.04343 15.1365 3.88839L18.7215 1.34589C20.9368 -0.465384 24.1254 -0.450977 26.3241 1.38024L29.8641 3.88809C30.1309 4.07693 30.2447 4.41677 30.1454 4.72815C30.046 5.03953 29.7565 5.25074 29.4297 5.25024Z" fill="#CCDEFF"/>
<path d="M1.23897 44.5956C0.9229 44.5959 0.640577 44.398 0.533052 44.1007C0.425527 43.8035 0.515881 43.4708 0.758974 43.2688L17.874 29.0488C18.0796 28.8739 18.3634 28.823 18.617 28.9156C18.8706 29.0082 19.0549 29.2299 19.0995 29.4961C19.1441 29.7624 19.0422 30.0321 18.8327 30.2023L1.7177 44.4223C1.58332 44.5343 1.41392 44.5956 1.23897 44.5956Z" fill="#CCDEFF"/>
<path d="M43.761 44.5955C43.5862 44.5956 43.4169 44.5343 43.2828 44.4223L26.1678 30.2023C25.9582 30.0321 25.8563 29.7624 25.901 29.4961C25.9456 29.2299 26.1299 29.0082 26.3835 28.9156C26.6371 28.823 26.9208 28.8739 27.1265 29.0488L44.241 43.2688C44.4841 43.4708 44.5745 43.8035 44.467 44.1007C44.3594 44.398 44.0771 44.5958 43.761 44.5955Z" fill="#CCDEFF"/>
<path d="M37.5 21.3605C37.0858 21.3605 36.75 21.0247 36.75 20.6105V5.25635C36.7478 5.2721 36.7178 5.25087 36.6675 5.2505H8.3325C8.29935 5.24846 8.26681 5.26012 8.2425 5.28275L8.25 20.6105C8.25 21.0247 7.91421 21.3605 7.5 21.3605C7.08579 21.3605 6.75 21.0247 6.75 20.6105V5.2505C6.7742 4.39992 7.48185 3.72916 8.3325 3.7505H36.6675C37.5181 3.72924 38.2257 4.39995 38.25 5.2505V20.6105C38.25 21.0247 37.9142 21.3605 37.5 21.3605Z" fill="#CCDEFF"/>
</g>
<defs>
<clipPath id="clip0_1_18698">
<rect width="45" height="45" fill="white"/>
</clipPath>
</defs>
</svg>
