<svg width="22" height="24" viewBox="0 0 22 24" fill="none" xmlns="http://www.w3.org/2000/svg">
<path d="M21.0589 11.8037C21.0589 17.9173 16.4932 22.8037 10.9435 22.8037C5.39387 22.8037 0.828125 17.9173 0.828125 11.8037C0.828125 5.69014 5.39387 0.803711 10.9435 0.803711C16.4932 0.803711 21.0589 5.69014 21.0589 11.8037Z" stroke="#4E545F"/>
<path fill-rule="evenodd" clip-rule="evenodd" d="M15.8345 8.79093C16.0638 9.00828 16.0846 9.38693 15.8807 9.63215L10.1395 16.5355C9.93452 16.782 9.58252 16.7977 9.35953 16.5703L6.03733 13.1821C5.83015 12.9708 5.81032 12.6187 5.98807 12.378C6.18421 12.1124 6.54947 12.0758 6.78291 12.3033L9.36049 14.815C9.58449 15.0332 9.92936 15.0137 10.1312 14.7714L15.0694 8.83986C15.2692 8.59983 15.61 8.57808 15.8345 8.79093Z" fill="#CCDEFF"/>
</svg>
