<svg width="65" height="66" viewBox="0 0 65 66" fill="none" xmlns="http://www.w3.org/2000/svg">
<g clip-path="url(#clip0_1_18406)">
<path d="M64.766 51.3186L60.9908 40.3317C62.8106 36.6117 63.7722 32.4746 63.7787 28.3119C63.7899 21.0739 60.9896 14.2302 55.8934 9.04162C50.7962 3.85202 44.004 0.93069 36.7676 0.816051C29.264 0.697477 22.211 3.55164 16.9086 8.85398C11.7956 13.9668 8.95975 20.7071 8.86999 27.9099C3.83071 31.7041 0.856317 37.6195 0.866092 43.9378C0.870789 46.8946 1.53628 49.8337 2.79731 52.4914L0.196921 60.0589C-0.250082 61.3598 0.0764421 62.7722 1.04916 63.745C1.73369 64.4296 2.6362 64.7941 3.56436 64.7941C3.95487 64.7941 4.34995 64.7296 4.73525 64.5972L12.3028 61.9968C14.9606 63.2578 17.8997 63.9233 20.8564 63.928C20.8671 63.928 20.8772 63.928 20.8879 63.928C27.3003 63.9278 33.2608 60.8767 37.0411 55.7139C40.975 55.6103 44.8672 54.658 48.386 52.9366L59.3731 56.712C59.8308 56.8693 60.3003 56.946 60.7643 56.946C61.8673 56.946 62.9398 56.5128 63.7535 55.699C64.9092 54.5431 65.2972 52.8647 64.766 51.3186ZM20.8877 60.059C20.8794 60.059 20.8706 60.059 20.8624 60.059C18.2454 60.0551 15.6465 59.4099 13.3473 58.1934C12.8745 57.9434 12.3194 57.9001 11.8139 58.0738L4.05414 60.7402L6.72055 52.9806C6.89422 52.4749 6.85105 51.9199 6.60096 51.4472C5.38449 49.1479 4.73931 46.5491 4.73525 43.932C4.72878 39.7223 6.36635 35.7323 9.23003 32.7446C10.1654 38.4468 12.8831 43.7014 17.0957 47.8391C21.2771 51.9462 26.5333 54.5611 32.2045 55.416C29.21 58.3676 25.1733 60.059 20.8877 60.059ZM61.0174 52.9632C60.9073 53.0732 60.7768 53.1032 60.63 53.0527L48.868 49.011C48.6638 48.9408 48.4513 48.906 48.2395 48.906C47.9273 48.906 47.6163 48.9815 47.3348 49.1306C43.9765 50.9072 40.1816 51.8494 36.3601 51.8553C36.3475 51.8553 36.3361 51.8553 36.3235 51.8553C23.5186 51.8553 12.9418 41.4535 12.7389 28.6516C12.6367 22.2043 15.0892 16.1449 19.6444 11.5897C24.1996 7.03448 30.26 4.58289 36.7064 4.68445C49.5206 4.8877 59.9295 15.4841 59.9097 28.3058C59.9037 32.1273 58.9616 35.9224 57.1851 39.2804C56.935 39.753 56.8919 40.3081 57.0656 40.8137L61.1071 52.5757C61.1575 52.723 61.1273 52.8534 61.0174 52.9632Z" fill="#CCDEFF"/>
<path d="M47.8474 18.0146H24.7978C23.7294 18.0146 22.8633 18.8809 22.8633 19.9492C22.8633 21.0176 23.7295 21.8837 24.7978 21.8837H47.8474C48.9159 21.8837 49.782 21.0175 49.782 19.9492C49.782 18.8809 48.9159 18.0146 47.8474 18.0146Z" fill="#CCDEFF"/>
<path d="M47.8474 25.9717H24.7978C23.7294 25.9717 22.8633 26.8379 22.8633 27.9062C22.8633 28.9745 23.7295 29.8407 24.7978 29.8407H47.8474C48.9159 29.8407 49.782 28.9745 49.782 27.9062C49.782 26.8379 48.9159 25.9717 47.8474 25.9717Z" fill="#CCDEFF"/>
<path d="M38.9751 33.9277H24.7978C23.7294 33.9277 22.8633 34.7939 22.8633 35.8623C22.8633 36.9307 23.7295 37.7968 24.7978 37.7968H38.9749C40.0434 37.7968 40.9095 36.9306 40.9095 35.8623C40.9095 34.7939 40.0435 33.9277 38.9751 33.9277Z" fill="#CCDEFF"/>
</g>
<defs>
<clipPath id="clip0_1_18406">
<rect width="65" height="65" fill="white" transform="translate(0 0.303711)"/>
</clipPath>
</defs>
</svg>
