<svg width="22" height="23" viewBox="0 0 22 23" fill="none" xmlns="http://www.w3.org/2000/svg">
<path d="M2.51836 19.939C2.20398 19.9371 1.90296 19.8011 1.68065 19.5604C1.45835 19.3197 1.33272 18.9937 1.33105 18.6533V8.07957C1.33273 7.37449 1.59215 6.6988 2.05259 6.20023C2.51304 5.70166 3.13705 5.42076 3.78821 5.41895H15.3756C16.0279 5.41894 16.6535 5.69904 17.1153 6.19781C17.5771 6.69657 17.8374 7.3733 17.8391 8.07957V15.1265C17.8391 15.8327 17.5804 16.5102 17.1198 17.0102C16.6592 17.5103 16.0342 17.7921 15.3819 17.794H5.71839C5.60863 17.7949 5.50196 17.8334 5.41362 17.904L3.23583 19.6846C3.02818 19.8507 2.77656 19.9399 2.51836 19.939ZM3.78821 6.79395C3.47383 6.79575 3.17281 6.93178 2.9505 7.17249C2.7282 7.4132 2.60257 7.73916 2.6009 8.07957V18.4815L4.65171 16.804C4.96029 16.5558 5.33402 16.4209 5.71839 16.419H15.3756C15.6922 16.419 15.9958 16.2828 16.2196 16.0404C16.4435 15.798 16.5693 15.4692 16.5693 15.1265V8.07957C16.5676 7.73916 16.442 7.4132 16.2197 7.17249C15.9973 6.93178 15.6963 6.79575 15.3819 6.79395H3.78821Z" fill="#FF4A3B"/>
<path d="M12.0868 12.3555C12.4373 12.3555 12.7214 12.0477 12.7214 11.668C12.7214 11.2883 12.4373 10.9805 12.0868 10.9805C11.7363 10.9805 11.4521 11.2883 11.4521 11.668C11.4521 12.0477 11.7363 12.3555 12.0868 12.3555Z" fill="#FF4A3B"/>
<path d="M9.6229 12.3555C9.97339 12.3555 10.2575 12.0477 10.2575 11.668C10.2575 11.2883 9.97339 10.9805 9.6229 10.9805C9.27241 10.9805 8.98828 11.2883 8.98828 11.668C8.98828 12.0477 9.27241 12.3555 9.6229 12.3555Z" fill="#FF4A3B"/>
<path d="M7.08286 12.3555C7.43335 12.3555 7.71747 12.0477 7.71747 11.668C7.71747 11.2883 7.43335 10.9805 7.08286 10.9805C6.73237 10.9805 6.44824 11.2883 6.44824 11.668C6.44824 12.0477 6.73237 12.3555 7.08286 12.3555Z" fill="#FF4A3B"/>
<path d="M19.7441 12.9814C19.5757 12.9814 19.4142 12.909 19.2951 12.7801C19.176 12.6511 19.1091 12.4763 19.1091 12.2939V5.32957C19.1075 4.98916 18.9818 4.6632 18.7595 4.42249C18.5372 4.18178 18.2362 4.04575 17.9218 4.04395H5.14078C4.97239 4.04395 4.8109 3.97151 4.69182 3.84258C4.57275 3.71365 4.50586 3.53878 4.50586 3.35645C4.50586 3.17411 4.57275 2.99924 4.69182 2.87031C4.8109 2.74138 4.97239 2.66895 5.14078 2.66895H17.9218C18.573 2.67076 19.197 2.95166 19.6574 3.45023C20.1179 3.9488 20.3773 4.62449 20.379 5.32957V12.2939C20.379 12.4763 20.3121 12.6511 20.193 12.7801C20.0739 12.909 19.9124 12.9814 19.7441 12.9814Z" fill="#FF4A3B"/>
</svg>
