<svg width="60" height="61" viewBox="0 0 60 61" fill="none" xmlns="http://www.w3.org/2000/svg">
<path d="M58.2813 31.8496C57.3995 29.8769 55.6541 28.0042 53.6359 26.7042C53.5086 17.1951 50.6359 9.80418 45.4904 5.86781C40.4177 1.98599 34.145 1.55872 28.6541 1.64054C22.1177 1.74963 16.9541 3.83145 13.3086 7.82236C9.27225 12.2405 7.2177 19.2678 8.02679 25.7678C5.32679 26.9769 2.83588 29.3496 1.7177 31.8405C0.535885 34.4678 0.38134 37.6315 1.28134 40.5224C2.19952 43.486 5.64498 46.8769 9.12679 48.2405C10.2268 48.6769 11.2904 48.886 12.2904 48.886C13.3904 48.886 14.4086 48.6224 15.3177 48.1042C15.5722 47.9587 15.8086 47.786 16.0086 47.586C17.3177 46.3042 17.4268 34.9133 16.8722 30.2769C16.4813 26.9769 15.8359 26.186 15.2541 25.8405C15.2086 25.8133 15.1632 25.7951 15.1177 25.7678C15.1177 25.7496 15.1268 25.7314 15.1177 25.7133C14.5541 21.4496 15.8813 16.8405 18.4995 13.9678C20.8177 11.4314 24.1359 10.1042 28.3813 10.0405C32.0359 9.9769 36.2177 10.2587 39.4722 12.7496C43.4813 15.8224 44.5541 21.386 44.7359 25.5224C44.745 25.6224 44.7722 25.7224 44.8086 25.8042C44.7813 25.8224 44.7541 25.8314 44.7359 25.8405C44.1632 26.186 43.5177 26.9769 43.1177 30.2769C42.5632 34.9133 42.6722 46.3042 43.9813 47.586C44.1813 47.786 44.4086 47.9496 44.6632 48.0951C42.8086 52.1769 39.2541 53.5133 34.8268 51.7587C34.3359 51.5587 33.8541 51.2405 33.345 50.8951C32.5904 50.386 31.8086 49.8678 30.845 49.6496C28.9541 49.2405 26.7086 50.0496 25.4995 51.5769C24.5541 52.7769 24.3904 54.2587 25.0632 55.6405C26.4904 58.586 30.9177 58.9587 34.1904 58.9587C34.8086 58.9587 35.3904 58.9496 35.8995 58.9314L36.2813 58.9224C43.9086 58.7587 50.0995 54.4769 52.845 47.4496C52.8722 47.3678 52.8813 47.286 52.8904 47.2133C55.5995 45.5496 57.9722 42.8951 58.7177 40.5133C59.6177 37.6405 59.4541 34.4769 58.2813 31.8496ZM14.7177 46.386C14.6359 46.4587 14.5359 46.5314 14.4359 46.586C12.845 47.4951 11.0177 47.0951 9.76316 46.6042C6.52679 45.3315 3.63588 42.1587 2.96316 40.0042C2.19043 37.5224 2.32679 34.8042 3.32679 32.5678C4.24498 30.5224 6.73588 27.9587 9.7177 27.0133C10.2995 26.8314 11.0086 26.6769 11.7813 26.6769C12.6086 26.6769 13.4904 26.8496 14.3359 27.3496C15.7813 28.6678 15.6813 44.3405 14.7177 46.386ZM40.545 11.3587C36.8632 8.53145 32.3086 8.22236 28.3541 8.28599C23.6086 8.35872 19.8541 9.8769 17.1995 12.7951C14.4268 15.8405 12.9268 20.5769 13.2813 25.086C12.1722 24.8405 10.9722 24.8769 9.73588 25.186C9.10861 19.286 10.9904 12.9951 14.6177 9.02236C17.9268 5.39509 22.6541 3.51327 28.6904 3.41327C33.8722 3.33145 39.7813 3.72236 44.4177 7.2769C50.2995 11.786 51.645 20.2042 51.845 25.7405C51.4995 25.5951 51.1541 25.4496 50.8086 25.3405C49.2813 24.8587 47.8177 24.8042 46.4813 25.1496C46.2359 20.6678 44.9904 14.7678 40.545 11.3587ZM36.2541 57.186L35.8632 57.1951C33.2632 57.2496 27.8541 57.3769 26.645 54.8951C26.2632 54.1133 26.345 53.3769 26.8813 52.6951C27.6632 51.7042 29.2359 51.1315 30.4632 51.3951C31.0995 51.5315 31.7086 51.9405 32.3541 52.3769C32.9177 52.7587 33.4995 53.1496 34.1722 53.4133C39.4813 55.5224 44.0813 53.7224 46.3086 48.7405C46.7541 48.8405 47.2177 48.9042 47.6995 48.9042C48.5904 48.9042 49.5268 48.7224 50.4995 48.386C47.7722 53.786 42.5632 57.0496 36.2541 57.186ZM57.0359 40.0042C56.3632 42.1678 53.4722 45.3405 50.2359 46.6042C48.9813 47.0951 47.1541 47.4951 45.5631 46.586C45.4632 46.5314 45.3632 46.4587 45.2813 46.386C44.3177 44.3405 44.2268 28.6678 45.645 27.3678C47.3086 26.386 49.0904 26.6314 50.2904 27.0133C53.2722 27.9587 55.7631 30.5224 56.6813 32.5678C57.6722 34.8133 57.8086 37.5224 57.0359 40.0042Z" fill="#FF4A3B"/>
<path d="M8.81675 29.8948C8.17129 30.0766 7.33493 30.5312 6.61675 31.2766C5.90766 32.0221 5.48948 32.8857 5.34402 33.5403C5.18948 34.1948 5.27129 34.6221 5.43493 34.6585C5.78948 34.7312 6.33493 33.3766 7.53493 32.1494C8.69857 30.8948 10.0349 30.2857 9.94402 29.9312C9.88947 29.7675 9.4622 29.713 8.81675 29.8948Z" fill="#FF4A3B"/>
<path d="M54.5285 36.9315C54.3467 36.9769 54.4013 37.5769 54.2558 38.4406C54.1285 39.3042 53.7558 40.4769 52.9104 41.4406C52.0649 42.3951 50.9467 42.9133 50.1013 43.1496C49.2558 43.3951 48.6649 43.4224 48.6376 43.6042C48.6104 43.7587 49.1922 44.0678 50.2376 44.0315C51.2649 44.0042 52.7467 43.5224 53.8467 42.2769C54.9376 41.0315 55.2376 39.4951 55.1376 38.4769C55.0649 37.4224 54.6831 36.8769 54.5285 36.9315Z" fill="#FF4A3B"/>
</svg>
