<svg width="22" height="24" viewBox="0 0 22 24" fill="none" xmlns="http://www.w3.org/2000/svg">
<g clip-path="url(#clip0_1_18420)">
<path d="M11.3639 0.303711C6.97093 0.303711 3.39844 4.17202 3.39844 8.92871C3.39844 14.9073 10.5886 22.7618 10.8939 23.0938C11.024 23.2333 11.1939 23.3037 11.3639 23.3037C11.5338 23.3037 11.7037 23.2333 11.8338 23.0938C12.1392 22.7618 19.3293 14.9073 19.3293 8.92871C19.3293 4.17202 15.7568 0.303711 11.3639 0.303711ZM11.3639 21.5456C9.77874 19.7085 4.72601 13.4956 4.72601 8.92871C4.72601 4.96552 7.70375 1.74121 11.3639 1.74121C15.024 1.74121 18.0017 4.96552 18.0017 8.92871C18.0017 13.4913 12.949 19.7085 11.3639 21.5456Z" fill="#FF4A3B"/>
<path d="M11.3636 4.61621C9.16777 4.61621 7.38086 6.55109 7.38086 8.92871C7.38086 11.3063 9.16777 13.2412 11.3636 13.2412C13.5594 13.2412 15.3463 11.3063 15.3463 8.92871C15.3463 6.55109 13.5594 4.61621 11.3636 4.61621ZM11.3636 11.8037C9.89926 11.8037 8.70843 10.5143 8.70843 8.92871C8.70843 7.34315 9.89926 6.05371 11.3636 6.05371C12.8279 6.05371 14.0187 7.34315 14.0187 8.92871C14.0187 10.5143 12.8279 11.8037 11.3636 11.8037Z" fill="#FF4A3B"/>
</g>
<defs>
<clipPath id="clip0_1_18420">
<rect width="21.2411" height="23" fill="white" transform="translate(0 0.303711)"/>
</clipPath>
</defs>
</svg>
