<svg width="20" height="20" viewBox="0 0 20 20" fill="none" xmlns="http://www.w3.org/2000/svg">
<g clip-path="url(#clip0_1_19831)">
<path d="M5.75373 8.34389C5.56317 8.18069 5.27636 8.20286 5.11316 8.39343C4.96749 8.5635 4.96749 8.81435 5.11316 8.98446L9.65631 13.5277C9.83173 13.7071 10.1194 13.7103 10.2988 13.5349C10.3012 13.5325 10.3036 13.5301 10.306 13.5277L17.884 5.57707L18.5337 4.89558L19.8376 3.53263C20.0297 3.37123 20.0545 3.08465 19.8931 2.89252C19.7317 2.70043 19.4451 2.67556 19.253 2.83696C19.2271 2.85871 19.2038 2.88327 19.1833 2.91021L18.0157 4.12323L17.3842 4.78653L9.96978 12.5599L5.75373 8.34389Z" fill="#1954ED"/>
<path d="M19.161 6.19954H19.1701C18.9849 6.03017 18.6976 6.04298 18.5282 6.22812C18.4232 6.34298 18.3842 6.50364 18.425 6.65388C20.2814 11.3161 18.0068 16.6006 13.3446 18.4569C8.68234 20.3133 3.39788 18.0388 1.54147 13.3765C-0.314941 8.71425 1.95966 3.42983 6.62193 1.57342C10.0486 0.20899 13.9601 1.05134 16.5214 3.70532C16.7157 3.86411 17.0019 3.83533 17.1607 3.64106C17.3036 3.46622 17.2964 3.21299 17.1438 3.04655C17.1251 3.03296 17.1053 3.02078 17.0848 3.0102C13.2244 -0.917906 6.91049 -0.9728 2.98239 2.88761C-0.945718 6.74801 -1.00065 13.0619 2.85975 16.99C6.72016 20.9181 13.034 20.973 16.9621 17.1126C19.8024 14.3213 20.7097 10.1078 19.27 6.39491C19.2505 6.3217 19.213 6.25455 19.161 6.19954Z" fill="#1954ED"/>
</g>
<defs>
<clipPath id="clip0_1_19831">
<rect width="20" height="20" fill="white"/>
</clipPath>
</defs>
</svg>
