<svg width="45" height="45" viewBox="0 0 45 45" fill="none" xmlns="http://www.w3.org/2000/svg">
<path d="M15.4688 28.125C20.517 28.125 24.6094 24.0326 24.6094 18.9844C24.6094 13.9361 20.517 9.84375 15.4688 9.84375C10.4205 9.84375 6.32812 13.9361 6.32812 18.9844C6.32812 24.0326 10.4205 28.125 15.4688 28.125Z" stroke="black" stroke-width="2" stroke-miterlimit="10"/>
<path d="M27.3164 10.1777C28.1244 9.95858 28.9577 9.8463 29.7949 9.84375C32.2192 9.84375 34.5441 10.8068 36.2583 12.521C37.9725 14.2352 38.9355 16.5601 38.9355 18.9844C38.9355 21.4086 37.9725 23.7336 36.2583 25.4478C34.5441 27.162 32.2192 28.125 29.7949 28.125" stroke="black" stroke-width="2" stroke-linecap="round" stroke-linejoin="round"/>
<path d="M2.8125 34.6986C4.23975 32.6676 6.13483 31.0099 8.33767 29.8656C10.5405 28.7212 12.9864 28.1238 15.4688 28.1238C17.9511 28.1238 20.397 28.7212 22.5998 29.8656C24.8027 31.0099 26.6977 32.6676 28.125 34.6986" stroke="black" stroke-width="2" stroke-linecap="round" stroke-linejoin="round"/>
<path d="M29.7949 28.125C32.2775 28.1235 34.7239 28.7201 36.9269 29.8645C39.13 31.0089 41.0249 32.6673 42.4512 34.6992" stroke="black" stroke-width="2" stroke-linecap="round" stroke-linejoin="round"/>
</svg>
