<svg width="9" height="15" viewBox="0 0 9 15" fill="none" xmlns="http://www.w3.org/2000/svg">
<path d="M8.45061 1.60714C8.45061 1.47656 8.39258 1.36049 8.30552 1.27344L7.58008 0.54799C7.49302 0.460938 7.36244 0.4029 7.24637 0.4029C7.1303 0.4029 6.99972 0.460938 6.91267 0.54799L0.151507 7.30915C0.0644532 7.39621 0.00641744 7.52679 0.00641744 7.64286C0.00641744 7.75893 0.0644532 7.88951 0.151507 7.97656L6.91267 14.7377C6.99972 14.8248 7.1303 14.8828 7.24637 14.8828C7.36244 14.8828 7.49302 14.8248 7.58008 14.7377L8.30552 14.0123C8.39258 13.9252 8.45061 13.7946 8.45061 13.6786C8.45061 13.5625 8.39258 13.4319 8.30552 13.3449L2.60352 7.64286L8.30552 1.94085C8.39258 1.85379 8.45061 1.72321 8.45061 1.60714Z" fill="#CCDEFF"/>
</svg>
