<svg width="21" height="14" viewBox="0 0 21 14" fill="none" xmlns="http://www.w3.org/2000/svg">
<path d="M19.5279 7.90809H1.6789C1.13674 7.90809 0.697266 7.46861 0.697266 6.92646C0.697266 6.3843 1.13674 5.94482 1.6789 5.94482H19.5279C20.0701 5.94482 20.5096 6.3843 20.5096 6.92646C20.5096 7.46861 20.0701 7.90809 19.5279 7.90809Z" fill="#CCDEFF"/>
<path d="M14.2783 13.1578C13.7362 13.1588 13.2959 12.7201 13.2949 12.1779C13.2944 11.917 13.3979 11.6667 13.5823 11.4822L18.1391 6.92639L13.5823 2.37063C13.2057 1.98073 13.2165 1.35925 13.6064 0.9826C13.9868 0.615175 14.5899 0.615175 14.9704 0.9826L20.2202 6.23238C20.6034 6.6157 20.6034 7.23708 20.2202 7.62041L14.9704 12.8702C14.7868 13.0538 14.538 13.1573 14.2783 13.1578Z" fill="#CCDEFF"/>
</svg>
