<svg width="9" height="15" viewBox="0 0 9 15" fill="none" xmlns="http://www.w3.org/2000/svg">
<path d="M8.98633 7.64286C8.98633 7.52679 8.92829 7.39621 8.84124 7.30915L2.08008 0.54799C1.99302 0.460938 1.86244 0.4029 1.74637 0.4029C1.6303 0.4029 1.49972 0.460938 1.41267 0.54799L0.687221 1.27344C0.600167 1.36049 0.542132 1.49107 0.542132 1.60714C0.542132 1.72321 0.600167 1.85379 0.687221 1.94085L6.38923 7.64286L0.687221 13.3449C0.600167 13.4319 0.542132 13.5625 0.542132 13.6786C0.542132 13.8092 0.600167 13.9252 0.687221 14.0123L1.41267 14.7377C1.49972 14.8248 1.6303 14.8828 1.74637 14.8828C1.86244 14.8828 1.99302 14.8248 2.08008 14.7377L8.84124 7.97656C8.92829 7.88951 8.98633 7.75893 8.98633 7.64286Z" fill="#CCDEFF"/>
</svg>
