<svg width="20" height="20" viewBox="0 0 20 20" fill="none" xmlns="http://www.w3.org/2000/svg">
<mask id="mask0_1_12735" style="mask-type:alpha" maskUnits="userSpaceOnUse" x="0" y="0" width="20" height="20">
<rect width="20" height="20" fill="#D9D9D9"/>
</mask>
<g mask="url(#mask0_1_12735)">
<path d="M1.66406 18.3337V3.33366C1.66406 2.87533 1.8274 2.48283 2.15406 2.15616C2.48017 1.83005 2.8724 1.66699 3.33073 1.66699H16.6641C17.1224 1.66699 17.5149 1.83005 17.8416 2.15616C18.1677 2.48283 18.3307 2.87533 18.3307 3.33366V13.3337C18.3307 13.792 18.1677 14.1845 17.8416 14.5112C17.5149 14.8373 17.1224 15.0003 16.6641 15.0003H4.9974L1.66406 18.3337ZM3.33073 14.3128L4.3099 13.3337H16.6641V3.33366H3.33073V14.3128Z" fill="#CCFF00"/>
</g>
</svg>
