<svg width="25" height="25" viewBox="0 0 25 25" fill="none" xmlns="http://www.w3.org/2000/svg">
<path fill-rule="evenodd" clip-rule="evenodd" d="M10.4193 3.646C6.68281 3.646 3.64844 6.68037 3.64844 10.4168C3.64844 14.1533 6.68281 17.1877 10.4193 17.1877C14.1557 17.1877 17.1901 14.1533 17.1901 10.4168C17.1901 6.68037 14.1557 3.646 10.4193 3.646ZM10.4193 4.68766C13.5818 4.68766 16.1484 7.25433 16.1484 10.4168C16.1484 13.5793 13.5818 16.146 10.4193 16.146C7.25677 16.146 4.6901 13.5793 4.6901 10.4168C4.6901 7.25433 7.25677 4.68766 10.4193 4.68766Z" fill="black"/>
<path fill-rule="evenodd" clip-rule="evenodd" d="M21.2042 20.4647L15.2052 14.4668C15.0021 14.2637 14.6719 14.2637 14.4687 14.4668C14.2656 14.6699 14.2656 15.0001 14.4687 15.2033L20.4667 21.2022C20.6708 21.4053 21 21.4053 21.2042 21.2022C21.4073 20.998 21.4073 20.6689 21.2042 20.4647Z" fill="black"/>
</svg>
