<svg width="13" height="13" viewBox="0 0 13 13" fill="none" xmlns="http://www.w3.org/2000/svg">
<path d="M10.875 2.125H10.25V0.875C10.25 0.70924 10.1842 0.550269 10.0669 0.433058C9.94973 0.315848 9.79076 0.25 9.625 0.25C9.45924 0.25 9.30027 0.315848 9.18306 0.433058C9.06585 0.550269 9 0.70924 9 0.875V2.125H4V0.875C4 0.70924 3.93415 0.550269 3.81694 0.433058C3.69973 0.315848 3.54076 0.25 3.375 0.25C3.20924 0.25 3.05027 0.315848 2.93306 0.433058C2.81585 0.550269 2.75 0.70924 2.75 0.875V2.125H2.125C1.62772 2.125 1.15081 2.32254 0.799175 2.67418C0.447544 3.02581 0.25 3.50272 0.25 4V4.625H12.75V4C12.75 3.50272 12.5525 3.02581 12.2008 2.67418C11.8492 2.32254 11.3723 2.125 10.875 2.125Z" fill="#CCFF00"/>
<path d="M0.25 10.875C0.25 11.3723 0.447544 11.8492 0.799175 12.2008C1.15081 12.5525 1.62772 12.75 2.125 12.75H10.875C11.3723 12.75 11.8492 12.5525 12.2008 12.2008C12.5525 11.8492 12.75 11.3723 12.75 10.875V5.875H0.25V10.875Z" fill="#CCFF00"/>
</svg>
