<svg width="22" height="26" viewBox="0 0 22 26" fill="none" xmlns="http://www.w3.org/2000/svg">
<path d="M20.3456 9.79627L5.30195 0.52306C4.21357 -0.146991 2.8977 -0.17485 1.78191 0.448538C0.666121 1.07183 0 2.20712 0 3.48519V21.9471C0 23.8796 1.5571 25.4603 3.47089 25.4707C3.47612 25.4707 3.48134 25.4708 3.48646 25.4708C4.08453 25.4707 4.70777 25.2833 5.28986 24.9281C5.75814 24.6424 5.90614 24.0312 5.62044 23.5629C5.33474 23.0946 4.72344 22.9467 4.25531 23.2324C3.98304 23.3984 3.71714 23.4843 3.48159 23.4843C2.7595 23.4804 1.98637 22.8618 1.98637 21.9472V3.48524C1.98637 2.93697 2.27212 2.45009 2.7507 2.18269C3.22932 1.9153 3.7937 1.92724 4.25999 2.21433L19.3037 11.4875C19.7559 11.7659 20.0146 12.2301 20.0135 12.7611C20.0124 13.2921 19.7518 13.7552 19.2972 14.0327L8.42048 20.6923C7.95266 20.9788 7.8056 21.5902 8.09205 22.058C8.37845 22.5258 8.98989 22.6729 9.45772 22.3864L20.3331 15.7276C21.3744 15.0924 21.9975 13.985 22 12.7651C22.0025 11.5454 21.3838 10.4354 20.3456 9.79627Z" fill="black"/>
</svg>
